<?xml version="1.0" encoding="utf-8" ?>
<svg baseProfile="full" height="1113" version="1.1" width="1615" xmlns="http://www.w3.org/2000/svg" xmlns:ev="http://www.w3.org/2001/xml-events" xmlns:xlink="http://www.w3.org/1999/xlink"><defs /><rect fill="rgb(73,109,137)" fill-opacity="1" height="1113" width="1615" x="0" y="0" /><line fill="none" stroke="rgb(255,255,0)" stroke-width="2" x1="1284.032258064516" x2="1233.8709677419354" y1="1083.0" y2="1083.0" /><circle cx="1284.032258064516" cy="1083.0" fill="rgb(0,255,0)" r="2" /><circle cx="1233.8709677419354" cy="1083.0" fill="rgb(0,255,0)" r="2" /><line fill="none" stroke="rgb(255,255,0)" stroke-width="1" x1="1258.9516129032259" x2="1258.9516129032259" y1="1083.0" y2="1078.0" /><line fill="none" stroke="rgb(255,255,0)" stroke-width="2" x1="1233.8709677419354" x2="1233.8709677419354" y1="1083.0" y2="1032.857142857143" /><circle cx="1233.8709677419354" cy="1083.0" fill="rgb(0,255,0)" r="2" /><circle cx="1233.8709677419354" cy="1032.857142857143" fill="rgb(0,255,0)" r="2" /><line fill="none" stroke="rgb(255,255,0)" stroke-width="1" x1="1233.8709677419354" x2="1238.8709677419354" y1="1057.9285714285716" y2="1057.9285714285716" /><line fill="none" stroke="rgb(255,255,0)" stroke-width="2" x1="1233.8709677419354" x2="1233.8709677419354" y1="1032.857142857143" y2="982.7142857142858" /><circle cx="1233.8709677419354" cy="1032.857142857143" fill="rgb(0,255,0)" r="2" /><circle cx="1233.8709677419354" cy="982.7142857142858" fill="rgb(0,255,0)" r="2" /><line fill="none" stroke="rgb(255,255,0)" stroke-width="1" x1="1233.8709677419354" x2="1238.8709677419354" y1="1007.7857142857143" y2="1007.7857142857143" /><line fill="none" stroke="rgb(255,255,0)" stroke-width="2" x1="1233.8709677419354" x2="1233.8709677419354" y1="982.7142857142858" y2="932.5714285714286" /><circle cx="1233.8709677419354" cy="982.7142857142858" fill="rgb(0,255,0)" r="2" /><circle cx="1233.8709677419354" cy="932.5714285714286" fill="rgb(0,255,0)" r="2" /><line fill="none" stroke="rgb(255,255,0)" stroke-width="1" x1="1233.8709677419354" x2="1238.8709677419354" y1="957.6428571428571" y2="957.6428571428571" /><line fill="none" stroke="rgb(255,255,0)" stroke-width="2" x1="1233.8709677419354" x2="1233.8709677419354" y1="932.5714285714286" y2="882.4285714285714" /><circle cx="1233.8709677419354" cy="932.5714285714286" fill="rgb(0,255,0)" r="2" /><circle cx="1233.8709677419354" cy="882.4285714285714" fill="rgb(0,255,0)" r="2" /><line fill="none" stroke="rgb(255,255,0)" stroke-width="1" x1="1233.8709677419354" x2="1238.8709677419354" y1="907.5" y2="907.5" /><line fill="none" stroke="rgb(255,255,0)" stroke-width="2" x1="1233.8709677419354" x2="1133.5483870967741" y1="882.4285714285714" y2="882.4285714285714" /><circle cx="1233.8709677419354" cy="882.4285714285714" fill="rgb(0,255,0)" r="2" /><circle cx="1133.5483870967741" cy="882.4285714285714" fill="rgb(0,255,0)" r="2" /><line fill="none" stroke="rgb(255,255,0)" stroke-width="1" x1="1183.7096774193546" x2="1183.7096774193546" y1="882.4285714285714" y2="877.4285714285714" /><line fill="none" stroke="rgb(255,255,0)" stroke-width="2" x1="1133.5483870967741" x2="1133.5483870967741" y1="882.4285714285714" y2="782.1428571428571" /><circle cx="1133.5483870967741" cy="882.4285714285714" fill="rgb(0,255,0)" r="2" /><circle cx="1133.5483870967741" cy="782.1428571428571" fill="rgb(0,255,0)" r="2" /><line fill="none" stroke="rgb(255,255,0)" stroke-width="1" x1="1133.5483870967741" x2="1138.5483870967741" y1="832.2857142857142" y2="832.2857142857142" /><line fill="none" stroke="rgb(255,255,0)" stroke-width="2" x1="1133.5483870967741" x2="1083.3870967741934" y1="782.1428571428571" y2="782.1428571428571" /><circle cx="1133.5483870967741" cy="782.1428571428571" fill="rgb(0,255,0)" r="2" /><circle cx="1083.3870967741934" cy="782.1428571428571" fill="rgb(0,255,0)" r="2" /><line fill="none" stroke="rgb(255,255,0)" stroke-width="1" x1="1108.467741935484" x2="1108.467741935484" y1="782.1428571428571" y2="777.1428571428571" /><line fill="none" stroke="rgb(255,255,0)" stroke-width="2" x1="1083.3870967741934" x2="1083.3870967741934" y1="782.1428571428571" y2="882.4285714285714" /><circle cx="1083.3870967741934" cy="782.1428571428571" fill="rgb(0,255,0)" r="2" /><circle cx="1083.3870967741934" cy="882.4285714285714" fill="rgb(0,255,0)" r="2" /><line fill="none" stroke="rgb(255,255,0)" stroke-width="1" x1="1083.3870967741934" x2="1078.3870967741934" y1="832.2857142857142" y2="832.2857142857142" /><line fill="none" stroke="rgb(255,255,0)" stroke-width="2" x1="1083.3870967741934" x2="1035.6138561617945" y1="882.4285714285714" y2="882.4285714285714" /><circle cx="1083.3870967741934" cy="882.4285714285714" fill="rgb(0,255,0)" r="2" /><circle cx="1035.6138561617945" cy="882.4285714285714" fill="rgb(0,255,0)" r="2" /><line fill="none" stroke="rgb(255,255,0)" stroke-width="1" x1="1059.5004764679938" x2="1059.5004764679938" y1="882.4285714285714" y2="877.4285714285714" /><line fill="none" stroke="rgb(255,255,0)" stroke-width="2" x1="1030.8377567414316" x2="983.0645161290323" y1="882.4285714285714" y2="882.4285714285714" /><circle cx="1030.8377567414316" cy="882.4285714285714" fill="rgb(0,255,0)" r="2" /><circle cx="983.0645161290323" cy="882.4285714285714" fill="rgb(0,255,0)" r="2" /><line fill="none" stroke="rgb(255,255,0)" stroke-width="1" x1="1006.951136435232" x2="1006.951136435232" y1="882.4285714285714" y2="877.4285714285714" /><line fill="none" stroke="rgb(255,255,0)" stroke-width="2" x1="983.0645161290323" x2="983.0645161290323" y1="882.4285714285714" y2="706.9285714285714" /><circle cx="983.0645161290323" cy="882.4285714285714" fill="rgb(0,255,0)" r="2" /><circle cx="983.0645161290323" cy="706.9285714285714" fill="rgb(0,255,0)" r="2" /><line fill="none" stroke="rgb(255,255,0)" stroke-width="1" x1="983.0645161290323" x2="988.0645161290323" y1="794.6785714285714" y2="794.6785714285714" /><line fill="none" stroke="rgb(10,99,207)" stroke-width="2" x1="983.0645161290323" x2="983.0645161290323" y1="706.9285714285714" y2="681.8571428571429" /><circle cx="983.0645161290323" cy="706.9285714285714" fill="rgb(0,255,0)" r="2" /><circle cx="983.0645161290323" cy="681.8571428571429" fill="rgb(0,255,0)" r="2" /><line fill="none" stroke="rgb(10,99,207)" stroke-width="1" x1="983.0645161290323" x2="988.0645161290323" y1="694.3928571428571" y2="694.3928571428571" /><line fill="none" stroke="rgb(10,99,207)" stroke-width="2" x1="983.0645161290323" x2="1083.3870967741934" y1="681.8571428571429" y2="681.8571428571429" /><circle cx="983.0645161290323" cy="681.8571428571429" fill="rgb(0,255,0)" r="2" /><circle cx="1083.3870967741934" cy="681.8571428571429" fill="rgb(0,255,0)" r="2" /><line fill="none" stroke="rgb(10,99,207)" stroke-width="1" x1="1033.225806451613" x2="1033.225806451613" y1="681.8571428571429" y2="686.8571428571429" /><line fill="none" stroke="rgb(10,99,207)" stroke-width="2" x1="1083.3870967741934" x2="1083.3870967741934" y1="681.8571428571429" y2="706.9285714285714" /><circle cx="1083.3870967741934" cy="681.8571428571429" fill="rgb(0,255,0)" r="2" /><circle cx="1083.3870967741934" cy="706.9285714285714" fill="rgb(0,255,0)" r="2" /><line fill="none" stroke="rgb(10,99,207)" stroke-width="1" x1="1083.3870967741934" x2="1078.3870967741934" y1="694.3928571428571" y2="694.3928571428571" /><line fill="none" stroke="rgb(255,255,0)" stroke-width="2" x1="1083.3870967741934" x2="1083.3870967741934" y1="706.9285714285714" y2="732.0" /><circle cx="1083.3870967741934" cy="706.9285714285714" fill="rgb(0,255,0)" r="2" /><circle cx="1083.3870967741934" cy="732.0" fill="rgb(0,255,0)" r="2" /><line fill="none" stroke="rgb(255,255,0)" stroke-width="1" x1="1083.3870967741934" x2="1078.3870967741934" y1="719.4642857142858" y2="719.4642857142858" /><line fill="none" stroke="rgb(255,255,0)" stroke-width="2" x1="1083.3870967741934" x2="1133.5483870967741" y1="732.0" y2="732.0" /><circle cx="1083.3870967741934" cy="732.0" fill="rgb(0,255,0)" r="2" /><circle cx="1133.5483870967741" cy="732.0" fill="rgb(0,255,0)" r="2" /><line fill="none" stroke="rgb(255,255,0)" stroke-width="1" x1="1108.467741935484" x2="1108.467741935484" y1="732.0" y2="737.0" /><line fill="none" stroke="rgb(255,255,0)" stroke-width="2" x1="1133.5483870967741" x2="1133.5483870967741" y1="732.0" y2="681.8571428571429" /><circle cx="1133.5483870967741" cy="732.0" fill="rgb(0,255,0)" r="2" /><circle cx="1133.5483870967741" cy="681.8571428571429" fill="rgb(0,255,0)" r="2" /><line fill="none" stroke="rgb(255,255,0)" stroke-width="1" x1="1133.5483870967741" x2="1138.5483870967741" y1="706.9285714285714" y2="706.9285714285714" /><line fill="none" stroke="rgb(255,255,0)" stroke-width="2" x1="1133.5483870967741" x2="1133.5483870967741" y1="681.8571428571429" y2="631.7142857142858" /><circle cx="1133.5483870967741" cy="681.8571428571429" fill="rgb(0,255,0)" r="2" /><circle cx="1133.5483870967741" cy="631.7142857142858" fill="rgb(0,255,0)" r="2" /><line fill="none" stroke="rgb(255,255,0)" stroke-width="1" x1="1133.5483870967741" x2="1138.5483870967741" y1="656.7857142857143" y2="656.7857142857143" /><line fill="none" stroke="rgb(255,255,0)" stroke-width="2" x1="1133.5483870967741" x2="1083.3870967741934" y1="631.7142857142858" y2="631.7142857142858" /><circle cx="1133.5483870967741" cy="631.7142857142858" fill="rgb(0,255,0)" r="2" /><circle cx="1083.3870967741934" cy="631.7142857142858" fill="rgb(0,255,0)" r="2" /><line fill="none" stroke="rgb(255,255,0)" stroke-width="1" x1="1108.467741935484" x2="1108.467741935484" y1="631.7142857142858" y2="626.7142857142858" /><line fill="none" stroke="rgb(255,255,0)" stroke-width="2" x1="1083.3870967741934" x2="1033.225806451613" y1="631.7142857142858" y2="631.7142857142858" /><circle cx="1083.3870967741934" cy="631.7142857142858" fill="rgb(0,255,0)" r="2" /><circle cx="1033.225806451613" cy="631.7142857142858" fill="rgb(0,255,0)" r="2" /><line fill="none" stroke="rgb(255,255,0)" stroke-width="1" x1="1058.3064516129032" x2="1058.3064516129032" y1="631.7142857142858" y2="626.7142857142858" /><line fill="none" stroke="rgb(255,255,0)" stroke-width="2" x1="1033.225806451613" x2="983.0645161290323" y1="631.7142857142858" y2="631.7142857142858" /><circle cx="1033.225806451613" cy="631.7142857142858" fill="rgb(0,255,0)" r="2" /><circle cx="983.0645161290323" cy="631.7142857142858" fill="rgb(0,255,0)" r="2" /><line fill="none" stroke="rgb(255,255,0)" stroke-width="1" x1="1008.1451612903227" x2="1008.1451612903227" y1="631.7142857142858" y2="626.7142857142858" /><line fill="none" stroke="rgb(255,255,0)" stroke-width="2" x1="983.0645161290323" x2="932.9032258064517" y1="631.7142857142858" y2="631.7142857142858" /><circle cx="983.0645161290323" cy="631.7142857142858" fill="rgb(0,255,0)" r="2" /><circle cx="932.9032258064517" cy="631.7142857142858" fill="rgb(0,255,0)" r="2" /><line fill="none" stroke="rgb(255,255,0)" stroke-width="1" x1="957.983870967742" x2="957.983870967742" y1="631.7142857142858" y2="626.7142857142858" /><line fill="none" stroke="rgb(255,255,0)" stroke-width="2" x1="932.9032258064517" x2="882.7419354838709" y1="631.7142857142858" y2="631.7142857142858" /><circle cx="932.9032258064517" cy="631.7142857142858" fill="rgb(0,255,0)" r="2" /><circle cx="882.7419354838709" cy="631.7142857142858" fill="rgb(0,255,0)" r="2" /><line fill="none" stroke="rgb(255,255,0)" stroke-width="1" x1="907.8225806451612" x2="907.8225806451612" y1="631.7142857142858" y2="626.7142857142858" /><line fill="none" stroke="rgb(255,255,0)" stroke-width="2" x1="882.7419354838709" x2="882.7419354838709" y1="631.7142857142858" y2="681.8571428571429" /><circle cx="882.7419354838709" cy="631.7142857142858" fill="rgb(0,255,0)" r="2" /><circle cx="882.7419354838709" cy="681.8571428571429" fill="rgb(0,255,0)" r="2" /><line fill="none" stroke="rgb(255,255,0)" stroke-width="1" x1="882.7419354838709" x2="877.7419354838709" y1="656.7857142857143" y2="656.7857142857143" /><line fill="none" stroke="rgb(255,255,0)" stroke-width="2" x1="882.7419354838709" x2="882.7419354838709" y1="681.8571428571429" y2="732.0" /><circle cx="882.7419354838709" cy="681.8571428571429" fill="rgb(0,255,0)" r="2" /><circle cx="882.7419354838709" cy="732.0" fill="rgb(0,255,0)" r="2" /><line fill="none" stroke="rgb(255,255,0)" stroke-width="1" x1="882.7419354838709" x2="877.7419354838709" y1="706.9285714285714" y2="706.9285714285714" /><line fill="none" stroke="rgb(255,255,0)" stroke-width="2" x1="882.7419354838709" x2="832.5806451612902" y1="732.0" y2="732.0" /><circle cx="882.7419354838709" cy="732.0" fill="rgb(0,255,0)" r="2" /><circle cx="832.5806451612902" cy="732.0" fill="rgb(0,255,0)" r="2" /><line fill="none" stroke="rgb(255,255,0)" stroke-width="1" x1="857.6612903225805" x2="857.6612903225805" y1="732.0" y2="727.0" /><line fill="none" stroke="rgb(255,255,0)" stroke-width="2" x1="832.5806451612902" x2="782.4193548387098" y1="732.0" y2="732.0" /><circle cx="832.5806451612902" cy="732.0" fill="rgb(0,255,0)" r="2" /><circle cx="782.4193548387098" cy="732.0" fill="rgb(0,255,0)" r="2" /><line fill="none" stroke="rgb(255,255,0)" stroke-width="1" x1="807.5" x2="807.5" y1="732.0" y2="727.0" /><line fill="none" stroke="rgb(255,255,0)" stroke-width="2" x1="782.4193548387098" x2="732.258064516129" y1="732.0" y2="732.0" /><circle cx="782.4193548387098" cy="732.0" fill="rgb(0,255,0)" r="2" /><circle cx="732.258064516129" cy="732.0" fill="rgb(0,255,0)" r="2" /><line fill="none" stroke="rgb(255,255,0)" stroke-width="1" x1="757.3387096774194" x2="757.3387096774194" y1="732.0" y2="727.0" /><line fill="none" stroke="rgb(255,255,0)" stroke-width="2" x1="732.258064516129" x2="682.0967741935484" y1="732.0" y2="732.0" /><circle cx="732.258064516129" cy="732.0" fill="rgb(0,255,0)" r="2" /><circle cx="682.0967741935484" cy="732.0" fill="rgb(0,255,0)" r="2" /><line fill="none" stroke="rgb(255,255,0)" stroke-width="1" x1="707.1774193548388" x2="707.1774193548388" y1="732.0" y2="727.0" /><line fill="none" stroke="rgb(255,255,0)" stroke-width="2" x1="682.0967741935484" x2="581.7741935483871" y1="732.0" y2="732.0" /><circle cx="682.0967741935484" cy="732.0" fill="rgb(0,255,0)" r="2" /><circle cx="581.7741935483871" cy="732.0" fill="rgb(0,255,0)" r="2" /><line fill="none" stroke="rgb(255,255,0)" stroke-width="1" x1="631.9354838709678" x2="631.9354838709678" y1="732.0" y2="727.0" /><line fill="none" stroke="rgb(255,255,0)" stroke-width="2" x1="581.7741935483871" x2="581.7741935483871" y1="732.0" y2="681.8571428571429" /><circle cx="581.7741935483871" cy="732.0" fill="rgb(0,255,0)" r="2" /><circle cx="581.7741935483871" cy="681.8571428571429" fill="rgb(0,255,0)" r="2" /><line fill="none" stroke="rgb(255,255,0)" stroke-width="1" x1="581.7741935483871" x2="586.7741935483871" y1="706.9285714285714" y2="706.9285714285714" /><line fill="none" stroke="rgb(255,255,0)" stroke-width="2" x1="581.7741935483871" x2="581.7741935483871" y1="681.8571428571429" y2="631.7142857142858" /><circle cx="581.7741935483871" cy="681.8571428571429" fill="rgb(0,255,0)" r="2" /><circle cx="581.7741935483871" cy="631.7142857142858" fill="rgb(0,255,0)" r="2" /><line fill="none" stroke="rgb(255,255,0)" stroke-width="1" x1="581.7741935483871" x2="586.7741935483871" y1="656.7857142857143" y2="656.7857142857143" /><line fill="none" stroke="rgb(255,255,0)" stroke-width="2" x1="581.7741935483871" x2="531.6129032258065" y1="631.7142857142858" y2="631.7142857142858" /><circle cx="581.7741935483871" cy="631.7142857142858" fill="rgb(0,255,0)" r="2" /><circle cx="531.6129032258065" cy="631.7142857142858" fill="rgb(0,255,0)" r="2" /><line fill="none" stroke="rgb(255,255,0)" stroke-width="1" x1="556.6935483870968" x2="556.6935483870968" y1="631.7142857142858" y2="626.7142857142858" /><line fill="none" stroke="rgb(255,255,0)" stroke-width="2" x1="531.6129032258065" x2="481.45161290322585" y1="631.7142857142858" y2="631.7142857142858" /><circle cx="531.6129032258065" cy="631.7142857142858" fill="rgb(0,255,0)" r="2" /><circle cx="481.45161290322585" cy="631.7142857142858" fill="rgb(0,255,0)" r="2" /><line fill="none" stroke="rgb(255,255,0)" stroke-width="1" x1="506.53225806451616" x2="506.53225806451616" y1="631.7142857142858" y2="626.7142857142858" /><line fill="none" stroke="rgb(255,255,0)" stroke-width="2" x1="481.45161290322585" x2="431.2903225806451" y1="631.7142857142858" y2="631.7142857142858" /><circle cx="481.45161290322585" cy="631.7142857142858" fill="rgb(0,255,0)" r="2" /><circle cx="431.2903225806451" cy="631.7142857142858" fill="rgb(0,255,0)" r="2" /><line fill="none" stroke="rgb(255,255,0)" stroke-width="1" x1="456.3709677419355" x2="456.3709677419355" y1="631.7142857142858" y2="626.7142857142858" /><line fill="none" stroke="rgb(255,255,0)" stroke-width="2" x1="431.2903225806451" x2="381.1290322580645" y1="631.7142857142858" y2="631.7142857142858" /><circle cx="431.2903225806451" cy="631.7142857142858" fill="rgb(0,255,0)" r="2" /><circle cx="381.1290322580645" cy="631.7142857142858" fill="rgb(0,255,0)" r="2" /><line fill="none" stroke="rgb(255,255,0)" stroke-width="1" x1="406.2096774193548" x2="406.2096774193548" y1="631.7142857142858" y2="626.7142857142858" /><line fill="none" stroke="rgb(255,255,0)" stroke-width="2" x1="381.1290322580645" x2="330.96774193548384" y1="631.7142857142858" y2="631.7142857142858" /><circle cx="381.1290322580645" cy="631.7142857142858" fill="rgb(0,255,0)" r="2" /><circle cx="330.96774193548384" cy="631.7142857142858" fill="rgb(0,255,0)" r="2" /><line fill="none" stroke="rgb(255,255,0)" stroke-width="1" x1="356.04838709677415" x2="356.04838709677415" y1="631.7142857142858" y2="626.7142857142858" /><line fill="none" stroke="rgb(255,255,0)" stroke-width="2" x1="330.96774193548384" x2="330.96774193548384" y1="631.7142857142858" y2="681.8571428571429" /><circle cx="330.96774193548384" cy="631.7142857142858" fill="rgb(0,255,0)" r="2" /><circle cx="330.96774193548384" cy="681.8571428571429" fill="rgb(0,255,0)" r="2" /><line fill="none" stroke="rgb(255,255,0)" stroke-width="1" x1="330.96774193548384" x2="325.96774193548384" y1="656.7857142857143" y2="656.7857142857143" /><line fill="none" stroke="rgb(255,255,0)" stroke-width="2" x1="330.96774193548384" x2="280.80645161290323" y1="681.8571428571429" y2="681.8571428571429" /><circle cx="330.96774193548384" cy="681.8571428571429" fill="rgb(0,255,0)" r="2" /><circle cx="280.80645161290323" cy="681.8571428571429" fill="rgb(0,255,0)" r="2" /><line fill="none" stroke="rgb(255,255,0)" stroke-width="1" x1="305.88709677419354" x2="305.88709677419354" y1="681.8571428571429" y2="676.8571428571429" /><line fill="none" stroke="rgb(255,255,0)" stroke-width="2" x1="280.80645161290323" x2="230.64516129032256" y1="681.8571428571429" y2="681.8571428571429" /><circle cx="280.80645161290323" cy="681.8571428571429" fill="rgb(0,255,0)" r="2" /><circle cx="230.64516129032256" cy="681.8571428571429" fill="rgb(0,255,0)" r="2" /><line fill="none" stroke="rgb(255,255,0)" stroke-width="1" x1="255.7258064516129" x2="255.7258064516129" y1="681.8571428571429" y2="676.8571428571429" /><line fill="none" stroke="rgb(255,255,0)" stroke-width="2" x1="230.64516129032256" x2="80.16129032258064" y1="681.8571428571429" y2="681.8571428571429" /><circle cx="230.64516129032256" cy="681.8571428571429" fill="rgb(0,255,0)" r="2" /><circle cx="80.16129032258064" cy="681.8571428571429" fill="rgb(0,255,0)" r="2" /><line fill="none" stroke="rgb(255,255,0)" stroke-width="1" x1="155.4032258064516" x2="155.4032258064516" y1="681.8571428571429" y2="676.8571428571429" /><line fill="none" stroke="rgb(255,255,0)" stroke-width="2" x1="80.16129032258064" x2="80.16129032258064" y1="681.8571428571429" y2="631.7142857142858" /><circle cx="80.16129032258064" cy="681.8571428571429" fill="rgb(0,255,0)" r="2" /><circle cx="80.16129032258064" cy="631.7142857142858" fill="rgb(0,255,0)" r="2" /><line fill="none" stroke="rgb(255,255,0)" stroke-width="1" x1="80.16129032258064" x2="85.16129032258064" y1="656.7857142857143" y2="656.7857142857143" /><line fill="none" stroke="rgb(255,255,0)" stroke-width="2" x1="80.16129032258064" x2="58.635165306829634" y1="631.7142857142858" y2="631.7142857142858" /><circle cx="80.16129032258064" cy="631.7142857142858" fill="rgb(0,255,0)" r="2" /><circle cx="58.635165306829634" cy="631.7142857142858" fill="rgb(0,255,0)" r="2" /><line fill="none" stroke="rgb(255,255,0)" stroke-width="1" x1="69.39822781470514" x2="69.39822781470514" y1="631.7142857142858" y2="626.7142857142858" /><line fill="none" stroke="rgb(255,255,0)" stroke-width="2" x1="51.526125015751006" x2="30.0" y1="631.7142857142858" y2="631.7142857142858" /><circle cx="51.526125015751006" cy="631.7142857142858" fill="rgb(0,255,0)" r="2" /><circle cx="30.0" cy="631.7142857142858" fill="rgb(0,255,0)" r="2" /><line fill="none" stroke="rgb(255,255,0)" stroke-width="1" x1="40.7630625078755" x2="40.7630625078755" y1="631.7142857142858" y2="626.7142857142858" /><line fill="none" stroke="rgb(255,255,0)" stroke-width="2" x1="30.0" x2="30.0" y1="631.7142857142858" y2="581.5714285714287" /><circle cx="30.0" cy="631.7142857142858" fill="rgb(0,255,0)" r="2" /><circle cx="30.0" cy="581.5714285714287" fill="rgb(0,255,0)" r="2" /><line fill="none" stroke="rgb(255,255,0)" stroke-width="1" x1="30.0" x2="35.0" y1="606.6428571428572" y2="606.6428571428572" /><line fill="none" stroke="rgb(255,255,0)" stroke-width="2" x1="30.0" x2="51.526125015751006" y1="581.5714285714287" y2="581.5714285714287" /><circle cx="30.0" cy="581.5714285714287" fill="rgb(0,255,0)" r="2" /><circle cx="51.526125015751006" cy="581.5714285714287" fill="rgb(0,255,0)" r="2" /><line fill="none" stroke="rgb(255,255,0)" stroke-width="1" x1="40.7630625078755" x2="40.7630625078755" y1="581.5714285714287" y2="586.5714285714287" /><line fill="none" stroke="rgb(255,255,0)" stroke-width="2" x1="58.635165306829634" x2="80.16129032258064" y1="581.5714285714287" y2="581.5714285714287" /><circle cx="58.635165306829634" cy="581.5714285714287" fill="rgb(0,255,0)" r="2" /><circle cx="80.16129032258064" cy="581.5714285714287" fill="rgb(0,255,0)" r="2" /><line fill="none" stroke="rgb(255,255,0)" stroke-width="1" x1="69.39822781470514" x2="69.39822781470514" y1="581.5714285714287" y2="586.5714285714287" /><line fill="none" stroke="rgb(255,255,0)" stroke-width="2" x1="80.16129032258064" x2="80.16129032258064" y1="581.5714285714287" y2="531.4285714285714" /><circle cx="80.16129032258064" cy="581.5714285714287" fill="rgb(0,255,0)" r="2" /><circle cx="80.16129032258064" cy="531.4285714285714" fill="rgb(0,255,0)" r="2" /><line fill="none" stroke="rgb(255,255,0)" stroke-width="1" x1="80.16129032258064" x2="85.16129032258064" y1="556.5" y2="556.5" /><line fill="none" stroke="rgb(255,255,0)" stroke-width="2" x1="80.16129032258064" x2="130.32258064516128" y1="531.4285714285714" y2="531.4285714285714" /><circle cx="80.16129032258064" cy="531.4285714285714" fill="rgb(0,255,0)" r="2" /><circle cx="130.32258064516128" cy="531.4285714285714" fill="rgb(0,255,0)" r="2" /><line fill="none" stroke="rgb(255,255,0)" stroke-width="1" x1="105.24193548387096" x2="105.24193548387096" y1="531.4285714285714" y2="536.4285714285714" /><line fill="none" stroke="rgb(255,255,0)" stroke-width="2" x1="130.32258064516128" x2="180.48387096774192" y1="531.4285714285714" y2="531.4285714285714" /><circle cx="130.32258064516128" cy="531.4285714285714" fill="rgb(0,255,0)" r="2" /><circle cx="180.48387096774192" cy="531.4285714285714" fill="rgb(0,255,0)" r="2" /><line fill="none" stroke="rgb(255,255,0)" stroke-width="1" x1="155.4032258064516" x2="155.4032258064516" y1="531.4285714285714" y2="536.4285714285714" /><line fill="none" stroke="rgb(255,255,0)" stroke-width="2" x1="180.48387096774192" x2="330.96774193548384" y1="531.4285714285714" y2="531.4285714285714" /><circle cx="180.48387096774192" cy="531.4285714285714" fill="rgb(0,255,0)" r="2" /><circle cx="330.96774193548384" cy="531.4285714285714" fill="rgb(0,255,0)" r="2" /><line fill="none" stroke="rgb(255,255,0)" stroke-width="1" x1="255.72580645161287" x2="255.72580645161287" y1="531.4285714285714" y2="536.4285714285714" /><line fill="none" stroke="rgb(255,255,0)" stroke-width="2" x1="330.96774193548384" x2="330.96774193548384" y1="531.4285714285714" y2="581.5714285714287" /><circle cx="330.96774193548384" cy="531.4285714285714" fill="rgb(0,255,0)" r="2" /><circle cx="330.96774193548384" cy="581.5714285714287" fill="rgb(0,255,0)" r="2" /><line fill="none" stroke="rgb(255,255,0)" stroke-width="1" x1="330.96774193548384" x2="325.96774193548384" y1="556.5" y2="556.5" /><line fill="none" stroke="rgb(255,255,0)" stroke-width="2" x1="330.96774193548384" x2="381.1290322580645" y1="581.5714285714287" y2="581.5714285714287" /><circle cx="330.96774193548384" cy="581.5714285714287" fill="rgb(0,255,0)" r="2" /><circle cx="381.1290322580645" cy="581.5714285714287" fill="rgb(0,255,0)" r="2" /><line fill="none" stroke="rgb(255,255,0)" stroke-width="1" x1="356.04838709677415" x2="356.04838709677415" y1="581.5714285714287" y2="586.5714285714287" /><line fill="none" stroke="rgb(255,255,0)" stroke-width="2" x1="381.1290322580645" x2="431.2903225806451" y1="581.5714285714287" y2="581.5714285714287" /><circle cx="381.1290322580645" cy="581.5714285714287" fill="rgb(0,255,0)" r="2" /><circle cx="431.2903225806451" cy="581.5714285714287" fill="rgb(0,255,0)" r="2" /><line fill="none" stroke="rgb(255,255,0)" stroke-width="1" x1="406.2096774193548" x2="406.2096774193548" y1="581.5714285714287" y2="586.5714285714287" /><line fill="none" stroke="rgb(255,255,0)" stroke-width="2" x1="431.2903225806451" x2="481.45161290322585" y1="581.5714285714287" y2="581.5714285714287" /><circle cx="431.2903225806451" cy="581.5714285714287" fill="rgb(0,255,0)" r="2" /><circle cx="481.45161290322585" cy="581.5714285714287" fill="rgb(0,255,0)" r="2" /><line fill="none" stroke="rgb(255,255,0)" stroke-width="1" x1="456.3709677419355" x2="456.3709677419355" y1="581.5714285714287" y2="586.5714285714287" /><line fill="none" stroke="rgb(255,255,0)" stroke-width="2" x1="481.45161290322585" x2="531.6129032258065" y1="581.5714285714287" y2="581.5714285714287" /><circle cx="481.45161290322585" cy="581.5714285714287" fill="rgb(0,255,0)" r="2" /><circle cx="531.6129032258065" cy="581.5714285714287" fill="rgb(0,255,0)" r="2" /><line fill="none" stroke="rgb(255,255,0)" stroke-width="1" x1="506.53225806451616" x2="506.53225806451616" y1="581.5714285714287" y2="586.5714285714287" /><line fill="none" stroke="rgb(255,255,0)" stroke-width="2" x1="531.6129032258065" x2="581.7741935483871" y1="581.5714285714287" y2="581.5714285714287" /><circle cx="531.6129032258065" cy="581.5714285714287" fill="rgb(0,255,0)" r="2" /><circle cx="581.7741935483871" cy="581.5714285714287" fill="rgb(0,255,0)" r="2" /><line fill="none" stroke="rgb(255,255,0)" stroke-width="1" x1="556.6935483870968" x2="556.6935483870968" y1="581.5714285714287" y2="586.5714285714287" /><line fill="none" stroke="rgb(255,255,0)" stroke-width="2" x1="581.7741935483871" x2="581.7741935483871" y1="581.5714285714287" y2="531.4285714285714" /><circle cx="581.7741935483871" cy="581.5714285714287" fill="rgb(0,255,0)" r="2" /><circle cx="581.7741935483871" cy="531.4285714285714" fill="rgb(0,255,0)" r="2" /><line fill="none" stroke="rgb(255,255,0)" stroke-width="1" x1="581.7741935483871" x2="586.7741935483871" y1="556.5" y2="556.5" /><line fill="none" stroke="rgb(255,255,0)" stroke-width="2" x1="581.7741935483871" x2="581.7741935483871" y1="531.4285714285714" y2="481.28571428571433" /><circle cx="581.7741935483871" cy="531.4285714285714" fill="rgb(0,255,0)" r="2" /><circle cx="581.7741935483871" cy="481.28571428571433" fill="rgb(0,255,0)" r="2" /><line fill="none" stroke="rgb(255,255,0)" stroke-width="1" x1="581.7741935483871" x2="586.7741935483871" y1="506.3571428571429" y2="506.3571428571429" /><line fill="none" stroke="rgb(255,255,0)" stroke-width="2" x1="581.7741935483871" x2="631.9354838709677" y1="481.28571428571433" y2="481.28571428571433" /><circle cx="581.7741935483871" cy="481.28571428571433" fill="rgb(0,255,0)" r="2" /><circle cx="631.9354838709677" cy="481.28571428571433" fill="rgb(0,255,0)" r="2" /><line fill="none" stroke="rgb(255,255,0)" stroke-width="1" x1="606.8548387096773" x2="606.8548387096773" y1="481.28571428571433" y2="486.28571428571433" /><line fill="none" stroke="rgb(255,255,0)" stroke-width="2" x1="631.9354838709677" x2="682.0967741935484" y1="481.28571428571433" y2="481.28571428571433" /><circle cx="631.9354838709677" cy="481.28571428571433" fill="rgb(0,255,0)" r="2" /><circle cx="682.0967741935484" cy="481.28571428571433" fill="rgb(0,255,0)" r="2" /><line fill="none" stroke="rgb(255,255,0)" stroke-width="1" x1="657.016129032258" x2="657.016129032258" y1="481.28571428571433" y2="486.28571428571433" /><line fill="none" stroke="rgb(255,255,0)" stroke-width="2" x1="682.0967741935484" x2="732.258064516129" y1="481.28571428571433" y2="481.28571428571433" /><circle cx="682.0967741935484" cy="481.28571428571433" fill="rgb(0,255,0)" r="2" /><circle cx="732.258064516129" cy="481.28571428571433" fill="rgb(0,255,0)" r="2" /><line fill="none" stroke="rgb(255,255,0)" stroke-width="1" x1="707.1774193548388" x2="707.1774193548388" y1="481.28571428571433" y2="486.28571428571433" /><line fill="none" stroke="rgb(255,255,0)" stroke-width="2" x1="732.258064516129" x2="782.4193548387098" y1="481.28571428571433" y2="481.28571428571433" /><circle cx="732.258064516129" cy="481.28571428571433" fill="rgb(0,255,0)" r="2" /><circle cx="782.4193548387098" cy="481.28571428571433" fill="rgb(0,255,0)" r="2" /><line fill="none" stroke="rgb(255,255,0)" stroke-width="1" x1="757.3387096774194" x2="757.3387096774194" y1="481.28571428571433" y2="486.28571428571433" /><line fill="none" stroke="rgb(255,255,0)" stroke-width="2" x1="782.4193548387098" x2="882.7419354838709" y1="481.28571428571433" y2="481.28571428571433" /><circle cx="782.4193548387098" cy="481.28571428571433" fill="rgb(0,255,0)" r="2" /><circle cx="882.7419354838709" cy="481.28571428571433" fill="rgb(0,255,0)" r="2" /><line fill="none" stroke="rgb(255,255,0)" stroke-width="1" x1="832.5806451612902" x2="832.5806451612902" y1="481.28571428571433" y2="486.28571428571433" /><line fill="none" stroke="rgb(255,255,0)" stroke-width="2" x1="882.7419354838709" x2="882.7419354838709" y1="481.28571428571433" y2="531.4285714285714" /><circle cx="882.7419354838709" cy="481.28571428571433" fill="rgb(0,255,0)" r="2" /><circle cx="882.7419354838709" cy="531.4285714285714" fill="rgb(0,255,0)" r="2" /><line fill="none" stroke="rgb(255,255,0)" stroke-width="1" x1="882.7419354838709" x2="877.7419354838709" y1="506.3571428571429" y2="506.3571428571429" /><line fill="none" stroke="rgb(255,255,0)" stroke-width="2" x1="882.7419354838709" x2="882.7419354838709" y1="531.4285714285714" y2="581.5714285714287" /><circle cx="882.7419354838709" cy="531.4285714285714" fill="rgb(0,255,0)" r="2" /><circle cx="882.7419354838709" cy="581.5714285714287" fill="rgb(0,255,0)" r="2" /><line fill="none" stroke="rgb(255,255,0)" stroke-width="1" x1="882.7419354838709" x2="877.7419354838709" y1="556.5" y2="556.5" /><line fill="none" stroke="rgb(255,255,0)" stroke-width="2" x1="882.7419354838709" x2="932.9032258064517" y1="581.5714285714287" y2="581.5714285714287" /><circle cx="882.7419354838709" cy="581.5714285714287" fill="rgb(0,255,0)" r="2" /><circle cx="932.9032258064517" cy="581.5714285714287" fill="rgb(0,255,0)" r="2" /><line fill="none" stroke="rgb(255,255,0)" stroke-width="1" x1="907.8225806451612" x2="907.8225806451612" y1="581.5714285714287" y2="586.5714285714287" /><line fill="none" stroke="rgb(255,255,0)" stroke-width="2" x1="932.9032258064517" x2="983.0645161290323" y1="581.5714285714287" y2="581.5714285714287" /><circle cx="932.9032258064517" cy="581.5714285714287" fill="rgb(0,255,0)" r="2" /><circle cx="983.0645161290323" cy="581.5714285714287" fill="rgb(0,255,0)" r="2" /><line fill="none" stroke="rgb(255,255,0)" stroke-width="1" x1="957.983870967742" x2="957.983870967742" y1="581.5714285714287" y2="586.5714285714287" /><line fill="none" stroke="rgb(255,255,0)" stroke-width="2" x1="983.0645161290323" x2="1033.225806451613" y1="581.5714285714287" y2="581.5714285714287" /><circle cx="983.0645161290323" cy="581.5714285714287" fill="rgb(0,255,0)" r="2" /><circle cx="1033.225806451613" cy="581.5714285714287" fill="rgb(0,255,0)" r="2" /><line fill="none" stroke="rgb(255,255,0)" stroke-width="1" x1="1008.1451612903227" x2="1008.1451612903227" y1="581.5714285714287" y2="586.5714285714287" /><line fill="none" stroke="rgb(255,255,0)" stroke-width="2" x1="1033.225806451613" x2="1083.3870967741934" y1="581.5714285714287" y2="581.5714285714287" /><circle cx="1033.225806451613" cy="581.5714285714287" fill="rgb(0,255,0)" r="2" /><circle cx="1083.3870967741934" cy="581.5714285714287" fill="rgb(0,255,0)" r="2" /><line fill="none" stroke="rgb(255,255,0)" stroke-width="1" x1="1058.3064516129032" x2="1058.3064516129032" y1="581.5714285714287" y2="586.5714285714287" /><line fill="none" stroke="rgb(255,255,0)" stroke-width="2" x1="1083.3870967741934" x2="1133.5483870967741" y1="581.5714285714287" y2="581.5714285714287" /><circle cx="1083.3870967741934" cy="581.5714285714287" fill="rgb(0,255,0)" r="2" /><circle cx="1133.5483870967741" cy="581.5714285714287" fill="rgb(0,255,0)" r="2" /><line fill="none" stroke="rgb(255,255,0)" stroke-width="1" x1="1108.467741935484" x2="1108.467741935484" y1="581.5714285714287" y2="586.5714285714287" /><line fill="none" stroke="rgb(255,255,0)" stroke-width="2" x1="1133.5483870967741" x2="1133.5483870967741" y1="581.5714285714287" y2="531.4285714285714" /><circle cx="1133.5483870967741" cy="581.5714285714287" fill="rgb(0,255,0)" r="2" /><circle cx="1133.5483870967741" cy="531.4285714285714" fill="rgb(0,255,0)" r="2" /><line fill="none" stroke="rgb(255,255,0)" stroke-width="1" x1="1133.5483870967741" x2="1138.5483870967741" y1="556.5" y2="556.5" /><line fill="none" stroke="rgb(255,255,0)" stroke-width="2" x1="1133.5483870967741" x2="1133.5483870967741" y1="531.4285714285714" y2="431.1428571428571" /><circle cx="1133.5483870967741" cy="531.4285714285714" fill="rgb(0,255,0)" r="2" /><circle cx="1133.5483870967741" cy="431.1428571428571" fill="rgb(0,255,0)" r="2" /><line fill="none" stroke="rgb(255,255,0)" stroke-width="1" x1="1133.5483870967741" x2="1138.5483870967741" y1="481.2857142857143" y2="481.2857142857143" /><line fill="none" stroke="rgb(255,255,0)" stroke-width="2" x1="1133.5483870967741" x2="1183.7096774193549" y1="431.1428571428571" y2="431.1428571428571" /><circle cx="1133.5483870967741" cy="431.1428571428571" fill="rgb(0,255,0)" r="2" /><circle cx="1183.7096774193549" cy="431.1428571428571" fill="rgb(0,255,0)" r="2" /><line fill="none" stroke="rgb(255,255,0)" stroke-width="1" x1="1158.6290322580644" x2="1158.6290322580644" y1="431.1428571428571" y2="436.1428571428571" /><line fill="none" stroke="rgb(255,255,0)" stroke-width="2" x1="1183.7096774193549" x2="1233.8709677419354" y1="431.1428571428571" y2="431.1428571428571" /><circle cx="1183.7096774193549" cy="431.1428571428571" fill="rgb(0,255,0)" r="2" /><circle cx="1233.8709677419354" cy="431.1428571428571" fill="rgb(0,255,0)" r="2" /><line fill="none" stroke="rgb(255,255,0)" stroke-width="1" x1="1208.7903225806451" x2="1208.7903225806451" y1="431.1428571428571" y2="436.1428571428571" /><line fill="none" stroke="rgb(255,255,0)" stroke-width="2" x1="1233.8709677419354" x2="1233.8709677419354" y1="431.1428571428571" y2="381.0" /><circle cx="1233.8709677419354" cy="431.1428571428571" fill="rgb(0,255,0)" r="2" /><circle cx="1233.8709677419354" cy="381.0" fill="rgb(0,255,0)" r="2" /><line fill="none" stroke="rgb(255,255,0)" stroke-width="1" x1="1233.8709677419354" x2="1238.8709677419354" y1="406.07142857142856" y2="406.07142857142856" /><line fill="none" stroke="rgb(255,255,0)" stroke-width="2" x1="1233.8709677419354" x2="1133.5483870967741" y1="381.0" y2="381.0" /><circle cx="1233.8709677419354" cy="381.0" fill="rgb(0,255,0)" r="2" /><circle cx="1133.5483870967741" cy="381.0" fill="rgb(0,255,0)" r="2" /><line fill="none" stroke="rgb(255,255,0)" stroke-width="1" x1="1183.7096774193546" x2="1183.7096774193546" y1="381.0" y2="376.0" /><line fill="none" stroke="rgb(255,255,0)" stroke-width="2" x1="1133.5483870967741" x2="1133.5483870967741" y1="381.0" y2="30.0" /><circle cx="1133.5483870967741" cy="381.0" fill="rgb(0,255,0)" r="2" /><circle cx="1133.5483870967741" cy="30.0" fill="rgb(0,255,0)" r="2" /><line fill="none" stroke="rgb(255,255,0)" stroke-width="1" x1="1133.5483870967741" x2="1138.5483870967741" y1="205.5" y2="205.5" /><line fill="none" stroke="rgb(255,255,0)" stroke-width="2" x1="1133.5483870967741" x2="1384.3548387096773" y1="30.0" y2="30.0" /><circle cx="1133.5483870967741" cy="30.0" fill="rgb(0,255,0)" r="2" /><circle cx="1384.3548387096773" cy="30.0" fill="rgb(0,255,0)" r="2" /><line fill="none" stroke="rgb(255,255,0)" stroke-width="1" x1="1258.9516129032259" x2="1258.9516129032259" y1="30.0" y2="35.0" /><line fill="none" stroke="rgb(255,255,0)" stroke-width="2" x1="1384.3548387096773" x2="1384.3548387096773" y1="30.0" y2="381.0" /><circle cx="1384.3548387096773" cy="30.0" fill="rgb(0,255,0)" r="2" /><circle cx="1384.3548387096773" cy="381.0" fill="rgb(0,255,0)" r="2" /><line fill="none" stroke="rgb(255,255,0)" stroke-width="1" x1="1384.3548387096773" x2="1379.3548387096773" y1="205.5" y2="205.5" /><line fill="none" stroke="rgb(255,255,0)" stroke-width="2" x1="1384.3548387096773" x2="1284.032258064516" y1="381.0" y2="381.0" /><circle cx="1384.3548387096773" cy="381.0" fill="rgb(0,255,0)" r="2" /><circle cx="1284.032258064516" cy="381.0" fill="rgb(0,255,0)" r="2" /><line fill="none" stroke="rgb(255,255,0)" stroke-width="1" x1="1334.1935483870966" x2="1334.1935483870966" y1="381.0" y2="376.0" /><line fill="none" stroke="rgb(255,255,0)" stroke-width="2" x1="1284.032258064516" x2="1284.032258064516" y1="381.0" y2="431.1428571428571" /><circle cx="1284.032258064516" cy="381.0" fill="rgb(0,255,0)" r="2" /><circle cx="1284.032258064516" cy="431.1428571428571" fill="rgb(0,255,0)" r="2" /><line fill="none" stroke="rgb(255,255,0)" stroke-width="1" x1="1284.032258064516" x2="1279.032258064516" y1="406.07142857142856" y2="406.07142857142856" /><line fill="none" stroke="rgb(255,255,0)" stroke-width="2" x1="1284.032258064516" x2="1334.1935483870968" y1="431.1428571428571" y2="431.1428571428571" /><circle cx="1284.032258064516" cy="431.1428571428571" fill="rgb(0,255,0)" r="2" /><circle cx="1334.1935483870968" cy="431.1428571428571" fill="rgb(0,255,0)" r="2" /><line fill="none" stroke="rgb(255,255,0)" stroke-width="1" x1="1309.1129032258063" x2="1309.1129032258063" y1="431.1428571428571" y2="436.1428571428571" /><line fill="none" stroke="rgb(255,255,0)" stroke-width="2" x1="1334.1935483870968" x2="1384.3548387096773" y1="431.1428571428571" y2="431.1428571428571" /><circle cx="1334.1935483870968" cy="431.1428571428571" fill="rgb(0,255,0)" r="2" /><circle cx="1384.3548387096773" cy="431.1428571428571" fill="rgb(0,255,0)" r="2" /><line fill="none" stroke="rgb(255,255,0)" stroke-width="1" x1="1359.274193548387" x2="1359.274193548387" y1="431.1428571428571" y2="436.1428571428571" /><line fill="none" stroke="rgb(255,255,0)" stroke-width="2" x1="1384.3548387096773" x2="1384.3548387096773" y1="431.1428571428571" y2="531.4285714285714" /><circle cx="1384.3548387096773" cy="431.1428571428571" fill="rgb(0,255,0)" r="2" /><circle cx="1384.3548387096773" cy="531.4285714285714" fill="rgb(0,255,0)" r="2" /><line fill="none" stroke="rgb(255,255,0)" stroke-width="1" x1="1384.3548387096773" x2="1379.3548387096773" y1="481.2857142857143" y2="481.2857142857143" /><line fill="none" stroke="rgb(255,255,0)" stroke-width="2" x1="1384.3548387096773" x2="1434.516129032258" y1="531.4285714285714" y2="531.4285714285714" /><circle cx="1384.3548387096773" cy="531.4285714285714" fill="rgb(0,255,0)" r="2" /><circle cx="1434.516129032258" cy="531.4285714285714" fill="rgb(0,255,0)" r="2" /><line fill="none" stroke="rgb(255,255,0)" stroke-width="1" x1="1409.4354838709678" x2="1409.4354838709678" y1="531.4285714285714" y2="536.4285714285714" /><line fill="none" stroke="rgb(255,255,0)" stroke-width="2" x1="1434.516129032258" x2="1434.516129032258" y1="531.4285714285714" y2="481.28571428571433" /><circle cx="1434.516129032258" cy="531.4285714285714" fill="rgb(0,255,0)" r="2" /><circle cx="1434.516129032258" cy="481.28571428571433" fill="rgb(0,255,0)" r="2" /><line fill="none" stroke="rgb(255,255,0)" stroke-width="1" x1="1434.516129032258" x2="1439.516129032258" y1="506.3571428571429" y2="506.3571428571429" /><line fill="none" stroke="rgb(255,255,0)" stroke-width="2" x1="1434.516129032258" x2="1484.6774193548385" y1="481.28571428571433" y2="481.28571428571433" /><circle cx="1434.516129032258" cy="481.28571428571433" fill="rgb(0,255,0)" r="2" /><circle cx="1484.6774193548385" cy="481.28571428571433" fill="rgb(0,255,0)" r="2" /><line fill="none" stroke="rgb(255,255,0)" stroke-width="1" x1="1459.5967741935483" x2="1459.5967741935483" y1="481.28571428571433" y2="486.28571428571433" /><line fill="none" stroke="rgb(255,255,0)" stroke-width="2" x1="1484.6774193548385" x2="1534.8387096774195" y1="481.28571428571433" y2="481.28571428571433" /><circle cx="1484.6774193548385" cy="481.28571428571433" fill="rgb(0,255,0)" r="2" /><circle cx="1534.8387096774195" cy="481.28571428571433" fill="rgb(0,255,0)" r="2" /><line fill="none" stroke="rgb(255,255,0)" stroke-width="1" x1="1509.758064516129" x2="1509.758064516129" y1="481.28571428571433" y2="486.28571428571433" /><line fill="none" stroke="rgb(255,255,0)" stroke-width="2" x1="1534.8387096774195" x2="1585.0" y1="481.28571428571433" y2="481.28571428571433" /><circle cx="1534.8387096774195" cy="481.28571428571433" fill="rgb(0,255,0)" r="2" /><circle cx="1585.0" cy="481.28571428571433" fill="rgb(0,255,0)" r="2" /><line fill="none" stroke="rgb(255,255,0)" stroke-width="1" x1="1559.9193548387098" x2="1559.9193548387098" y1="481.28571428571433" y2="486.28571428571433" /><line fill="none" stroke="rgb(255,255,0)" stroke-width="2" x1="1585.0" x2="1585.0" y1="481.28571428571433" y2="493.82142857142856" /><circle cx="1585.0" cy="481.28571428571433" fill="rgb(0,255,0)" r="2" /><circle cx="1585.0" cy="493.82142857142856" fill="rgb(0,255,0)" r="2" /><line fill="none" stroke="rgb(255,255,0)" stroke-width="1" x1="1585.0" x2="1580.0" y1="487.55357142857144" y2="487.55357142857144" /><line fill="none" stroke="rgb(10,99,207)" stroke-width="2" x1="1585.0" x2="1585.0" y1="493.82142857142856" y2="569.0357142857143" /><circle cx="1585.0" cy="493.82142857142856" fill="rgb(0,255,0)" r="2" /><circle cx="1585.0" cy="569.0357142857143" fill="rgb(0,255,0)" r="2" /><line fill="none" stroke="rgb(10,99,207)" stroke-width="1" x1="1585.0" x2="1580.0" y1="531.4285714285714" y2="531.4285714285714" /><line fill="none" stroke="rgb(255,255,0)" stroke-width="2" x1="1585.0" x2="1585.0" y1="569.0357142857143" y2="631.7142857142858" /><circle cx="1585.0" cy="569.0357142857143" fill="rgb(0,255,0)" r="2" /><circle cx="1585.0" cy="631.7142857142858" fill="rgb(0,255,0)" r="2" /><line fill="none" stroke="rgb(255,255,0)" stroke-width="1" x1="1585.0" x2="1580.0" y1="600.375" y2="600.375" /><line fill="none" stroke="rgb(255,255,0)" stroke-width="2" x1="1585.0" x2="1459.5967741935483" y1="631.7142857142858" y2="631.7142857142858" /><circle cx="1585.0" cy="631.7142857142858" fill="rgb(0,255,0)" r="2" /><circle cx="1459.5967741935483" cy="631.7142857142858" fill="rgb(0,255,0)" r="2" /><line fill="none" stroke="rgb(255,255,0)" stroke-width="1" x1="1522.2983870967741" x2="1522.2983870967741" y1="631.7142857142858" y2="626.7142857142858" /><line fill="none" stroke="rgb(255,255,0)" stroke-width="2" x1="1434.516129032258" x2="1434.516129032258" y1="606.6428571428571" y2="581.5714285714287" /><circle cx="1434.516129032258" cy="606.6428571428571" fill="rgb(0,255,0)" r="2" /><circle cx="1434.516129032258" cy="581.5714285714287" fill="rgb(0,255,0)" r="2" /><line fill="none" stroke="rgb(255,255,0)" stroke-width="1" x1="1434.516129032258" x2="1439.516129032258" y1="594.1071428571429" y2="594.1071428571429" /><line fill="none" stroke="rgb(255,255,0)" stroke-width="2" x1="1434.516129032258" x2="1384.3548387096773" y1="581.5714285714287" y2="581.5714285714287" /><circle cx="1434.516129032258" cy="581.5714285714287" fill="rgb(0,255,0)" r="2" /><circle cx="1384.3548387096773" cy="581.5714285714287" fill="rgb(0,255,0)" r="2" /><line fill="none" stroke="rgb(255,255,0)" stroke-width="1" x1="1409.4354838709678" x2="1409.4354838709678" y1="581.5714285714287" y2="576.5714285714287" /><line fill="none" stroke="rgb(255,255,0)" stroke-width="2" x1="1384.3548387096773" x2="1384.3548387096773" y1="581.5714285714287" y2="732.0" /><circle cx="1384.3548387096773" cy="581.5714285714287" fill="rgb(0,255,0)" r="2" /><circle cx="1384.3548387096773" cy="732.0" fill="rgb(0,255,0)" r="2" /><line fill="none" stroke="rgb(255,255,0)" stroke-width="1" x1="1384.3548387096773" x2="1379.3548387096773" y1="656.7857142857143" y2="656.7857142857143" /><line fill="none" stroke="rgb(255,255,0)" stroke-width="2" x1="1384.3548387096773" x2="1434.516129032258" y1="732.0" y2="732.0" /><circle cx="1384.3548387096773" cy="732.0" fill="rgb(0,255,0)" r="2" /><circle cx="1434.516129032258" cy="732.0" fill="rgb(0,255,0)" r="2" /><line fill="none" stroke="rgb(255,255,0)" stroke-width="1" x1="1409.4354838709678" x2="1409.4354838709678" y1="732.0" y2="737.0" /><line fill="none" stroke="rgb(255,255,0)" stroke-width="2" x1="1434.516129032258" x2="1434.516129032258" y1="732.0" y2="681.8571428571429" /><circle cx="1434.516129032258" cy="732.0" fill="rgb(0,255,0)" r="2" /><circle cx="1434.516129032258" cy="681.8571428571429" fill="rgb(0,255,0)" r="2" /><line fill="none" stroke="rgb(255,255,0)" stroke-width="1" x1="1434.516129032258" x2="1439.516129032258" y1="706.9285714285714" y2="706.9285714285714" /><line fill="none" stroke="rgb(255,255,0)" stroke-width="2" x1="1434.516129032258" x2="1559.9193548387098" y1="681.8571428571429" y2="681.8571428571429" /><circle cx="1434.516129032258" cy="681.8571428571429" fill="rgb(0,255,0)" r="2" /><circle cx="1559.9193548387098" cy="681.8571428571429" fill="rgb(0,255,0)" r="2" /><line fill="none" stroke="rgb(255,255,0)" stroke-width="1" x1="1497.217741935484" x2="1497.217741935484" y1="681.8571428571429" y2="686.8571428571429" /><line fill="none" stroke="rgb(255,255,0)" stroke-width="2" x1="1585.0" x2="1585.0" y1="706.9285714285714" y2="744.5357142857142" /><circle cx="1585.0" cy="706.9285714285714" fill="rgb(0,255,0)" r="2" /><circle cx="1585.0" cy="744.5357142857142" fill="rgb(0,255,0)" r="2" /><line fill="none" stroke="rgb(255,255,0)" stroke-width="1" x1="1585.0" x2="1580.0" y1="725.7321428571429" y2="725.7321428571429" /><line fill="none" stroke="rgb(10,99,207)" stroke-width="2" x1="1585.0" x2="1585.0" y1="744.5357142857142" y2="819.75" /><circle cx="1585.0" cy="744.5357142857142" fill="rgb(0,255,0)" r="2" /><circle cx="1585.0" cy="819.75" fill="rgb(0,255,0)" r="2" /><line fill="none" stroke="rgb(10,99,207)" stroke-width="1" x1="1585.0" x2="1580.0" y1="782.1428571428571" y2="782.1428571428571" /><line fill="none" stroke="rgb(255,255,0)" stroke-width="2" x1="1585.0" x2="1585.0" y1="819.75" y2="832.2857142857143" /><circle cx="1585.0" cy="819.75" fill="rgb(0,255,0)" r="2" /><circle cx="1585.0" cy="832.2857142857143" fill="rgb(0,255,0)" r="2" /><line fill="none" stroke="rgb(255,255,0)" stroke-width="1" x1="1585.0" x2="1580.0" y1="826.0178571428571" y2="826.0178571428571" /><line fill="none" stroke="rgb(255,255,0)" stroke-width="2" x1="1585.0" x2="1534.8387096774195" y1="832.2857142857143" y2="832.2857142857143" /><circle cx="1585.0" cy="832.2857142857143" fill="rgb(0,255,0)" r="2" /><circle cx="1534.8387096774195" cy="832.2857142857143" fill="rgb(0,255,0)" r="2" /><line fill="none" stroke="rgb(255,255,0)" stroke-width="1" x1="1559.9193548387098" x2="1559.9193548387098" y1="832.2857142857143" y2="827.2857142857143" /><line fill="none" stroke="rgb(255,255,0)" stroke-width="2" x1="1534.8387096774195" x2="1484.6774193548385" y1="832.2857142857143" y2="832.2857142857143" /><circle cx="1534.8387096774195" cy="832.2857142857143" fill="rgb(0,255,0)" r="2" /><circle cx="1484.6774193548385" cy="832.2857142857143" fill="rgb(0,255,0)" r="2" /><line fill="none" stroke="rgb(255,255,0)" stroke-width="1" x1="1509.758064516129" x2="1509.758064516129" y1="832.2857142857143" y2="827.2857142857143" /><line fill="none" stroke="rgb(255,255,0)" stroke-width="2" x1="1484.6774193548385" x2="1434.516129032258" y1="832.2857142857143" y2="832.2857142857143" /><circle cx="1484.6774193548385" cy="832.2857142857143" fill="rgb(0,255,0)" r="2" /><circle cx="1434.516129032258" cy="832.2857142857143" fill="rgb(0,255,0)" r="2" /><line fill="none" stroke="rgb(255,255,0)" stroke-width="1" x1="1459.5967741935483" x2="1459.5967741935483" y1="832.2857142857143" y2="827.2857142857143" /><line fill="none" stroke="rgb(255,255,0)" stroke-width="2" x1="1434.516129032258" x2="1434.516129032258" y1="832.2857142857143" y2="782.1428571428571" /><circle cx="1434.516129032258" cy="832.2857142857143" fill="rgb(0,255,0)" r="2" /><circle cx="1434.516129032258" cy="782.1428571428571" fill="rgb(0,255,0)" r="2" /><line fill="none" stroke="rgb(255,255,0)" stroke-width="1" x1="1434.516129032258" x2="1439.516129032258" y1="807.2142857142858" y2="807.2142857142858" /><line fill="none" stroke="rgb(255,255,0)" stroke-width="2" x1="1434.516129032258" x2="1384.3548387096773" y1="782.1428571428571" y2="782.1428571428571" /><circle cx="1434.516129032258" cy="782.1428571428571" fill="rgb(0,255,0)" r="2" /><circle cx="1384.3548387096773" cy="782.1428571428571" fill="rgb(0,255,0)" r="2" /><line fill="none" stroke="rgb(255,255,0)" stroke-width="1" x1="1409.4354838709678" x2="1409.4354838709678" y1="782.1428571428571" y2="777.1428571428571" /><line fill="none" stroke="rgb(255,255,0)" stroke-width="2" x1="1384.3548387096773" x2="1384.3548387096773" y1="782.1428571428571" y2="832.2857142857143" /><circle cx="1384.3548387096773" cy="782.1428571428571" fill="rgb(0,255,0)" r="2" /><circle cx="1384.3548387096773" cy="832.2857142857143" fill="rgb(0,255,0)" r="2" /><line fill="none" stroke="rgb(255,255,0)" stroke-width="1" x1="1384.3548387096773" x2="1379.3548387096773" y1="807.2142857142858" y2="807.2142857142858" /><line fill="none" stroke="rgb(255,255,0)" stroke-width="2" x1="1384.3548387096773" x2="1384.3548387096773" y1="832.2857142857143" y2="882.4285714285714" /><circle cx="1384.3548387096773" cy="832.2857142857143" fill="rgb(0,255,0)" r="2" /><circle cx="1384.3548387096773" cy="882.4285714285714" fill="rgb(0,255,0)" r="2" /><line fill="none" stroke="rgb(255,255,0)" stroke-width="1" x1="1384.3548387096773" x2="1379.3548387096773" y1="857.3571428571429" y2="857.3571428571429" /><line fill="none" stroke="rgb(255,255,0)" stroke-width="2" x1="1384.3548387096773" x2="1334.1935483870968" y1="882.4285714285714" y2="882.4285714285714" /><circle cx="1384.3548387096773" cy="882.4285714285714" fill="rgb(0,255,0)" r="2" /><circle cx="1334.1935483870968" cy="882.4285714285714" fill="rgb(0,255,0)" r="2" /><line fill="none" stroke="rgb(255,255,0)" stroke-width="1" x1="1359.274193548387" x2="1359.274193548387" y1="882.4285714285714" y2="877.4285714285714" /><line fill="none" stroke="rgb(255,255,0)" stroke-width="2" x1="1334.1935483870968" x2="1284.032258064516" y1="882.4285714285714" y2="882.4285714285714" /><circle cx="1334.1935483870968" cy="882.4285714285714" fill="rgb(0,255,0)" r="2" /><circle cx="1284.032258064516" cy="882.4285714285714" fill="rgb(0,255,0)" r="2" /><line fill="none" stroke="rgb(255,255,0)" stroke-width="1" x1="1309.1129032258063" x2="1309.1129032258063" y1="882.4285714285714" y2="877.4285714285714" /><line fill="none" stroke="rgb(255,255,0)" stroke-width="2" x1="1284.032258064516" x2="1284.032258064516" y1="882.4285714285714" y2="932.5714285714286" /><circle cx="1284.032258064516" cy="882.4285714285714" fill="rgb(0,255,0)" r="2" /><circle cx="1284.032258064516" cy="932.5714285714286" fill="rgb(0,255,0)" r="2" /><line fill="none" stroke="rgb(255,255,0)" stroke-width="1" x1="1284.032258064516" x2="1279.032258064516" y1="907.5" y2="907.5" /><line fill="none" stroke="rgb(255,255,0)" stroke-width="2" x1="1284.032258064516" x2="1334.1935483870968" y1="932.5714285714286" y2="932.5714285714286" /><circle cx="1284.032258064516" cy="932.5714285714286" fill="rgb(0,255,0)" r="2" /><circle cx="1334.1935483870968" cy="932.5714285714286" fill="rgb(0,255,0)" r="2" /><line fill="none" stroke="rgb(255,255,0)" stroke-width="1" x1="1309.1129032258063" x2="1309.1129032258063" y1="932.5714285714286" y2="937.5714285714286" /><line fill="none" stroke="rgb(255,255,0)" stroke-width="2" x1="1334.1935483870968" x2="1384.3548387096773" y1="932.5714285714286" y2="932.5714285714286" /><circle cx="1334.1935483870968" cy="932.5714285714286" fill="rgb(0,255,0)" r="2" /><circle cx="1384.3548387096773" cy="932.5714285714286" fill="rgb(0,255,0)" r="2" /><line fill="none" stroke="rgb(255,255,0)" stroke-width="1" x1="1359.274193548387" x2="1359.274193548387" y1="932.5714285714286" y2="937.5714285714286" /><line fill="none" stroke="rgb(255,255,0)" stroke-width="2" x1="1384.3548387096773" x2="1384.3548387096773" y1="932.5714285714286" y2="982.7142857142858" /><circle cx="1384.3548387096773" cy="932.5714285714286" fill="rgb(0,255,0)" r="2" /><circle cx="1384.3548387096773" cy="982.7142857142858" fill="rgb(0,255,0)" r="2" /><line fill="none" stroke="rgb(255,255,0)" stroke-width="1" x1="1384.3548387096773" x2="1379.3548387096773" y1="957.6428571428571" y2="957.6428571428571" /><line fill="none" stroke="rgb(255,255,0)" stroke-width="2" x1="1384.3548387096773" x2="1334.1935483870968" y1="982.7142857142858" y2="982.7142857142858" /><circle cx="1384.3548387096773" cy="982.7142857142858" fill="rgb(0,255,0)" r="2" /><circle cx="1334.1935483870968" cy="982.7142857142858" fill="rgb(0,255,0)" r="2" /><line fill="none" stroke="rgb(255,255,0)" stroke-width="1" x1="1359.274193548387" x2="1359.274193548387" y1="982.7142857142858" y2="977.7142857142858" /><line fill="none" stroke="rgb(255,255,0)" stroke-width="2" x1="1334.1935483870968" x2="1334.1935483870968" y1="982.7142857142858" y2="1032.857142857143" /><circle cx="1334.1935483870968" cy="982.7142857142858" fill="rgb(0,255,0)" r="2" /><circle cx="1334.1935483870968" cy="1032.857142857143" fill="rgb(0,255,0)" r="2" /><line fill="none" stroke="rgb(255,255,0)" stroke-width="1" x1="1334.1935483870968" x2="1329.1935483870968" y1="1007.7857142857143" y2="1007.7857142857143" /><line fill="none" stroke="rgb(255,255,0)" stroke-width="2" x1="1334.1935483870968" x2="1284.032258064516" y1="1032.857142857143" y2="1032.857142857143" /><circle cx="1334.1935483870968" cy="1032.857142857143" fill="rgb(0,255,0)" r="2" /><circle cx="1284.032258064516" cy="1032.857142857143" fill="rgb(0,255,0)" r="2" /><line fill="none" stroke="rgb(255,255,0)" stroke-width="1" x1="1309.1129032258063" x2="1309.1129032258063" y1="1032.857142857143" y2="1027.857142857143" /><line fill="none" stroke="rgb(255,255,0)" stroke-width="2" x1="1284.032258064516" x2="1284.032258064516" y1="1032.857142857143" y2="1083.0" /><circle cx="1284.032258064516" cy="1032.857142857143" fill="rgb(0,255,0)" r="2" /><circle cx="1284.032258064516" cy="1083.0" fill="rgb(0,255,0)" r="2" /><line fill="none" stroke="rgb(255,255,0)" stroke-width="1" x1="1284.032258064516" x2="1279.032258064516" y1="1057.9285714285716" y2="1057.9285714285716" /><line fill="none" stroke="rgb(255,255,0)" stroke-width="2" x1="1334.1935483870968" x2="1183.7096774193549" y1="92.67857142857144" y2="92.67857142857144" /><circle cx="1334.1935483870968" cy="92.67857142857144" fill="rgb(0,255,0)" r="2" /><circle cx="1183.7096774193549" cy="92.67857142857144" fill="rgb(0,255,0)" r="2" /><line fill="none" stroke="rgb(255,255,0)" stroke-width="1" x1="1258.9516129032259" x2="1258.9516129032259" y1="92.67857142857144" y2="87.67857142857144" /><line fill="none" stroke="rgb(255,255,0)" stroke-width="2" x1="1183.7096774193549" x2="1183.7096774193549" y1="92.67857142857144" y2="117.75" /><circle cx="1183.7096774193549" cy="92.67857142857144" fill="rgb(0,255,0)" r="2" /><circle cx="1183.7096774193549" cy="117.75" fill="rgb(0,255,0)" r="2" /><line fill="none" stroke="rgb(255,255,0)" stroke-width="1" x1="1183.7096774193549" x2="1178.7096774193549" y1="105.21428571428572" y2="105.21428571428572" /><line fill="none" stroke="rgb(255,255,0)" stroke-width="2" x1="1183.7096774193549" x2="1334.1935483870968" y1="117.75" y2="117.75" /><circle cx="1183.7096774193549" cy="117.75" fill="rgb(0,255,0)" r="2" /><circle cx="1334.1935483870968" cy="117.75" fill="rgb(0,255,0)" r="2" /><line fill="none" stroke="rgb(255,255,0)" stroke-width="1" x1="1258.9516129032259" x2="1258.9516129032259" y1="117.75" y2="122.75" /><line fill="none" stroke="rgb(255,255,0)" stroke-width="2" x1="1334.1935483870968" x2="1334.1935483870968" y1="117.75" y2="92.67857142857144" /><circle cx="1334.1935483870968" cy="117.75" fill="rgb(0,255,0)" r="2" /><circle cx="1334.1935483870968" cy="92.67857142857144" fill="rgb(0,255,0)" r="2" /><line fill="none" stroke="rgb(255,255,0)" stroke-width="1" x1="1334.1935483870968" x2="1339.1935483870968" y1="105.21428571428572" y2="105.21428571428572" /><line fill="none" stroke="rgb(255,255,0)" stroke-width="2" x1="1334.1935483870968" x2="1183.7096774193549" y1="192.96428571428567" y2="192.96428571428567" /><circle cx="1334.1935483870968" cy="192.96428571428567" fill="rgb(0,255,0)" r="2" /><circle cx="1183.7096774193549" cy="192.96428571428567" fill="rgb(0,255,0)" r="2" /><line fill="none" stroke="rgb(255,255,0)" stroke-width="1" x1="1258.9516129032259" x2="1258.9516129032259" y1="192.96428571428567" y2="187.96428571428567" /><line fill="none" stroke="rgb(255,255,0)" stroke-width="2" x1="1183.7096774193549" x2="1183.7096774193549" y1="192.96428571428567" y2="218.03571428571433" /><circle cx="1183.7096774193549" cy="192.96428571428567" fill="rgb(0,255,0)" r="2" /><circle cx="1183.7096774193549" cy="218.03571428571433" fill="rgb(0,255,0)" r="2" /><line fill="none" stroke="rgb(255,255,0)" stroke-width="1" x1="1183.7096774193549" x2="1178.7096774193549" y1="205.5" y2="205.5" /><line fill="none" stroke="rgb(255,255,0)" stroke-width="2" x1="1183.7096774193549" x2="1334.1935483870968" y1="218.03571428571433" y2="218.03571428571433" /><circle cx="1183.7096774193549" cy="218.03571428571433" fill="rgb(0,255,0)" r="2" /><circle cx="1334.1935483870968" cy="218.03571428571433" fill="rgb(0,255,0)" r="2" /><line fill="none" stroke="rgb(255,255,0)" stroke-width="1" x1="1258.9516129032259" x2="1258.9516129032259" y1="218.03571428571433" y2="223.03571428571433" /><line fill="none" stroke="rgb(255,255,0)" stroke-width="2" x1="1334.1935483870968" x2="1334.1935483870968" y1="218.03571428571433" y2="192.96428571428567" /><circle cx="1334.1935483870968" cy="218.03571428571433" fill="rgb(0,255,0)" r="2" /><circle cx="1334.1935483870968" cy="192.96428571428567" fill="rgb(0,255,0)" r="2" /><line fill="none" stroke="rgb(255,255,0)" stroke-width="1" x1="1334.1935483870968" x2="1339.1935483870968" y1="205.5" y2="205.5" /><line fill="none" stroke="rgb(255,255,0)" stroke-width="2" x1="1334.1935483870968" x2="1183.7096774193549" y1="293.25" y2="293.25" /><circle cx="1334.1935483870968" cy="293.25" fill="rgb(0,255,0)" r="2" /><circle cx="1183.7096774193549" cy="293.25" fill="rgb(0,255,0)" r="2" /><line fill="none" stroke="rgb(255,255,0)" stroke-width="1" x1="1258.9516129032259" x2="1258.9516129032259" y1="293.25" y2="288.25" /><line fill="none" stroke="rgb(255,255,0)" stroke-width="2" x1="1183.7096774193549" x2="1183.7096774193549" y1="293.25" y2="318.32142857142856" /><circle cx="1183.7096774193549" cy="293.25" fill="rgb(0,255,0)" r="2" /><circle cx="1183.7096774193549" cy="318.32142857142856" fill="rgb(0,255,0)" r="2" /><line fill="none" stroke="rgb(255,255,0)" stroke-width="1" x1="1183.7096774193549" x2="1178.7096774193549" y1="305.7857142857143" y2="305.7857142857143" /><line fill="none" stroke="rgb(255,255,0)" stroke-width="2" x1="1183.7096774193549" x2="1334.1935483870968" y1="318.32142857142856" y2="318.32142857142856" /><circle cx="1183.7096774193549" cy="318.32142857142856" fill="rgb(0,255,0)" r="2" /><circle cx="1334.1935483870968" cy="318.32142857142856" fill="rgb(0,255,0)" r="2" /><line fill="none" stroke="rgb(255,255,0)" stroke-width="1" x1="1258.9516129032259" x2="1258.9516129032259" y1="318.32142857142856" y2="323.32142857142856" /><line fill="none" stroke="rgb(255,255,0)" stroke-width="2" x1="1334.1935483870968" x2="1334.1935483870968" y1="318.32142857142856" y2="293.25" /><circle cx="1334.1935483870968" cy="318.32142857142856" fill="rgb(0,255,0)" r="2" /><circle cx="1334.1935483870968" cy="293.25" fill="rgb(0,255,0)" r="2" /><line fill="none" stroke="rgb(255,255,0)" stroke-width="1" x1="1334.1935483870968" x2="1339.1935483870968" y1="305.7857142857143" y2="305.7857142857143" /><line fill="none" stroke="rgb(250,56,35)" stroke-width="2" x1="707.1774193548387" x2="707.1774193548387" y1="606.6428571428571" y2="656.7857142857142" /><circle cx="707.1774193548387" cy="606.6428571428571" fill="rgb(0,255,0)" r="2" /><circle cx="707.1774193548387" cy="656.7857142857142" fill="rgb(0,255,0)" r="2" /><line fill="none" stroke="rgb(250,56,35)" stroke-width="1" x1="707.1774193548387" x2="702.1774193548387" y1="631.7142857142857" y2="631.7142857142857" /><line fill="none" stroke="rgb(250,56,35)" stroke-width="2" x1="707.1774193548387" x2="757.3387096774193" y1="656.7857142857142" y2="656.7857142857142" /><circle cx="707.1774193548387" cy="656.7857142857142" fill="rgb(0,255,0)" r="2" /><circle cx="757.3387096774193" cy="656.7857142857142" fill="rgb(0,255,0)" r="2" /><line fill="none" stroke="rgb(250,56,35)" stroke-width="1" x1="732.258064516129" x2="732.258064516129" y1="656.7857142857142" y2="661.7857142857142" /><line fill="none" stroke="rgb(250,56,35)" stroke-width="2" x1="757.3387096774193" x2="757.3387096774193" y1="656.7857142857142" y2="606.6428571428571" /><circle cx="757.3387096774193" cy="656.7857142857142" fill="rgb(0,255,0)" r="2" /><circle cx="757.3387096774193" cy="606.6428571428571" fill="rgb(0,255,0)" r="2" /><line fill="none" stroke="rgb(250,56,35)" stroke-width="1" x1="757.3387096774193" x2="762.3387096774193" y1="631.7142857142857" y2="631.7142857142857" /><line fill="none" stroke="rgb(250,56,35)" stroke-width="2" x1="983.0645161290323" x2="1083.3870967741934" y1="706.9285714285714" y2="706.9285714285714" /><circle cx="983.0645161290323" cy="706.9285714285714" fill="rgb(0,255,0)" r="2" /><circle cx="1083.3870967741934" cy="706.9285714285714" fill="rgb(0,255,0)" r="2" /><line fill="none" stroke="rgb(250,56,35)" stroke-width="1" x1="1033.225806451613" x2="1033.225806451613" y1="706.9285714285714" y2="711.9285714285714" /><line fill="none" stroke="rgb(255,255,0)" stroke-width="2" x1="1035.6138561617945" x2="1035.6138561617945" y1="882.4285714285714" y2="832.2857142857143" /><circle cx="1035.6138561617945" cy="882.4285714285714" fill="rgb(0,255,0)" r="2" /><circle cx="1035.6138561617945" cy="832.2857142857143" fill="rgb(0,255,0)" r="2" /><line fill="none" stroke="rgb(255,255,0)" stroke-width="1" x1="1035.6138561617945" x2="1040.6138561617945" y1="857.3571428571429" y2="857.3571428571429" /><line fill="none" stroke="rgb(255,255,0)" stroke-width="2" x1="1035.6138561617945" x2="1030.8377567414316" y1="832.2857142857143" y2="832.2857142857143" /><circle cx="1035.6138561617945" cy="832.2857142857143" fill="rgb(0,255,0)" r="2" /><circle cx="1030.8377567414316" cy="832.2857142857143" fill="rgb(0,255,0)" r="2" /><line fill="none" stroke="rgb(255,255,0)" stroke-width="1" x1="1033.2258064516132" x2="1033.2258064516132" y1="832.2857142857143" y2="827.2857142857143" /><line fill="none" stroke="rgb(255,255,0)" stroke-width="2" x1="1030.8377567414316" x2="1030.8377567414316" y1="832.2857142857143" y2="882.4285714285714" /><circle cx="1030.8377567414316" cy="832.2857142857143" fill="rgb(0,255,0)" r="2" /><circle cx="1030.8377567414316" cy="882.4285714285714" fill="rgb(0,255,0)" r="2" /><line fill="none" stroke="rgb(255,255,0)" stroke-width="1" x1="1030.8377567414316" x2="1025.8377567414316" y1="857.3571428571429" y2="857.3571428571429" /><line fill="none" stroke="rgb(250,56,35)" stroke-width="2" x1="1534.8387096774195" x2="1534.8387096774195" y1="493.82142857142856" y2="569.0357142857143" /><circle cx="1534.8387096774195" cy="493.82142857142856" fill="rgb(0,255,0)" r="2" /><circle cx="1534.8387096774195" cy="569.0357142857143" fill="rgb(0,255,0)" r="2" /><line fill="none" stroke="rgb(250,56,35)" stroke-width="1" x1="1534.8387096774195" x2="1529.8387096774195" y1="531.4285714285714" y2="531.4285714285714" /><line fill="none" stroke="rgb(250,56,35)" stroke-width="2" x1="1534.8387096774195" x2="1585.0" y1="569.0357142857143" y2="569.0357142857143" /><circle cx="1534.8387096774195" cy="569.0357142857143" fill="rgb(0,255,0)" r="2" /><circle cx="1585.0" cy="569.0357142857143" fill="rgb(0,255,0)" r="2" /><line fill="none" stroke="rgb(250,56,35)" stroke-width="1" x1="1559.9193548387098" x2="1559.9193548387098" y1="569.0357142857143" y2="574.0357142857143" /><line fill="none" stroke="rgb(250,56,35)" stroke-width="2" x1="1585.0" x2="1534.8387096774195" y1="493.82142857142856" y2="493.82142857142856" /><circle cx="1585.0" cy="493.82142857142856" fill="rgb(0,255,0)" r="2" /><circle cx="1534.8387096774195" cy="493.82142857142856" fill="rgb(0,255,0)" r="2" /><line fill="none" stroke="rgb(250,56,35)" stroke-width="1" x1="1559.9193548387098" x2="1559.9193548387098" y1="493.82142857142856" y2="488.82142857142856" /><line fill="none" stroke="rgb(255,255,0)" stroke-width="2" x1="1459.5967741935483" x2="1434.516129032258" y1="606.6428571428571" y2="606.6428571428571" /><circle cx="1459.5967741935483" cy="606.6428571428571" fill="rgb(0,255,0)" r="2" /><circle cx="1434.516129032258" cy="606.6428571428571" fill="rgb(0,255,0)" r="2" /><line fill="none" stroke="rgb(255,255,0)" stroke-width="1" x1="1447.0564516129032" x2="1447.0564516129032" y1="606.6428571428571" y2="601.6428571428571" /><line fill="none" stroke="rgb(255,255,0)" stroke-width="2" x1="1459.5967741935483" x2="1459.5967741935483" y1="631.7142857142858" y2="606.6428571428571" /><circle cx="1459.5967741935483" cy="631.7142857142858" fill="rgb(0,255,0)" r="2" /><circle cx="1459.5967741935483" cy="606.6428571428571" fill="rgb(0,255,0)" r="2" /><line fill="none" stroke="rgb(255,255,0)" stroke-width="1" x1="1459.5967741935483" x2="1464.5967741935483" y1="619.1785714285714" y2="619.1785714285714" /><line fill="none" stroke="rgb(255,255,0)" stroke-width="2" x1="1559.9193548387098" x2="1559.9193548387098" y1="681.8571428571429" y2="706.9285714285714" /><circle cx="1559.9193548387098" cy="681.8571428571429" fill="rgb(0,255,0)" r="2" /><circle cx="1559.9193548387098" cy="706.9285714285714" fill="rgb(0,255,0)" r="2" /><line fill="none" stroke="rgb(255,255,0)" stroke-width="1" x1="1559.9193548387098" x2="1554.9193548387098" y1="694.3928571428571" y2="694.3928571428571" /><line fill="none" stroke="rgb(255,255,0)" stroke-width="2" x1="1559.9193548387098" x2="1585.0" y1="706.9285714285714" y2="706.9285714285714" /><circle cx="1559.9193548387098" cy="706.9285714285714" fill="rgb(0,255,0)" r="2" /><circle cx="1585.0" cy="706.9285714285714" fill="rgb(0,255,0)" r="2" /><line fill="none" stroke="rgb(255,255,0)" stroke-width="1" x1="1572.4596774193549" x2="1572.4596774193549" y1="706.9285714285714" y2="711.9285714285714" /><line fill="none" stroke="rgb(250,56,35)" stroke-width="2" x1="1585.0" x2="1534.8387096774195" y1="744.5357142857142" y2="744.5357142857142" /><circle cx="1585.0" cy="744.5357142857142" fill="rgb(0,255,0)" r="2" /><circle cx="1534.8387096774195" cy="744.5357142857142" fill="rgb(0,255,0)" r="2" /><line fill="none" stroke="rgb(250,56,35)" stroke-width="1" x1="1559.9193548387098" x2="1559.9193548387098" y1="744.5357142857142" y2="739.5357142857142" /><line fill="none" stroke="rgb(250,56,35)" stroke-width="2" x1="1534.8387096774195" x2="1534.8387096774195" y1="744.5357142857142" y2="819.75" /><circle cx="1534.8387096774195" cy="744.5357142857142" fill="rgb(0,255,0)" r="2" /><circle cx="1534.8387096774195" cy="819.75" fill="rgb(0,255,0)" r="2" /><line fill="none" stroke="rgb(250,56,35)" stroke-width="1" x1="1534.8387096774195" x2="1529.8387096774195" y1="782.1428571428571" y2="782.1428571428571" /><line fill="none" stroke="rgb(250,56,35)" stroke-width="2" x1="1534.8387096774195" x2="1585.0" y1="819.75" y2="819.75" /><circle cx="1534.8387096774195" cy="819.75" fill="rgb(0,255,0)" r="2" /><circle cx="1585.0" cy="819.75" fill="rgb(0,255,0)" r="2" /><line fill="none" stroke="rgb(250,56,35)" stroke-width="1" x1="1559.9193548387098" x2="1559.9193548387098" y1="819.75" y2="824.75" /><line fill="none" stroke="rgb(250,56,35)" stroke-width="2" x1="757.3387096774193" x2="707.1774193548387" y1="556.5" y2="556.5" /><circle cx="757.3387096774193" cy="556.5" fill="rgb(0,255,0)" r="2" /><circle cx="707.1774193548387" cy="556.5" fill="rgb(0,255,0)" r="2" /><line fill="none" stroke="rgb(250,56,35)" stroke-width="1" x1="732.258064516129" x2="732.258064516129" y1="556.5" y2="551.5" /><line fill="none" stroke="rgb(250,56,35)" stroke-width="2" x1="707.1774193548387" x2="707.1774193548387" y1="556.5" y2="606.6428571428571" /><circle cx="707.1774193548387" cy="556.5" fill="rgb(0,255,0)" r="2" /><circle cx="707.1774193548387" cy="606.6428571428571" fill="rgb(0,255,0)" r="2" /><line fill="none" stroke="rgb(250,56,35)" stroke-width="1" x1="707.1774193548387" x2="702.1774193548387" y1="581.5714285714286" y2="581.5714285714286" /><line fill="none" stroke="rgb(250,56,35)" stroke-width="2" x1="757.3387096774193" x2="757.3387096774193" y1="606.6428571428571" y2="556.5" /><circle cx="757.3387096774193" cy="606.6428571428571" fill="rgb(0,255,0)" r="2" /><circle cx="757.3387096774193" cy="556.5" fill="rgb(0,255,0)" r="2" /><line fill="none" stroke="rgb(250,56,35)" stroke-width="1" x1="757.3387096774193" x2="762.3387096774193" y1="581.5714285714286" y2="581.5714285714286" /><line fill="none" stroke="rgb(255,255,0)" stroke-width="2" x1="58.635165306829634" x2="58.635165306829634" y1="631.7142857142858" y2="581.5714285714287" /><circle cx="58.635165306829634" cy="631.7142857142858" fill="rgb(0,255,0)" r="2" /><circle cx="58.635165306829634" cy="581.5714285714287" fill="rgb(0,255,0)" r="2" /><line fill="none" stroke="rgb(255,255,0)" stroke-width="1" x1="58.635165306829634" x2="63.635165306829634" y1="606.6428571428572" y2="606.6428571428572" /><line fill="none" stroke="rgb(255,255,0)" stroke-width="2" x1="51.526125015751006" x2="51.526125015751006" y1="581.5714285714287" y2="631.7142857142858" /><circle cx="51.526125015751006" cy="581.5714285714287" fill="rgb(0,255,0)" r="2" /><circle cx="51.526125015751006" cy="631.7142857142858" fill="rgb(0,255,0)" r="2" /><line fill="none" stroke="rgb(255,255,0)" stroke-width="1" x1="51.526125015751006" x2="46.526125015751006" y1="606.6428571428572" y2="606.6428571428572" /></svg>