<?xml version="1.0" encoding="utf-8" ?>
<svg baseProfile="full" height="1113" version="1.1" width="1615" xmlns="http://www.w3.org/2000/svg" xmlns:ev="http://www.w3.org/2001/xml-events" xmlns:xlink="http://www.w3.org/1999/xlink"><defs /><rect fill="rgb(73,109,137)" fill-opacity="1" height="1113" width="1615" x="0" y="0" /><line fill="none" stroke="rgb(255,255,0)" stroke-width="2" x1="1284.032258064516" x2="1233.8709677419354" y1="1083.0" y2="1083.0" /><circle cx="1284.032258064516" cy="1083.0" fill="rgb(0,255,0)" r="2" /><circle cx="1233.8709677419354" cy="1083.0" fill="rgb(0,255,0)" r="2" /><line fill="none" stroke="rgb(255,255,0)" stroke-width="1" x1="1258.9516129032259" x2="1258.9516129032259" y1="1083.0" y2="1078.0" /><text fill="black" font-family="sans-serif" font-size="12" x="1250.9516129032259" y="1087.0">0</text><line fill="none" stroke="rgb(255,255,0)" stroke-width="2" x1="1233.8709677419354" x2="1233.8709677419354" y1="1083.0" y2="882.4285714285714" /><circle cx="1233.8709677419354" cy="1083.0" fill="rgb(0,255,0)" r="2" /><circle cx="1233.8709677419354" cy="882.4285714285714" fill="rgb(0,255,0)" r="2" /><line fill="none" stroke="rgb(255,255,0)" stroke-width="1" x1="1233.8709677419354" x2="1238.8709677419354" y1="982.7142857142858" y2="982.7142857142858" /><text fill="black" font-family="sans-serif" font-size="12" x="1225.8709677419354" y="986.7142857142858">1</text><line fill="none" stroke="rgb(255,255,0)" stroke-width="2" x1="1233.8709677419354" x2="1133.5483870967741" y1="882.4285714285714" y2="882.4285714285714" /><circle cx="1233.8709677419354" cy="882.4285714285714" fill="rgb(0,255,0)" r="2" /><circle cx="1133.5483870967741" cy="882.4285714285714" fill="rgb(0,255,0)" r="2" /><line fill="none" stroke="rgb(255,255,0)" stroke-width="1" x1="1183.7096774193546" x2="1183.7096774193546" y1="882.4285714285714" y2="877.4285714285714" /><text fill="black" font-family="sans-serif" font-size="12" x="1175.7096774193546" y="886.4285714285714">2</text><line fill="none" stroke="rgb(255,255,0)" stroke-width="2" x1="1133.5483870967741" x2="1133.5483870967741" y1="882.4285714285714" y2="782.1428571428571" /><circle cx="1133.5483870967741" cy="882.4285714285714" fill="rgb(0,255,0)" r="2" /><circle cx="1133.5483870967741" cy="782.1428571428571" fill="rgb(0,255,0)" r="2" /><line fill="none" stroke="rgb(255,255,0)" stroke-width="1" x1="1133.5483870967741" x2="1138.5483870967741" y1="832.2857142857142" y2="832.2857142857142" /><text fill="black" font-family="sans-serif" font-size="12" x="1125.5483870967741" y="836.2857142857142">3</text><line fill="none" stroke="rgb(255,255,0)" stroke-width="2" x1="1133.5483870967741" x2="1083.3870967741934" y1="782.1428571428571" y2="782.1428571428571" /><circle cx="1133.5483870967741" cy="782.1428571428571" fill="rgb(0,255,0)" r="2" /><circle cx="1083.3870967741934" cy="782.1428571428571" fill="rgb(0,255,0)" r="2" /><line fill="none" stroke="rgb(255,255,0)" stroke-width="1" x1="1108.467741935484" x2="1108.467741935484" y1="782.1428571428571" y2="777.1428571428571" /><text fill="black" font-family="sans-serif" font-size="12" x="1100.467741935484" y="786.1428571428571">4</text><line fill="none" stroke="rgb(255,255,0)" stroke-width="2" x1="1083.3870967741934" x2="1083.3870967741934" y1="782.1428571428571" y2="882.4285714285714" /><circle cx="1083.3870967741934" cy="782.1428571428571" fill="rgb(0,255,0)" r="2" /><circle cx="1083.3870967741934" cy="882.4285714285714" fill="rgb(0,255,0)" r="2" /><line fill="none" stroke="rgb(255,255,0)" stroke-width="1" x1="1083.3870967741934" x2="1078.3870967741934" y1="832.2857142857142" y2="832.2857142857142" /><text fill="black" font-family="sans-serif" font-size="12" x="1075.3870967741934" y="836.2857142857142">5</text><line fill="none" stroke="rgb(255,255,0)" stroke-width="2" x1="1083.3870967741934" x2="1035.6138561617945" y1="882.4285714285714" y2="882.4285714285714" /><circle cx="1083.3870967741934" cy="882.4285714285714" fill="rgb(0,255,0)" r="2" /><circle cx="1035.6138561617945" cy="882.4285714285714" fill="rgb(0,255,0)" r="2" /><line fill="none" stroke="rgb(255,255,0)" stroke-width="1" x1="1059.5004764679938" x2="1059.5004764679938" y1="882.4285714285714" y2="877.4285714285714" /><text fill="black" font-family="sans-serif" font-size="12" x="1051.5004764679938" y="886.4285714285714">6</text><line fill="none" stroke="rgb(255,255,0)" stroke-width="2" x1="1030.8377567414316" x2="983.0645161290323" y1="882.4285714285714" y2="882.4285714285714" /><circle cx="1030.8377567414316" cy="882.4285714285714" fill="rgb(0,255,0)" r="2" /><circle cx="983.0645161290323" cy="882.4285714285714" fill="rgb(0,255,0)" r="2" /><line fill="none" stroke="rgb(255,255,0)" stroke-width="1" x1="1006.951136435232" x2="1006.951136435232" y1="882.4285714285714" y2="877.4285714285714" /><text fill="black" font-family="sans-serif" font-size="12" x="998.951136435232" y="886.4285714285714">7</text><line fill="none" stroke="rgb(255,255,0)" stroke-width="2" x1="983.0645161290323" x2="983.0645161290323" y1="882.4285714285714" y2="706.9285714285714" /><circle cx="983.0645161290323" cy="882.4285714285714" fill="rgb(0,255,0)" r="2" /><circle cx="983.0645161290323" cy="706.9285714285714" fill="rgb(0,255,0)" r="2" /><line fill="none" stroke="rgb(255,255,0)" stroke-width="1" x1="983.0645161290323" x2="988.0645161290323" y1="794.6785714285714" y2="794.6785714285714" /><text fill="black" font-family="sans-serif" font-size="12" x="975.0645161290323" y="798.6785714285714">8</text><line fill="none" stroke="rgb(10,99,207)" stroke-width="2" x1="983.0645161290323" x2="983.0645161290323" y1="706.9285714285714" y2="681.8571428571429" /><circle cx="983.0645161290323" cy="706.9285714285714" fill="rgb(0,255,0)" r="2" /><circle cx="983.0645161290323" cy="681.8571428571429" fill="rgb(0,255,0)" r="2" /><line fill="none" stroke="rgb(10,99,207)" stroke-width="1" x1="983.0645161290323" x2="988.0645161290323" y1="694.3928571428571" y2="694.3928571428571" /><text fill="black" font-family="sans-serif" font-size="12" x="975.0645161290323" y="698.3928571428571">9</text><line fill="none" stroke="rgb(10,99,207)" stroke-width="2" x1="983.0645161290323" x2="1083.3870967741934" y1="681.8571428571429" y2="681.8571428571429" /><circle cx="983.0645161290323" cy="681.8571428571429" fill="rgb(0,255,0)" r="2" /><circle cx="1083.3870967741934" cy="681.8571428571429" fill="rgb(0,255,0)" r="2" /><line fill="none" stroke="rgb(10,99,207)" stroke-width="1" x1="1033.225806451613" x2="1033.225806451613" y1="681.8571428571429" y2="686.8571428571429" /><text fill="black" font-family="sans-serif" font-size="12" x="1025.225806451613" y="685.8571428571429">10</text><line fill="none" stroke="rgb(10,99,207)" stroke-width="2" x1="1083.3870967741934" x2="1083.3870967741934" y1="681.8571428571429" y2="706.9285714285714" /><circle cx="1083.3870967741934" cy="681.8571428571429" fill="rgb(0,255,0)" r="2" /><circle cx="1083.3870967741934" cy="706.9285714285714" fill="rgb(0,255,0)" r="2" /><line fill="none" stroke="rgb(10,99,207)" stroke-width="1" x1="1083.3870967741934" x2="1078.3870967741934" y1="694.3928571428571" y2="694.3928571428571" /><text fill="black" font-family="sans-serif" font-size="12" x="1075.3870967741934" y="698.3928571428571">11</text><line fill="none" stroke="rgb(255,255,0)" stroke-width="2" x1="1083.3870967741934" x2="1083.3870967741934" y1="706.9285714285714" y2="732.0" /><circle cx="1083.3870967741934" cy="706.9285714285714" fill="rgb(0,255,0)" r="2" /><circle cx="1083.3870967741934" cy="732.0" fill="rgb(0,255,0)" r="2" /><line fill="none" stroke="rgb(255,255,0)" stroke-width="1" x1="1083.3870967741934" x2="1078.3870967741934" y1="719.4642857142858" y2="719.4642857142858" /><text fill="black" font-family="sans-serif" font-size="12" x="1075.3870967741934" y="723.4642857142858">12</text><line fill="none" stroke="rgb(255,255,0)" stroke-width="2" x1="1083.3870967741934" x2="1104.9132217899446" y1="732.0" y2="732.0" /><circle cx="1083.3870967741934" cy="732.0" fill="rgb(0,255,0)" r="2" /><circle cx="1104.9132217899446" cy="732.0" fill="rgb(0,255,0)" r="2" /><line fill="none" stroke="rgb(255,255,0)" stroke-width="1" x1="1094.1501592820691" x2="1094.1501592820691" y1="732.0" y2="737.0" /><text fill="black" font-family="sans-serif" font-size="12" x="1086.1501592820691" y="736.0">13</text><line fill="none" stroke="rgb(255,255,0)" stroke-width="2" x1="1112.0222620810232" x2="1133.5483870967741" y1="732.0" y2="732.0" /><circle cx="1112.0222620810232" cy="732.0" fill="rgb(0,255,0)" r="2" /><circle cx="1133.5483870967741" cy="732.0" fill="rgb(0,255,0)" r="2" /><line fill="none" stroke="rgb(255,255,0)" stroke-width="1" x1="1122.7853245888987" x2="1122.7853245888987" y1="732.0" y2="737.0" /><text fill="black" font-family="sans-serif" font-size="12" x="1114.7853245888987" y="736.0">14</text><line fill="none" stroke="rgb(255,255,0)" stroke-width="2" x1="1133.5483870967741" x2="1133.5483870967741" y1="732.0" y2="631.7142857142858" /><circle cx="1133.5483870967741" cy="732.0" fill="rgb(0,255,0)" r="2" /><circle cx="1133.5483870967741" cy="631.7142857142858" fill="rgb(0,255,0)" r="2" /><line fill="none" stroke="rgb(255,255,0)" stroke-width="1" x1="1133.5483870967741" x2="1138.5483870967741" y1="681.8571428571429" y2="681.8571428571429" /><text fill="black" font-family="sans-serif" font-size="12" x="1125.5483870967741" y="685.8571428571429">15</text><line fill="none" stroke="rgb(255,255,0)" stroke-width="2" x1="1133.5483870967741" x2="882.7419354838709" y1="631.7142857142858" y2="631.7142857142858" /><circle cx="1133.5483870967741" cy="631.7142857142858" fill="rgb(0,255,0)" r="2" /><circle cx="882.7419354838709" cy="631.7142857142858" fill="rgb(0,255,0)" r="2" /><line fill="none" stroke="rgb(255,255,0)" stroke-width="1" x1="1008.1451612903224" x2="1008.1451612903224" y1="631.7142857142858" y2="626.7142857142858" /><text fill="black" font-family="sans-serif" font-size="12" x="1000.1451612903224" y="635.7142857142858">16</text><line fill="none" stroke="rgb(255,255,0)" stroke-width="2" x1="882.7419354838709" x2="882.7419354838709" y1="631.7142857142858" y2="732.0" /><circle cx="882.7419354838709" cy="631.7142857142858" fill="rgb(0,255,0)" r="2" /><circle cx="882.7419354838709" cy="732.0" fill="rgb(0,255,0)" r="2" /><line fill="none" stroke="rgb(255,255,0)" stroke-width="1" x1="882.7419354838709" x2="877.7419354838709" y1="681.8571428571429" y2="681.8571428571429" /><text fill="black" font-family="sans-serif" font-size="12" x="874.7419354838709" y="685.8571428571429">17</text><line fill="none" stroke="rgb(255,255,0)" stroke-width="2" x1="882.7419354838709" x2="581.7741935483871" y1="732.0" y2="732.0" /><circle cx="882.7419354838709" cy="732.0" fill="rgb(0,255,0)" r="2" /><circle cx="581.7741935483871" cy="732.0" fill="rgb(0,255,0)" r="2" /><line fill="none" stroke="rgb(255,255,0)" stroke-width="1" x1="732.258064516129" x2="732.258064516129" y1="732.0" y2="727.0" /><text fill="black" font-family="sans-serif" font-size="12" x="724.258064516129" y="736.0">18</text><line fill="none" stroke="rgb(255,255,0)" stroke-width="2" x1="581.7741935483871" x2="581.7741935483871" y1="732.0" y2="631.7142857142858" /><circle cx="581.7741935483871" cy="732.0" fill="rgb(0,255,0)" r="2" /><circle cx="581.7741935483871" cy="631.7142857142858" fill="rgb(0,255,0)" r="2" /><line fill="none" stroke="rgb(255,255,0)" stroke-width="1" x1="581.7741935483871" x2="586.7741935483871" y1="681.8571428571429" y2="681.8571428571429" /><text fill="black" font-family="sans-serif" font-size="12" x="573.7741935483871" y="685.8571428571429">19</text><line fill="none" stroke="rgb(255,255,0)" stroke-width="2" x1="581.7741935483871" x2="330.96774193548384" y1="631.7142857142858" y2="631.7142857142858" /><circle cx="581.7741935483871" cy="631.7142857142858" fill="rgb(0,255,0)" r="2" /><circle cx="330.96774193548384" cy="631.7142857142858" fill="rgb(0,255,0)" r="2" /><line fill="none" stroke="rgb(255,255,0)" stroke-width="1" x1="456.3709677419355" x2="456.3709677419355" y1="631.7142857142858" y2="626.7142857142858" /><text fill="black" font-family="sans-serif" font-size="12" x="448.3709677419355" y="635.7142857142858">20</text><line fill="none" stroke="rgb(255,255,0)" stroke-width="2" x1="330.96774193548384" x2="330.96774193548384" y1="631.7142857142858" y2="681.8571428571429" /><circle cx="330.96774193548384" cy="631.7142857142858" fill="rgb(0,255,0)" r="2" /><circle cx="330.96774193548384" cy="681.8571428571429" fill="rgb(0,255,0)" r="2" /><line fill="none" stroke="rgb(255,255,0)" stroke-width="1" x1="330.96774193548384" x2="325.96774193548384" y1="656.7857142857143" y2="656.7857142857143" /><text fill="black" font-family="sans-serif" font-size="12" x="322.96774193548384" y="660.7857142857143">21</text><line fill="none" stroke="rgb(255,255,0)" stroke-width="2" x1="330.96774193548384" x2="80.16129032258064" y1="681.8571428571429" y2="681.8571428571429" /><circle cx="330.96774193548384" cy="681.8571428571429" fill="rgb(0,255,0)" r="2" /><circle cx="80.16129032258064" cy="681.8571428571429" fill="rgb(0,255,0)" r="2" /><line fill="none" stroke="rgb(255,255,0)" stroke-width="1" x1="205.56451612903226" x2="205.56451612903226" y1="681.8571428571429" y2="676.8571428571429" /><text fill="black" font-family="sans-serif" font-size="12" x="197.56451612903226" y="685.8571428571429">22</text><line fill="none" stroke="rgb(255,255,0)" stroke-width="2" x1="80.16129032258064" x2="80.16129032258064" y1="681.8571428571429" y2="631.7142857142858" /><circle cx="80.16129032258064" cy="681.8571428571429" fill="rgb(0,255,0)" r="2" /><circle cx="80.16129032258064" cy="631.7142857142858" fill="rgb(0,255,0)" r="2" /><line fill="none" stroke="rgb(255,255,0)" stroke-width="1" x1="80.16129032258064" x2="85.16129032258064" y1="656.7857142857143" y2="656.7857142857143" /><text fill="black" font-family="sans-serif" font-size="12" x="72.16129032258064" y="660.7857142857143">23</text><line fill="none" stroke="rgb(255,255,0)" stroke-width="2" x1="80.16129032258064" x2="30.0" y1="631.7142857142858" y2="631.7142857142858" /><circle cx="80.16129032258064" cy="631.7142857142858" fill="rgb(0,255,0)" r="2" /><circle cx="30.0" cy="631.7142857142858" fill="rgb(0,255,0)" r="2" /><line fill="none" stroke="rgb(255,255,0)" stroke-width="1" x1="55.08064516129032" x2="55.08064516129032" y1="631.7142857142858" y2="626.7142857142858" /><text fill="black" font-family="sans-serif" font-size="12" x="47.08064516129032" y="635.7142857142858">24</text><line fill="none" stroke="rgb(255,255,0)" stroke-width="2" x1="30.0" x2="30.0" y1="631.7142857142858" y2="581.5714285714287" /><circle cx="30.0" cy="631.7142857142858" fill="rgb(0,255,0)" r="2" /><circle cx="30.0" cy="581.5714285714287" fill="rgb(0,255,0)" r="2" /><line fill="none" stroke="rgb(255,255,0)" stroke-width="1" x1="30.0" x2="35.0" y1="606.6428571428572" y2="606.6428571428572" /><text fill="black" font-family="sans-serif" font-size="12" x="22.0" y="610.6428571428572">25</text><line fill="none" stroke="rgb(255,255,0)" stroke-width="2" x1="30.0" x2="51.526125015751006" y1="581.5714285714287" y2="581.5714285714287" /><circle cx="30.0" cy="581.5714285714287" fill="rgb(0,255,0)" r="2" /><circle cx="51.526125015751006" cy="581.5714285714287" fill="rgb(0,255,0)" r="2" /><line fill="none" stroke="rgb(255,255,0)" stroke-width="1" x1="40.7630625078755" x2="40.7630625078755" y1="581.5714285714287" y2="586.5714285714287" /><text fill="black" font-family="sans-serif" font-size="12" x="32.7630625078755" y="585.5714285714287">26</text><line fill="none" stroke="rgb(255,255,0)" stroke-width="2" x1="58.635165306829634" x2="80.16129032258064" y1="581.5714285714287" y2="581.5714285714287" /><circle cx="58.635165306829634" cy="581.5714285714287" fill="rgb(0,255,0)" r="2" /><circle cx="80.16129032258064" cy="581.5714285714287" fill="rgb(0,255,0)" r="2" /><line fill="none" stroke="rgb(255,255,0)" stroke-width="1" x1="69.39822781470514" x2="69.39822781470514" y1="581.5714285714287" y2="586.5714285714287" /><text fill="black" font-family="sans-serif" font-size="12" x="61.39822781470514" y="585.5714285714287">27</text><line fill="none" stroke="rgb(255,255,0)" stroke-width="2" x1="80.16129032258064" x2="80.16129032258064" y1="581.5714285714287" y2="531.4285714285714" /><circle cx="80.16129032258064" cy="581.5714285714287" fill="rgb(0,255,0)" r="2" /><circle cx="80.16129032258064" cy="531.4285714285714" fill="rgb(0,255,0)" r="2" /><line fill="none" stroke="rgb(255,255,0)" stroke-width="1" x1="80.16129032258064" x2="85.16129032258064" y1="556.5" y2="556.5" /><text fill="black" font-family="sans-serif" font-size="12" x="72.16129032258064" y="560.5">28</text><line fill="none" stroke="rgb(255,255,0)" stroke-width="2" x1="80.16129032258064" x2="330.96774193548384" y1="531.4285714285714" y2="531.4285714285714" /><circle cx="80.16129032258064" cy="531.4285714285714" fill="rgb(0,255,0)" r="2" /><circle cx="330.96774193548384" cy="531.4285714285714" fill="rgb(0,255,0)" r="2" /><line fill="none" stroke="rgb(255,255,0)" stroke-width="1" x1="205.56451612903226" x2="205.56451612903226" y1="531.4285714285714" y2="536.4285714285714" /><text fill="black" font-family="sans-serif" font-size="12" x="197.56451612903226" y="535.4285714285714">29</text><line fill="none" stroke="rgb(255,255,0)" stroke-width="2" x1="330.96774193548384" x2="330.96774193548384" y1="531.4285714285714" y2="581.5714285714287" /><circle cx="330.96774193548384" cy="531.4285714285714" fill="rgb(0,255,0)" r="2" /><circle cx="330.96774193548384" cy="581.5714285714287" fill="rgb(0,255,0)" r="2" /><line fill="none" stroke="rgb(255,255,0)" stroke-width="1" x1="330.96774193548384" x2="325.96774193548384" y1="556.5" y2="556.5" /><text fill="black" font-family="sans-serif" font-size="12" x="322.96774193548384" y="560.5">30</text><line fill="none" stroke="rgb(255,255,0)" stroke-width="2" x1="330.96774193548384" x2="352.4938669512349" y1="581.5714285714287" y2="581.5714285714287" /><circle cx="330.96774193548384" cy="581.5714285714287" fill="rgb(0,255,0)" r="2" /><circle cx="352.4938669512349" cy="581.5714285714287" fill="rgb(0,255,0)" r="2" /><line fill="none" stroke="rgb(255,255,0)" stroke-width="1" x1="341.7308044433594" x2="341.7308044433594" y1="581.5714285714287" y2="586.5714285714287" /><text fill="black" font-family="sans-serif" font-size="12" x="333.7308044433594" y="585.5714285714287">31</text><line fill="none" stroke="rgb(255,255,0)" stroke-width="2" x1="359.6029072423135" x2="452.8164475963962" y1="581.5714285714287" y2="581.5714285714287" /><circle cx="359.6029072423135" cy="581.5714285714287" fill="rgb(0,255,0)" r="2" /><circle cx="452.8164475963962" cy="581.5714285714287" fill="rgb(0,255,0)" r="2" /><line fill="none" stroke="rgb(255,255,0)" stroke-width="1" x1="406.2096774193549" x2="406.2096774193549" y1="581.5714285714287" y2="586.5714285714287" /><text fill="black" font-family="sans-serif" font-size="12" x="398.2096774193549" y="585.5714285714287">32</text><line fill="none" stroke="rgb(255,255,0)" stroke-width="2" x1="459.9254878874748" x2="553.1390282415574" y1="581.5714285714287" y2="581.5714285714287" /><circle cx="459.9254878874748" cy="581.5714285714287" fill="rgb(0,255,0)" r="2" /><circle cx="553.1390282415574" cy="581.5714285714287" fill="rgb(0,255,0)" r="2" /><line fill="none" stroke="rgb(255,255,0)" stroke-width="1" x1="506.5322580645161" x2="506.5322580645161" y1="581.5714285714287" y2="586.5714285714287" /><text fill="black" font-family="sans-serif" font-size="12" x="498.5322580645161" y="585.5714285714287">33</text><line fill="none" stroke="rgb(255,255,0)" stroke-width="2" x1="560.2480685326361" x2="581.7741935483871" y1="581.5714285714287" y2="581.5714285714287" /><circle cx="560.2480685326361" cy="581.5714285714287" fill="rgb(0,255,0)" r="2" /><circle cx="581.7741935483871" cy="581.5714285714287" fill="rgb(0,255,0)" r="2" /><line fill="none" stroke="rgb(255,255,0)" stroke-width="1" x1="571.0111310405116" x2="571.0111310405116" y1="581.5714285714287" y2="586.5714285714287" /><text fill="black" font-family="sans-serif" font-size="12" x="563.0111310405116" y="585.5714285714287">34</text><line fill="none" stroke="rgb(255,255,0)" stroke-width="2" x1="581.7741935483871" x2="581.7741935483871" y1="581.5714285714287" y2="481.28571428571433" /><circle cx="581.7741935483871" cy="581.5714285714287" fill="rgb(0,255,0)" r="2" /><circle cx="581.7741935483871" cy="481.28571428571433" fill="rgb(0,255,0)" r="2" /><line fill="none" stroke="rgb(255,255,0)" stroke-width="1" x1="581.7741935483871" x2="586.7741935483871" y1="531.4285714285716" y2="531.4285714285716" /><text fill="black" font-family="sans-serif" font-size="12" x="573.7741935483871" y="535.4285714285716">35</text><line fill="none" stroke="rgb(255,255,0)" stroke-width="2" x1="581.7741935483871" x2="882.7419354838709" y1="481.28571428571433" y2="481.28571428571433" /><circle cx="581.7741935483871" cy="481.28571428571433" fill="rgb(0,255,0)" r="2" /><circle cx="882.7419354838709" cy="481.28571428571433" fill="rgb(0,255,0)" r="2" /><line fill="none" stroke="rgb(255,255,0)" stroke-width="1" x1="732.258064516129" x2="732.258064516129" y1="481.28571428571433" y2="486.28571428571433" /><text fill="black" font-family="sans-serif" font-size="12" x="724.258064516129" y="485.28571428571433">36</text><line fill="none" stroke="rgb(255,255,0)" stroke-width="2" x1="882.7419354838709" x2="882.7419354838709" y1="481.28571428571433" y2="581.5714285714287" /><circle cx="882.7419354838709" cy="481.28571428571433" fill="rgb(0,255,0)" r="2" /><circle cx="882.7419354838709" cy="581.5714285714287" fill="rgb(0,255,0)" r="2" /><line fill="none" stroke="rgb(255,255,0)" stroke-width="1" x1="882.7419354838709" x2="877.7419354838709" y1="531.4285714285716" y2="531.4285714285716" /><text fill="black" font-family="sans-serif" font-size="12" x="874.7419354838709" y="535.4285714285716">37</text><line fill="none" stroke="rgb(255,255,0)" stroke-width="2" x1="882.7419354838709" x2="904.2680604996219" y1="581.5714285714287" y2="581.5714285714287" /><circle cx="882.7419354838709" cy="581.5714285714287" fill="rgb(0,255,0)" r="2" /><circle cx="904.2680604996219" cy="581.5714285714287" fill="rgb(0,255,0)" r="2" /><line fill="none" stroke="rgb(255,255,0)" stroke-width="1" x1="893.5049979917464" x2="893.5049979917464" y1="581.5714285714287" y2="586.5714285714287" /><text fill="black" font-family="sans-serif" font-size="12" x="885.5049979917464" y="585.5714285714287">38</text><line fill="none" stroke="rgb(255,255,0)" stroke-width="2" x1="911.3771007907006" x2="1004.5906411447833" y1="581.5714285714287" y2="581.5714285714287" /><circle cx="911.3771007907006" cy="581.5714285714287" fill="rgb(0,255,0)" r="2" /><circle cx="1004.5906411447833" cy="581.5714285714287" fill="rgb(0,255,0)" r="2" /><line fill="none" stroke="rgb(255,255,0)" stroke-width="1" x1="957.983870967742" x2="957.983870967742" y1="581.5714285714287" y2="586.5714285714287" /><text fill="black" font-family="sans-serif" font-size="12" x="949.983870967742" y="585.5714285714287">39</text><line fill="none" stroke="rgb(255,255,0)" stroke-width="2" x1="1011.6996814358619" x2="1104.9132217899446" y1="581.5714285714287" y2="581.5714285714287" /><circle cx="1011.6996814358619" cy="581.5714285714287" fill="rgb(0,255,0)" r="2" /><circle cx="1104.9132217899446" cy="581.5714285714287" fill="rgb(0,255,0)" r="2" /><line fill="none" stroke="rgb(255,255,0)" stroke-width="1" x1="1058.3064516129032" x2="1058.3064516129032" y1="581.5714285714287" y2="586.5714285714287" /><text fill="black" font-family="sans-serif" font-size="12" x="1050.3064516129032" y="585.5714285714287">40</text><line fill="none" stroke="rgb(255,255,0)" stroke-width="2" x1="1112.0222620810232" x2="1133.5483870967741" y1="581.5714285714287" y2="581.5714285714287" /><circle cx="1112.0222620810232" cy="581.5714285714287" fill="rgb(0,255,0)" r="2" /><circle cx="1133.5483870967741" cy="581.5714285714287" fill="rgb(0,255,0)" r="2" /><line fill="none" stroke="rgb(255,255,0)" stroke-width="1" x1="1122.7853245888987" x2="1122.7853245888987" y1="581.5714285714287" y2="586.5714285714287" /><text fill="black" font-family="sans-serif" font-size="12" x="1114.7853245888987" y="585.5714285714287">41</text><line fill="none" stroke="rgb(255,255,0)" stroke-width="2" x1="1133.5483870967741" x2="1133.5483870967741" y1="581.5714285714287" y2="431.1428571428571" /><circle cx="1133.5483870967741" cy="581.5714285714287" fill="rgb(0,255,0)" r="2" /><circle cx="1133.5483870967741" cy="431.1428571428571" fill="rgb(0,255,0)" r="2" /><line fill="none" stroke="rgb(255,255,0)" stroke-width="1" x1="1133.5483870967741" x2="1138.5483870967741" y1="506.3571428571429" y2="506.3571428571429" /><text fill="black" font-family="sans-serif" font-size="12" x="1125.5483870967741" y="510.3571428571429">42</text><line fill="none" stroke="rgb(255,255,0)" stroke-width="2" x1="1133.5483870967741" x2="1233.8709677419354" y1="431.1428571428571" y2="431.1428571428571" /><circle cx="1133.5483870967741" cy="431.1428571428571" fill="rgb(0,255,0)" r="2" /><circle cx="1233.8709677419354" cy="431.1428571428571" fill="rgb(0,255,0)" r="2" /><line fill="none" stroke="rgb(255,255,0)" stroke-width="1" x1="1183.7096774193546" x2="1183.7096774193546" y1="431.1428571428571" y2="436.1428571428571" /><text fill="black" font-family="sans-serif" font-size="12" x="1175.7096774193546" y="435.1428571428571">43</text><line fill="none" stroke="rgb(255,255,0)" stroke-width="2" x1="1233.8709677419354" x2="1233.8709677419354" y1="431.1428571428571" y2="381.0" /><circle cx="1233.8709677419354" cy="431.1428571428571" fill="rgb(0,255,0)" r="2" /><circle cx="1233.8709677419354" cy="381.0" fill="rgb(0,255,0)" r="2" /><line fill="none" stroke="rgb(255,255,0)" stroke-width="1" x1="1233.8709677419354" x2="1238.8709677419354" y1="406.07142857142856" y2="406.07142857142856" /><text fill="black" font-family="sans-serif" font-size="12" x="1225.8709677419354" y="410.07142857142856">44</text><line fill="none" stroke="rgb(255,255,0)" stroke-width="2" x1="1233.8709677419354" x2="1133.5483870967741" y1="381.0" y2="381.0" /><circle cx="1233.8709677419354" cy="381.0" fill="rgb(0,255,0)" r="2" /><circle cx="1133.5483870967741" cy="381.0" fill="rgb(0,255,0)" r="2" /><line fill="none" stroke="rgb(255,255,0)" stroke-width="1" x1="1183.7096774193546" x2="1183.7096774193546" y1="381.0" y2="376.0" /><text fill="black" font-family="sans-serif" font-size="12" x="1175.7096774193546" y="385.0">45</text><line fill="none" stroke="rgb(255,255,0)" stroke-width="2" x1="1133.5483870967741" x2="1133.5483870967741" y1="381.0" y2="30.0" /><circle cx="1133.5483870967741" cy="381.0" fill="rgb(0,255,0)" r="2" /><circle cx="1133.5483870967741" cy="30.0" fill="rgb(0,255,0)" r="2" /><line fill="none" stroke="rgb(255,255,0)" stroke-width="1" x1="1133.5483870967741" x2="1138.5483870967741" y1="205.5" y2="205.5" /><text fill="black" font-family="sans-serif" font-size="12" x="1125.5483870967741" y="209.5">46</text><line fill="none" stroke="rgb(255,255,0)" stroke-width="2" x1="1133.5483870967741" x2="1384.3548387096773" y1="30.0" y2="30.0" /><circle cx="1133.5483870967741" cy="30.0" fill="rgb(0,255,0)" r="2" /><circle cx="1384.3548387096773" cy="30.0" fill="rgb(0,255,0)" r="2" /><line fill="none" stroke="rgb(255,255,0)" stroke-width="1" x1="1258.9516129032259" x2="1258.9516129032259" y1="30.0" y2="35.0" /><text fill="black" font-family="sans-serif" font-size="12" x="1250.9516129032259" y="34.0">47</text><line fill="none" stroke="rgb(255,255,0)" stroke-width="2" x1="1384.3548387096773" x2="1384.3548387096773" y1="30.0" y2="381.0" /><circle cx="1384.3548387096773" cy="30.0" fill="rgb(0,255,0)" r="2" /><circle cx="1384.3548387096773" cy="381.0" fill="rgb(0,255,0)" r="2" /><line fill="none" stroke="rgb(255,255,0)" stroke-width="1" x1="1384.3548387096773" x2="1379.3548387096773" y1="205.5" y2="205.5" /><text fill="black" font-family="sans-serif" font-size="12" x="1376.3548387096773" y="209.5">48</text><line fill="none" stroke="rgb(255,255,0)" stroke-width="2" x1="1384.3548387096773" x2="1284.032258064516" y1="381.0" y2="381.0" /><circle cx="1384.3548387096773" cy="381.0" fill="rgb(0,255,0)" r="2" /><circle cx="1284.032258064516" cy="381.0" fill="rgb(0,255,0)" r="2" /><line fill="none" stroke="rgb(255,255,0)" stroke-width="1" x1="1334.1935483870966" x2="1334.1935483870966" y1="381.0" y2="376.0" /><text fill="black" font-family="sans-serif" font-size="12" x="1326.1935483870966" y="385.0">49</text><line fill="none" stroke="rgb(255,255,0)" stroke-width="2" x1="1284.032258064516" x2="1284.032258064516" y1="381.0" y2="402.51821463448664" /><circle cx="1284.032258064516" cy="381.0" fill="rgb(0,255,0)" r="2" /><circle cx="1284.032258064516" cy="402.51821463448664" fill="rgb(0,255,0)" r="2" /><line fill="none" stroke="rgb(255,255,0)" stroke-width="1" x1="1284.032258064516" x2="1279.032258064516" y1="391.7591073172433" y2="391.7591073172433" /><text fill="black" font-family="sans-serif" font-size="12" x="1276.032258064516" y="395.7591073172433">50</text><line fill="none" stroke="rgb(255,255,0)" stroke-width="2" x1="1284.032258064516" x2="1284.032258064516" y1="409.6246425083706" y2="431.1428571428571" /><circle cx="1284.032258064516" cy="409.6246425083706" fill="rgb(0,255,0)" r="2" /><circle cx="1284.032258064516" cy="431.1428571428571" fill="rgb(0,255,0)" r="2" /><line fill="none" stroke="rgb(255,255,0)" stroke-width="1" x1="1284.032258064516" x2="1279.032258064516" y1="420.38374982561385" y2="420.38374982561385" /><text fill="black" font-family="sans-serif" font-size="12" x="1276.032258064516" y="424.38374982561385">51</text><line fill="none" stroke="rgb(255,255,0)" stroke-width="2" x1="1284.032258064516" x2="1384.3548387096773" y1="431.1428571428571" y2="431.1428571428571" /><circle cx="1284.032258064516" cy="431.1428571428571" fill="rgb(0,255,0)" r="2" /><circle cx="1384.3548387096773" cy="431.1428571428571" fill="rgb(0,255,0)" r="2" /><line fill="none" stroke="rgb(255,255,0)" stroke-width="1" x1="1334.1935483870966" x2="1334.1935483870966" y1="431.1428571428571" y2="436.1428571428571" /><text fill="black" font-family="sans-serif" font-size="12" x="1326.1935483870966" y="435.1428571428571">52</text><line fill="none" stroke="rgb(255,255,0)" stroke-width="2" x1="1384.3548387096773" x2="1384.3548387096773" y1="431.1428571428571" y2="531.4285714285714" /><circle cx="1384.3548387096773" cy="431.1428571428571" fill="rgb(0,255,0)" r="2" /><circle cx="1384.3548387096773" cy="531.4285714285714" fill="rgb(0,255,0)" r="2" /><line fill="none" stroke="rgb(255,255,0)" stroke-width="1" x1="1384.3548387096773" x2="1379.3548387096773" y1="481.2857142857143" y2="481.2857142857143" /><text fill="black" font-family="sans-serif" font-size="12" x="1376.3548387096773" y="485.2857142857143">53</text><line fill="none" stroke="rgb(255,255,0)" stroke-width="2" x1="1384.3548387096773" x2="1405.8809637254285" y1="531.4285714285714" y2="531.4285714285714" /><circle cx="1384.3548387096773" cy="531.4285714285714" fill="rgb(0,255,0)" r="2" /><circle cx="1405.8809637254285" cy="531.4285714285714" fill="rgb(0,255,0)" r="2" /><line fill="none" stroke="rgb(255,255,0)" stroke-width="1" x1="1395.117901217553" x2="1395.117901217553" y1="531.4285714285714" y2="536.4285714285714" /><text fill="black" font-family="sans-serif" font-size="12" x="1387.117901217553" y="535.4285714285714">54</text><line fill="none" stroke="rgb(255,255,0)" stroke-width="2" x1="1412.990004016507" x2="1434.516129032258" y1="531.4285714285714" y2="531.4285714285714" /><circle cx="1412.990004016507" cy="531.4285714285714" fill="rgb(0,255,0)" r="2" /><circle cx="1434.516129032258" cy="531.4285714285714" fill="rgb(0,255,0)" r="2" /><line fill="none" stroke="rgb(255,255,0)" stroke-width="1" x1="1423.7530665243826" x2="1423.7530665243826" y1="531.4285714285714" y2="536.4285714285714" /><text fill="black" font-family="sans-serif" font-size="12" x="1415.7530665243826" y="535.4285714285714">55</text><line fill="none" stroke="rgb(255,255,0)" stroke-width="2" x1="1434.516129032258" x2="1434.516129032258" y1="531.4285714285714" y2="481.28571428571433" /><circle cx="1434.516129032258" cy="531.4285714285714" fill="rgb(0,255,0)" r="2" /><circle cx="1434.516129032258" cy="481.28571428571433" fill="rgb(0,255,0)" r="2" /><line fill="none" stroke="rgb(255,255,0)" stroke-width="1" x1="1434.516129032258" x2="1439.516129032258" y1="506.3571428571429" y2="506.3571428571429" /><text fill="black" font-family="sans-serif" font-size="12" x="1426.516129032258" y="510.3571428571429">56</text><line fill="none" stroke="rgb(255,255,0)" stroke-width="2" x1="1434.516129032258" x2="1585.0" y1="481.28571428571433" y2="481.28571428571433" /><circle cx="1434.516129032258" cy="481.28571428571433" fill="rgb(0,255,0)" r="2" /><circle cx="1585.0" cy="481.28571428571433" fill="rgb(0,255,0)" r="2" /><line fill="none" stroke="rgb(255,255,0)" stroke-width="1" x1="1509.758064516129" x2="1509.758064516129" y1="481.28571428571433" y2="486.28571428571433" /><text fill="black" font-family="sans-serif" font-size="12" x="1501.758064516129" y="485.28571428571433">57</text><line fill="none" stroke="rgb(255,255,0)" stroke-width="2" x1="1585.0" x2="1585.0" y1="481.28571428571433" y2="493.82142857142856" /><circle cx="1585.0" cy="481.28571428571433" fill="rgb(0,255,0)" r="2" /><circle cx="1585.0" cy="493.82142857142856" fill="rgb(0,255,0)" r="2" /><line fill="none" stroke="rgb(255,255,0)" stroke-width="1" x1="1585.0" x2="1580.0" y1="487.55357142857144" y2="487.55357142857144" /><text fill="black" font-family="sans-serif" font-size="12" x="1577.0" y="491.55357142857144">58</text><line fill="none" stroke="rgb(10,99,207)" stroke-width="2" x1="1585.0" x2="1585.0" y1="493.82142857142856" y2="569.0357142857143" /><circle cx="1585.0" cy="493.82142857142856" fill="rgb(0,255,0)" r="2" /><circle cx="1585.0" cy="569.0357142857143" fill="rgb(0,255,0)" r="2" /><line fill="none" stroke="rgb(10,99,207)" stroke-width="1" x1="1585.0" x2="1580.0" y1="531.4285714285714" y2="531.4285714285714" /><text fill="black" font-family="sans-serif" font-size="12" x="1577.0" y="535.4285714285714">59</text><line fill="none" stroke="rgb(255,255,0)" stroke-width="2" x1="1585.0" x2="1585.0" y1="569.0357142857143" y2="631.7142857142858" /><circle cx="1585.0" cy="569.0357142857143" fill="rgb(0,255,0)" r="2" /><circle cx="1585.0" cy="631.7142857142858" fill="rgb(0,255,0)" r="2" /><line fill="none" stroke="rgb(255,255,0)" stroke-width="1" x1="1585.0" x2="1580.0" y1="600.375" y2="600.375" /><text fill="black" font-family="sans-serif" font-size="12" x="1577.0" y="604.375">60</text><line fill="none" stroke="rgb(255,255,0)" stroke-width="2" x1="1585.0" x2="1459.5967741935483" y1="631.7142857142858" y2="631.7142857142858" /><circle cx="1585.0" cy="631.7142857142858" fill="rgb(0,255,0)" r="2" /><circle cx="1459.5967741935483" cy="631.7142857142858" fill="rgb(0,255,0)" r="2" /><line fill="none" stroke="rgb(255,255,0)" stroke-width="1" x1="1522.2983870967741" x2="1522.2983870967741" y1="631.7142857142858" y2="626.7142857142858" /><text fill="black" font-family="sans-serif" font-size="12" x="1514.2983870967741" y="635.7142857142858">61</text><line fill="none" stroke="rgb(255,255,0)" stroke-width="2" x1="1434.516129032258" x2="1434.516129032258" y1="606.6428571428571" y2="581.5714285714287" /><circle cx="1434.516129032258" cy="606.6428571428571" fill="rgb(0,255,0)" r="2" /><circle cx="1434.516129032258" cy="581.5714285714287" fill="rgb(0,255,0)" r="2" /><line fill="none" stroke="rgb(255,255,0)" stroke-width="1" x1="1434.516129032258" x2="1439.516129032258" y1="594.1071428571429" y2="594.1071428571429" /><text fill="black" font-family="sans-serif" font-size="12" x="1426.516129032258" y="598.1071428571429">62</text><line fill="none" stroke="rgb(255,255,0)" stroke-width="2" x1="1434.516129032258" x2="1384.3548387096773" y1="581.5714285714287" y2="581.5714285714287" /><circle cx="1434.516129032258" cy="581.5714285714287" fill="rgb(0,255,0)" r="2" /><circle cx="1384.3548387096773" cy="581.5714285714287" fill="rgb(0,255,0)" r="2" /><line fill="none" stroke="rgb(255,255,0)" stroke-width="1" x1="1409.4354838709678" x2="1409.4354838709678" y1="581.5714285714287" y2="576.5714285714287" /><text fill="black" font-family="sans-serif" font-size="12" x="1401.4354838709678" y="585.5714285714287">63</text><line fill="none" stroke="rgb(255,255,0)" stroke-width="2" x1="1384.3548387096773" x2="1384.3548387096773" y1="581.5714285714287" y2="732.0" /><circle cx="1384.3548387096773" cy="581.5714285714287" fill="rgb(0,255,0)" r="2" /><circle cx="1384.3548387096773" cy="732.0" fill="rgb(0,255,0)" r="2" /><line fill="none" stroke="rgb(255,255,0)" stroke-width="1" x1="1384.3548387096773" x2="1379.3548387096773" y1="656.7857142857143" y2="656.7857142857143" /><text fill="black" font-family="sans-serif" font-size="12" x="1376.3548387096773" y="660.7857142857143">64</text><line fill="none" stroke="rgb(255,255,0)" stroke-width="2" x1="1384.3548387096773" x2="1405.8809637254285" y1="732.0" y2="732.0" /><circle cx="1384.3548387096773" cy="732.0" fill="rgb(0,255,0)" r="2" /><circle cx="1405.8809637254285" cy="732.0" fill="rgb(0,255,0)" r="2" /><line fill="none" stroke="rgb(255,255,0)" stroke-width="1" x1="1395.117901217553" x2="1395.117901217553" y1="732.0" y2="737.0" /><text fill="black" font-family="sans-serif" font-size="12" x="1387.117901217553" y="736.0">65</text><line fill="none" stroke="rgb(255,255,0)" stroke-width="2" x1="1412.990004016507" x2="1434.516129032258" y1="732.0" y2="732.0" /><circle cx="1412.990004016507" cy="732.0" fill="rgb(0,255,0)" r="2" /><circle cx="1434.516129032258" cy="732.0" fill="rgb(0,255,0)" r="2" /><line fill="none" stroke="rgb(255,255,0)" stroke-width="1" x1="1423.7530665243826" x2="1423.7530665243826" y1="732.0" y2="737.0" /><text fill="black" font-family="sans-serif" font-size="12" x="1415.7530665243826" y="736.0">66</text><line fill="none" stroke="rgb(255,255,0)" stroke-width="2" x1="1434.516129032258" x2="1434.516129032258" y1="732.0" y2="681.8571428571429" /><circle cx="1434.516129032258" cy="732.0" fill="rgb(0,255,0)" r="2" /><circle cx="1434.516129032258" cy="681.8571428571429" fill="rgb(0,255,0)" r="2" /><line fill="none" stroke="rgb(255,255,0)" stroke-width="1" x1="1434.516129032258" x2="1439.516129032258" y1="706.9285714285714" y2="706.9285714285714" /><text fill="black" font-family="sans-serif" font-size="12" x="1426.516129032258" y="710.9285714285714">67</text><line fill="none" stroke="rgb(255,255,0)" stroke-width="2" x1="1434.516129032258" x2="1559.9193548387098" y1="681.8571428571429" y2="681.8571428571429" /><circle cx="1434.516129032258" cy="681.8571428571429" fill="rgb(0,255,0)" r="2" /><circle cx="1559.9193548387098" cy="681.8571428571429" fill="rgb(0,255,0)" r="2" /><line fill="none" stroke="rgb(255,255,0)" stroke-width="1" x1="1497.217741935484" x2="1497.217741935484" y1="681.8571428571429" y2="686.8571428571429" /><text fill="black" font-family="sans-serif" font-size="12" x="1489.217741935484" y="685.8571428571429">68</text><line fill="none" stroke="rgb(255,255,0)" stroke-width="2" x1="1585.0" x2="1585.0" y1="706.9285714285714" y2="744.5357142857142" /><circle cx="1585.0" cy="706.9285714285714" fill="rgb(0,255,0)" r="2" /><circle cx="1585.0" cy="744.5357142857142" fill="rgb(0,255,0)" r="2" /><line fill="none" stroke="rgb(255,255,0)" stroke-width="1" x1="1585.0" x2="1580.0" y1="725.7321428571429" y2="725.7321428571429" /><text fill="black" font-family="sans-serif" font-size="12" x="1577.0" y="729.7321428571429">69</text><line fill="none" stroke="rgb(10,99,207)" stroke-width="2" x1="1585.0" x2="1585.0" y1="744.5357142857142" y2="819.75" /><circle cx="1585.0" cy="744.5357142857142" fill="rgb(0,255,0)" r="2" /><circle cx="1585.0" cy="819.75" fill="rgb(0,255,0)" r="2" /><line fill="none" stroke="rgb(10,99,207)" stroke-width="1" x1="1585.0" x2="1580.0" y1="782.1428571428571" y2="782.1428571428571" /><text fill="black" font-family="sans-serif" font-size="12" x="1577.0" y="786.1428571428571">70</text><line fill="none" stroke="rgb(255,255,0)" stroke-width="2" x1="1585.0" x2="1585.0" y1="819.75" y2="832.2857142857143" /><circle cx="1585.0" cy="819.75" fill="rgb(0,255,0)" r="2" /><circle cx="1585.0" cy="832.2857142857143" fill="rgb(0,255,0)" r="2" /><line fill="none" stroke="rgb(255,255,0)" stroke-width="1" x1="1585.0" x2="1580.0" y1="826.0178571428571" y2="826.0178571428571" /><text fill="black" font-family="sans-serif" font-size="12" x="1577.0" y="830.0178571428571">71</text><line fill="none" stroke="rgb(255,255,0)" stroke-width="2" x1="1585.0" x2="1434.516129032258" y1="832.2857142857143" y2="832.2857142857143" /><circle cx="1585.0" cy="832.2857142857143" fill="rgb(0,255,0)" r="2" /><circle cx="1434.516129032258" cy="832.2857142857143" fill="rgb(0,255,0)" r="2" /><line fill="none" stroke="rgb(255,255,0)" stroke-width="1" x1="1509.758064516129" x2="1509.758064516129" y1="832.2857142857143" y2="827.2857142857143" /><text fill="black" font-family="sans-serif" font-size="12" x="1501.758064516129" y="836.2857142857143">72</text><line fill="none" stroke="rgb(255,255,0)" stroke-width="2" x1="1434.516129032258" x2="1434.516129032258" y1="832.2857142857143" y2="782.1428571428571" /><circle cx="1434.516129032258" cy="832.2857142857143" fill="rgb(0,255,0)" r="2" /><circle cx="1434.516129032258" cy="782.1428571428571" fill="rgb(0,255,0)" r="2" /><line fill="none" stroke="rgb(255,255,0)" stroke-width="1" x1="1434.516129032258" x2="1439.516129032258" y1="807.2142857142858" y2="807.2142857142858" /><text fill="black" font-family="sans-serif" font-size="12" x="1426.516129032258" y="811.2142857142858">73</text><line fill="none" stroke="rgb(255,255,0)" stroke-width="2" x1="1434.516129032258" x2="1384.3548387096773" y1="782.1428571428571" y2="782.1428571428571" /><circle cx="1434.516129032258" cy="782.1428571428571" fill="rgb(0,255,0)" r="2" /><circle cx="1384.3548387096773" cy="782.1428571428571" fill="rgb(0,255,0)" r="2" /><line fill="none" stroke="rgb(255,255,0)" stroke-width="1" x1="1409.4354838709678" x2="1409.4354838709678" y1="782.1428571428571" y2="777.1428571428571" /><text fill="black" font-family="sans-serif" font-size="12" x="1401.4354838709678" y="786.1428571428571">74</text><line fill="none" stroke="rgb(255,255,0)" stroke-width="2" x1="1384.3548387096773" x2="1384.3548387096773" y1="782.1428571428571" y2="832.2857142857143" /><circle cx="1384.3548387096773" cy="782.1428571428571" fill="rgb(0,255,0)" r="2" /><circle cx="1384.3548387096773" cy="832.2857142857143" fill="rgb(0,255,0)" r="2" /><line fill="none" stroke="rgb(255,255,0)" stroke-width="1" x1="1384.3548387096773" x2="1379.3548387096773" y1="807.2142857142858" y2="807.2142857142858" /><text fill="black" font-family="sans-serif" font-size="12" x="1376.3548387096773" y="811.2142857142858">75</text><line fill="none" stroke="rgb(255,255,0)" stroke-width="2" x1="1384.3548387096773" x2="1384.3548387096773" y1="832.2857142857143" y2="882.4285714285714" /><circle cx="1384.3548387096773" cy="832.2857142857143" fill="rgb(0,255,0)" r="2" /><circle cx="1384.3548387096773" cy="882.4285714285714" fill="rgb(0,255,0)" r="2" /><line fill="none" stroke="rgb(255,255,0)" stroke-width="1" x1="1384.3548387096773" x2="1379.3548387096773" y1="857.3571428571429" y2="857.3571428571429" /><text fill="black" font-family="sans-serif" font-size="12" x="1376.3548387096773" y="861.3571428571429">76</text><line fill="none" stroke="rgb(255,255,0)" stroke-width="2" x1="1384.3548387096773" x2="1334.1935483870968" y1="882.4285714285714" y2="882.4285714285714" /><circle cx="1384.3548387096773" cy="882.4285714285714" fill="rgb(0,255,0)" r="2" /><circle cx="1334.1935483870968" cy="882.4285714285714" fill="rgb(0,255,0)" r="2" /><line fill="none" stroke="rgb(255,255,0)" stroke-width="1" x1="1359.274193548387" x2="1359.274193548387" y1="882.4285714285714" y2="877.4285714285714" /><text fill="black" font-family="sans-serif" font-size="12" x="1351.274193548387" y="886.4285714285714">77</text><line fill="none" stroke="rgb(255,255,0)" stroke-width="2" x1="1334.1935483870968" x2="1284.032258064516" y1="882.4285714285714" y2="882.4285714285714" /><circle cx="1334.1935483870968" cy="882.4285714285714" fill="rgb(0,255,0)" r="2" /><circle cx="1284.032258064516" cy="882.4285714285714" fill="rgb(0,255,0)" r="2" /><line fill="none" stroke="rgb(255,255,0)" stroke-width="1" x1="1309.1129032258063" x2="1309.1129032258063" y1="882.4285714285714" y2="877.4285714285714" /><text fill="black" font-family="sans-serif" font-size="12" x="1301.1129032258063" y="886.4285714285714">78</text><line fill="none" stroke="rgb(255,255,0)" stroke-width="2" x1="1284.032258064516" x2="1284.032258064516" y1="882.4285714285714" y2="903.9467860630581" /><circle cx="1284.032258064516" cy="882.4285714285714" fill="rgb(0,255,0)" r="2" /><circle cx="1284.032258064516" cy="903.9467860630581" fill="rgb(0,255,0)" r="2" /><line fill="none" stroke="rgb(255,255,0)" stroke-width="1" x1="1284.032258064516" x2="1279.032258064516" y1="893.1876787458148" y2="893.1876787458148" /><text fill="black" font-family="sans-serif" font-size="12" x="1276.032258064516" y="897.1876787458148">79</text><line fill="none" stroke="rgb(255,255,0)" stroke-width="2" x1="1284.032258064516" x2="1284.032258064516" y1="911.053213936942" y2="932.5714285714286" /><circle cx="1284.032258064516" cy="911.053213936942" fill="rgb(0,255,0)" r="2" /><circle cx="1284.032258064516" cy="932.5714285714286" fill="rgb(0,255,0)" r="2" /><line fill="none" stroke="rgb(255,255,0)" stroke-width="1" x1="1284.032258064516" x2="1279.032258064516" y1="921.8123212541852" y2="921.8123212541852" /><text fill="black" font-family="sans-serif" font-size="12" x="1276.032258064516" y="925.8123212541852">80</text><line fill="none" stroke="rgb(255,255,0)" stroke-width="2" x1="1284.032258064516" x2="1334.1935483870968" y1="932.5714285714286" y2="932.5714285714286" /><circle cx="1284.032258064516" cy="932.5714285714286" fill="rgb(0,255,0)" r="2" /><circle cx="1334.1935483870968" cy="932.5714285714286" fill="rgb(0,255,0)" r="2" /><line fill="none" stroke="rgb(255,255,0)" stroke-width="1" x1="1309.1129032258063" x2="1309.1129032258063" y1="932.5714285714286" y2="937.5714285714286" /><text fill="black" font-family="sans-serif" font-size="12" x="1301.1129032258063" y="936.5714285714286">81</text><line fill="none" stroke="rgb(255,255,0)" stroke-width="2" x1="1334.1935483870968" x2="1384.3548387096773" y1="932.5714285714286" y2="932.5714285714286" /><circle cx="1334.1935483870968" cy="932.5714285714286" fill="rgb(0,255,0)" r="2" /><circle cx="1384.3548387096773" cy="932.5714285714286" fill="rgb(0,255,0)" r="2" /><line fill="none" stroke="rgb(255,255,0)" stroke-width="1" x1="1359.274193548387" x2="1359.274193548387" y1="932.5714285714286" y2="937.5714285714286" /><text fill="black" font-family="sans-serif" font-size="12" x="1351.274193548387" y="936.5714285714286">82</text><line fill="none" stroke="rgb(255,255,0)" stroke-width="2" x1="1384.3548387096773" x2="1384.3548387096773" y1="932.5714285714286" y2="982.7142857142858" /><circle cx="1384.3548387096773" cy="932.5714285714286" fill="rgb(0,255,0)" r="2" /><circle cx="1384.3548387096773" cy="982.7142857142858" fill="rgb(0,255,0)" r="2" /><line fill="none" stroke="rgb(255,255,0)" stroke-width="1" x1="1384.3548387096773" x2="1379.3548387096773" y1="957.6428571428571" y2="957.6428571428571" /><text fill="black" font-family="sans-serif" font-size="12" x="1376.3548387096773" y="961.6428571428571">83</text><line fill="none" stroke="rgb(255,255,0)" stroke-width="2" x1="1384.3548387096773" x2="1334.1935483870968" y1="982.7142857142858" y2="982.7142857142858" /><circle cx="1384.3548387096773" cy="982.7142857142858" fill="rgb(0,255,0)" r="2" /><circle cx="1334.1935483870968" cy="982.7142857142858" fill="rgb(0,255,0)" r="2" /><line fill="none" stroke="rgb(255,255,0)" stroke-width="1" x1="1359.274193548387" x2="1359.274193548387" y1="982.7142857142858" y2="977.7142857142858" /><text fill="black" font-family="sans-serif" font-size="12" x="1351.274193548387" y="986.7142857142858">84</text><line fill="none" stroke="rgb(255,255,0)" stroke-width="2" x1="1334.1935483870968" x2="1334.1935483870968" y1="982.7142857142858" y2="1032.857142857143" /><circle cx="1334.1935483870968" cy="982.7142857142858" fill="rgb(0,255,0)" r="2" /><circle cx="1334.1935483870968" cy="1032.857142857143" fill="rgb(0,255,0)" r="2" /><line fill="none" stroke="rgb(255,255,0)" stroke-width="1" x1="1334.1935483870968" x2="1329.1935483870968" y1="1007.7857142857143" y2="1007.7857142857143" /><text fill="black" font-family="sans-serif" font-size="12" x="1326.1935483870968" y="1011.7857142857143">85</text><line fill="none" stroke="rgb(255,255,0)" stroke-width="2" x1="1334.1935483870968" x2="1284.032258064516" y1="1032.857142857143" y2="1032.857142857143" /><circle cx="1334.1935483870968" cy="1032.857142857143" fill="rgb(0,255,0)" r="2" /><circle cx="1284.032258064516" cy="1032.857142857143" fill="rgb(0,255,0)" r="2" /><line fill="none" stroke="rgb(255,255,0)" stroke-width="1" x1="1309.1129032258063" x2="1309.1129032258063" y1="1032.857142857143" y2="1027.857142857143" /><text fill="black" font-family="sans-serif" font-size="12" x="1301.1129032258063" y="1036.857142857143">86</text><line fill="none" stroke="rgb(255,255,0)" stroke-width="2" x1="1284.032258064516" x2="1284.032258064516" y1="1032.857142857143" y2="1083.0" /><circle cx="1284.032258064516" cy="1032.857142857143" fill="rgb(0,255,0)" r="2" /><circle cx="1284.032258064516" cy="1083.0" fill="rgb(0,255,0)" r="2" /><line fill="none" stroke="rgb(255,255,0)" stroke-width="1" x1="1284.032258064516" x2="1279.032258064516" y1="1057.9285714285716" y2="1057.9285714285716" /><text fill="black" font-family="sans-serif" font-size="12" x="1276.032258064516" y="1061.9285714285716">87</text><line fill="none" stroke="rgb(255,255,0)" stroke-width="2" x1="1233.8709677419354" x2="1284.032258064516" y1="911.053213936942" y2="911.053213936942" /><circle cx="1233.8709677419354" cy="911.053213936942" fill="rgb(0,255,0)" r="2" /><circle cx="1284.032258064516" cy="911.053213936942" fill="rgb(0,255,0)" r="2" /><line fill="none" stroke="rgb(255,255,0)" stroke-width="1" x1="1258.9516129032259" x2="1258.9516129032259" y1="911.053213936942" y2="916.053213936942" /><text fill="black" font-family="sans-serif" font-size="12" x="1250.9516129032259" y="915.053213936942">88</text><line fill="none" stroke="rgb(255,255,0)" stroke-width="2" x1="1284.032258064516" x2="1233.8709677419354" y1="903.9467860630581" y2="903.9467860630581" /><circle cx="1284.032258064516" cy="903.9467860630581" fill="rgb(0,255,0)" r="2" /><circle cx="1233.8709677419354" cy="903.9467860630581" fill="rgb(0,255,0)" r="2" /><line fill="none" stroke="rgb(255,255,0)" stroke-width="1" x1="1258.9516129032259" x2="1258.9516129032259" y1="903.9467860630581" y2="898.9467860630581" /><text fill="black" font-family="sans-serif" font-size="12" x="1250.9516129032259" y="907.9467860630581">89</text><line fill="none" stroke="rgb(255,255,0)" stroke-width="2" x1="1412.990004016507" x2="1412.990004016507" y1="782.1428571428571" y2="732.0" /><circle cx="1412.990004016507" cy="782.1428571428571" fill="rgb(0,255,0)" r="2" /><circle cx="1412.990004016507" cy="732.0" fill="rgb(0,255,0)" r="2" /><line fill="none" stroke="rgb(255,255,0)" stroke-width="1" x1="1412.990004016507" x2="1417.990004016507" y1="757.0714285714286" y2="757.0714285714286" /><text fill="black" font-family="sans-serif" font-size="12" x="1404.990004016507" y="761.0714285714286">90</text><line fill="none" stroke="rgb(255,255,0)" stroke-width="2" x1="1405.8809637254285" x2="1405.8809637254285" y1="732.0" y2="782.1428571428571" /><circle cx="1405.8809637254285" cy="732.0" fill="rgb(0,255,0)" r="2" /><circle cx="1405.8809637254285" cy="782.1428571428571" fill="rgb(0,255,0)" r="2" /><line fill="none" stroke="rgb(255,255,0)" stroke-width="1" x1="1405.8809637254285" x2="1400.8809637254285" y1="757.0714285714286" y2="757.0714285714286" /><text fill="black" font-family="sans-serif" font-size="12" x="1397.8809637254285" y="761.0714285714286">91</text><line fill="none" stroke="rgb(255,255,0)" stroke-width="2" x1="1412.990004016507" x2="1412.990004016507" y1="581.5714285714287" y2="531.4285714285714" /><circle cx="1412.990004016507" cy="581.5714285714287" fill="rgb(0,255,0)" r="2" /><circle cx="1412.990004016507" cy="531.4285714285714" fill="rgb(0,255,0)" r="2" /><line fill="none" stroke="rgb(255,255,0)" stroke-width="1" x1="1412.990004016507" x2="1417.990004016507" y1="556.5" y2="556.5" /><text fill="black" font-family="sans-serif" font-size="12" x="1404.990004016507" y="560.5">92</text><line fill="none" stroke="rgb(255,255,0)" stroke-width="2" x1="1405.8809637254285" x2="1405.8809637254285" y1="531.4285714285714" y2="581.5714285714287" /><circle cx="1405.8809637254285" cy="531.4285714285714" fill="rgb(0,255,0)" r="2" /><circle cx="1405.8809637254285" cy="581.5714285714287" fill="rgb(0,255,0)" r="2" /><line fill="none" stroke="rgb(255,255,0)" stroke-width="1" x1="1405.8809637254285" x2="1400.8809637254285" y1="556.5" y2="556.5" /><text fill="black" font-family="sans-serif" font-size="12" x="1397.8809637254285" y="560.5">93</text><line fill="none" stroke="rgb(255,255,0)" stroke-width="2" x1="1233.8709677419354" x2="1284.032258064516" y1="409.6246425083706" y2="409.6246425083706" /><circle cx="1233.8709677419354" cy="409.6246425083706" fill="rgb(0,255,0)" r="2" /><circle cx="1284.032258064516" cy="409.6246425083706" fill="rgb(0,255,0)" r="2" /><line fill="none" stroke="rgb(255,255,0)" stroke-width="1" x1="1258.9516129032259" x2="1258.9516129032259" y1="409.6246425083706" y2="414.6246425083706" /><text fill="black" font-family="sans-serif" font-size="12" x="1250.9516129032259" y="413.6246425083706">94</text><line fill="none" stroke="rgb(255,255,0)" stroke-width="2" x1="1284.032258064516" x2="1233.8709677419354" y1="402.51821463448664" y2="402.51821463448664" /><circle cx="1284.032258064516" cy="402.51821463448664" fill="rgb(0,255,0)" r="2" /><circle cx="1233.8709677419354" cy="402.51821463448664" fill="rgb(0,255,0)" r="2" /><line fill="none" stroke="rgb(255,255,0)" stroke-width="1" x1="1258.9516129032259" x2="1258.9516129032259" y1="402.51821463448664" y2="397.51821463448664" /><text fill="black" font-family="sans-serif" font-size="12" x="1250.9516129032259" y="406.51821463448664">95</text><line fill="none" stroke="rgb(255,255,0)" stroke-width="2" x1="1112.0222620810232" x2="1112.0222620810232" y1="631.7142857142858" y2="581.5714285714287" /><circle cx="1112.0222620810232" cy="631.7142857142858" fill="rgb(0,255,0)" r="2" /><circle cx="1112.0222620810232" cy="581.5714285714287" fill="rgb(0,255,0)" r="2" /><line fill="none" stroke="rgb(255,255,0)" stroke-width="1" x1="1112.0222620810232" x2="1117.0222620810232" y1="606.6428571428572" y2="606.6428571428572" /><text fill="black" font-family="sans-serif" font-size="12" x="1104.0222620810232" y="610.6428571428572">96</text><line fill="none" stroke="rgb(255,255,0)" stroke-width="2" x1="1104.9132217899446" x2="1104.9132217899446" y1="581.5714285714287" y2="631.7142857142858" /><circle cx="1104.9132217899446" cy="581.5714285714287" fill="rgb(0,255,0)" r="2" /><circle cx="1104.9132217899446" cy="631.7142857142858" fill="rgb(0,255,0)" r="2" /><line fill="none" stroke="rgb(255,255,0)" stroke-width="1" x1="1104.9132217899446" x2="1099.9132217899446" y1="606.6428571428572" y2="606.6428571428572" /><text fill="black" font-family="sans-serif" font-size="12" x="1096.9132217899446" y="610.6428571428572">97</text><line fill="none" stroke="rgb(255,255,0)" stroke-width="2" x1="1011.6996814358619" x2="1011.6996814358619" y1="631.7142857142858" y2="581.5714285714287" /><circle cx="1011.6996814358619" cy="631.7142857142858" fill="rgb(0,255,0)" r="2" /><circle cx="1011.6996814358619" cy="581.5714285714287" fill="rgb(0,255,0)" r="2" /><line fill="none" stroke="rgb(255,255,0)" stroke-width="1" x1="1011.6996814358619" x2="1016.6996814358619" y1="606.6428571428572" y2="606.6428571428572" /><text fill="black" font-family="sans-serif" font-size="12" x="1003.6996814358619" y="610.6428571428572">98</text><line fill="none" stroke="rgb(255,255,0)" stroke-width="2" x1="1004.5906411447833" x2="1004.5906411447833" y1="581.5714285714287" y2="631.7142857142858" /><circle cx="1004.5906411447833" cy="581.5714285714287" fill="rgb(0,255,0)" r="2" /><circle cx="1004.5906411447833" cy="631.7142857142858" fill="rgb(0,255,0)" r="2" /><line fill="none" stroke="rgb(255,255,0)" stroke-width="1" x1="1004.5906411447833" x2="999.5906411447833" y1="606.6428571428572" y2="606.6428571428572" /><text fill="black" font-family="sans-serif" font-size="12" x="996.5906411447833" y="610.6428571428572">99</text><line fill="none" stroke="rgb(255,255,0)" stroke-width="2" x1="911.3771007907006" x2="911.3771007907006" y1="631.7142857142858" y2="581.5714285714287" /><circle cx="911.3771007907006" cy="631.7142857142858" fill="rgb(0,255,0)" r="2" /><circle cx="911.3771007907006" cy="581.5714285714287" fill="rgb(0,255,0)" r="2" /><line fill="none" stroke="rgb(255,255,0)" stroke-width="1" x1="911.3771007907006" x2="916.3771007907006" y1="606.6428571428572" y2="606.6428571428572" /><text fill="black" font-family="sans-serif" font-size="12" x="903.3771007907006" y="610.6428571428572">100</text><line fill="none" stroke="rgb(255,255,0)" stroke-width="2" x1="904.2680604996219" x2="904.2680604996219" y1="581.5714285714287" y2="631.7142857142858" /><circle cx="904.2680604996219" cy="581.5714285714287" fill="rgb(0,255,0)" r="2" /><circle cx="904.2680604996219" cy="631.7142857142858" fill="rgb(0,255,0)" r="2" /><line fill="none" stroke="rgb(255,255,0)" stroke-width="1" x1="904.2680604996219" x2="899.2680604996219" y1="606.6428571428572" y2="606.6428571428572" /><text fill="black" font-family="sans-serif" font-size="12" x="896.2680604996219" y="610.6428571428572">101</text><line fill="none" stroke="rgb(255,255,0)" stroke-width="2" x1="560.2480685326361" x2="560.2480685326361" y1="631.7142857142858" y2="581.5714285714287" /><circle cx="560.2480685326361" cy="631.7142857142858" fill="rgb(0,255,0)" r="2" /><circle cx="560.2480685326361" cy="581.5714285714287" fill="rgb(0,255,0)" r="2" /><line fill="none" stroke="rgb(255,255,0)" stroke-width="1" x1="560.2480685326361" x2="565.2480685326361" y1="606.6428571428572" y2="606.6428571428572" /><text fill="black" font-family="sans-serif" font-size="12" x="552.2480685326361" y="610.6428571428572">102</text><line fill="none" stroke="rgb(255,255,0)" stroke-width="2" x1="553.1390282415574" x2="553.1390282415574" y1="581.5714285714287" y2="631.7142857142858" /><circle cx="553.1390282415574" cy="581.5714285714287" fill="rgb(0,255,0)" r="2" /><circle cx="553.1390282415574" cy="631.7142857142858" fill="rgb(0,255,0)" r="2" /><line fill="none" stroke="rgb(255,255,0)" stroke-width="1" x1="553.1390282415574" x2="548.1390282415574" y1="606.6428571428572" y2="606.6428571428572" /><text fill="black" font-family="sans-serif" font-size="12" x="545.1390282415574" y="610.6428571428572">103</text><line fill="none" stroke="rgb(255,255,0)" stroke-width="2" x1="459.9254878874748" x2="459.9254878874748" y1="631.7142857142858" y2="581.5714285714287" /><circle cx="459.9254878874748" cy="631.7142857142858" fill="rgb(0,255,0)" r="2" /><circle cx="459.9254878874748" cy="581.5714285714287" fill="rgb(0,255,0)" r="2" /><line fill="none" stroke="rgb(255,255,0)" stroke-width="1" x1="459.9254878874748" x2="464.9254878874748" y1="606.6428571428572" y2="606.6428571428572" /><text fill="black" font-family="sans-serif" font-size="12" x="451.9254878874748" y="610.6428571428572">104</text><line fill="none" stroke="rgb(255,255,0)" stroke-width="2" x1="452.8164475963962" x2="452.8164475963962" y1="581.5714285714287" y2="631.7142857142858" /><circle cx="452.8164475963962" cy="581.5714285714287" fill="rgb(0,255,0)" r="2" /><circle cx="452.8164475963962" cy="631.7142857142858" fill="rgb(0,255,0)" r="2" /><line fill="none" stroke="rgb(255,255,0)" stroke-width="1" x1="452.8164475963962" x2="447.8164475963962" y1="606.6428571428572" y2="606.6428571428572" /><text fill="black" font-family="sans-serif" font-size="12" x="444.8164475963962" y="610.6428571428572">105</text><line fill="none" stroke="rgb(255,255,0)" stroke-width="2" x1="359.6029072423135" x2="359.6029072423135" y1="631.7142857142858" y2="581.5714285714287" /><circle cx="359.6029072423135" cy="631.7142857142858" fill="rgb(0,255,0)" r="2" /><circle cx="359.6029072423135" cy="581.5714285714287" fill="rgb(0,255,0)" r="2" /><line fill="none" stroke="rgb(255,255,0)" stroke-width="1" x1="359.6029072423135" x2="364.6029072423135" y1="606.6428571428572" y2="606.6428571428572" /><text fill="black" font-family="sans-serif" font-size="12" x="351.6029072423135" y="610.6428571428572">106</text><line fill="none" stroke="rgb(255,255,0)" stroke-width="2" x1="352.4938669512349" x2="352.4938669512349" y1="581.5714285714287" y2="631.7142857142858" /><circle cx="352.4938669512349" cy="581.5714285714287" fill="rgb(0,255,0)" r="2" /><circle cx="352.4938669512349" cy="631.7142857142858" fill="rgb(0,255,0)" r="2" /><line fill="none" stroke="rgb(255,255,0)" stroke-width="1" x1="352.4938669512349" x2="347.4938669512349" y1="606.6428571428572" y2="606.6428571428572" /><text fill="black" font-family="sans-serif" font-size="12" x="344.4938669512349" y="610.6428571428572">107</text><line fill="none" stroke="rgb(255,255,0)" stroke-width="2" x1="1112.0222620810232" x2="1112.0222620810232" y1="782.1428571428571" y2="732.0" /><circle cx="1112.0222620810232" cy="782.1428571428571" fill="rgb(0,255,0)" r="2" /><circle cx="1112.0222620810232" cy="732.0" fill="rgb(0,255,0)" r="2" /><line fill="none" stroke="rgb(255,255,0)" stroke-width="1" x1="1112.0222620810232" x2="1117.0222620810232" y1="757.0714285714286" y2="757.0714285714286" /><text fill="black" font-family="sans-serif" font-size="12" x="1104.0222620810232" y="761.0714285714286">108</text><line fill="none" stroke="rgb(255,255,0)" stroke-width="2" x1="1104.9132217899446" x2="1104.9132217899446" y1="732.0" y2="782.1428571428571" /><circle cx="1104.9132217899446" cy="732.0" fill="rgb(0,255,0)" r="2" /><circle cx="1104.9132217899446" cy="782.1428571428571" fill="rgb(0,255,0)" r="2" /><line fill="none" stroke="rgb(255,255,0)" stroke-width="1" x1="1104.9132217899446" x2="1099.9132217899446" y1="757.0714285714286" y2="757.0714285714286" /><text fill="black" font-family="sans-serif" font-size="12" x="1096.9132217899446" y="761.0714285714286">109</text><line fill="none" stroke="rgb(255,255,0)" stroke-width="2" x1="58.635165306829634" x2="58.635165306829634" y1="631.7142857142858" y2="581.5714285714287" /><circle cx="58.635165306829634" cy="631.7142857142858" fill="rgb(0,255,0)" r="2" /><circle cx="58.635165306829634" cy="581.5714285714287" fill="rgb(0,255,0)" r="2" /><line fill="none" stroke="rgb(255,255,0)" stroke-width="1" x1="58.635165306829634" x2="63.635165306829634" y1="606.6428571428572" y2="606.6428571428572" /><text fill="black" font-family="sans-serif" font-size="12" x="50.635165306829634" y="610.6428571428572">110</text><line fill="none" stroke="rgb(255,255,0)" stroke-width="2" x1="51.526125015751006" x2="51.526125015751006" y1="581.5714285714287" y2="631.7142857142858" /><circle cx="51.526125015751006" cy="581.5714285714287" fill="rgb(0,255,0)" r="2" /><circle cx="51.526125015751006" cy="631.7142857142858" fill="rgb(0,255,0)" r="2" /><line fill="none" stroke="rgb(255,255,0)" stroke-width="1" x1="51.526125015751006" x2="46.526125015751006" y1="606.6428571428572" y2="606.6428571428572" /><text fill="black" font-family="sans-serif" font-size="12" x="43.526125015751006" y="610.6428571428572">111</text><line fill="none" stroke="rgb(255,255,0)" stroke-width="2" x1="1334.1935483870968" x2="1183.7096774193549" y1="92.67857142857144" y2="92.67857142857144" /><circle cx="1334.1935483870968" cy="92.67857142857144" fill="rgb(0,255,0)" r="2" /><circle cx="1183.7096774193549" cy="92.67857142857144" fill="rgb(0,255,0)" r="2" /><line fill="none" stroke="rgb(255,255,0)" stroke-width="1" x1="1258.9516129032259" x2="1258.9516129032259" y1="92.67857142857144" y2="87.67857142857144" /><text fill="black" font-family="sans-serif" font-size="12" x="1250.9516129032259" y="96.67857142857144">112</text><line fill="none" stroke="rgb(255,255,0)" stroke-width="2" x1="1183.7096774193549" x2="1183.7096774193549" y1="92.67857142857144" y2="117.75" /><circle cx="1183.7096774193549" cy="92.67857142857144" fill="rgb(0,255,0)" r="2" /><circle cx="1183.7096774193549" cy="117.75" fill="rgb(0,255,0)" r="2" /><line fill="none" stroke="rgb(255,255,0)" stroke-width="1" x1="1183.7096774193549" x2="1178.7096774193549" y1="105.21428571428572" y2="105.21428571428572" /><text fill="black" font-family="sans-serif" font-size="12" x="1175.7096774193549" y="109.21428571428572">113</text><line fill="none" stroke="rgb(255,255,0)" stroke-width="2" x1="1183.7096774193549" x2="1334.1935483870968" y1="117.75" y2="117.75" /><circle cx="1183.7096774193549" cy="117.75" fill="rgb(0,255,0)" r="2" /><circle cx="1334.1935483870968" cy="117.75" fill="rgb(0,255,0)" r="2" /><line fill="none" stroke="rgb(255,255,0)" stroke-width="1" x1="1258.9516129032259" x2="1258.9516129032259" y1="117.75" y2="122.75" /><text fill="black" font-family="sans-serif" font-size="12" x="1250.9516129032259" y="121.75">114</text><line fill="none" stroke="rgb(255,255,0)" stroke-width="2" x1="1334.1935483870968" x2="1334.1935483870968" y1="117.75" y2="92.67857142857144" /><circle cx="1334.1935483870968" cy="117.75" fill="rgb(0,255,0)" r="2" /><circle cx="1334.1935483870968" cy="92.67857142857144" fill="rgb(0,255,0)" r="2" /><line fill="none" stroke="rgb(255,255,0)" stroke-width="1" x1="1334.1935483870968" x2="1339.1935483870968" y1="105.21428571428572" y2="105.21428571428572" /><text fill="black" font-family="sans-serif" font-size="12" x="1326.1935483870968" y="109.21428571428572">115</text><line fill="none" stroke="rgb(255,255,0)" stroke-width="2" x1="1334.1935483870968" x2="1183.7096774193549" y1="192.96428571428567" y2="192.96428571428567" /><circle cx="1334.1935483870968" cy="192.96428571428567" fill="rgb(0,255,0)" r="2" /><circle cx="1183.7096774193549" cy="192.96428571428567" fill="rgb(0,255,0)" r="2" /><line fill="none" stroke="rgb(255,255,0)" stroke-width="1" x1="1258.9516129032259" x2="1258.9516129032259" y1="192.96428571428567" y2="187.96428571428567" /><text fill="black" font-family="sans-serif" font-size="12" x="1250.9516129032259" y="196.96428571428567">116</text><line fill="none" stroke="rgb(255,255,0)" stroke-width="2" x1="1183.7096774193549" x2="1183.7096774193549" y1="192.96428571428567" y2="218.03571428571433" /><circle cx="1183.7096774193549" cy="192.96428571428567" fill="rgb(0,255,0)" r="2" /><circle cx="1183.7096774193549" cy="218.03571428571433" fill="rgb(0,255,0)" r="2" /><line fill="none" stroke="rgb(255,255,0)" stroke-width="1" x1="1183.7096774193549" x2="1178.7096774193549" y1="205.5" y2="205.5" /><text fill="black" font-family="sans-serif" font-size="12" x="1175.7096774193549" y="209.5">117</text><line fill="none" stroke="rgb(255,255,0)" stroke-width="2" x1="1183.7096774193549" x2="1334.1935483870968" y1="218.03571428571433" y2="218.03571428571433" /><circle cx="1183.7096774193549" cy="218.03571428571433" fill="rgb(0,255,0)" r="2" /><circle cx="1334.1935483870968" cy="218.03571428571433" fill="rgb(0,255,0)" r="2" /><line fill="none" stroke="rgb(255,255,0)" stroke-width="1" x1="1258.9516129032259" x2="1258.9516129032259" y1="218.03571428571433" y2="223.03571428571433" /><text fill="black" font-family="sans-serif" font-size="12" x="1250.9516129032259" y="222.03571428571433">118</text><line fill="none" stroke="rgb(255,255,0)" stroke-width="2" x1="1334.1935483870968" x2="1334.1935483870968" y1="218.03571428571433" y2="192.96428571428567" /><circle cx="1334.1935483870968" cy="218.03571428571433" fill="rgb(0,255,0)" r="2" /><circle cx="1334.1935483870968" cy="192.96428571428567" fill="rgb(0,255,0)" r="2" /><line fill="none" stroke="rgb(255,255,0)" stroke-width="1" x1="1334.1935483870968" x2="1339.1935483870968" y1="205.5" y2="205.5" /><text fill="black" font-family="sans-serif" font-size="12" x="1326.1935483870968" y="209.5">119</text><line fill="none" stroke="rgb(255,255,0)" stroke-width="2" x1="1334.1935483870968" x2="1183.7096774193549" y1="293.25" y2="293.25" /><circle cx="1334.1935483870968" cy="293.25" fill="rgb(0,255,0)" r="2" /><circle cx="1183.7096774193549" cy="293.25" fill="rgb(0,255,0)" r="2" /><line fill="none" stroke="rgb(255,255,0)" stroke-width="1" x1="1258.9516129032259" x2="1258.9516129032259" y1="293.25" y2="288.25" /><text fill="black" font-family="sans-serif" font-size="12" x="1250.9516129032259" y="297.25">120</text><line fill="none" stroke="rgb(255,255,0)" stroke-width="2" x1="1183.7096774193549" x2="1183.7096774193549" y1="293.25" y2="318.32142857142856" /><circle cx="1183.7096774193549" cy="293.25" fill="rgb(0,255,0)" r="2" /><circle cx="1183.7096774193549" cy="318.32142857142856" fill="rgb(0,255,0)" r="2" /><line fill="none" stroke="rgb(255,255,0)" stroke-width="1" x1="1183.7096774193549" x2="1178.7096774193549" y1="305.7857142857143" y2="305.7857142857143" /><text fill="black" font-family="sans-serif" font-size="12" x="1175.7096774193549" y="309.7857142857143">121</text><line fill="none" stroke="rgb(255,255,0)" stroke-width="2" x1="1183.7096774193549" x2="1334.1935483870968" y1="318.32142857142856" y2="318.32142857142856" /><circle cx="1183.7096774193549" cy="318.32142857142856" fill="rgb(0,255,0)" r="2" /><circle cx="1334.1935483870968" cy="318.32142857142856" fill="rgb(0,255,0)" r="2" /><line fill="none" stroke="rgb(255,255,0)" stroke-width="1" x1="1258.9516129032259" x2="1258.9516129032259" y1="318.32142857142856" y2="323.32142857142856" /><text fill="black" font-family="sans-serif" font-size="12" x="1250.9516129032259" y="322.32142857142856">122</text><line fill="none" stroke="rgb(255,255,0)" stroke-width="2" x1="1334.1935483870968" x2="1334.1935483870968" y1="318.32142857142856" y2="293.25" /><circle cx="1334.1935483870968" cy="318.32142857142856" fill="rgb(0,255,0)" r="2" /><circle cx="1334.1935483870968" cy="293.25" fill="rgb(0,255,0)" r="2" /><line fill="none" stroke="rgb(255,255,0)" stroke-width="1" x1="1334.1935483870968" x2="1339.1935483870968" y1="305.7857142857143" y2="305.7857142857143" /><text fill="black" font-family="sans-serif" font-size="12" x="1326.1935483870968" y="309.7857142857143">123</text><line fill="none" stroke="rgb(250,56,35)" stroke-width="2" x1="707.1774193548387" x2="707.1774193548387" y1="606.6428571428571" y2="656.7857142857142" /><circle cx="707.1774193548387" cy="606.6428571428571" fill="rgb(0,255,0)" r="2" /><circle cx="707.1774193548387" cy="656.7857142857142" fill="rgb(0,255,0)" r="2" /><line fill="none" stroke="rgb(250,56,35)" stroke-width="1" x1="707.1774193548387" x2="702.1774193548387" y1="631.7142857142857" y2="631.7142857142857" /><text fill="black" font-family="sans-serif" font-size="12" x="699.1774193548387" y="635.7142857142857">124</text><line fill="none" stroke="rgb(250,56,35)" stroke-width="2" x1="707.1774193548387" x2="757.3387096774193" y1="656.7857142857142" y2="656.7857142857142" /><circle cx="707.1774193548387" cy="656.7857142857142" fill="rgb(0,255,0)" r="2" /><circle cx="757.3387096774193" cy="656.7857142857142" fill="rgb(0,255,0)" r="2" /><line fill="none" stroke="rgb(250,56,35)" stroke-width="1" x1="732.258064516129" x2="732.258064516129" y1="656.7857142857142" y2="661.7857142857142" /><text fill="black" font-family="sans-serif" font-size="12" x="724.258064516129" y="660.7857142857142">125</text><line fill="none" stroke="rgb(250,56,35)" stroke-width="2" x1="757.3387096774193" x2="757.3387096774193" y1="656.7857142857142" y2="606.6428571428571" /><circle cx="757.3387096774193" cy="656.7857142857142" fill="rgb(0,255,0)" r="2" /><circle cx="757.3387096774193" cy="606.6428571428571" fill="rgb(0,255,0)" r="2" /><line fill="none" stroke="rgb(250,56,35)" stroke-width="1" x1="757.3387096774193" x2="762.3387096774193" y1="631.7142857142857" y2="631.7142857142857" /><text fill="black" font-family="sans-serif" font-size="12" x="749.3387096774193" y="635.7142857142857">126</text><line fill="none" stroke="rgb(250,56,35)" stroke-width="2" x1="983.0645161290323" x2="1083.3870967741934" y1="706.9285714285714" y2="706.9285714285714" /><circle cx="983.0645161290323" cy="706.9285714285714" fill="rgb(0,255,0)" r="2" /><circle cx="1083.3870967741934" cy="706.9285714285714" fill="rgb(0,255,0)" r="2" /><line fill="none" stroke="rgb(250,56,35)" stroke-width="1" x1="1033.225806451613" x2="1033.225806451613" y1="706.9285714285714" y2="711.9285714285714" /><text fill="black" font-family="sans-serif" font-size="12" x="1025.225806451613" y="710.9285714285714">127</text><line fill="none" stroke="rgb(255,255,0)" stroke-width="2" x1="1035.6138561617945" x2="1035.6138561617945" y1="882.4285714285714" y2="832.2857142857143" /><circle cx="1035.6138561617945" cy="882.4285714285714" fill="rgb(0,255,0)" r="2" /><circle cx="1035.6138561617945" cy="832.2857142857143" fill="rgb(0,255,0)" r="2" /><line fill="none" stroke="rgb(255,255,0)" stroke-width="1" x1="1035.6138561617945" x2="1040.6138561617945" y1="857.3571428571429" y2="857.3571428571429" /><text fill="black" font-family="sans-serif" font-size="12" x="1027.6138561617945" y="861.3571428571429">128</text><line fill="none" stroke="rgb(255,255,0)" stroke-width="2" x1="1035.6138561617945" x2="1030.8377567414316" y1="832.2857142857143" y2="832.2857142857143" /><circle cx="1035.6138561617945" cy="832.2857142857143" fill="rgb(0,255,0)" r="2" /><circle cx="1030.8377567414316" cy="832.2857142857143" fill="rgb(0,255,0)" r="2" /><line fill="none" stroke="rgb(255,255,0)" stroke-width="1" x1="1033.2258064516132" x2="1033.2258064516132" y1="832.2857142857143" y2="827.2857142857143" /><text fill="black" font-family="sans-serif" font-size="12" x="1025.2258064516132" y="836.2857142857143">129</text><line fill="none" stroke="rgb(255,255,0)" stroke-width="2" x1="1030.8377567414316" x2="1030.8377567414316" y1="832.2857142857143" y2="882.4285714285714" /><circle cx="1030.8377567414316" cy="832.2857142857143" fill="rgb(0,255,0)" r="2" /><circle cx="1030.8377567414316" cy="882.4285714285714" fill="rgb(0,255,0)" r="2" /><line fill="none" stroke="rgb(255,255,0)" stroke-width="1" x1="1030.8377567414316" x2="1025.8377567414316" y1="857.3571428571429" y2="857.3571428571429" /><text fill="black" font-family="sans-serif" font-size="12" x="1022.8377567414316" y="861.3571428571429">130</text><line fill="none" stroke="rgb(250,56,35)" stroke-width="2" x1="1534.8387096774195" x2="1534.8387096774195" y1="493.82142857142856" y2="569.0357142857143" /><circle cx="1534.8387096774195" cy="493.82142857142856" fill="rgb(0,255,0)" r="2" /><circle cx="1534.8387096774195" cy="569.0357142857143" fill="rgb(0,255,0)" r="2" /><line fill="none" stroke="rgb(250,56,35)" stroke-width="1" x1="1534.8387096774195" x2="1529.8387096774195" y1="531.4285714285714" y2="531.4285714285714" /><text fill="black" font-family="sans-serif" font-size="12" x="1526.8387096774195" y="535.4285714285714">131</text><line fill="none" stroke="rgb(250,56,35)" stroke-width="2" x1="1534.8387096774195" x2="1585.0" y1="569.0357142857143" y2="569.0357142857143" /><circle cx="1534.8387096774195" cy="569.0357142857143" fill="rgb(0,255,0)" r="2" /><circle cx="1585.0" cy="569.0357142857143" fill="rgb(0,255,0)" r="2" /><line fill="none" stroke="rgb(250,56,35)" stroke-width="1" x1="1559.9193548387098" x2="1559.9193548387098" y1="569.0357142857143" y2="574.0357142857143" /><text fill="black" font-family="sans-serif" font-size="12" x="1551.9193548387098" y="573.0357142857143">132</text><line fill="none" stroke="rgb(250,56,35)" stroke-width="2" x1="1585.0" x2="1534.8387096774195" y1="493.82142857142856" y2="493.82142857142856" /><circle cx="1585.0" cy="493.82142857142856" fill="rgb(0,255,0)" r="2" /><circle cx="1534.8387096774195" cy="493.82142857142856" fill="rgb(0,255,0)" r="2" /><line fill="none" stroke="rgb(250,56,35)" stroke-width="1" x1="1559.9193548387098" x2="1559.9193548387098" y1="493.82142857142856" y2="488.82142857142856" /><text fill="black" font-family="sans-serif" font-size="12" x="1551.9193548387098" y="497.82142857142856">133</text><line fill="none" stroke="rgb(255,255,0)" stroke-width="2" x1="1459.5967741935483" x2="1434.516129032258" y1="606.6428571428571" y2="606.6428571428571" /><circle cx="1459.5967741935483" cy="606.6428571428571" fill="rgb(0,255,0)" r="2" /><circle cx="1434.516129032258" cy="606.6428571428571" fill="rgb(0,255,0)" r="2" /><line fill="none" stroke="rgb(255,255,0)" stroke-width="1" x1="1447.0564516129032" x2="1447.0564516129032" y1="606.6428571428571" y2="601.6428571428571" /><text fill="black" font-family="sans-serif" font-size="12" x="1439.0564516129032" y="610.6428571428571">134</text><line fill="none" stroke="rgb(255,255,0)" stroke-width="2" x1="1459.5967741935483" x2="1459.5967741935483" y1="631.7142857142858" y2="606.6428571428571" /><circle cx="1459.5967741935483" cy="631.7142857142858" fill="rgb(0,255,0)" r="2" /><circle cx="1459.5967741935483" cy="606.6428571428571" fill="rgb(0,255,0)" r="2" /><line fill="none" stroke="rgb(255,255,0)" stroke-width="1" x1="1459.5967741935483" x2="1464.5967741935483" y1="619.1785714285714" y2="619.1785714285714" /><text fill="black" font-family="sans-serif" font-size="12" x="1451.5967741935483" y="623.1785714285714">135</text><line fill="none" stroke="rgb(255,255,0)" stroke-width="2" x1="1559.9193548387098" x2="1559.9193548387098" y1="681.8571428571429" y2="706.9285714285714" /><circle cx="1559.9193548387098" cy="681.8571428571429" fill="rgb(0,255,0)" r="2" /><circle cx="1559.9193548387098" cy="706.9285714285714" fill="rgb(0,255,0)" r="2" /><line fill="none" stroke="rgb(255,255,0)" stroke-width="1" x1="1559.9193548387098" x2="1554.9193548387098" y1="694.3928571428571" y2="694.3928571428571" /><text fill="black" font-family="sans-serif" font-size="12" x="1551.9193548387098" y="698.3928571428571">136</text><line fill="none" stroke="rgb(255,255,0)" stroke-width="2" x1="1559.9193548387098" x2="1585.0" y1="706.9285714285714" y2="706.9285714285714" /><circle cx="1559.9193548387098" cy="706.9285714285714" fill="rgb(0,255,0)" r="2" /><circle cx="1585.0" cy="706.9285714285714" fill="rgb(0,255,0)" r="2" /><line fill="none" stroke="rgb(255,255,0)" stroke-width="1" x1="1572.4596774193549" x2="1572.4596774193549" y1="706.9285714285714" y2="711.9285714285714" /><text fill="black" font-family="sans-serif" font-size="12" x="1564.4596774193549" y="710.9285714285714">137</text><line fill="none" stroke="rgb(250,56,35)" stroke-width="2" x1="1585.0" x2="1534.8387096774195" y1="744.5357142857142" y2="744.5357142857142" /><circle cx="1585.0" cy="744.5357142857142" fill="rgb(0,255,0)" r="2" /><circle cx="1534.8387096774195" cy="744.5357142857142" fill="rgb(0,255,0)" r="2" /><line fill="none" stroke="rgb(250,56,35)" stroke-width="1" x1="1559.9193548387098" x2="1559.9193548387098" y1="744.5357142857142" y2="739.5357142857142" /><text fill="black" font-family="sans-serif" font-size="12" x="1551.9193548387098" y="748.5357142857142">138</text><line fill="none" stroke="rgb(250,56,35)" stroke-width="2" x1="1534.8387096774195" x2="1534.8387096774195" y1="744.5357142857142" y2="819.75" /><circle cx="1534.8387096774195" cy="744.5357142857142" fill="rgb(0,255,0)" r="2" /><circle cx="1534.8387096774195" cy="819.75" fill="rgb(0,255,0)" r="2" /><line fill="none" stroke="rgb(250,56,35)" stroke-width="1" x1="1534.8387096774195" x2="1529.8387096774195" y1="782.1428571428571" y2="782.1428571428571" /><text fill="black" font-family="sans-serif" font-size="12" x="1526.8387096774195" y="786.1428571428571">139</text><line fill="none" stroke="rgb(250,56,35)" stroke-width="2" x1="1534.8387096774195" x2="1585.0" y1="819.75" y2="819.75" /><circle cx="1534.8387096774195" cy="819.75" fill="rgb(0,255,0)" r="2" /><circle cx="1585.0" cy="819.75" fill="rgb(0,255,0)" r="2" /><line fill="none" stroke="rgb(250,56,35)" stroke-width="1" x1="1559.9193548387098" x2="1559.9193548387098" y1="819.75" y2="824.75" /><text fill="black" font-family="sans-serif" font-size="12" x="1551.9193548387098" y="823.75">140</text><line fill="none" stroke="rgb(250,56,35)" stroke-width="2" x1="757.3387096774193" x2="707.1774193548387" y1="556.5" y2="556.5" /><circle cx="757.3387096774193" cy="556.5" fill="rgb(0,255,0)" r="2" /><circle cx="707.1774193548387" cy="556.5" fill="rgb(0,255,0)" r="2" /><line fill="none" stroke="rgb(250,56,35)" stroke-width="1" x1="732.258064516129" x2="732.258064516129" y1="556.5" y2="551.5" /><text fill="black" font-family="sans-serif" font-size="12" x="724.258064516129" y="560.5">141</text><line fill="none" stroke="rgb(250,56,35)" stroke-width="2" x1="707.1774193548387" x2="707.1774193548387" y1="556.5" y2="606.6428571428571" /><circle cx="707.1774193548387" cy="556.5" fill="rgb(0,255,0)" r="2" /><circle cx="707.1774193548387" cy="606.6428571428571" fill="rgb(0,255,0)" r="2" /><line fill="none" stroke="rgb(250,56,35)" stroke-width="1" x1="707.1774193548387" x2="702.1774193548387" y1="581.5714285714286" y2="581.5714285714286" /><text fill="black" font-family="sans-serif" font-size="12" x="699.1774193548387" y="585.5714285714286">142</text><line fill="none" stroke="rgb(250,56,35)" stroke-width="2" x1="757.3387096774193" x2="757.3387096774193" y1="606.6428571428571" y2="556.5" /><circle cx="757.3387096774193" cy="606.6428571428571" fill="rgb(0,255,0)" r="2" /><circle cx="757.3387096774193" cy="556.5" fill="rgb(0,255,0)" r="2" /><line fill="none" stroke="rgb(250,56,35)" stroke-width="1" x1="757.3387096774193" x2="762.3387096774193" y1="581.5714285714286" y2="581.5714285714286" /><text fill="black" font-family="sans-serif" font-size="12" x="749.3387096774193" y="585.5714285714286">143</text></svg>