<?xml version="1.0" encoding="utf-8" ?>
<svg baseProfile="full" height="1113" version="1.1" width="1615" xmlns="http://www.w3.org/2000/svg" xmlns:ev="http://www.w3.org/2001/xml-events" xmlns:xlink="http://www.w3.org/1999/xlink"><defs /><rect fill="rgb(73,109,137)" fill-opacity="1" height="1113" width="1615" x="0" y="0" /><line fill="none" stroke="rgb(255,255,0)" stroke-width="2" x1="1284.032258064516" x2="1233.8709677419354" y1="1083.0" y2="1083.0" /><circle cx="1284.032258064516" cy="1083.0" fill="rgb(0,255,0)" r="2" /><circle cx="1233.8709677419354" cy="1083.0" fill="rgb(0,255,0)" r="2" /><line fill="none" stroke="rgb(255,255,0)" stroke-width="1" x1="1258.9516129032259" x2="1258.9516129032259" y1="1083.0" y2="1078.0" /><text fill="black" font-family="sans-serif" font-size="12" x="1250.9516129032259" y="1087.0">0</text><line fill="none" stroke="rgb(255,255,0)" stroke-width="2" x1="1233.8709677419354" x2="1233.8709677419354" y1="1083.0" y2="882.4285714285714" /><circle cx="1233.8709677419354" cy="1083.0" fill="rgb(0,255,0)" r="2" /><circle cx="1233.8709677419354" cy="882.4285714285714" fill="rgb(0,255,0)" r="2" /><line fill="none" stroke="rgb(255,255,0)" stroke-width="1" x1="1233.8709677419354" x2="1238.8709677419354" y1="982.7142857142858" y2="982.7142857142858" /><text fill="black" font-family="sans-serif" font-size="12" x="1225.8709677419354" y="986.7142857142858">1</text><line fill="none" stroke="rgb(255,255,0)" stroke-width="2" x1="1233.8709677419354" x2="1133.5483870967741" y1="882.4285714285714" y2="882.4285714285714" /><circle cx="1233.8709677419354" cy="882.4285714285714" fill="rgb(0,255,0)" r="2" /><circle cx="1133.5483870967741" cy="882.4285714285714" fill="rgb(0,255,0)" r="2" /><line fill="none" stroke="rgb(255,255,0)" stroke-width="1" x1="1183.7096774193546" x2="1183.7096774193546" y1="882.4285714285714" y2="877.4285714285714" /><text fill="black" font-family="sans-serif" font-size="12" x="1175.7096774193546" y="886.4285714285714">2</text><line fill="none" stroke="rgb(255,255,0)" stroke-width="2" x1="1133.5483870967741" x2="1133.5483870967741" y1="882.4285714285714" y2="782.1428571428571" /><circle cx="1133.5483870967741" cy="882.4285714285714" fill="rgb(0,255,0)" r="2" /><circle cx="1133.5483870967741" cy="782.1428571428571" fill="rgb(0,255,0)" r="2" /><line fill="none" stroke="rgb(255,255,0)" stroke-width="1" x1="1133.5483870967741" x2="1138.5483870967741" y1="832.2857142857142" y2="832.2857142857142" /><text fill="black" font-family="sans-serif" font-size="12" x="1125.5483870967741" y="836.2857142857142">3</text><line fill="none" stroke="rgb(255,255,0)" stroke-width="2" x1="1133.5483870967741" x2="1083.3870967741934" y1="782.1428571428571" y2="782.1428571428571" /><circle cx="1133.5483870967741" cy="782.1428571428571" fill="rgb(0,255,0)" r="2" /><circle cx="1083.3870967741934" cy="782.1428571428571" fill="rgb(0,255,0)" r="2" /><line fill="none" stroke="rgb(255,255,0)" stroke-width="1" x1="1108.467741935484" x2="1108.467741935484" y1="782.1428571428571" y2="777.1428571428571" /><text fill="black" font-family="sans-serif" font-size="12" x="1100.467741935484" y="786.1428571428571">4</text><line fill="none" stroke="rgb(255,255,0)" stroke-width="2" x1="1083.3870967741934" x2="1083.3870967741934" y1="782.1428571428571" y2="882.4285714285714" /><circle cx="1083.3870967741934" cy="782.1428571428571" fill="rgb(0,255,0)" r="2" /><circle cx="1083.3870967741934" cy="882.4285714285714" fill="rgb(0,255,0)" r="2" /><line fill="none" stroke="rgb(255,255,0)" stroke-width="1" x1="1083.3870967741934" x2="1078.3870967741934" y1="832.2857142857142" y2="832.2857142857142" /><text fill="black" font-family="sans-serif" font-size="12" x="1075.3870967741934" y="836.2857142857142">5</text><line fill="none" stroke="rgb(255,255,0)" stroke-width="2" x1="1083.3870967741934" x2="1035.6138561617945" y1="882.4285714285714" y2="882.4285714285714" /><circle cx="1083.3870967741934" cy="882.4285714285714" fill="rgb(0,255,0)" r="2" /><circle cx="1035.6138561617945" cy="882.4285714285714" fill="rgb(0,255,0)" r="2" /><line fill="none" stroke="rgb(255,255,0)" stroke-width="1" x1="1059.5004764679938" x2="1059.5004764679938" y1="882.4285714285714" y2="877.4285714285714" /><text fill="black" font-family="sans-serif" font-size="12" x="1051.5004764679938" y="886.4285714285714">6</text><line fill="none" stroke="rgb(255,255,0)" stroke-width="2" x1="1030.8377567414316" x2="983.0645161290323" y1="882.4285714285714" y2="882.4285714285714" /><circle cx="1030.8377567414316" cy="882.4285714285714" fill="rgb(0,255,0)" r="2" /><circle cx="983.0645161290323" cy="882.4285714285714" fill="rgb(0,255,0)" r="2" /><line fill="none" stroke="rgb(255,255,0)" stroke-width="1" x1="1006.951136435232" x2="1006.951136435232" y1="882.4285714285714" y2="877.4285714285714" /><text fill="black" font-family="sans-serif" font-size="12" x="998.951136435232" y="886.4285714285714">7</text><line fill="none" stroke="rgb(255,255,0)" stroke-width="2" x1="983.0645161290323" x2="983.0645161290323" y1="882.4285714285714" y2="706.9285714285714" /><circle cx="983.0645161290323" cy="882.4285714285714" fill="rgb(0,255,0)" r="2" /><circle cx="983.0645161290323" cy="706.9285714285714" fill="rgb(0,255,0)" r="2" /><line fill="none" stroke="rgb(255,255,0)" stroke-width="1" x1="983.0645161290323" x2="988.0645161290323" y1="794.6785714285714" y2="794.6785714285714" /><text fill="black" font-family="sans-serif" font-size="12" x="975.0645161290323" y="798.6785714285714">8</text><line fill="none" stroke="rgb(10,99,207)" stroke-width="2" x1="983.0645161290323" x2="983.0645161290323" y1="706.9285714285714" y2="681.8571428571429" /><circle cx="983.0645161290323" cy="706.9285714285714" fill="rgb(0,255,0)" r="2" /><circle cx="983.0645161290323" cy="681.8571428571429" fill="rgb(0,255,0)" r="2" /><line fill="none" stroke="rgb(10,99,207)" stroke-width="1" x1="983.0645161290323" x2="988.0645161290323" y1="694.3928571428571" y2="694.3928571428571" /><text fill="black" font-family="sans-serif" font-size="12" x="975.0645161290323" y="698.3928571428571">9</text><line fill="none" stroke="rgb(10,99,207)" stroke-width="2" x1="983.0645161290323" x2="1083.3870967741934" y1="681.8571428571429" y2="681.8571428571429" /><circle cx="983.0645161290323" cy="681.8571428571429" fill="rgb(0,255,0)" r="2" /><circle cx="1083.3870967741934" cy="681.8571428571429" fill="rgb(0,255,0)" r="2" /><line fill="none" stroke="rgb(10,99,207)" stroke-width="1" x1="1033.225806451613" x2="1033.225806451613" y1="681.8571428571429" y2="686.8571428571429" /><text fill="black" font-family="sans-serif" font-size="12" x="1025.225806451613" y="685.8571428571429">10</text><line fill="none" stroke="rgb(10,99,207)" stroke-width="2" x1="1083.3870967741934" x2="1083.3870967741934" y1="681.8571428571429" y2="706.9285714285714" /><circle cx="1083.3870967741934" cy="681.8571428571429" fill="rgb(0,255,0)" r="2" /><circle cx="1083.3870967741934" cy="706.9285714285714" fill="rgb(0,255,0)" r="2" /><line fill="none" stroke="rgb(10,99,207)" stroke-width="1" x1="1083.3870967741934" x2="1078.3870967741934" y1="694.3928571428571" y2="694.3928571428571" /><text fill="black" font-family="sans-serif" font-size="12" x="1075.3870967741934" y="698.3928571428571">11</text><line fill="none" stroke="rgb(255,255,0)" stroke-width="2" x1="1083.3870967741934" x2="1083.3870967741934" y1="706.9285714285714" y2="732.0" /><circle cx="1083.3870967741934" cy="706.9285714285714" fill="rgb(0,255,0)" r="2" /><circle cx="1083.3870967741934" cy="732.0" fill="rgb(0,255,0)" r="2" /><line fill="none" stroke="rgb(255,255,0)" stroke-width="1" x1="1083.3870967741934" x2="1078.3870967741934" y1="719.4642857142858" y2="719.4642857142858" /><text fill="black" font-family="sans-serif" font-size="12" x="1075.3870967741934" y="723.4642857142858">12</text><line fill="none" stroke="rgb(255,255,0)" stroke-width="2" x1="1083.3870967741934" x2="1133.5483870967741" y1="732.0" y2="732.0" /><circle cx="1083.3870967741934" cy="732.0" fill="rgb(0,255,0)" r="2" /><circle cx="1133.5483870967741" cy="732.0" fill="rgb(0,255,0)" r="2" /><line fill="none" stroke="rgb(255,255,0)" stroke-width="1" x1="1108.467741935484" x2="1108.467741935484" y1="732.0" y2="737.0" /><text fill="black" font-family="sans-serif" font-size="12" x="1100.467741935484" y="736.0">13</text><line fill="none" stroke="rgb(255,255,0)" stroke-width="2" x1="1133.5483870967741" x2="1133.5483870967741" y1="732.0" y2="631.7142857142858" /><circle cx="1133.5483870967741" cy="732.0" fill="rgb(0,255,0)" r="2" /><circle cx="1133.5483870967741" cy="631.7142857142858" fill="rgb(0,255,0)" r="2" /><line fill="none" stroke="rgb(255,255,0)" stroke-width="1" x1="1133.5483870967741" x2="1138.5483870967741" y1="681.8571428571429" y2="681.8571428571429" /><text fill="black" font-family="sans-serif" font-size="12" x="1125.5483870967741" y="685.8571428571429">14</text><line fill="none" stroke="rgb(255,255,0)" stroke-width="2" x1="1133.5483870967741" x2="882.7419354838709" y1="631.7142857142858" y2="631.7142857142858" /><circle cx="1133.5483870967741" cy="631.7142857142858" fill="rgb(0,255,0)" r="2" /><circle cx="882.7419354838709" cy="631.7142857142858" fill="rgb(0,255,0)" r="2" /><line fill="none" stroke="rgb(255,255,0)" stroke-width="1" x1="1008.1451612903224" x2="1008.1451612903224" y1="631.7142857142858" y2="626.7142857142858" /><text fill="black" font-family="sans-serif" font-size="12" x="1000.1451612903224" y="635.7142857142858">15</text><line fill="none" stroke="rgb(255,255,0)" stroke-width="2" x1="882.7419354838709" x2="882.7419354838709" y1="631.7142857142858" y2="732.0" /><circle cx="882.7419354838709" cy="631.7142857142858" fill="rgb(0,255,0)" r="2" /><circle cx="882.7419354838709" cy="732.0" fill="rgb(0,255,0)" r="2" /><line fill="none" stroke="rgb(255,255,0)" stroke-width="1" x1="882.7419354838709" x2="877.7419354838709" y1="681.8571428571429" y2="681.8571428571429" /><text fill="black" font-family="sans-serif" font-size="12" x="874.7419354838709" y="685.8571428571429">16</text><line fill="none" stroke="rgb(255,255,0)" stroke-width="2" x1="882.7419354838709" x2="581.7741935483871" y1="732.0" y2="732.0" /><circle cx="882.7419354838709" cy="732.0" fill="rgb(0,255,0)" r="2" /><circle cx="581.7741935483871" cy="732.0" fill="rgb(0,255,0)" r="2" /><line fill="none" stroke="rgb(255,255,0)" stroke-width="1" x1="732.258064516129" x2="732.258064516129" y1="732.0" y2="727.0" /><text fill="black" font-family="sans-serif" font-size="12" x="724.258064516129" y="736.0">17</text><line fill="none" stroke="rgb(255,255,0)" stroke-width="2" x1="581.7741935483871" x2="581.7741935483871" y1="732.0" y2="631.7142857142858" /><circle cx="581.7741935483871" cy="732.0" fill="rgb(0,255,0)" r="2" /><circle cx="581.7741935483871" cy="631.7142857142858" fill="rgb(0,255,0)" r="2" /><line fill="none" stroke="rgb(255,255,0)" stroke-width="1" x1="581.7741935483871" x2="586.7741935483871" y1="681.8571428571429" y2="681.8571428571429" /><text fill="black" font-family="sans-serif" font-size="12" x="573.7741935483871" y="685.8571428571429">18</text><line fill="none" stroke="rgb(255,255,0)" stroke-width="2" x1="581.7741935483871" x2="330.96774193548384" y1="631.7142857142858" y2="631.7142857142858" /><circle cx="581.7741935483871" cy="631.7142857142858" fill="rgb(0,255,0)" r="2" /><circle cx="330.96774193548384" cy="631.7142857142858" fill="rgb(0,255,0)" r="2" /><line fill="none" stroke="rgb(255,255,0)" stroke-width="1" x1="456.3709677419355" x2="456.3709677419355" y1="631.7142857142858" y2="626.7142857142858" /><text fill="black" font-family="sans-serif" font-size="12" x="448.3709677419355" y="635.7142857142858">19</text><line fill="none" stroke="rgb(255,255,0)" stroke-width="2" x1="330.96774193548384" x2="330.96774193548384" y1="631.7142857142858" y2="681.8571428571429" /><circle cx="330.96774193548384" cy="631.7142857142858" fill="rgb(0,255,0)" r="2" /><circle cx="330.96774193548384" cy="681.8571428571429" fill="rgb(0,255,0)" r="2" /><line fill="none" stroke="rgb(255,255,0)" stroke-width="1" x1="330.96774193548384" x2="325.96774193548384" y1="656.7857142857143" y2="656.7857142857143" /><text fill="black" font-family="sans-serif" font-size="12" x="322.96774193548384" y="660.7857142857143">20</text><line fill="none" stroke="rgb(255,255,0)" stroke-width="2" x1="330.96774193548384" x2="80.16129032258064" y1="681.8571428571429" y2="681.8571428571429" /><circle cx="330.96774193548384" cy="681.8571428571429" fill="rgb(0,255,0)" r="2" /><circle cx="80.16129032258064" cy="681.8571428571429" fill="rgb(0,255,0)" r="2" /><line fill="none" stroke="rgb(255,255,0)" stroke-width="1" x1="205.56451612903226" x2="205.56451612903226" y1="681.8571428571429" y2="676.8571428571429" /><text fill="black" font-family="sans-serif" font-size="12" x="197.56451612903226" y="685.8571428571429">21</text><line fill="none" stroke="rgb(255,255,0)" stroke-width="2" x1="80.16129032258064" x2="80.16129032258064" y1="681.8571428571429" y2="631.7142857142858" /><circle cx="80.16129032258064" cy="681.8571428571429" fill="rgb(0,255,0)" r="2" /><circle cx="80.16129032258064" cy="631.7142857142858" fill="rgb(0,255,0)" r="2" /><line fill="none" stroke="rgb(255,255,0)" stroke-width="1" x1="80.16129032258064" x2="85.16129032258064" y1="656.7857142857143" y2="656.7857142857143" /><text fill="black" font-family="sans-serif" font-size="12" x="72.16129032258064" y="660.7857142857143">22</text><line fill="none" stroke="rgb(255,255,0)" stroke-width="2" x1="80.16129032258064" x2="30.0" y1="631.7142857142858" y2="631.7142857142858" /><circle cx="80.16129032258064" cy="631.7142857142858" fill="rgb(0,255,0)" r="2" /><circle cx="30.0" cy="631.7142857142858" fill="rgb(0,255,0)" r="2" /><line fill="none" stroke="rgb(255,255,0)" stroke-width="1" x1="55.08064516129032" x2="55.08064516129032" y1="631.7142857142858" y2="626.7142857142858" /><text fill="black" font-family="sans-serif" font-size="12" x="47.08064516129032" y="635.7142857142858">23</text><line fill="none" stroke="rgb(255,255,0)" stroke-width="2" x1="30.0" x2="30.0" y1="631.7142857142858" y2="581.5714285714287" /><circle cx="30.0" cy="631.7142857142858" fill="rgb(0,255,0)" r="2" /><circle cx="30.0" cy="581.5714285714287" fill="rgb(0,255,0)" r="2" /><line fill="none" stroke="rgb(255,255,0)" stroke-width="1" x1="30.0" x2="35.0" y1="606.6428571428572" y2="606.6428571428572" /><text fill="black" font-family="sans-serif" font-size="12" x="22.0" y="610.6428571428572">24</text><line fill="none" stroke="rgb(255,255,0)" stroke-width="2" x1="30.0" x2="80.16129032258064" y1="581.5714285714287" y2="581.5714285714287" /><circle cx="30.0" cy="581.5714285714287" fill="rgb(0,255,0)" r="2" /><circle cx="80.16129032258064" cy="581.5714285714287" fill="rgb(0,255,0)" r="2" /><line fill="none" stroke="rgb(255,255,0)" stroke-width="1" x1="55.08064516129032" x2="55.08064516129032" y1="581.5714285714287" y2="586.5714285714287" /><text fill="black" font-family="sans-serif" font-size="12" x="47.08064516129032" y="585.5714285714287">25</text><line fill="none" stroke="rgb(255,255,0)" stroke-width="2" x1="80.16129032258064" x2="80.16129032258064" y1="581.5714285714287" y2="531.4285714285714" /><circle cx="80.16129032258064" cy="581.5714285714287" fill="rgb(0,255,0)" r="2" /><circle cx="80.16129032258064" cy="531.4285714285714" fill="rgb(0,255,0)" r="2" /><line fill="none" stroke="rgb(255,255,0)" stroke-width="1" x1="80.16129032258064" x2="85.16129032258064" y1="556.5" y2="556.5" /><text fill="black" font-family="sans-serif" font-size="12" x="72.16129032258064" y="560.5">26</text><line fill="none" stroke="rgb(255,255,0)" stroke-width="2" x1="80.16129032258064" x2="330.96774193548384" y1="531.4285714285714" y2="531.4285714285714" /><circle cx="80.16129032258064" cy="531.4285714285714" fill="rgb(0,255,0)" r="2" /><circle cx="330.96774193548384" cy="531.4285714285714" fill="rgb(0,255,0)" r="2" /><line fill="none" stroke="rgb(255,255,0)" stroke-width="1" x1="205.56451612903226" x2="205.56451612903226" y1="531.4285714285714" y2="536.4285714285714" /><text fill="black" font-family="sans-serif" font-size="12" x="197.56451612903226" y="535.4285714285714">27</text><line fill="none" stroke="rgb(255,255,0)" stroke-width="2" x1="330.96774193548384" x2="330.96774193548384" y1="531.4285714285714" y2="581.5714285714287" /><circle cx="330.96774193548384" cy="531.4285714285714" fill="rgb(0,255,0)" r="2" /><circle cx="330.96774193548384" cy="581.5714285714287" fill="rgb(0,255,0)" r="2" /><line fill="none" stroke="rgb(255,255,0)" stroke-width="1" x1="330.96774193548384" x2="325.96774193548384" y1="556.5" y2="556.5" /><text fill="black" font-family="sans-serif" font-size="12" x="322.96774193548384" y="560.5">28</text><line fill="none" stroke="rgb(255,255,0)" stroke-width="2" x1="330.96774193548384" x2="581.7741935483871" y1="581.5714285714287" y2="581.5714285714287" /><circle cx="330.96774193548384" cy="581.5714285714287" fill="rgb(0,255,0)" r="2" /><circle cx="581.7741935483871" cy="581.5714285714287" fill="rgb(0,255,0)" r="2" /><line fill="none" stroke="rgb(255,255,0)" stroke-width="1" x1="456.3709677419355" x2="456.3709677419355" y1="581.5714285714287" y2="586.5714285714287" /><text fill="black" font-family="sans-serif" font-size="12" x="448.3709677419355" y="585.5714285714287">29</text><line fill="none" stroke="rgb(255,255,0)" stroke-width="2" x1="581.7741935483871" x2="581.7741935483871" y1="581.5714285714287" y2="481.28571428571433" /><circle cx="581.7741935483871" cy="581.5714285714287" fill="rgb(0,255,0)" r="2" /><circle cx="581.7741935483871" cy="481.28571428571433" fill="rgb(0,255,0)" r="2" /><line fill="none" stroke="rgb(255,255,0)" stroke-width="1" x1="581.7741935483871" x2="586.7741935483871" y1="531.4285714285716" y2="531.4285714285716" /><text fill="black" font-family="sans-serif" font-size="12" x="573.7741935483871" y="535.4285714285716">30</text><line fill="none" stroke="rgb(255,255,0)" stroke-width="2" x1="581.7741935483871" x2="882.7419354838709" y1="481.28571428571433" y2="481.28571428571433" /><circle cx="581.7741935483871" cy="481.28571428571433" fill="rgb(0,255,0)" r="2" /><circle cx="882.7419354838709" cy="481.28571428571433" fill="rgb(0,255,0)" r="2" /><line fill="none" stroke="rgb(255,255,0)" stroke-width="1" x1="732.258064516129" x2="732.258064516129" y1="481.28571428571433" y2="486.28571428571433" /><text fill="black" font-family="sans-serif" font-size="12" x="724.258064516129" y="485.28571428571433">31</text><line fill="none" stroke="rgb(255,255,0)" stroke-width="2" x1="882.7419354838709" x2="882.7419354838709" y1="481.28571428571433" y2="581.5714285714287" /><circle cx="882.7419354838709" cy="481.28571428571433" fill="rgb(0,255,0)" r="2" /><circle cx="882.7419354838709" cy="581.5714285714287" fill="rgb(0,255,0)" r="2" /><line fill="none" stroke="rgb(255,255,0)" stroke-width="1" x1="882.7419354838709" x2="877.7419354838709" y1="531.4285714285716" y2="531.4285714285716" /><text fill="black" font-family="sans-serif" font-size="12" x="874.7419354838709" y="535.4285714285716">32</text><line fill="none" stroke="rgb(255,255,0)" stroke-width="2" x1="882.7419354838709" x2="1133.5483870967741" y1="581.5714285714287" y2="581.5714285714287" /><circle cx="882.7419354838709" cy="581.5714285714287" fill="rgb(0,255,0)" r="2" /><circle cx="1133.5483870967741" cy="581.5714285714287" fill="rgb(0,255,0)" r="2" /><line fill="none" stroke="rgb(255,255,0)" stroke-width="1" x1="1008.1451612903224" x2="1008.1451612903224" y1="581.5714285714287" y2="586.5714285714287" /><text fill="black" font-family="sans-serif" font-size="12" x="1000.1451612903224" y="585.5714285714287">33</text><line fill="none" stroke="rgb(255,255,0)" stroke-width="2" x1="1133.5483870967741" x2="1133.5483870967741" y1="581.5714285714287" y2="431.1428571428571" /><circle cx="1133.5483870967741" cy="581.5714285714287" fill="rgb(0,255,0)" r="2" /><circle cx="1133.5483870967741" cy="431.1428571428571" fill="rgb(0,255,0)" r="2" /><line fill="none" stroke="rgb(255,255,0)" stroke-width="1" x1="1133.5483870967741" x2="1138.5483870967741" y1="506.3571428571429" y2="506.3571428571429" /><text fill="black" font-family="sans-serif" font-size="12" x="1125.5483870967741" y="510.3571428571429">34</text><line fill="none" stroke="rgb(255,255,0)" stroke-width="2" x1="1133.5483870967741" x2="1233.8709677419354" y1="431.1428571428571" y2="431.1428571428571" /><circle cx="1133.5483870967741" cy="431.1428571428571" fill="rgb(0,255,0)" r="2" /><circle cx="1233.8709677419354" cy="431.1428571428571" fill="rgb(0,255,0)" r="2" /><line fill="none" stroke="rgb(255,255,0)" stroke-width="1" x1="1183.7096774193546" x2="1183.7096774193546" y1="431.1428571428571" y2="436.1428571428571" /><text fill="black" font-family="sans-serif" font-size="12" x="1175.7096774193546" y="435.1428571428571">35</text><line fill="none" stroke="rgb(255,255,0)" stroke-width="2" x1="1233.8709677419354" x2="1233.8709677419354" y1="431.1428571428571" y2="381.0" /><circle cx="1233.8709677419354" cy="431.1428571428571" fill="rgb(0,255,0)" r="2" /><circle cx="1233.8709677419354" cy="381.0" fill="rgb(0,255,0)" r="2" /><line fill="none" stroke="rgb(255,255,0)" stroke-width="1" x1="1233.8709677419354" x2="1238.8709677419354" y1="406.07142857142856" y2="406.07142857142856" /><text fill="black" font-family="sans-serif" font-size="12" x="1225.8709677419354" y="410.07142857142856">36</text><line fill="none" stroke="rgb(255,255,0)" stroke-width="2" x1="1233.8709677419354" x2="1133.5483870967741" y1="381.0" y2="381.0" /><circle cx="1233.8709677419354" cy="381.0" fill="rgb(0,255,0)" r="2" /><circle cx="1133.5483870967741" cy="381.0" fill="rgb(0,255,0)" r="2" /><line fill="none" stroke="rgb(255,255,0)" stroke-width="1" x1="1183.7096774193546" x2="1183.7096774193546" y1="381.0" y2="376.0" /><text fill="black" font-family="sans-serif" font-size="12" x="1175.7096774193546" y="385.0">37</text><line fill="none" stroke="rgb(255,255,0)" stroke-width="2" x1="1133.5483870967741" x2="1133.5483870967741" y1="381.0" y2="30.0" /><circle cx="1133.5483870967741" cy="381.0" fill="rgb(0,255,0)" r="2" /><circle cx="1133.5483870967741" cy="30.0" fill="rgb(0,255,0)" r="2" /><line fill="none" stroke="rgb(255,255,0)" stroke-width="1" x1="1133.5483870967741" x2="1138.5483870967741" y1="205.5" y2="205.5" /><text fill="black" font-family="sans-serif" font-size="12" x="1125.5483870967741" y="209.5">38</text><line fill="none" stroke="rgb(255,255,0)" stroke-width="2" x1="1133.5483870967741" x2="1384.3548387096773" y1="30.0" y2="30.0" /><circle cx="1133.5483870967741" cy="30.0" fill="rgb(0,255,0)" r="2" /><circle cx="1384.3548387096773" cy="30.0" fill="rgb(0,255,0)" r="2" /><line fill="none" stroke="rgb(255,255,0)" stroke-width="1" x1="1258.9516129032259" x2="1258.9516129032259" y1="30.0" y2="35.0" /><text fill="black" font-family="sans-serif" font-size="12" x="1250.9516129032259" y="34.0">39</text><line fill="none" stroke="rgb(255,255,0)" stroke-width="2" x1="1384.3548387096773" x2="1384.3548387096773" y1="30.0" y2="381.0" /><circle cx="1384.3548387096773" cy="30.0" fill="rgb(0,255,0)" r="2" /><circle cx="1384.3548387096773" cy="381.0" fill="rgb(0,255,0)" r="2" /><line fill="none" stroke="rgb(255,255,0)" stroke-width="1" x1="1384.3548387096773" x2="1379.3548387096773" y1="205.5" y2="205.5" /><text fill="black" font-family="sans-serif" font-size="12" x="1376.3548387096773" y="209.5">40</text><line fill="none" stroke="rgb(255,255,0)" stroke-width="2" x1="1384.3548387096773" x2="1284.032258064516" y1="381.0" y2="381.0" /><circle cx="1384.3548387096773" cy="381.0" fill="rgb(0,255,0)" r="2" /><circle cx="1284.032258064516" cy="381.0" fill="rgb(0,255,0)" r="2" /><line fill="none" stroke="rgb(255,255,0)" stroke-width="1" x1="1334.1935483870966" x2="1334.1935483870966" y1="381.0" y2="376.0" /><text fill="black" font-family="sans-serif" font-size="12" x="1326.1935483870966" y="385.0">41</text><line fill="none" stroke="rgb(255,255,0)" stroke-width="2" x1="1284.032258064516" x2="1284.032258064516" y1="381.0" y2="431.1428571428571" /><circle cx="1284.032258064516" cy="381.0" fill="rgb(0,255,0)" r="2" /><circle cx="1284.032258064516" cy="431.1428571428571" fill="rgb(0,255,0)" r="2" /><line fill="none" stroke="rgb(255,255,0)" stroke-width="1" x1="1284.032258064516" x2="1279.032258064516" y1="406.07142857142856" y2="406.07142857142856" /><text fill="black" font-family="sans-serif" font-size="12" x="1276.032258064516" y="410.07142857142856">42</text><line fill="none" stroke="rgb(255,255,0)" stroke-width="2" x1="1284.032258064516" x2="1384.3548387096773" y1="431.1428571428571" y2="431.1428571428571" /><circle cx="1284.032258064516" cy="431.1428571428571" fill="rgb(0,255,0)" r="2" /><circle cx="1384.3548387096773" cy="431.1428571428571" fill="rgb(0,255,0)" r="2" /><line fill="none" stroke="rgb(255,255,0)" stroke-width="1" x1="1334.1935483870966" x2="1334.1935483870966" y1="431.1428571428571" y2="436.1428571428571" /><text fill="black" font-family="sans-serif" font-size="12" x="1326.1935483870966" y="435.1428571428571">43</text><line fill="none" stroke="rgb(255,255,0)" stroke-width="2" x1="1384.3548387096773" x2="1384.3548387096773" y1="431.1428571428571" y2="531.4285714285714" /><circle cx="1384.3548387096773" cy="431.1428571428571" fill="rgb(0,255,0)" r="2" /><circle cx="1384.3548387096773" cy="531.4285714285714" fill="rgb(0,255,0)" r="2" /><line fill="none" stroke="rgb(255,255,0)" stroke-width="1" x1="1384.3548387096773" x2="1379.3548387096773" y1="481.2857142857143" y2="481.2857142857143" /><text fill="black" font-family="sans-serif" font-size="12" x="1376.3548387096773" y="485.2857142857143">44</text><line fill="none" stroke="rgb(255,255,0)" stroke-width="2" x1="1384.3548387096773" x2="1434.516129032258" y1="531.4285714285714" y2="531.4285714285714" /><circle cx="1384.3548387096773" cy="531.4285714285714" fill="rgb(0,255,0)" r="2" /><circle cx="1434.516129032258" cy="531.4285714285714" fill="rgb(0,255,0)" r="2" /><line fill="none" stroke="rgb(255,255,0)" stroke-width="1" x1="1409.4354838709678" x2="1409.4354838709678" y1="531.4285714285714" y2="536.4285714285714" /><text fill="black" font-family="sans-serif" font-size="12" x="1401.4354838709678" y="535.4285714285714">45</text><line fill="none" stroke="rgb(255,255,0)" stroke-width="2" x1="1434.516129032258" x2="1434.516129032258" y1="531.4285714285714" y2="481.28571428571433" /><circle cx="1434.516129032258" cy="531.4285714285714" fill="rgb(0,255,0)" r="2" /><circle cx="1434.516129032258" cy="481.28571428571433" fill="rgb(0,255,0)" r="2" /><line fill="none" stroke="rgb(255,255,0)" stroke-width="1" x1="1434.516129032258" x2="1439.516129032258" y1="506.3571428571429" y2="506.3571428571429" /><text fill="black" font-family="sans-serif" font-size="12" x="1426.516129032258" y="510.3571428571429">46</text><line fill="none" stroke="rgb(255,255,0)" stroke-width="2" x1="1434.516129032258" x2="1585.0" y1="481.28571428571433" y2="481.28571428571433" /><circle cx="1434.516129032258" cy="481.28571428571433" fill="rgb(0,255,0)" r="2" /><circle cx="1585.0" cy="481.28571428571433" fill="rgb(0,255,0)" r="2" /><line fill="none" stroke="rgb(255,255,0)" stroke-width="1" x1="1509.758064516129" x2="1509.758064516129" y1="481.28571428571433" y2="486.28571428571433" /><text fill="black" font-family="sans-serif" font-size="12" x="1501.758064516129" y="485.28571428571433">47</text><line fill="none" stroke="rgb(255,255,0)" stroke-width="2" x1="1585.0" x2="1585.0" y1="481.28571428571433" y2="493.82142857142856" /><circle cx="1585.0" cy="481.28571428571433" fill="rgb(0,255,0)" r="2" /><circle cx="1585.0" cy="493.82142857142856" fill="rgb(0,255,0)" r="2" /><line fill="none" stroke="rgb(255,255,0)" stroke-width="1" x1="1585.0" x2="1580.0" y1="487.55357142857144" y2="487.55357142857144" /><text fill="black" font-family="sans-serif" font-size="12" x="1577.0" y="491.55357142857144">48</text><line fill="none" stroke="rgb(10,99,207)" stroke-width="2" x1="1585.0" x2="1585.0" y1="493.82142857142856" y2="569.0357142857143" /><circle cx="1585.0" cy="493.82142857142856" fill="rgb(0,255,0)" r="2" /><circle cx="1585.0" cy="569.0357142857143" fill="rgb(0,255,0)" r="2" /><line fill="none" stroke="rgb(10,99,207)" stroke-width="1" x1="1585.0" x2="1580.0" y1="531.4285714285714" y2="531.4285714285714" /><text fill="black" font-family="sans-serif" font-size="12" x="1577.0" y="535.4285714285714">49</text><line fill="none" stroke="rgb(255,255,0)" stroke-width="2" x1="1585.0" x2="1585.0" y1="569.0357142857143" y2="631.7142857142858" /><circle cx="1585.0" cy="569.0357142857143" fill="rgb(0,255,0)" r="2" /><circle cx="1585.0" cy="631.7142857142858" fill="rgb(0,255,0)" r="2" /><line fill="none" stroke="rgb(255,255,0)" stroke-width="1" x1="1585.0" x2="1580.0" y1="600.375" y2="600.375" /><text fill="black" font-family="sans-serif" font-size="12" x="1577.0" y="604.375">50</text><line fill="none" stroke="rgb(255,255,0)" stroke-width="2" x1="1585.0" x2="1459.5967741935483" y1="631.7142857142858" y2="631.7142857142858" /><circle cx="1585.0" cy="631.7142857142858" fill="rgb(0,255,0)" r="2" /><circle cx="1459.5967741935483" cy="631.7142857142858" fill="rgb(0,255,0)" r="2" /><line fill="none" stroke="rgb(255,255,0)" stroke-width="1" x1="1522.2983870967741" x2="1522.2983870967741" y1="631.7142857142858" y2="626.7142857142858" /><text fill="black" font-family="sans-serif" font-size="12" x="1514.2983870967741" y="635.7142857142858">51</text><line fill="none" stroke="rgb(255,255,0)" stroke-width="2" x1="1434.516129032258" x2="1434.516129032258" y1="606.6428571428571" y2="581.5714285714287" /><circle cx="1434.516129032258" cy="606.6428571428571" fill="rgb(0,255,0)" r="2" /><circle cx="1434.516129032258" cy="581.5714285714287" fill="rgb(0,255,0)" r="2" /><line fill="none" stroke="rgb(255,255,0)" stroke-width="1" x1="1434.516129032258" x2="1439.516129032258" y1="594.1071428571429" y2="594.1071428571429" /><text fill="black" font-family="sans-serif" font-size="12" x="1426.516129032258" y="598.1071428571429">52</text><line fill="none" stroke="rgb(255,255,0)" stroke-width="2" x1="1434.516129032258" x2="1384.3548387096773" y1="581.5714285714287" y2="581.5714285714287" /><circle cx="1434.516129032258" cy="581.5714285714287" fill="rgb(0,255,0)" r="2" /><circle cx="1384.3548387096773" cy="581.5714285714287" fill="rgb(0,255,0)" r="2" /><line fill="none" stroke="rgb(255,255,0)" stroke-width="1" x1="1409.4354838709678" x2="1409.4354838709678" y1="581.5714285714287" y2="576.5714285714287" /><text fill="black" font-family="sans-serif" font-size="12" x="1401.4354838709678" y="585.5714285714287">53</text><line fill="none" stroke="rgb(255,255,0)" stroke-width="2" x1="1384.3548387096773" x2="1384.3548387096773" y1="581.5714285714287" y2="732.0" /><circle cx="1384.3548387096773" cy="581.5714285714287" fill="rgb(0,255,0)" r="2" /><circle cx="1384.3548387096773" cy="732.0" fill="rgb(0,255,0)" r="2" /><line fill="none" stroke="rgb(255,255,0)" stroke-width="1" x1="1384.3548387096773" x2="1379.3548387096773" y1="656.7857142857143" y2="656.7857142857143" /><text fill="black" font-family="sans-serif" font-size="12" x="1376.3548387096773" y="660.7857142857143">54</text><line fill="none" stroke="rgb(255,255,0)" stroke-width="2" x1="1384.3548387096773" x2="1434.516129032258" y1="732.0" y2="732.0" /><circle cx="1384.3548387096773" cy="732.0" fill="rgb(0,255,0)" r="2" /><circle cx="1434.516129032258" cy="732.0" fill="rgb(0,255,0)" r="2" /><line fill="none" stroke="rgb(255,255,0)" stroke-width="1" x1="1409.4354838709678" x2="1409.4354838709678" y1="732.0" y2="737.0" /><text fill="black" font-family="sans-serif" font-size="12" x="1401.4354838709678" y="736.0">55</text><line fill="none" stroke="rgb(255,255,0)" stroke-width="2" x1="1434.516129032258" x2="1434.516129032258" y1="732.0" y2="681.8571428571429" /><circle cx="1434.516129032258" cy="732.0" fill="rgb(0,255,0)" r="2" /><circle cx="1434.516129032258" cy="681.8571428571429" fill="rgb(0,255,0)" r="2" /><line fill="none" stroke="rgb(255,255,0)" stroke-width="1" x1="1434.516129032258" x2="1439.516129032258" y1="706.9285714285714" y2="706.9285714285714" /><text fill="black" font-family="sans-serif" font-size="12" x="1426.516129032258" y="710.9285714285714">56</text><line fill="none" stroke="rgb(255,255,0)" stroke-width="2" x1="1434.516129032258" x2="1559.9193548387098" y1="681.8571428571429" y2="681.8571428571429" /><circle cx="1434.516129032258" cy="681.8571428571429" fill="rgb(0,255,0)" r="2" /><circle cx="1559.9193548387098" cy="681.8571428571429" fill="rgb(0,255,0)" r="2" /><line fill="none" stroke="rgb(255,255,0)" stroke-width="1" x1="1497.217741935484" x2="1497.217741935484" y1="681.8571428571429" y2="686.8571428571429" /><text fill="black" font-family="sans-serif" font-size="12" x="1489.217741935484" y="685.8571428571429">57</text><line fill="none" stroke="rgb(255,255,0)" stroke-width="2" x1="1585.0" x2="1585.0" y1="706.9285714285714" y2="744.5357142857142" /><circle cx="1585.0" cy="706.9285714285714" fill="rgb(0,255,0)" r="2" /><circle cx="1585.0" cy="744.5357142857142" fill="rgb(0,255,0)" r="2" /><line fill="none" stroke="rgb(255,255,0)" stroke-width="1" x1="1585.0" x2="1580.0" y1="725.7321428571429" y2="725.7321428571429" /><text fill="black" font-family="sans-serif" font-size="12" x="1577.0" y="729.7321428571429">58</text><line fill="none" stroke="rgb(10,99,207)" stroke-width="2" x1="1585.0" x2="1585.0" y1="744.5357142857142" y2="819.75" /><circle cx="1585.0" cy="744.5357142857142" fill="rgb(0,255,0)" r="2" /><circle cx="1585.0" cy="819.75" fill="rgb(0,255,0)" r="2" /><line fill="none" stroke="rgb(10,99,207)" stroke-width="1" x1="1585.0" x2="1580.0" y1="782.1428571428571" y2="782.1428571428571" /><text fill="black" font-family="sans-serif" font-size="12" x="1577.0" y="786.1428571428571">59</text><line fill="none" stroke="rgb(255,255,0)" stroke-width="2" x1="1585.0" x2="1585.0" y1="819.75" y2="832.2857142857143" /><circle cx="1585.0" cy="819.75" fill="rgb(0,255,0)" r="2" /><circle cx="1585.0" cy="832.2857142857143" fill="rgb(0,255,0)" r="2" /><line fill="none" stroke="rgb(255,255,0)" stroke-width="1" x1="1585.0" x2="1580.0" y1="826.0178571428571" y2="826.0178571428571" /><text fill="black" font-family="sans-serif" font-size="12" x="1577.0" y="830.0178571428571">60</text><line fill="none" stroke="rgb(255,255,0)" stroke-width="2" x1="1585.0" x2="1434.516129032258" y1="832.2857142857143" y2="832.2857142857143" /><circle cx="1585.0" cy="832.2857142857143" fill="rgb(0,255,0)" r="2" /><circle cx="1434.516129032258" cy="832.2857142857143" fill="rgb(0,255,0)" r="2" /><line fill="none" stroke="rgb(255,255,0)" stroke-width="1" x1="1509.758064516129" x2="1509.758064516129" y1="832.2857142857143" y2="827.2857142857143" /><text fill="black" font-family="sans-serif" font-size="12" x="1501.758064516129" y="836.2857142857143">61</text><line fill="none" stroke="rgb(255,255,0)" stroke-width="2" x1="1434.516129032258" x2="1434.516129032258" y1="832.2857142857143" y2="782.1428571428571" /><circle cx="1434.516129032258" cy="832.2857142857143" fill="rgb(0,255,0)" r="2" /><circle cx="1434.516129032258" cy="782.1428571428571" fill="rgb(0,255,0)" r="2" /><line fill="none" stroke="rgb(255,255,0)" stroke-width="1" x1="1434.516129032258" x2="1439.516129032258" y1="807.2142857142858" y2="807.2142857142858" /><text fill="black" font-family="sans-serif" font-size="12" x="1426.516129032258" y="811.2142857142858">62</text><line fill="none" stroke="rgb(255,255,0)" stroke-width="2" x1="1434.516129032258" x2="1384.3548387096773" y1="782.1428571428571" y2="782.1428571428571" /><circle cx="1434.516129032258" cy="782.1428571428571" fill="rgb(0,255,0)" r="2" /><circle cx="1384.3548387096773" cy="782.1428571428571" fill="rgb(0,255,0)" r="2" /><line fill="none" stroke="rgb(255,255,0)" stroke-width="1" x1="1409.4354838709678" x2="1409.4354838709678" y1="782.1428571428571" y2="777.1428571428571" /><text fill="black" font-family="sans-serif" font-size="12" x="1401.4354838709678" y="786.1428571428571">63</text><line fill="none" stroke="rgb(255,255,0)" stroke-width="2" x1="1384.3548387096773" x2="1384.3548387096773" y1="782.1428571428571" y2="832.2857142857143" /><circle cx="1384.3548387096773" cy="782.1428571428571" fill="rgb(0,255,0)" r="2" /><circle cx="1384.3548387096773" cy="832.2857142857143" fill="rgb(0,255,0)" r="2" /><line fill="none" stroke="rgb(255,255,0)" stroke-width="1" x1="1384.3548387096773" x2="1379.3548387096773" y1="807.2142857142858" y2="807.2142857142858" /><text fill="black" font-family="sans-serif" font-size="12" x="1376.3548387096773" y="811.2142857142858">64</text><line fill="none" stroke="rgb(255,255,0)" stroke-width="2" x1="1384.3548387096773" x2="1384.3548387096773" y1="832.2857142857143" y2="882.4285714285714" /><circle cx="1384.3548387096773" cy="832.2857142857143" fill="rgb(0,255,0)" r="2" /><circle cx="1384.3548387096773" cy="882.4285714285714" fill="rgb(0,255,0)" r="2" /><line fill="none" stroke="rgb(255,255,0)" stroke-width="1" x1="1384.3548387096773" x2="1379.3548387096773" y1="857.3571428571429" y2="857.3571428571429" /><text fill="black" font-family="sans-serif" font-size="12" x="1376.3548387096773" y="861.3571428571429">65</text><line fill="none" stroke="rgb(255,255,0)" stroke-width="2" x1="1384.3548387096773" x2="1334.1935483870968" y1="882.4285714285714" y2="882.4285714285714" /><circle cx="1384.3548387096773" cy="882.4285714285714" fill="rgb(0,255,0)" r="2" /><circle cx="1334.1935483870968" cy="882.4285714285714" fill="rgb(0,255,0)" r="2" /><line fill="none" stroke="rgb(255,255,0)" stroke-width="1" x1="1359.274193548387" x2="1359.274193548387" y1="882.4285714285714" y2="877.4285714285714" /><text fill="black" font-family="sans-serif" font-size="12" x="1351.274193548387" y="886.4285714285714">66</text><line fill="none" stroke="rgb(255,255,0)" stroke-width="2" x1="1334.1935483870968" x2="1284.032258064516" y1="882.4285714285714" y2="882.4285714285714" /><circle cx="1334.1935483870968" cy="882.4285714285714" fill="rgb(0,255,0)" r="2" /><circle cx="1284.032258064516" cy="882.4285714285714" fill="rgb(0,255,0)" r="2" /><line fill="none" stroke="rgb(255,255,0)" stroke-width="1" x1="1309.1129032258063" x2="1309.1129032258063" y1="882.4285714285714" y2="877.4285714285714" /><text fill="black" font-family="sans-serif" font-size="12" x="1301.1129032258063" y="886.4285714285714">67</text><line fill="none" stroke="rgb(255,255,0)" stroke-width="2" x1="1284.032258064516" x2="1284.032258064516" y1="882.4285714285714" y2="932.5714285714286" /><circle cx="1284.032258064516" cy="882.4285714285714" fill="rgb(0,255,0)" r="2" /><circle cx="1284.032258064516" cy="932.5714285714286" fill="rgb(0,255,0)" r="2" /><line fill="none" stroke="rgb(255,255,0)" stroke-width="1" x1="1284.032258064516" x2="1279.032258064516" y1="907.5" y2="907.5" /><text fill="black" font-family="sans-serif" font-size="12" x="1276.032258064516" y="911.5">68</text><line fill="none" stroke="rgb(255,255,0)" stroke-width="2" x1="1284.032258064516" x2="1334.1935483870968" y1="932.5714285714286" y2="932.5714285714286" /><circle cx="1284.032258064516" cy="932.5714285714286" fill="rgb(0,255,0)" r="2" /><circle cx="1334.1935483870968" cy="932.5714285714286" fill="rgb(0,255,0)" r="2" /><line fill="none" stroke="rgb(255,255,0)" stroke-width="1" x1="1309.1129032258063" x2="1309.1129032258063" y1="932.5714285714286" y2="937.5714285714286" /><text fill="black" font-family="sans-serif" font-size="12" x="1301.1129032258063" y="936.5714285714286">69</text><line fill="none" stroke="rgb(255,255,0)" stroke-width="2" x1="1334.1935483870968" x2="1384.3548387096773" y1="932.5714285714286" y2="932.5714285714286" /><circle cx="1334.1935483870968" cy="932.5714285714286" fill="rgb(0,255,0)" r="2" /><circle cx="1384.3548387096773" cy="932.5714285714286" fill="rgb(0,255,0)" r="2" /><line fill="none" stroke="rgb(255,255,0)" stroke-width="1" x1="1359.274193548387" x2="1359.274193548387" y1="932.5714285714286" y2="937.5714285714286" /><text fill="black" font-family="sans-serif" font-size="12" x="1351.274193548387" y="936.5714285714286">70</text><line fill="none" stroke="rgb(255,255,0)" stroke-width="2" x1="1384.3548387096773" x2="1384.3548387096773" y1="932.5714285714286" y2="982.7142857142858" /><circle cx="1384.3548387096773" cy="932.5714285714286" fill="rgb(0,255,0)" r="2" /><circle cx="1384.3548387096773" cy="982.7142857142858" fill="rgb(0,255,0)" r="2" /><line fill="none" stroke="rgb(255,255,0)" stroke-width="1" x1="1384.3548387096773" x2="1379.3548387096773" y1="957.6428571428571" y2="957.6428571428571" /><text fill="black" font-family="sans-serif" font-size="12" x="1376.3548387096773" y="961.6428571428571">71</text><line fill="none" stroke="rgb(255,255,0)" stroke-width="2" x1="1384.3548387096773" x2="1334.1935483870968" y1="982.7142857142858" y2="982.7142857142858" /><circle cx="1384.3548387096773" cy="982.7142857142858" fill="rgb(0,255,0)" r="2" /><circle cx="1334.1935483870968" cy="982.7142857142858" fill="rgb(0,255,0)" r="2" /><line fill="none" stroke="rgb(255,255,0)" stroke-width="1" x1="1359.274193548387" x2="1359.274193548387" y1="982.7142857142858" y2="977.7142857142858" /><text fill="black" font-family="sans-serif" font-size="12" x="1351.274193548387" y="986.7142857142858">72</text><line fill="none" stroke="rgb(255,255,0)" stroke-width="2" x1="1334.1935483870968" x2="1334.1935483870968" y1="982.7142857142858" y2="1032.857142857143" /><circle cx="1334.1935483870968" cy="982.7142857142858" fill="rgb(0,255,0)" r="2" /><circle cx="1334.1935483870968" cy="1032.857142857143" fill="rgb(0,255,0)" r="2" /><line fill="none" stroke="rgb(255,255,0)" stroke-width="1" x1="1334.1935483870968" x2="1329.1935483870968" y1="1007.7857142857143" y2="1007.7857142857143" /><text fill="black" font-family="sans-serif" font-size="12" x="1326.1935483870968" y="1011.7857142857143">73</text><line fill="none" stroke="rgb(255,255,0)" stroke-width="2" x1="1334.1935483870968" x2="1284.032258064516" y1="1032.857142857143" y2="1032.857142857143" /><circle cx="1334.1935483870968" cy="1032.857142857143" fill="rgb(0,255,0)" r="2" /><circle cx="1284.032258064516" cy="1032.857142857143" fill="rgb(0,255,0)" r="2" /><line fill="none" stroke="rgb(255,255,0)" stroke-width="1" x1="1309.1129032258063" x2="1309.1129032258063" y1="1032.857142857143" y2="1027.857142857143" /><text fill="black" font-family="sans-serif" font-size="12" x="1301.1129032258063" y="1036.857142857143">74</text><line fill="none" stroke="rgb(255,255,0)" stroke-width="2" x1="1284.032258064516" x2="1284.032258064516" y1="1032.857142857143" y2="1083.0" /><circle cx="1284.032258064516" cy="1032.857142857143" fill="rgb(0,255,0)" r="2" /><circle cx="1284.032258064516" cy="1083.0" fill="rgb(0,255,0)" r="2" /><line fill="none" stroke="rgb(255,255,0)" stroke-width="1" x1="1284.032258064516" x2="1279.032258064516" y1="1057.9285714285716" y2="1057.9285714285716" /><text fill="black" font-family="sans-serif" font-size="12" x="1276.032258064516" y="1061.9285714285716">75</text><line fill="none" stroke="rgb(255,255,0)" stroke-width="2" x1="1334.1935483870968" x2="1183.7096774193549" y1="92.67857142857144" y2="92.67857142857144" /><circle cx="1334.1935483870968" cy="92.67857142857144" fill="rgb(0,255,0)" r="2" /><circle cx="1183.7096774193549" cy="92.67857142857144" fill="rgb(0,255,0)" r="2" /><line fill="none" stroke="rgb(255,255,0)" stroke-width="1" x1="1258.9516129032259" x2="1258.9516129032259" y1="92.67857142857144" y2="87.67857142857144" /><text fill="black" font-family="sans-serif" font-size="12" x="1250.9516129032259" y="96.67857142857144">76</text><line fill="none" stroke="rgb(255,255,0)" stroke-width="2" x1="1183.7096774193549" x2="1183.7096774193549" y1="92.67857142857144" y2="117.75" /><circle cx="1183.7096774193549" cy="92.67857142857144" fill="rgb(0,255,0)" r="2" /><circle cx="1183.7096774193549" cy="117.75" fill="rgb(0,255,0)" r="2" /><line fill="none" stroke="rgb(255,255,0)" stroke-width="1" x1="1183.7096774193549" x2="1178.7096774193549" y1="105.21428571428572" y2="105.21428571428572" /><text fill="black" font-family="sans-serif" font-size="12" x="1175.7096774193549" y="109.21428571428572">77</text><line fill="none" stroke="rgb(255,255,0)" stroke-width="2" x1="1183.7096774193549" x2="1334.1935483870968" y1="117.75" y2="117.75" /><circle cx="1183.7096774193549" cy="117.75" fill="rgb(0,255,0)" r="2" /><circle cx="1334.1935483870968" cy="117.75" fill="rgb(0,255,0)" r="2" /><line fill="none" stroke="rgb(255,255,0)" stroke-width="1" x1="1258.9516129032259" x2="1258.9516129032259" y1="117.75" y2="122.75" /><text fill="black" font-family="sans-serif" font-size="12" x="1250.9516129032259" y="121.75">78</text><line fill="none" stroke="rgb(255,255,0)" stroke-width="2" x1="1334.1935483870968" x2="1334.1935483870968" y1="117.75" y2="92.67857142857144" /><circle cx="1334.1935483870968" cy="117.75" fill="rgb(0,255,0)" r="2" /><circle cx="1334.1935483870968" cy="92.67857142857144" fill="rgb(0,255,0)" r="2" /><line fill="none" stroke="rgb(255,255,0)" stroke-width="1" x1="1334.1935483870968" x2="1339.1935483870968" y1="105.21428571428572" y2="105.21428571428572" /><text fill="black" font-family="sans-serif" font-size="12" x="1326.1935483870968" y="109.21428571428572">79</text><line fill="none" stroke="rgb(255,255,0)" stroke-width="2" x1="1334.1935483870968" x2="1183.7096774193549" y1="192.96428571428567" y2="192.96428571428567" /><circle cx="1334.1935483870968" cy="192.96428571428567" fill="rgb(0,255,0)" r="2" /><circle cx="1183.7096774193549" cy="192.96428571428567" fill="rgb(0,255,0)" r="2" /><line fill="none" stroke="rgb(255,255,0)" stroke-width="1" x1="1258.9516129032259" x2="1258.9516129032259" y1="192.96428571428567" y2="187.96428571428567" /><text fill="black" font-family="sans-serif" font-size="12" x="1250.9516129032259" y="196.96428571428567">80</text><line fill="none" stroke="rgb(255,255,0)" stroke-width="2" x1="1183.7096774193549" x2="1183.7096774193549" y1="192.96428571428567" y2="218.03571428571433" /><circle cx="1183.7096774193549" cy="192.96428571428567" fill="rgb(0,255,0)" r="2" /><circle cx="1183.7096774193549" cy="218.03571428571433" fill="rgb(0,255,0)" r="2" /><line fill="none" stroke="rgb(255,255,0)" stroke-width="1" x1="1183.7096774193549" x2="1178.7096774193549" y1="205.5" y2="205.5" /><text fill="black" font-family="sans-serif" font-size="12" x="1175.7096774193549" y="209.5">81</text><line fill="none" stroke="rgb(255,255,0)" stroke-width="2" x1="1183.7096774193549" x2="1334.1935483870968" y1="218.03571428571433" y2="218.03571428571433" /><circle cx="1183.7096774193549" cy="218.03571428571433" fill="rgb(0,255,0)" r="2" /><circle cx="1334.1935483870968" cy="218.03571428571433" fill="rgb(0,255,0)" r="2" /><line fill="none" stroke="rgb(255,255,0)" stroke-width="1" x1="1258.9516129032259" x2="1258.9516129032259" y1="218.03571428571433" y2="223.03571428571433" /><text fill="black" font-family="sans-serif" font-size="12" x="1250.9516129032259" y="222.03571428571433">82</text><line fill="none" stroke="rgb(255,255,0)" stroke-width="2" x1="1334.1935483870968" x2="1334.1935483870968" y1="218.03571428571433" y2="192.96428571428567" /><circle cx="1334.1935483870968" cy="218.03571428571433" fill="rgb(0,255,0)" r="2" /><circle cx="1334.1935483870968" cy="192.96428571428567" fill="rgb(0,255,0)" r="2" /><line fill="none" stroke="rgb(255,255,0)" stroke-width="1" x1="1334.1935483870968" x2="1339.1935483870968" y1="205.5" y2="205.5" /><text fill="black" font-family="sans-serif" font-size="12" x="1326.1935483870968" y="209.5">83</text><line fill="none" stroke="rgb(255,255,0)" stroke-width="2" x1="1334.1935483870968" x2="1183.7096774193549" y1="293.25" y2="293.25" /><circle cx="1334.1935483870968" cy="293.25" fill="rgb(0,255,0)" r="2" /><circle cx="1183.7096774193549" cy="293.25" fill="rgb(0,255,0)" r="2" /><line fill="none" stroke="rgb(255,255,0)" stroke-width="1" x1="1258.9516129032259" x2="1258.9516129032259" y1="293.25" y2="288.25" /><text fill="black" font-family="sans-serif" font-size="12" x="1250.9516129032259" y="297.25">84</text><line fill="none" stroke="rgb(255,255,0)" stroke-width="2" x1="1183.7096774193549" x2="1183.7096774193549" y1="293.25" y2="318.32142857142856" /><circle cx="1183.7096774193549" cy="293.25" fill="rgb(0,255,0)" r="2" /><circle cx="1183.7096774193549" cy="318.32142857142856" fill="rgb(0,255,0)" r="2" /><line fill="none" stroke="rgb(255,255,0)" stroke-width="1" x1="1183.7096774193549" x2="1178.7096774193549" y1="305.7857142857143" y2="305.7857142857143" /><text fill="black" font-family="sans-serif" font-size="12" x="1175.7096774193549" y="309.7857142857143">85</text><line fill="none" stroke="rgb(255,255,0)" stroke-width="2" x1="1183.7096774193549" x2="1334.1935483870968" y1="318.32142857142856" y2="318.32142857142856" /><circle cx="1183.7096774193549" cy="318.32142857142856" fill="rgb(0,255,0)" r="2" /><circle cx="1334.1935483870968" cy="318.32142857142856" fill="rgb(0,255,0)" r="2" /><line fill="none" stroke="rgb(255,255,0)" stroke-width="1" x1="1258.9516129032259" x2="1258.9516129032259" y1="318.32142857142856" y2="323.32142857142856" /><text fill="black" font-family="sans-serif" font-size="12" x="1250.9516129032259" y="322.32142857142856">86</text><line fill="none" stroke="rgb(255,255,0)" stroke-width="2" x1="1334.1935483870968" x2="1334.1935483870968" y1="318.32142857142856" y2="293.25" /><circle cx="1334.1935483870968" cy="318.32142857142856" fill="rgb(0,255,0)" r="2" /><circle cx="1334.1935483870968" cy="293.25" fill="rgb(0,255,0)" r="2" /><line fill="none" stroke="rgb(255,255,0)" stroke-width="1" x1="1334.1935483870968" x2="1339.1935483870968" y1="305.7857142857143" y2="305.7857142857143" /><text fill="black" font-family="sans-serif" font-size="12" x="1326.1935483870968" y="309.7857142857143">87</text><line fill="none" stroke="rgb(250,56,35)" stroke-width="2" x1="707.1774193548387" x2="707.1774193548387" y1="606.6428571428571" y2="656.7857142857142" /><circle cx="707.1774193548387" cy="606.6428571428571" fill="rgb(0,255,0)" r="2" /><circle cx="707.1774193548387" cy="656.7857142857142" fill="rgb(0,255,0)" r="2" /><line fill="none" stroke="rgb(250,56,35)" stroke-width="1" x1="707.1774193548387" x2="702.1774193548387" y1="631.7142857142857" y2="631.7142857142857" /><text fill="black" font-family="sans-serif" font-size="12" x="699.1774193548387" y="635.7142857142857">88</text><line fill="none" stroke="rgb(250,56,35)" stroke-width="2" x1="707.1774193548387" x2="757.3387096774193" y1="656.7857142857142" y2="656.7857142857142" /><circle cx="707.1774193548387" cy="656.7857142857142" fill="rgb(0,255,0)" r="2" /><circle cx="757.3387096774193" cy="656.7857142857142" fill="rgb(0,255,0)" r="2" /><line fill="none" stroke="rgb(250,56,35)" stroke-width="1" x1="732.258064516129" x2="732.258064516129" y1="656.7857142857142" y2="661.7857142857142" /><text fill="black" font-family="sans-serif" font-size="12" x="724.258064516129" y="660.7857142857142">89</text><line fill="none" stroke="rgb(250,56,35)" stroke-width="2" x1="757.3387096774193" x2="757.3387096774193" y1="656.7857142857142" y2="606.6428571428571" /><circle cx="757.3387096774193" cy="656.7857142857142" fill="rgb(0,255,0)" r="2" /><circle cx="757.3387096774193" cy="606.6428571428571" fill="rgb(0,255,0)" r="2" /><line fill="none" stroke="rgb(250,56,35)" stroke-width="1" x1="757.3387096774193" x2="762.3387096774193" y1="631.7142857142857" y2="631.7142857142857" /><text fill="black" font-family="sans-serif" font-size="12" x="749.3387096774193" y="635.7142857142857">90</text><line fill="none" stroke="rgb(250,56,35)" stroke-width="2" x1="983.0645161290323" x2="1083.3870967741934" y1="706.9285714285714" y2="706.9285714285714" /><circle cx="983.0645161290323" cy="706.9285714285714" fill="rgb(0,255,0)" r="2" /><circle cx="1083.3870967741934" cy="706.9285714285714" fill="rgb(0,255,0)" r="2" /><line fill="none" stroke="rgb(250,56,35)" stroke-width="1" x1="1033.225806451613" x2="1033.225806451613" y1="706.9285714285714" y2="711.9285714285714" /><text fill="black" font-family="sans-serif" font-size="12" x="1025.225806451613" y="710.9285714285714">91</text><line fill="none" stroke="rgb(255,255,0)" stroke-width="2" x1="1035.6138561617945" x2="1035.6138561617945" y1="882.4285714285714" y2="832.2857142857143" /><circle cx="1035.6138561617945" cy="882.4285714285714" fill="rgb(0,255,0)" r="2" /><circle cx="1035.6138561617945" cy="832.2857142857143" fill="rgb(0,255,0)" r="2" /><line fill="none" stroke="rgb(255,255,0)" stroke-width="1" x1="1035.6138561617945" x2="1040.6138561617945" y1="857.3571428571429" y2="857.3571428571429" /><text fill="black" font-family="sans-serif" font-size="12" x="1027.6138561617945" y="861.3571428571429">92</text><line fill="none" stroke="rgb(255,255,0)" stroke-width="2" x1="1035.6138561617945" x2="1030.8377567414316" y1="832.2857142857143" y2="832.2857142857143" /><circle cx="1035.6138561617945" cy="832.2857142857143" fill="rgb(0,255,0)" r="2" /><circle cx="1030.8377567414316" cy="832.2857142857143" fill="rgb(0,255,0)" r="2" /><line fill="none" stroke="rgb(255,255,0)" stroke-width="1" x1="1033.2258064516132" x2="1033.2258064516132" y1="832.2857142857143" y2="827.2857142857143" /><text fill="black" font-family="sans-serif" font-size="12" x="1025.2258064516132" y="836.2857142857143">93</text><line fill="none" stroke="rgb(255,255,0)" stroke-width="2" x1="1030.8377567414316" x2="1030.8377567414316" y1="832.2857142857143" y2="882.4285714285714" /><circle cx="1030.8377567414316" cy="832.2857142857143" fill="rgb(0,255,0)" r="2" /><circle cx="1030.8377567414316" cy="882.4285714285714" fill="rgb(0,255,0)" r="2" /><line fill="none" stroke="rgb(255,255,0)" stroke-width="1" x1="1030.8377567414316" x2="1025.8377567414316" y1="857.3571428571429" y2="857.3571428571429" /><text fill="black" font-family="sans-serif" font-size="12" x="1022.8377567414316" y="861.3571428571429">94</text><line fill="none" stroke="rgb(250,56,35)" stroke-width="2" x1="1534.8387096774195" x2="1534.8387096774195" y1="493.82142857142856" y2="569.0357142857143" /><circle cx="1534.8387096774195" cy="493.82142857142856" fill="rgb(0,255,0)" r="2" /><circle cx="1534.8387096774195" cy="569.0357142857143" fill="rgb(0,255,0)" r="2" /><line fill="none" stroke="rgb(250,56,35)" stroke-width="1" x1="1534.8387096774195" x2="1529.8387096774195" y1="531.4285714285714" y2="531.4285714285714" /><text fill="black" font-family="sans-serif" font-size="12" x="1526.8387096774195" y="535.4285714285714">95</text><line fill="none" stroke="rgb(250,56,35)" stroke-width="2" x1="1534.8387096774195" x2="1585.0" y1="569.0357142857143" y2="569.0357142857143" /><circle cx="1534.8387096774195" cy="569.0357142857143" fill="rgb(0,255,0)" r="2" /><circle cx="1585.0" cy="569.0357142857143" fill="rgb(0,255,0)" r="2" /><line fill="none" stroke="rgb(250,56,35)" stroke-width="1" x1="1559.9193548387098" x2="1559.9193548387098" y1="569.0357142857143" y2="574.0357142857143" /><text fill="black" font-family="sans-serif" font-size="12" x="1551.9193548387098" y="573.0357142857143">96</text><line fill="none" stroke="rgb(250,56,35)" stroke-width="2" x1="1585.0" x2="1534.8387096774195" y1="493.82142857142856" y2="493.82142857142856" /><circle cx="1585.0" cy="493.82142857142856" fill="rgb(0,255,0)" r="2" /><circle cx="1534.8387096774195" cy="493.82142857142856" fill="rgb(0,255,0)" r="2" /><line fill="none" stroke="rgb(250,56,35)" stroke-width="1" x1="1559.9193548387098" x2="1559.9193548387098" y1="493.82142857142856" y2="488.82142857142856" /><text fill="black" font-family="sans-serif" font-size="12" x="1551.9193548387098" y="497.82142857142856">97</text><line fill="none" stroke="rgb(255,255,0)" stroke-width="2" x1="1459.5967741935483" x2="1434.516129032258" y1="606.6428571428571" y2="606.6428571428571" /><circle cx="1459.5967741935483" cy="606.6428571428571" fill="rgb(0,255,0)" r="2" /><circle cx="1434.516129032258" cy="606.6428571428571" fill="rgb(0,255,0)" r="2" /><line fill="none" stroke="rgb(255,255,0)" stroke-width="1" x1="1447.0564516129032" x2="1447.0564516129032" y1="606.6428571428571" y2="601.6428571428571" /><text fill="black" font-family="sans-serif" font-size="12" x="1439.0564516129032" y="610.6428571428571">98</text><line fill="none" stroke="rgb(255,255,0)" stroke-width="2" x1="1459.5967741935483" x2="1459.5967741935483" y1="631.7142857142858" y2="606.6428571428571" /><circle cx="1459.5967741935483" cy="631.7142857142858" fill="rgb(0,255,0)" r="2" /><circle cx="1459.5967741935483" cy="606.6428571428571" fill="rgb(0,255,0)" r="2" /><line fill="none" stroke="rgb(255,255,0)" stroke-width="1" x1="1459.5967741935483" x2="1464.5967741935483" y1="619.1785714285714" y2="619.1785714285714" /><text fill="black" font-family="sans-serif" font-size="12" x="1451.5967741935483" y="623.1785714285714">99</text><line fill="none" stroke="rgb(255,255,0)" stroke-width="2" x1="1559.9193548387098" x2="1559.9193548387098" y1="681.8571428571429" y2="706.9285714285714" /><circle cx="1559.9193548387098" cy="681.8571428571429" fill="rgb(0,255,0)" r="2" /><circle cx="1559.9193548387098" cy="706.9285714285714" fill="rgb(0,255,0)" r="2" /><line fill="none" stroke="rgb(255,255,0)" stroke-width="1" x1="1559.9193548387098" x2="1554.9193548387098" y1="694.3928571428571" y2="694.3928571428571" /><text fill="black" font-family="sans-serif" font-size="12" x="1551.9193548387098" y="698.3928571428571">100</text><line fill="none" stroke="rgb(255,255,0)" stroke-width="2" x1="1559.9193548387098" x2="1585.0" y1="706.9285714285714" y2="706.9285714285714" /><circle cx="1559.9193548387098" cy="706.9285714285714" fill="rgb(0,255,0)" r="2" /><circle cx="1585.0" cy="706.9285714285714" fill="rgb(0,255,0)" r="2" /><line fill="none" stroke="rgb(255,255,0)" stroke-width="1" x1="1572.4596774193549" x2="1572.4596774193549" y1="706.9285714285714" y2="711.9285714285714" /><text fill="black" font-family="sans-serif" font-size="12" x="1564.4596774193549" y="710.9285714285714">101</text><line fill="none" stroke="rgb(250,56,35)" stroke-width="2" x1="1585.0" x2="1534.8387096774195" y1="744.5357142857142" y2="744.5357142857142" /><circle cx="1585.0" cy="744.5357142857142" fill="rgb(0,255,0)" r="2" /><circle cx="1534.8387096774195" cy="744.5357142857142" fill="rgb(0,255,0)" r="2" /><line fill="none" stroke="rgb(250,56,35)" stroke-width="1" x1="1559.9193548387098" x2="1559.9193548387098" y1="744.5357142857142" y2="739.5357142857142" /><text fill="black" font-family="sans-serif" font-size="12" x="1551.9193548387098" y="748.5357142857142">102</text><line fill="none" stroke="rgb(250,56,35)" stroke-width="2" x1="1534.8387096774195" x2="1534.8387096774195" y1="744.5357142857142" y2="819.75" /><circle cx="1534.8387096774195" cy="744.5357142857142" fill="rgb(0,255,0)" r="2" /><circle cx="1534.8387096774195" cy="819.75" fill="rgb(0,255,0)" r="2" /><line fill="none" stroke="rgb(250,56,35)" stroke-width="1" x1="1534.8387096774195" x2="1529.8387096774195" y1="782.1428571428571" y2="782.1428571428571" /><text fill="black" font-family="sans-serif" font-size="12" x="1526.8387096774195" y="786.1428571428571">103</text><line fill="none" stroke="rgb(250,56,35)" stroke-width="2" x1="1534.8387096774195" x2="1585.0" y1="819.75" y2="819.75" /><circle cx="1534.8387096774195" cy="819.75" fill="rgb(0,255,0)" r="2" /><circle cx="1585.0" cy="819.75" fill="rgb(0,255,0)" r="2" /><line fill="none" stroke="rgb(250,56,35)" stroke-width="1" x1="1559.9193548387098" x2="1559.9193548387098" y1="819.75" y2="824.75" /><text fill="black" font-family="sans-serif" font-size="12" x="1551.9193548387098" y="823.75">104</text><line fill="none" stroke="rgb(250,56,35)" stroke-width="2" x1="757.3387096774193" x2="707.1774193548387" y1="556.5" y2="556.5" /><circle cx="757.3387096774193" cy="556.5" fill="rgb(0,255,0)" r="2" /><circle cx="707.1774193548387" cy="556.5" fill="rgb(0,255,0)" r="2" /><line fill="none" stroke="rgb(250,56,35)" stroke-width="1" x1="732.258064516129" x2="732.258064516129" y1="556.5" y2="551.5" /><text fill="black" font-family="sans-serif" font-size="12" x="724.258064516129" y="560.5">105</text><line fill="none" stroke="rgb(250,56,35)" stroke-width="2" x1="707.1774193548387" x2="707.1774193548387" y1="556.5" y2="606.6428571428571" /><circle cx="707.1774193548387" cy="556.5" fill="rgb(0,255,0)" r="2" /><circle cx="707.1774193548387" cy="606.6428571428571" fill="rgb(0,255,0)" r="2" /><line fill="none" stroke="rgb(250,56,35)" stroke-width="1" x1="707.1774193548387" x2="702.1774193548387" y1="581.5714285714286" y2="581.5714285714286" /><text fill="black" font-family="sans-serif" font-size="12" x="699.1774193548387" y="585.5714285714286">106</text><line fill="none" stroke="rgb(250,56,35)" stroke-width="2" x1="757.3387096774193" x2="757.3387096774193" y1="606.6428571428571" y2="556.5" /><circle cx="757.3387096774193" cy="606.6428571428571" fill="rgb(0,255,0)" r="2" /><circle cx="757.3387096774193" cy="556.5" fill="rgb(0,255,0)" r="2" /><line fill="none" stroke="rgb(250,56,35)" stroke-width="1" x1="757.3387096774193" x2="762.3387096774193" y1="581.5714285714286" y2="581.5714285714286" /><text fill="black" font-family="sans-serif" font-size="12" x="749.3387096774193" y="585.5714285714286">107</text></svg>