<?xml version="1.0" encoding="utf-8" ?>
<svg baseProfile="full" height="1686" version="1.1" width="1067" xmlns="http://www.w3.org/2000/svg" xmlns:ev="http://www.w3.org/2001/xml-events" xmlns:xlink="http://www.w3.org/1999/xlink"><defs /><rect fill="rgb(73,109,137)" fill-opacity="1" height="1686" width="1067" x="0" y="0" /><line fill="none" stroke="rgb(255,255,0)" stroke-width="2" x1="262.38461538461536" x2="262.38461538461536" y1="843.0" y2="726.8571428571429" /><circle cx="262.38461538461536" cy="843.0" fill="rgb(0,255,0)" r="2" /><circle cx="262.38461538461536" cy="726.8571428571429" fill="rgb(0,255,0)" r="2" /><line fill="none" stroke="rgb(255,255,0)" stroke-width="1" x1="262.38461538461536" x2="267.38461538461536" y1="784.9285714285714" y2="784.9285714285714" /><line fill="none" stroke="rgb(255,255,0)" stroke-width="2" x1="262.38461538461536" x2="184.92307692307693" y1="726.8571428571429" y2="726.8571428571429" /><circle cx="262.38461538461536" cy="726.8571428571429" fill="rgb(0,255,0)" r="2" /><circle cx="184.92307692307693" cy="726.8571428571429" fill="rgb(0,255,0)" r="2" /><line fill="none" stroke="rgb(255,255,0)" stroke-width="1" x1="223.65384615384613" x2="223.65384615384613" y1="726.8571428571429" y2="721.8571428571429" /><line fill="none" stroke="rgb(255,255,0)" stroke-width="2" x1="184.92307692307693" x2="184.92307692307693" y1="726.8571428571429" y2="455.8571428571429" /><circle cx="184.92307692307693" cy="726.8571428571429" fill="rgb(0,255,0)" r="2" /><circle cx="184.92307692307693" cy="455.8571428571429" fill="rgb(0,255,0)" r="2" /><line fill="none" stroke="rgb(255,255,0)" stroke-width="1" x1="184.92307692307693" x2="189.92307692307693" y1="591.3571428571429" y2="591.3571428571429" /><line fill="none" stroke="rgb(255,255,0)" stroke-width="2" x1="184.92307692307693" x2="262.38461538461536" y1="455.8571428571429" y2="455.8571428571429" /><circle cx="184.92307692307693" cy="455.8571428571429" fill="rgb(0,255,0)" r="2" /><circle cx="262.38461538461536" cy="455.8571428571429" fill="rgb(0,255,0)" r="2" /><line fill="none" stroke="rgb(255,255,0)" stroke-width="1" x1="223.65384615384613" x2="223.65384615384613" y1="455.8571428571429" y2="460.8571428571429" /><line fill="none" stroke="rgb(255,255,0)" stroke-width="2" x1="262.38461538461536" x2="262.38461538461536" y1="455.8571428571429" y2="184.8571428571429" /><circle cx="262.38461538461536" cy="455.8571428571429" fill="rgb(0,255,0)" r="2" /><circle cx="262.38461538461536" cy="184.8571428571429" fill="rgb(0,255,0)" r="2" /><line fill="none" stroke="rgb(255,255,0)" stroke-width="1" x1="262.38461538461536" x2="267.38461538461536" y1="320.3571428571429" y2="320.3571428571429" /><line fill="none" stroke="rgb(255,255,0)" stroke-width="2" x1="262.38461538461536" x2="339.84615384615387" y1="184.8571428571429" y2="184.8571428571429" /><circle cx="262.38461538461536" cy="184.8571428571429" fill="rgb(0,255,0)" r="2" /><circle cx="339.84615384615387" cy="184.8571428571429" fill="rgb(0,255,0)" r="2" /><line fill="none" stroke="rgb(255,255,0)" stroke-width="1" x1="301.11538461538464" x2="301.11538461538464" y1="184.8571428571429" y2="189.8571428571429" /><line fill="none" stroke="rgb(255,255,0)" stroke-width="2" x1="339.84615384615387" x2="339.84615384615387" y1="184.8571428571429" y2="417.1428571428571" /><circle cx="339.84615384615387" cy="184.8571428571429" fill="rgb(0,255,0)" r="2" /><circle cx="339.84615384615387" cy="417.1428571428571" fill="rgb(0,255,0)" r="2" /><line fill="none" stroke="rgb(255,255,0)" stroke-width="1" x1="339.84615384615387" x2="334.84615384615387" y1="301.0" y2="301.0" /><line fill="none" stroke="rgb(255,255,0)" stroke-width="2" x1="339.84615384615387" x2="339.84615384615387" y1="417.1428571428571" y2="455.8571428571429" /><circle cx="339.84615384615387" cy="417.1428571428571" fill="rgb(0,255,0)" r="2" /><circle cx="339.84615384615387" cy="455.8571428571429" fill="rgb(0,255,0)" r="2" /><line fill="none" stroke="rgb(255,255,0)" stroke-width="1" x1="339.84615384615387" x2="334.84615384615387" y1="436.5" y2="436.5" /><line fill="none" stroke="rgb(255,255,0)" stroke-width="2" x1="339.84615384615387" x2="417.3076923076923" y1="455.8571428571429" y2="455.8571428571429" /><circle cx="339.84615384615387" cy="455.8571428571429" fill="rgb(0,255,0)" r="2" /><circle cx="417.3076923076923" cy="455.8571428571429" fill="rgb(0,255,0)" r="2" /><line fill="none" stroke="rgb(255,255,0)" stroke-width="1" x1="378.5769230769231" x2="378.5769230769231" y1="455.8571428571429" y2="460.8571428571429" /><line fill="none" stroke="rgb(255,255,0)" stroke-width="2" x1="417.3076923076923" x2="417.3076923076923" y1="455.8571428571429" y2="726.8571428571429" /><circle cx="417.3076923076923" cy="455.8571428571429" fill="rgb(0,255,0)" r="2" /><circle cx="417.3076923076923" cy="726.8571428571429" fill="rgb(0,255,0)" r="2" /><line fill="none" stroke="rgb(255,255,0)" stroke-width="1" x1="417.3076923076923" x2="412.3076923076923" y1="591.3571428571429" y2="591.3571428571429" /><line fill="none" stroke="rgb(255,255,0)" stroke-width="2" x1="417.3076923076923" x2="339.84615384615387" y1="726.8571428571429" y2="726.8571428571429" /><circle cx="417.3076923076923" cy="726.8571428571429" fill="rgb(0,255,0)" r="2" /><circle cx="339.84615384615387" cy="726.8571428571429" fill="rgb(0,255,0)" r="2" /><line fill="none" stroke="rgb(255,255,0)" stroke-width="1" x1="378.5769230769231" x2="378.5769230769231" y1="726.8571428571429" y2="721.8571428571429" /><line fill="none" stroke="rgb(255,255,0)" stroke-width="2" x1="339.84615384615387" x2="339.84615384615387" y1="726.8571428571429" y2="765.5714285714284" /><circle cx="339.84615384615387" cy="726.8571428571429" fill="rgb(0,255,0)" r="2" /><circle cx="339.84615384615387" cy="765.5714285714284" fill="rgb(0,255,0)" r="2" /><line fill="none" stroke="rgb(255,255,0)" stroke-width="1" x1="339.84615384615387" x2="334.84615384615387" y1="746.2142857142857" y2="746.2142857142857" /><line fill="none" stroke="rgb(255,255,0)" stroke-width="2" x1="339.84615384615387" x2="456.03846153846155" y1="765.5714285714284" y2="765.5714285714284" /><circle cx="339.84615384615387" cy="765.5714285714284" fill="rgb(0,255,0)" r="2" /><circle cx="456.03846153846155" cy="765.5714285714284" fill="rgb(0,255,0)" r="2" /><line fill="none" stroke="rgb(255,255,0)" stroke-width="1" x1="397.94230769230774" x2="397.94230769230774" y1="765.5714285714284" y2="770.5714285714284" /><line fill="none" stroke="rgb(255,255,0)" stroke-width="2" x1="456.03846153846155" x2="572.2307692307692" y1="765.5714285714284" y2="765.5714285714284" /><circle cx="456.03846153846155" cy="765.5714285714284" fill="rgb(0,255,0)" r="2" /><circle cx="572.2307692307692" cy="765.5714285714284" fill="rgb(0,255,0)" r="2" /><line fill="none" stroke="rgb(255,255,0)" stroke-width="1" x1="514.1346153846154" x2="514.1346153846154" y1="765.5714285714284" y2="770.5714285714284" /><line fill="none" stroke="rgb(255,255,0)" stroke-width="2" x1="572.2307692307692" x2="688.4230769230769" y1="765.5714285714284" y2="765.5714285714284" /><circle cx="572.2307692307692" cy="765.5714285714284" fill="rgb(0,255,0)" r="2" /><circle cx="688.4230769230769" cy="765.5714285714284" fill="rgb(0,255,0)" r="2" /><line fill="none" stroke="rgb(255,255,0)" stroke-width="1" x1="630.3269230769231" x2="630.3269230769231" y1="765.5714285714284" y2="770.5714285714284" /><line fill="none" stroke="rgb(255,255,0)" stroke-width="2" x1="688.4230769230769" x2="727.1538461538462" y1="765.5714285714284" y2="765.5714285714284" /><circle cx="688.4230769230769" cy="765.5714285714284" fill="rgb(0,255,0)" r="2" /><circle cx="727.1538461538462" cy="765.5714285714284" fill="rgb(0,255,0)" r="2" /><line fill="none" stroke="rgb(255,255,0)" stroke-width="1" x1="707.7884615384615" x2="707.7884615384615" y1="765.5714285714284" y2="770.5714285714284" /><line fill="none" stroke="rgb(255,255,0)" stroke-width="2" x1="727.1538461538462" x2="727.1538461538462" y1="765.5714285714284" y2="610.7142857142856" /><circle cx="727.1538461538462" cy="765.5714285714284" fill="rgb(0,255,0)" r="2" /><circle cx="727.1538461538462" cy="610.7142857142856" fill="rgb(0,255,0)" r="2" /><line fill="none" stroke="rgb(255,255,0)" stroke-width="1" x1="727.1538461538462" x2="732.1538461538462" y1="688.142857142857" y2="688.142857142857" /><line fill="none" stroke="rgb(255,255,0)" stroke-width="2" x1="727.1538461538462" x2="727.1538461538462" y1="610.7142857142856" y2="455.8571428571429" /><circle cx="727.1538461538462" cy="610.7142857142856" fill="rgb(0,255,0)" r="2" /><circle cx="727.1538461538462" cy="455.8571428571429" fill="rgb(0,255,0)" r="2" /><line fill="none" stroke="rgb(255,255,0)" stroke-width="1" x1="727.1538461538462" x2="732.1538461538462" y1="533.2857142857142" y2="533.2857142857142" /><line fill="none" stroke="rgb(255,255,0)" stroke-width="2" x1="727.1538461538462" x2="804.6153846153846" y1="455.8571428571429" y2="455.8571428571429" /><circle cx="727.1538461538462" cy="455.8571428571429" fill="rgb(0,255,0)" r="2" /><circle cx="804.6153846153846" cy="455.8571428571429" fill="rgb(0,255,0)" r="2" /><line fill="none" stroke="rgb(255,255,0)" stroke-width="1" x1="765.8846153846155" x2="765.8846153846155" y1="455.8571428571429" y2="460.8571428571429" /><line fill="none" stroke="rgb(255,255,0)" stroke-width="2" x1="804.6153846153846" x2="804.6153846153846" y1="455.8571428571429" y2="184.8571428571429" /><circle cx="804.6153846153846" cy="455.8571428571429" fill="rgb(0,255,0)" r="2" /><circle cx="804.6153846153846" cy="184.8571428571429" fill="rgb(0,255,0)" r="2" /><line fill="none" stroke="rgb(255,255,0)" stroke-width="1" x1="804.6153846153846" x2="809.6153846153846" y1="320.3571428571429" y2="320.3571428571429" /><line fill="none" stroke="rgb(255,255,0)" stroke-width="2" x1="804.6153846153846" x2="843.3461538461538" y1="184.8571428571429" y2="107.42857142857156" /><circle cx="804.6153846153846" cy="184.8571428571429" fill="rgb(0,255,0)" r="2" /><circle cx="843.3461538461538" cy="107.42857142857156" fill="rgb(0,255,0)" r="2" /><line fill="none" stroke="rgb(255,255,0)" stroke-width="1" x1="823.9807692307693" x2="828.4525243299685" y1="146.14285714285722" y2="148.37968666984096" /><line fill="none" stroke="rgb(255,255,0)" stroke-width="2" x1="843.3461538461538" x2="882.0769230769231" y1="107.42857142857156" y2="68.71428571428578" /><circle cx="843.3461538461538" cy="107.42857142857156" fill="rgb(0,255,0)" r="2" /><circle cx="882.0769230769231" cy="68.71428571428578" fill="rgb(0,255,0)" r="2" /><line fill="none" stroke="rgb(255,255,0)" stroke-width="1" x1="862.7115384615385" x2="866.2463197793023" y1="88.07142857142867" y2="91.60771490536534" /><line fill="none" stroke="rgb(255,255,0)" stroke-width="2" x1="882.0769230769231" x2="959.5384615384615" y1="68.71428571428578" y2="30.0" /><circle cx="882.0769230769231" cy="68.71428571428578" fill="rgb(0,255,0)" r="2" /><circle cx="959.5384615384615" cy="30.0" fill="rgb(0,255,0)" r="2" /><line fill="none" stroke="rgb(255,255,0)" stroke-width="1" x1="920.8076923076924" x2="923.0429988653686" y1="49.35714285714289" y2="53.82965944103721" /><line fill="none" stroke="rgb(255,255,0)" stroke-width="2" x1="959.5384615384615" x2="1037.0" y1="30.0" y2="30.0" /><circle cx="959.5384615384615" cy="30.0" fill="rgb(0,255,0)" r="2" /><circle cx="1037.0" cy="30.0" fill="rgb(0,255,0)" r="2" /><line fill="none" stroke="rgb(255,255,0)" stroke-width="1" x1="998.2692307692307" x2="998.2692307692307" y1="30.0" y2="35.0" /><line fill="none" stroke="rgb(255,255,0)" stroke-width="2" x1="1037.0" x2="1037.0" y1="30.0" y2="107.42857142857156" /><circle cx="1037.0" cy="30.0" fill="rgb(0,255,0)" r="2" /><circle cx="1037.0" cy="107.42857142857156" fill="rgb(0,255,0)" r="2" /><line fill="none" stroke="rgb(255,255,0)" stroke-width="1" x1="1037.0" x2="1032.0" y1="68.71428571428578" y2="68.71428571428578" /><line fill="none" stroke="rgb(255,255,0)" stroke-width="2" x1="1037.0" x2="959.5384615384615" y1="107.42857142857156" y2="107.42857142857156" /><circle cx="1037.0" cy="107.42857142857156" fill="rgb(0,255,0)" r="2" /><circle cx="959.5384615384615" cy="107.42857142857156" fill="rgb(0,255,0)" r="2" /><line fill="none" stroke="rgb(255,255,0)" stroke-width="1" x1="998.2692307692307" x2="998.2692307692307" y1="107.42857142857156" y2="102.42857142857156" /><line fill="none" stroke="rgb(255,255,0)" stroke-width="2" x1="959.5384615384615" x2="920.8076923076923" y1="107.42857142857156" y2="146.1428571428571" /><circle cx="959.5384615384615" cy="107.42857142857156" fill="rgb(0,255,0)" r="2" /><circle cx="920.8076923076923" cy="146.1428571428571" fill="rgb(0,255,0)" r="2" /><line fill="none" stroke="rgb(255,255,0)" stroke-width="1" x1="940.1730769230769" x2="936.638295605313" y1="126.78571428571433" y2="123.24942795177765" /><line fill="none" stroke="rgb(255,255,0)" stroke-width="2" x1="920.8076923076923" x2="882.0769230769231" y1="146.1428571428571" y2="223.57142857142867" /><circle cx="920.8076923076923" cy="146.1428571428571" fill="rgb(0,255,0)" r="2" /><circle cx="882.0769230769231" cy="223.57142857142867" fill="rgb(0,255,0)" r="2" /><line fill="none" stroke="rgb(255,255,0)" stroke-width="1" x1="901.4423076923076" x2="896.9705525931084" y1="184.8571428571429" y2="182.62031333015915" /><line fill="none" stroke="rgb(255,255,0)" stroke-width="2" x1="882.0769230769231" x2="882.0769230769231" y1="223.57142857142867" y2="455.8571428571429" /><circle cx="882.0769230769231" cy="223.57142857142867" fill="rgb(0,255,0)" r="2" /><circle cx="882.0769230769231" cy="455.8571428571429" fill="rgb(0,255,0)" r="2" /><line fill="none" stroke="rgb(255,255,0)" stroke-width="1" x1="882.0769230769231" x2="877.0769230769231" y1="339.7142857142858" y2="339.7142857142858" /><line fill="none" stroke="rgb(255,255,0)" stroke-width="2" x1="882.0769230769231" x2="959.5384615384615" y1="455.8571428571429" y2="455.8571428571429" /><circle cx="882.0769230769231" cy="455.8571428571429" fill="rgb(0,255,0)" r="2" /><circle cx="959.5384615384615" cy="455.8571428571429" fill="rgb(0,255,0)" r="2" /><line fill="none" stroke="rgb(255,255,0)" stroke-width="1" x1="920.8076923076924" x2="920.8076923076924" y1="455.8571428571429" y2="460.8571428571429" /><line fill="none" stroke="rgb(255,255,0)" stroke-width="2" x1="959.5384615384615" x2="959.5384615384615" y1="455.8571428571429" y2="726.8571428571429" /><circle cx="959.5384615384615" cy="455.8571428571429" fill="rgb(0,255,0)" r="2" /><circle cx="959.5384615384615" cy="726.8571428571429" fill="rgb(0,255,0)" r="2" /><line fill="none" stroke="rgb(255,255,0)" stroke-width="1" x1="959.5384615384615" x2="954.5384615384615" y1="591.3571428571429" y2="591.3571428571429" /><line fill="none" stroke="rgb(255,255,0)" stroke-width="2" x1="959.5384615384615" x2="959.5384615384615" y1="726.8571428571429" y2="765.5714285714284" /><circle cx="959.5384615384615" cy="726.8571428571429" fill="rgb(0,255,0)" r="2" /><circle cx="959.5384615384615" cy="765.5714285714284" fill="rgb(0,255,0)" r="2" /><line fill="none" stroke="rgb(255,255,0)" stroke-width="1" x1="959.5384615384615" x2="954.5384615384615" y1="746.2142857142857" y2="746.2142857142857" /><line fill="none" stroke="rgb(255,255,0)" stroke-width="2" x1="959.5384615384615" x2="920.8076923076923" y1="765.5714285714284" y2="843.0" /><circle cx="959.5384615384615" cy="765.5714285714284" fill="rgb(0,255,0)" r="2" /><circle cx="920.8076923076923" cy="843.0" fill="rgb(0,255,0)" r="2" /><line fill="none" stroke="rgb(255,255,0)" stroke-width="1" x1="940.1730769230769" x2="935.7013218238777" y1="804.2857142857142" y2="802.0488847587304" /><line fill="none" stroke="rgb(255,255,0)" stroke-width="2" x1="920.8076923076923" x2="688.4230769230769" y1="843.0" y2="843.0" /><circle cx="920.8076923076923" cy="843.0" fill="rgb(0,255,0)" r="2" /><circle cx="688.4230769230769" cy="843.0" fill="rgb(0,255,0)" r="2" /><line fill="none" stroke="rgb(255,255,0)" stroke-width="1" x1="804.6153846153845" x2="804.6153846153845" y1="843.0" y2="838.0" /><line fill="none" stroke="rgb(255,255,0)" stroke-width="2" x1="688.4230769230769" x2="688.4230769230769" y1="843.0" y2="1075.2857142857142" /><circle cx="688.4230769230769" cy="843.0" fill="rgb(0,255,0)" r="2" /><circle cx="688.4230769230769" cy="1075.2857142857142" fill="rgb(0,255,0)" r="2" /><line fill="none" stroke="rgb(255,255,0)" stroke-width="1" x1="688.4230769230769" x2="683.4230769230769" y1="959.1428571428571" y2="959.1428571428571" /><line fill="none" stroke="rgb(255,255,0)" stroke-width="2" x1="688.4230769230769" x2="572.2307692307692" y1="1075.2857142857142" y2="1075.2857142857142" /><circle cx="688.4230769230769" cy="1075.2857142857142" fill="rgb(0,255,0)" r="2" /><circle cx="572.2307692307692" cy="1075.2857142857142" fill="rgb(0,255,0)" r="2" /><line fill="none" stroke="rgb(255,255,0)" stroke-width="1" x1="630.3269230769231" x2="630.3269230769231" y1="1075.2857142857142" y2="1070.2857142857142" /><line fill="none" stroke="rgb(255,255,0)" stroke-width="2" x1="572.2307692307692" x2="572.2307692307692" y1="1075.2857142857142" y2="1114.0" /><circle cx="572.2307692307692" cy="1075.2857142857142" fill="rgb(0,255,0)" r="2" /><circle cx="572.2307692307692" cy="1114.0" fill="rgb(0,255,0)" r="2" /><line fill="none" stroke="rgb(255,255,0)" stroke-width="1" x1="572.2307692307692" x2="567.2307692307692" y1="1094.642857142857" y2="1094.642857142857" /><line fill="none" stroke="rgb(255,255,0)" stroke-width="2" x1="572.2307692307692" x2="649.6923076923077" y1="1114.0" y2="1114.0" /><circle cx="572.2307692307692" cy="1114.0" fill="rgb(0,255,0)" r="2" /><circle cx="649.6923076923077" cy="1114.0" fill="rgb(0,255,0)" r="2" /><line fill="none" stroke="rgb(255,255,0)" stroke-width="1" x1="610.9615384615385" x2="610.9615384615385" y1="1114.0" y2="1119.0" /><line fill="none" stroke="rgb(255,255,0)" stroke-width="2" x1="649.6923076923077" x2="649.6923076923077" y1="1114.0" y2="1268.857142857143" /><circle cx="649.6923076923077" cy="1114.0" fill="rgb(0,255,0)" r="2" /><circle cx="649.6923076923077" cy="1268.857142857143" fill="rgb(0,255,0)" r="2" /><line fill="none" stroke="rgb(255,255,0)" stroke-width="1" x1="649.6923076923077" x2="644.6923076923077" y1="1191.4285714285716" y2="1191.4285714285716" /><line fill="none" stroke="rgb(255,255,0)" stroke-width="2" x1="649.6923076923077" x2="610.9615384615385" y1="1268.857142857143" y2="1268.857142857143" /><circle cx="649.6923076923077" cy="1268.857142857143" fill="rgb(0,255,0)" r="2" /><circle cx="610.9615384615385" cy="1268.857142857143" fill="rgb(0,255,0)" r="2" /><line fill="none" stroke="rgb(255,255,0)" stroke-width="1" x1="630.3269230769231" x2="630.3269230769231" y1="1268.857142857143" y2="1263.857142857143" /><line fill="none" stroke="rgb(255,255,0)" stroke-width="2" x1="610.9615384615385" x2="610.9615384615385" y1="1268.857142857143" y2="1307.5714285714287" /><circle cx="610.9615384615385" cy="1268.857142857143" fill="rgb(0,255,0)" r="2" /><circle cx="610.9615384615385" cy="1307.5714285714287" fill="rgb(0,255,0)" r="2" /><line fill="none" stroke="rgb(255,255,0)" stroke-width="1" x1="610.9615384615385" x2="605.9615384615385" y1="1288.2142857142858" y2="1288.2142857142858" /><line fill="none" stroke="rgb(255,255,0)" stroke-width="2" x1="610.9615384615385" x2="649.6923076923077" y1="1307.5714285714287" y2="1307.5714285714287" /><circle cx="610.9615384615385" cy="1307.5714285714287" fill="rgb(0,255,0)" r="2" /><circle cx="649.6923076923077" cy="1307.5714285714287" fill="rgb(0,255,0)" r="2" /><line fill="none" stroke="rgb(255,255,0)" stroke-width="1" x1="630.3269230769231" x2="630.3269230769231" y1="1307.5714285714287" y2="1312.5714285714287" /><line fill="none" stroke="rgb(255,255,0)" stroke-width="2" x1="649.6923076923077" x2="649.6923076923077" y1="1307.5714285714287" y2="1423.7142857142858" /><circle cx="649.6923076923077" cy="1307.5714285714287" fill="rgb(0,255,0)" r="2" /><circle cx="649.6923076923077" cy="1423.7142857142858" fill="rgb(0,255,0)" r="2" /><line fill="none" stroke="rgb(255,255,0)" stroke-width="1" x1="649.6923076923077" x2="644.6923076923077" y1="1365.6428571428573" y2="1365.6428571428573" /><line fill="none" stroke="rgb(255,255,0)" stroke-width="2" x1="649.6923076923077" x2="610.9615384615385" y1="1423.7142857142858" y2="1423.7142857142858" /><circle cx="649.6923076923077" cy="1423.7142857142858" fill="rgb(0,255,0)" r="2" /><circle cx="610.9615384615385" cy="1423.7142857142858" fill="rgb(0,255,0)" r="2" /><line fill="none" stroke="rgb(255,255,0)" stroke-width="1" x1="630.3269230769231" x2="630.3269230769231" y1="1423.7142857142858" y2="1418.7142857142858" /><line fill="none" stroke="rgb(255,255,0)" stroke-width="2" x1="610.9615384615385" x2="610.9615384615385" y1="1423.7142857142858" y2="1656.0" /><circle cx="610.9615384615385" cy="1423.7142857142858" fill="rgb(0,255,0)" r="2" /><circle cx="610.9615384615385" cy="1656.0" fill="rgb(0,255,0)" r="2" /><line fill="none" stroke="rgb(255,255,0)" stroke-width="1" x1="610.9615384615385" x2="605.9615384615385" y1="1539.857142857143" y2="1539.857142857143" /><line fill="none" stroke="rgb(255,255,0)" stroke-width="2" x1="610.9615384615385" x2="456.03846153846155" y1="1656.0" y2="1656.0" /><circle cx="610.9615384615385" cy="1656.0" fill="rgb(0,255,0)" r="2" /><circle cx="456.03846153846155" cy="1656.0" fill="rgb(0,255,0)" r="2" /><line fill="none" stroke="rgb(255,255,0)" stroke-width="1" x1="533.5" x2="533.5" y1="1656.0" y2="1651.0" /><line fill="none" stroke="rgb(255,255,0)" stroke-width="2" x1="456.03846153846155" x2="456.03846153846155" y1="1656.0" y2="1423.7142857142858" /><circle cx="456.03846153846155" cy="1656.0" fill="rgb(0,255,0)" r="2" /><circle cx="456.03846153846155" cy="1423.7142857142858" fill="rgb(0,255,0)" r="2" /><line fill="none" stroke="rgb(255,255,0)" stroke-width="1" x1="456.03846153846155" x2="461.03846153846155" y1="1539.857142857143" y2="1539.857142857143" /><line fill="none" stroke="rgb(255,255,0)" stroke-width="2" x1="456.03846153846155" x2="417.3076923076923" y1="1423.7142857142858" y2="1423.7142857142858" /><circle cx="456.03846153846155" cy="1423.7142857142858" fill="rgb(0,255,0)" r="2" /><circle cx="417.3076923076923" cy="1423.7142857142858" fill="rgb(0,255,0)" r="2" /><line fill="none" stroke="rgb(255,255,0)" stroke-width="1" x1="436.6730769230769" x2="436.6730769230769" y1="1423.7142857142858" y2="1418.7142857142858" /><line fill="none" stroke="rgb(255,255,0)" stroke-width="2" x1="417.3076923076923" x2="417.3076923076923" y1="1423.7142857142858" y2="1307.5714285714287" /><circle cx="417.3076923076923" cy="1423.7142857142858" fill="rgb(0,255,0)" r="2" /><circle cx="417.3076923076923" cy="1307.5714285714287" fill="rgb(0,255,0)" r="2" /><line fill="none" stroke="rgb(255,255,0)" stroke-width="1" x1="417.3076923076923" x2="422.3076923076923" y1="1365.6428571428573" y2="1365.6428571428573" /><line fill="none" stroke="rgb(255,255,0)" stroke-width="2" x1="417.3076923076923" x2="456.03846153846155" y1="1307.5714285714287" y2="1307.5714285714287" /><circle cx="417.3076923076923" cy="1307.5714285714287" fill="rgb(0,255,0)" r="2" /><circle cx="456.03846153846155" cy="1307.5714285714287" fill="rgb(0,255,0)" r="2" /><line fill="none" stroke="rgb(255,255,0)" stroke-width="1" x1="436.6730769230769" x2="436.6730769230769" y1="1307.5714285714287" y2="1312.5714285714287" /><line fill="none" stroke="rgb(255,255,0)" stroke-width="2" x1="456.03846153846155" x2="456.03846153846155" y1="1307.5714285714287" y2="1268.857142857143" /><circle cx="456.03846153846155" cy="1307.5714285714287" fill="rgb(0,255,0)" r="2" /><circle cx="456.03846153846155" cy="1268.857142857143" fill="rgb(0,255,0)" r="2" /><line fill="none" stroke="rgb(255,255,0)" stroke-width="1" x1="456.03846153846155" x2="461.03846153846155" y1="1288.2142857142858" y2="1288.2142857142858" /><line fill="none" stroke="rgb(255,255,0)" stroke-width="2" x1="456.03846153846155" x2="417.3076923076923" y1="1268.857142857143" y2="1268.857142857143" /><circle cx="456.03846153846155" cy="1268.857142857143" fill="rgb(0,255,0)" r="2" /><circle cx="417.3076923076923" cy="1268.857142857143" fill="rgb(0,255,0)" r="2" /><line fill="none" stroke="rgb(255,255,0)" stroke-width="1" x1="436.6730769230769" x2="436.6730769230769" y1="1268.857142857143" y2="1263.857142857143" /><line fill="none" stroke="rgb(255,255,0)" stroke-width="2" x1="417.3076923076923" x2="417.3076923076923" y1="1268.857142857143" y2="1114.0" /><circle cx="417.3076923076923" cy="1268.857142857143" fill="rgb(0,255,0)" r="2" /><circle cx="417.3076923076923" cy="1114.0" fill="rgb(0,255,0)" r="2" /><line fill="none" stroke="rgb(255,255,0)" stroke-width="1" x1="417.3076923076923" x2="422.3076923076923" y1="1191.4285714285716" y2="1191.4285714285716" /><line fill="none" stroke="rgb(255,255,0)" stroke-width="2" x1="417.3076923076923" x2="494.7692307692308" y1="1114.0" y2="1114.0" /><circle cx="417.3076923076923" cy="1114.0" fill="rgb(0,255,0)" r="2" /><circle cx="494.7692307692308" cy="1114.0" fill="rgb(0,255,0)" r="2" /><line fill="none" stroke="rgb(255,255,0)" stroke-width="1" x1="456.03846153846155" x2="456.03846153846155" y1="1114.0" y2="1119.0" /><line fill="none" stroke="rgb(255,255,0)" stroke-width="2" x1="494.7692307692308" x2="494.7692307692308" y1="1114.0" y2="1075.2857142857142" /><circle cx="494.7692307692308" cy="1114.0" fill="rgb(0,255,0)" r="2" /><circle cx="494.7692307692308" cy="1075.2857142857142" fill="rgb(0,255,0)" r="2" /><line fill="none" stroke="rgb(255,255,0)" stroke-width="1" x1="494.7692307692308" x2="499.7692307692308" y1="1094.642857142857" y2="1094.642857142857" /><line fill="none" stroke="rgb(255,255,0)" stroke-width="2" x1="494.7692307692308" x2="378.5769230769231" y1="1075.2857142857142" y2="1075.2857142857142" /><circle cx="494.7692307692308" cy="1075.2857142857142" fill="rgb(0,255,0)" r="2" /><circle cx="378.5769230769231" cy="1075.2857142857142" fill="rgb(0,255,0)" r="2" /><line fill="none" stroke="rgb(255,255,0)" stroke-width="1" x1="436.6730769230769" x2="436.6730769230769" y1="1075.2857142857142" y2="1070.2857142857142" /><line fill="none" stroke="rgb(255,255,0)" stroke-width="2" x1="378.5769230769231" x2="378.5769230769231" y1="1075.2857142857142" y2="881.7142857142858" /><circle cx="378.5769230769231" cy="1075.2857142857142" fill="rgb(0,255,0)" r="2" /><circle cx="378.5769230769231" cy="881.7142857142858" fill="rgb(0,255,0)" r="2" /><line fill="none" stroke="rgb(255,255,0)" stroke-width="1" x1="378.5769230769231" x2="383.5769230769231" y1="978.5" y2="978.5" /><line fill="none" stroke="rgb(255,255,0)" stroke-width="2" x1="378.5769230769231" x2="378.5769230769231" y1="881.7142857142858" y2="843.0" /><circle cx="378.5769230769231" cy="881.7142857142858" fill="rgb(0,255,0)" r="2" /><circle cx="378.5769230769231" cy="843.0" fill="rgb(0,255,0)" r="2" /><line fill="none" stroke="rgb(255,255,0)" stroke-width="1" x1="378.5769230769231" x2="383.5769230769231" y1="862.3571428571429" y2="862.3571428571429" /><line fill="none" stroke="rgb(255,255,0)" stroke-width="2" x1="378.5769230769231" x2="339.84615384615387" y1="843.0" y2="843.0" /><circle cx="378.5769230769231" cy="843.0" fill="rgb(0,255,0)" r="2" /><circle cx="339.84615384615387" cy="843.0" fill="rgb(0,255,0)" r="2" /><line fill="none" stroke="rgb(255,255,0)" stroke-width="1" x1="359.21153846153845" x2="359.21153846153845" y1="843.0" y2="838.0" /><line fill="none" stroke="rgb(255,255,0)" stroke-width="2" x1="339.84615384615387" x2="301.1153846153846" y1="843.0" y2="843.0" /><circle cx="339.84615384615387" cy="843.0" fill="rgb(0,255,0)" r="2" /><circle cx="301.1153846153846" cy="843.0" fill="rgb(0,255,0)" r="2" /><line fill="none" stroke="rgb(255,255,0)" stroke-width="1" x1="320.4807692307692" x2="320.4807692307692" y1="843.0" y2="838.0" /><line fill="none" stroke="rgb(255,255,0)" stroke-width="2" x1="301.1153846153846" x2="262.38461538461536" y1="843.0" y2="843.0" /><circle cx="301.1153846153846" cy="843.0" fill="rgb(0,255,0)" r="2" /><circle cx="262.38461538461536" cy="843.0" fill="rgb(0,255,0)" r="2" /><line fill="none" stroke="rgb(255,255,0)" stroke-width="1" x1="281.75" x2="281.75" y1="843.0" y2="838.0" /><line fill="none" stroke="rgb(250,56,35)" stroke-width="2" x1="281.75" x2="262.38461538461536" y1="542.9642857142858" y2="542.9642857142858" /><circle cx="281.75" cy="542.9642857142858" fill="rgb(0,255,0)" r="2" /><circle cx="262.38461538461536" cy="542.9642857142858" fill="rgb(0,255,0)" r="2" /><line fill="none" stroke="rgb(250,56,35)" stroke-width="1" x1="272.0673076923077" x2="272.0673076923077" y1="542.9642857142858" y2="537.9642857142858" /><line fill="none" stroke="rgb(250,56,35)" stroke-width="2" x1="262.38461538461536" x2="262.38461538461536" y1="542.9642857142858" y2="562.3214285714284" /><circle cx="262.38461538461536" cy="542.9642857142858" fill="rgb(0,255,0)" r="2" /><circle cx="262.38461538461536" cy="562.3214285714284" fill="rgb(0,255,0)" r="2" /><line fill="none" stroke="rgb(250,56,35)" stroke-width="1" x1="262.38461538461536" x2="257.38461538461536" y1="552.6428571428571" y2="552.6428571428571" /><line fill="none" stroke="rgb(250,56,35)" stroke-width="2" x1="262.38461538461536" x2="281.75" y1="562.3214285714284" y2="562.3214285714284" /><circle cx="262.38461538461536" cy="562.3214285714284" fill="rgb(0,255,0)" r="2" /><circle cx="281.75" cy="562.3214285714284" fill="rgb(0,255,0)" r="2" /><line fill="none" stroke="rgb(250,56,35)" stroke-width="1" x1="272.0673076923077" x2="272.0673076923077" y1="562.3214285714284" y2="567.3214285714284" /><line fill="none" stroke="rgb(250,56,35)" stroke-width="2" x1="281.75" x2="281.75" y1="562.3214285714284" y2="542.9642857142858" /><circle cx="281.75" cy="562.3214285714284" fill="rgb(0,255,0)" r="2" /><circle cx="281.75" cy="542.9642857142858" fill="rgb(0,255,0)" r="2" /><line fill="none" stroke="rgb(250,56,35)" stroke-width="1" x1="281.75" x2="286.75" y1="552.6428571428571" y2="552.6428571428571" /><line fill="none" stroke="rgb(250,56,35)" stroke-width="2" x1="378.5769230769231" x2="359.21153846153845" y1="513.9285714285716" y2="513.9285714285716" /><circle cx="378.5769230769231" cy="513.9285714285716" fill="rgb(0,255,0)" r="2" /><circle cx="359.21153846153845" cy="513.9285714285716" fill="rgb(0,255,0)" r="2" /><line fill="none" stroke="rgb(250,56,35)" stroke-width="1" x1="368.8942307692308" x2="368.8942307692308" y1="513.9285714285716" y2="508.92857142857156" /><line fill="none" stroke="rgb(250,56,35)" stroke-width="2" x1="359.21153846153845" x2="359.21153846153845" y1="513.9285714285716" y2="533.2857142857142" /><circle cx="359.21153846153845" cy="513.9285714285716" fill="rgb(0,255,0)" r="2" /><circle cx="359.21153846153845" cy="533.2857142857142" fill="rgb(0,255,0)" r="2" /><line fill="none" stroke="rgb(250,56,35)" stroke-width="1" x1="359.21153846153845" x2="354.21153846153845" y1="523.6071428571429" y2="523.6071428571429" /><line fill="none" stroke="rgb(250,56,35)" stroke-width="2" x1="359.21153846153845" x2="378.5769230769231" y1="533.2857142857142" y2="533.2857142857142" /><circle cx="359.21153846153845" cy="533.2857142857142" fill="rgb(0,255,0)" r="2" /><circle cx="378.5769230769231" cy="533.2857142857142" fill="rgb(0,255,0)" r="2" /><line fill="none" stroke="rgb(250,56,35)" stroke-width="1" x1="368.8942307692308" x2="368.8942307692308" y1="533.2857142857142" y2="538.2857142857142" /><line fill="none" stroke="rgb(250,56,35)" stroke-width="2" x1="378.5769230769231" x2="378.5769230769231" y1="533.2857142857142" y2="513.9285714285716" /><circle cx="378.5769230769231" cy="533.2857142857142" fill="rgb(0,255,0)" r="2" /><circle cx="378.5769230769231" cy="513.9285714285716" fill="rgb(0,255,0)" r="2" /><line fill="none" stroke="rgb(250,56,35)" stroke-width="1" x1="378.5769230769231" x2="383.5769230769231" y1="523.6071428571429" y2="523.6071428571429" /><line fill="none" stroke="rgb(250,56,35)" stroke-width="2" x1="368.8942307692308" x2="349.52884615384613" y1="465.53571428571445" y2="465.53571428571445" /><circle cx="368.8942307692308" cy="465.53571428571445" fill="rgb(0,255,0)" r="2" /><circle cx="349.52884615384613" cy="465.53571428571445" fill="rgb(0,255,0)" r="2" /><line fill="none" stroke="rgb(250,56,35)" stroke-width="1" x1="359.21153846153845" x2="359.21153846153845" y1="465.53571428571445" y2="460.53571428571445" /><line fill="none" stroke="rgb(250,56,35)" stroke-width="2" x1="349.52884615384613" x2="349.52884615384613" y1="465.53571428571445" y2="484.8928571428571" /><circle cx="349.52884615384613" cy="465.53571428571445" fill="rgb(0,255,0)" r="2" /><circle cx="349.52884615384613" cy="484.8928571428571" fill="rgb(0,255,0)" r="2" /><line fill="none" stroke="rgb(250,56,35)" stroke-width="1" x1="349.52884615384613" x2="344.52884615384613" y1="475.2142857142858" y2="475.2142857142858" /><line fill="none" stroke="rgb(250,56,35)" stroke-width="2" x1="349.52884615384613" x2="368.8942307692308" y1="484.8928571428571" y2="484.8928571428571" /><circle cx="349.52884615384613" cy="484.8928571428571" fill="rgb(0,255,0)" r="2" /><circle cx="368.8942307692308" cy="484.8928571428571" fill="rgb(0,255,0)" r="2" /><line fill="none" stroke="rgb(250,56,35)" stroke-width="1" x1="359.21153846153845" x2="359.21153846153845" y1="484.8928571428571" y2="489.8928571428571" /><line fill="none" stroke="rgb(250,56,35)" stroke-width="2" x1="368.8942307692308" x2="368.8942307692308" y1="484.8928571428571" y2="465.53571428571445" /><circle cx="368.8942307692308" cy="484.8928571428571" fill="rgb(0,255,0)" r="2" /><circle cx="368.8942307692308" cy="465.53571428571445" fill="rgb(0,255,0)" r="2" /><line fill="none" stroke="rgb(250,56,35)" stroke-width="1" x1="368.8942307692308" x2="373.8942307692308" y1="475.2142857142858" y2="475.2142857142858" /><line fill="none" stroke="rgb(255,255,0)" stroke-width="2" x1="262.38461538461536" x2="301.1153846153846" y1="439.2433646065847" y2="439.2433646065847" /><circle cx="262.38461538461536" cy="439.2433646065847" fill="rgb(0,255,0)" r="2" /><circle cx="301.1153846153846" cy="439.2433646065847" fill="rgb(0,255,0)" r="2" /><line fill="none" stroke="rgb(255,255,0)" stroke-width="1" x1="281.75" x2="281.75" y1="439.2433646065847" y2="444.2433646065847" /><line fill="none" stroke="rgb(255,255,0)" stroke-width="2" x1="301.1153846153846" x2="301.1153846153846" y1="439.2433646065847" y2="433.7566353934153" /><circle cx="301.1153846153846" cy="439.2433646065847" fill="rgb(0,255,0)" r="2" /><circle cx="301.1153846153846" cy="433.7566353934153" fill="rgb(0,255,0)" r="2" /><line fill="none" stroke="rgb(255,255,0)" stroke-width="1" x1="301.1153846153846" x2="306.1153846153846" y1="436.5" y2="436.5" /><line fill="none" stroke="rgb(255,255,0)" stroke-width="2" x1="301.1153846153846" x2="262.38461538461536" y1="433.7566353934153" y2="433.7566353934153" /><circle cx="301.1153846153846" cy="433.7566353934153" fill="rgb(0,255,0)" r="2" /><circle cx="262.38461538461536" cy="433.7566353934153" fill="rgb(0,255,0)" r="2" /><line fill="none" stroke="rgb(255,255,0)" stroke-width="1" x1="281.75" x2="281.75" y1="433.7566353934153" y2="428.7566353934153" /><line fill="none" stroke="rgb(255,255,0)" stroke-width="2" x1="339.84615384615387" x2="301.1153846153846" y1="433.7566353934153" y2="433.7566353934153" /><circle cx="339.84615384615387" cy="433.7566353934153" fill="rgb(0,255,0)" r="2" /><circle cx="301.1153846153846" cy="433.7566353934153" fill="rgb(0,255,0)" r="2" /><line fill="none" stroke="rgb(255,255,0)" stroke-width="1" x1="320.4807692307692" x2="320.4807692307692" y1="433.7566353934153" y2="428.7566353934153" /><line fill="none" stroke="rgb(255,255,0)" stroke-width="2" x1="301.1153846153846" x2="301.1153846153846" y1="433.7566353934153" y2="439.2433646065847" /><circle cx="301.1153846153846" cy="433.7566353934153" fill="rgb(0,255,0)" r="2" /><circle cx="301.1153846153846" cy="439.2433646065847" fill="rgb(0,255,0)" r="2" /><line fill="none" stroke="rgb(255,255,0)" stroke-width="1" x1="301.1153846153846" x2="296.1153846153846" y1="436.5" y2="436.5" /><line fill="none" stroke="rgb(255,255,0)" stroke-width="2" x1="301.1153846153846" x2="339.84615384615387" y1="439.2433646065847" y2="439.2433646065847" /><circle cx="301.1153846153846" cy="439.2433646065847" fill="rgb(0,255,0)" r="2" /><circle cx="339.84615384615387" cy="439.2433646065847" fill="rgb(0,255,0)" r="2" /><line fill="none" stroke="rgb(255,255,0)" stroke-width="1" x1="320.4807692307692" x2="320.4807692307692" y1="439.2433646065847" y2="444.2433646065847" /><line fill="none" stroke="rgb(255,255,0)" stroke-width="2" x1="262.38461538461536" x2="223.65384615384616" y1="494.57142857142844" y2="494.57142857142844" /><circle cx="262.38461538461536" cy="494.57142857142844" fill="rgb(0,255,0)" r="2" /><circle cx="223.65384615384616" cy="494.57142857142844" fill="rgb(0,255,0)" r="2" /><line fill="none" stroke="rgb(255,255,0)" stroke-width="1" x1="243.01923076923077" x2="243.01923076923077" y1="494.57142857142844" y2="489.57142857142844" /><line fill="none" stroke="rgb(255,255,0)" stroke-width="2" x1="223.65384615384616" x2="223.65384615384616" y1="494.57142857142844" y2="533.2857142857142" /><circle cx="223.65384615384616" cy="494.57142857142844" fill="rgb(0,255,0)" r="2" /><circle cx="223.65384615384616" cy="533.2857142857142" fill="rgb(0,255,0)" r="2" /><line fill="none" stroke="rgb(255,255,0)" stroke-width="1" x1="223.65384615384616" x2="218.65384615384616" y1="513.9285714285713" y2="513.9285714285713" /><line fill="none" stroke="rgb(255,255,0)" stroke-width="2" x1="223.65384615384616" x2="262.38461538461536" y1="533.2857142857142" y2="533.2857142857142" /><circle cx="223.65384615384616" cy="533.2857142857142" fill="rgb(0,255,0)" r="2" /><circle cx="262.38461538461536" cy="533.2857142857142" fill="rgb(0,255,0)" r="2" /><line fill="none" stroke="rgb(255,255,0)" stroke-width="1" x1="243.01923076923077" x2="243.01923076923077" y1="533.2857142857142" y2="538.2857142857142" /><line fill="none" stroke="rgb(255,255,0)" stroke-width="2" x1="262.38461538461536" x2="262.38461538461536" y1="533.2857142857142" y2="494.57142857142844" /><circle cx="262.38461538461536" cy="533.2857142857142" fill="rgb(0,255,0)" r="2" /><circle cx="262.38461538461536" cy="494.57142857142844" fill="rgb(0,255,0)" r="2" /><line fill="none" stroke="rgb(255,255,0)" stroke-width="1" x1="262.38461538461536" x2="267.38461538461536" y1="513.9285714285713" y2="513.9285714285713" /><line fill="none" stroke="rgb(255,255,0)" stroke-width="2" x1="223.65384615384616" x2="184.92307692307693" y1="552.6428571428571" y2="552.6428571428571" /><circle cx="223.65384615384616" cy="552.6428571428571" fill="rgb(0,255,0)" r="2" /><circle cx="184.92307692307693" cy="552.6428571428571" fill="rgb(0,255,0)" r="2" /><line fill="none" stroke="rgb(255,255,0)" stroke-width="1" x1="204.28846153846155" x2="204.28846153846155" y1="552.6428571428571" y2="547.6428571428571" /><line fill="none" stroke="rgb(255,255,0)" stroke-width="2" x1="184.92307692307693" x2="184.92307692307693" y1="552.6428571428571" y2="591.3571428571429" /><circle cx="184.92307692307693" cy="552.6428571428571" fill="rgb(0,255,0)" r="2" /><circle cx="184.92307692307693" cy="591.3571428571429" fill="rgb(0,255,0)" r="2" /><line fill="none" stroke="rgb(255,255,0)" stroke-width="1" x1="184.92307692307693" x2="179.92307692307693" y1="572.0" y2="572.0" /><line fill="none" stroke="rgb(255,255,0)" stroke-width="2" x1="184.92307692307693" x2="223.65384615384616" y1="591.3571428571429" y2="591.3571428571429" /><circle cx="184.92307692307693" cy="591.3571428571429" fill="rgb(0,255,0)" r="2" /><circle cx="223.65384615384616" cy="591.3571428571429" fill="rgb(0,255,0)" r="2" /><line fill="none" stroke="rgb(255,255,0)" stroke-width="1" x1="204.28846153846155" x2="204.28846153846155" y1="591.3571428571429" y2="596.3571428571429" /><line fill="none" stroke="rgb(255,255,0)" stroke-width="2" x1="223.65384615384616" x2="223.65384615384616" y1="591.3571428571429" y2="552.6428571428571" /><circle cx="223.65384615384616" cy="591.3571428571429" fill="rgb(0,255,0)" r="2" /><circle cx="223.65384615384616" cy="552.6428571428571" fill="rgb(0,255,0)" r="2" /><line fill="none" stroke="rgb(255,255,0)" stroke-width="1" x1="223.65384615384616" x2="228.65384615384616" y1="572.0" y2="572.0" /><line fill="none" stroke="rgb(255,255,0)" stroke-width="2" x1="417.3076923076923" x2="378.5769230769231" y1="533.2857142857142" y2="533.2857142857142" /><circle cx="417.3076923076923" cy="533.2857142857142" fill="rgb(0,255,0)" r="2" /><circle cx="378.5769230769231" cy="533.2857142857142" fill="rgb(0,255,0)" r="2" /><line fill="none" stroke="rgb(255,255,0)" stroke-width="1" x1="397.94230769230774" x2="397.94230769230774" y1="533.2857142857142" y2="528.2857142857142" /><line fill="none" stroke="rgb(255,255,0)" stroke-width="2" x1="378.5769230769231" x2="378.5769230769231" y1="533.2857142857142" y2="610.7142857142856" /><circle cx="378.5769230769231" cy="533.2857142857142" fill="rgb(0,255,0)" r="2" /><circle cx="378.5769230769231" cy="610.7142857142856" fill="rgb(0,255,0)" r="2" /><line fill="none" stroke="rgb(255,255,0)" stroke-width="1" x1="378.5769230769231" x2="373.5769230769231" y1="571.9999999999999" y2="571.9999999999999" /><line fill="none" stroke="rgb(255,255,0)" stroke-width="2" x1="378.5769230769231" x2="417.3076923076923" y1="610.7142857142856" y2="610.7142857142856" /><circle cx="378.5769230769231" cy="610.7142857142856" fill="rgb(0,255,0)" r="2" /><circle cx="417.3076923076923" cy="610.7142857142856" fill="rgb(0,255,0)" r="2" /><line fill="none" stroke="rgb(255,255,0)" stroke-width="1" x1="397.94230769230774" x2="397.94230769230774" y1="610.7142857142856" y2="615.7142857142856" /><line fill="none" stroke="rgb(255,255,0)" stroke-width="2" x1="417.3076923076923" x2="417.3076923076923" y1="610.7142857142856" y2="533.2857142857142" /><circle cx="417.3076923076923" cy="610.7142857142856" fill="rgb(0,255,0)" r="2" /><circle cx="417.3076923076923" cy="533.2857142857142" fill="rgb(0,255,0)" r="2" /><line fill="none" stroke="rgb(255,255,0)" stroke-width="1" x1="417.3076923076923" x2="422.3076923076923" y1="571.9999999999999" y2="571.9999999999999" /><line fill="none" stroke="rgb(255,255,0)" stroke-width="2" x1="804.6153846153846" x2="785.25" y1="533.2857142857142" y2="533.2857142857142" /><circle cx="804.6153846153846" cy="533.2857142857142" fill="rgb(0,255,0)" r="2" /><circle cx="785.25" cy="533.2857142857142" fill="rgb(0,255,0)" r="2" /><line fill="none" stroke="rgb(255,255,0)" stroke-width="1" x1="794.9326923076924" x2="794.9326923076924" y1="533.2857142857142" y2="528.2857142857142" /><line fill="none" stroke="rgb(255,255,0)" stroke-width="2" x1="785.25" x2="785.25" y1="533.2857142857142" y2="552.6428571428571" /><circle cx="785.25" cy="533.2857142857142" fill="rgb(0,255,0)" r="2" /><circle cx="785.25" cy="552.6428571428571" fill="rgb(0,255,0)" r="2" /><line fill="none" stroke="rgb(255,255,0)" stroke-width="1" x1="785.25" x2="780.25" y1="542.9642857142857" y2="542.9642857142857" /><line fill="none" stroke="rgb(255,255,0)" stroke-width="2" x1="785.25" x2="804.6153846153846" y1="552.6428571428571" y2="552.6428571428571" /><circle cx="785.25" cy="552.6428571428571" fill="rgb(0,255,0)" r="2" /><circle cx="804.6153846153846" cy="552.6428571428571" fill="rgb(0,255,0)" r="2" /><line fill="none" stroke="rgb(255,255,0)" stroke-width="1" x1="794.9326923076924" x2="794.9326923076924" y1="552.6428571428571" y2="557.6428571428571" /><line fill="none" stroke="rgb(255,255,0)" stroke-width="2" x1="804.6153846153846" x2="804.6153846153846" y1="552.6428571428571" y2="533.2857142857142" /><circle cx="804.6153846153846" cy="552.6428571428571" fill="rgb(0,255,0)" r="2" /><circle cx="804.6153846153846" cy="533.2857142857142" fill="rgb(0,255,0)" r="2" /><line fill="none" stroke="rgb(255,255,0)" stroke-width="1" x1="804.6153846153846" x2="809.6153846153846" y1="542.9642857142857" y2="542.9642857142857" /><line fill="none" stroke="rgb(255,255,0)" stroke-width="2" x1="804.6153846153846" x2="785.25" y1="591.3571428571429" y2="591.3571428571429" /><circle cx="804.6153846153846" cy="591.3571428571429" fill="rgb(0,255,0)" r="2" /><circle cx="785.25" cy="591.3571428571429" fill="rgb(0,255,0)" r="2" /><line fill="none" stroke="rgb(255,255,0)" stroke-width="1" x1="794.9326923076924" x2="794.9326923076924" y1="591.3571428571429" y2="586.3571428571429" /><line fill="none" stroke="rgb(255,255,0)" stroke-width="2" x1="785.25" x2="785.25" y1="591.3571428571429" y2="610.7142857142856" /><circle cx="785.25" cy="591.3571428571429" fill="rgb(0,255,0)" r="2" /><circle cx="785.25" cy="610.7142857142856" fill="rgb(0,255,0)" r="2" /><line fill="none" stroke="rgb(255,255,0)" stroke-width="1" x1="785.25" x2="780.25" y1="601.0357142857142" y2="601.0357142857142" /><line fill="none" stroke="rgb(255,255,0)" stroke-width="2" x1="785.25" x2="804.6153846153846" y1="610.7142857142856" y2="610.7142857142856" /><circle cx="785.25" cy="610.7142857142856" fill="rgb(0,255,0)" r="2" /><circle cx="804.6153846153846" cy="610.7142857142856" fill="rgb(0,255,0)" r="2" /><line fill="none" stroke="rgb(255,255,0)" stroke-width="1" x1="794.9326923076924" x2="794.9326923076924" y1="610.7142857142856" y2="615.7142857142856" /><line fill="none" stroke="rgb(255,255,0)" stroke-width="2" x1="804.6153846153846" x2="804.6153846153846" y1="610.7142857142856" y2="591.3571428571429" /><circle cx="804.6153846153846" cy="610.7142857142856" fill="rgb(0,255,0)" r="2" /><circle cx="804.6153846153846" cy="591.3571428571429" fill="rgb(0,255,0)" r="2" /><line fill="none" stroke="rgb(255,255,0)" stroke-width="1" x1="804.6153846153846" x2="809.6153846153846" y1="601.0357142857142" y2="601.0357142857142" /><line fill="none" stroke="rgb(255,255,0)" stroke-width="2" x1="804.6153846153846" x2="785.25" y1="649.4285714285714" y2="649.4285714285714" /><circle cx="804.6153846153846" cy="649.4285714285714" fill="rgb(0,255,0)" r="2" /><circle cx="785.25" cy="649.4285714285714" fill="rgb(0,255,0)" r="2" /><line fill="none" stroke="rgb(255,255,0)" stroke-width="1" x1="794.9326923076924" x2="794.9326923076924" y1="649.4285714285714" y2="644.4285714285714" /><line fill="none" stroke="rgb(255,255,0)" stroke-width="2" x1="785.25" x2="785.25" y1="649.4285714285714" y2="668.7857142857143" /><circle cx="785.25" cy="649.4285714285714" fill="rgb(0,255,0)" r="2" /><circle cx="785.25" cy="668.7857142857143" fill="rgb(0,255,0)" r="2" /><line fill="none" stroke="rgb(255,255,0)" stroke-width="1" x1="785.25" x2="780.25" y1="659.1071428571429" y2="659.1071428571429" /><line fill="none" stroke="rgb(255,255,0)" stroke-width="2" x1="785.25" x2="804.6153846153846" y1="668.7857142857143" y2="668.7857142857143" /><circle cx="785.25" cy="668.7857142857143" fill="rgb(0,255,0)" r="2" /><circle cx="804.6153846153846" cy="668.7857142857143" fill="rgb(0,255,0)" r="2" /><line fill="none" stroke="rgb(255,255,0)" stroke-width="1" x1="794.9326923076924" x2="794.9326923076924" y1="668.7857142857143" y2="673.7857142857143" /><line fill="none" stroke="rgb(255,255,0)" stroke-width="2" x1="804.6153846153846" x2="804.6153846153846" y1="668.7857142857143" y2="649.4285714285714" /><circle cx="804.6153846153846" cy="668.7857142857143" fill="rgb(0,255,0)" r="2" /><circle cx="804.6153846153846" cy="649.4285714285714" fill="rgb(0,255,0)" r="2" /><line fill="none" stroke="rgb(255,255,0)" stroke-width="1" x1="804.6153846153846" x2="809.6153846153846" y1="659.1071428571429" y2="659.1071428571429" /><line fill="none" stroke="rgb(255,255,0)" stroke-width="2" x1="804.6153846153846" x2="785.25" y1="707.4999999999999" y2="707.4999999999999" /><circle cx="804.6153846153846" cy="707.4999999999999" fill="rgb(0,255,0)" r="2" /><circle cx="785.25" cy="707.4999999999999" fill="rgb(0,255,0)" r="2" /><line fill="none" stroke="rgb(255,255,0)" stroke-width="1" x1="794.9326923076924" x2="794.9326923076924" y1="707.4999999999999" y2="702.4999999999999" /><line fill="none" stroke="rgb(255,255,0)" stroke-width="2" x1="785.25" x2="785.25" y1="707.4999999999999" y2="726.8571428571429" /><circle cx="785.25" cy="707.4999999999999" fill="rgb(0,255,0)" r="2" /><circle cx="785.25" cy="726.8571428571429" fill="rgb(0,255,0)" r="2" /><line fill="none" stroke="rgb(255,255,0)" stroke-width="1" x1="785.25" x2="780.25" y1="717.1785714285713" y2="717.1785714285713" /><line fill="none" stroke="rgb(255,255,0)" stroke-width="2" x1="785.25" x2="804.6153846153846" y1="726.8571428571429" y2="726.8571428571429" /><circle cx="785.25" cy="726.8571428571429" fill="rgb(0,255,0)" r="2" /><circle cx="804.6153846153846" cy="726.8571428571429" fill="rgb(0,255,0)" r="2" /><line fill="none" stroke="rgb(255,255,0)" stroke-width="1" x1="794.9326923076924" x2="794.9326923076924" y1="726.8571428571429" y2="731.8571428571429" /><line fill="none" stroke="rgb(255,255,0)" stroke-width="2" x1="804.6153846153846" x2="804.6153846153846" y1="726.8571428571429" y2="707.4999999999999" /><circle cx="804.6153846153846" cy="726.8571428571429" fill="rgb(0,255,0)" r="2" /><circle cx="804.6153846153846" cy="707.4999999999999" fill="rgb(0,255,0)" r="2" /><line fill="none" stroke="rgb(255,255,0)" stroke-width="1" x1="804.6153846153846" x2="809.6153846153846" y1="717.1785714285713" y2="717.1785714285713" /><line fill="none" stroke="rgb(255,255,0)" stroke-width="2" x1="901.4423076923077" x2="882.0769230769231" y1="533.2857142857142" y2="533.2857142857142" /><circle cx="901.4423076923077" cy="533.2857142857142" fill="rgb(0,255,0)" r="2" /><circle cx="882.0769230769231" cy="533.2857142857142" fill="rgb(0,255,0)" r="2" /><line fill="none" stroke="rgb(255,255,0)" stroke-width="1" x1="891.7596153846155" x2="891.7596153846155" y1="533.2857142857142" y2="528.2857142857142" /><line fill="none" stroke="rgb(255,255,0)" stroke-width="2" x1="882.0769230769231" x2="882.0769230769231" y1="533.2857142857142" y2="552.6428571428571" /><circle cx="882.0769230769231" cy="533.2857142857142" fill="rgb(0,255,0)" r="2" /><circle cx="882.0769230769231" cy="552.6428571428571" fill="rgb(0,255,0)" r="2" /><line fill="none" stroke="rgb(255,255,0)" stroke-width="1" x1="882.0769230769231" x2="877.0769230769231" y1="542.9642857142857" y2="542.9642857142857" /><line fill="none" stroke="rgb(255,255,0)" stroke-width="2" x1="882.0769230769231" x2="901.4423076923077" y1="552.6428571428571" y2="552.6428571428571" /><circle cx="882.0769230769231" cy="552.6428571428571" fill="rgb(0,255,0)" r="2" /><circle cx="901.4423076923077" cy="552.6428571428571" fill="rgb(0,255,0)" r="2" /><line fill="none" stroke="rgb(255,255,0)" stroke-width="1" x1="891.7596153846155" x2="891.7596153846155" y1="552.6428571428571" y2="557.6428571428571" /><line fill="none" stroke="rgb(255,255,0)" stroke-width="2" x1="901.4423076923077" x2="901.4423076923077" y1="552.6428571428571" y2="533.2857142857142" /><circle cx="901.4423076923077" cy="552.6428571428571" fill="rgb(0,255,0)" r="2" /><circle cx="901.4423076923077" cy="533.2857142857142" fill="rgb(0,255,0)" r="2" /><line fill="none" stroke="rgb(255,255,0)" stroke-width="1" x1="901.4423076923077" x2="906.4423076923077" y1="542.9642857142857" y2="542.9642857142857" /><line fill="none" stroke="rgb(255,255,0)" stroke-width="2" x1="901.4423076923077" x2="882.0769230769231" y1="591.3571428571429" y2="591.3571428571429" /><circle cx="901.4423076923077" cy="591.3571428571429" fill="rgb(0,255,0)" r="2" /><circle cx="882.0769230769231" cy="591.3571428571429" fill="rgb(0,255,0)" r="2" /><line fill="none" stroke="rgb(255,255,0)" stroke-width="1" x1="891.7596153846155" x2="891.7596153846155" y1="591.3571428571429" y2="586.3571428571429" /><line fill="none" stroke="rgb(255,255,0)" stroke-width="2" x1="882.0769230769231" x2="882.0769230769231" y1="591.3571428571429" y2="610.7142857142856" /><circle cx="882.0769230769231" cy="591.3571428571429" fill="rgb(0,255,0)" r="2" /><circle cx="882.0769230769231" cy="610.7142857142856" fill="rgb(0,255,0)" r="2" /><line fill="none" stroke="rgb(255,255,0)" stroke-width="1" x1="882.0769230769231" x2="877.0769230769231" y1="601.0357142857142" y2="601.0357142857142" /><line fill="none" stroke="rgb(255,255,0)" stroke-width="2" x1="882.0769230769231" x2="901.4423076923077" y1="610.7142857142856" y2="610.7142857142856" /><circle cx="882.0769230769231" cy="610.7142857142856" fill="rgb(0,255,0)" r="2" /><circle cx="901.4423076923077" cy="610.7142857142856" fill="rgb(0,255,0)" r="2" /><line fill="none" stroke="rgb(255,255,0)" stroke-width="1" x1="891.7596153846155" x2="891.7596153846155" y1="610.7142857142856" y2="615.7142857142856" /><line fill="none" stroke="rgb(255,255,0)" stroke-width="2" x1="901.4423076923077" x2="901.4423076923077" y1="610.7142857142856" y2="591.3571428571429" /><circle cx="901.4423076923077" cy="610.7142857142856" fill="rgb(0,255,0)" r="2" /><circle cx="901.4423076923077" cy="591.3571428571429" fill="rgb(0,255,0)" r="2" /><line fill="none" stroke="rgb(255,255,0)" stroke-width="1" x1="901.4423076923077" x2="906.4423076923077" y1="601.0357142857142" y2="601.0357142857142" /><line fill="none" stroke="rgb(255,255,0)" stroke-width="2" x1="901.4423076923077" x2="882.0769230769231" y1="649.4285714285714" y2="649.4285714285714" /><circle cx="901.4423076923077" cy="649.4285714285714" fill="rgb(0,255,0)" r="2" /><circle cx="882.0769230769231" cy="649.4285714285714" fill="rgb(0,255,0)" r="2" /><line fill="none" stroke="rgb(255,255,0)" stroke-width="1" x1="891.7596153846155" x2="891.7596153846155" y1="649.4285714285714" y2="644.4285714285714" /><line fill="none" stroke="rgb(255,255,0)" stroke-width="2" x1="882.0769230769231" x2="882.0769230769231" y1="649.4285714285714" y2="668.7857142857143" /><circle cx="882.0769230769231" cy="649.4285714285714" fill="rgb(0,255,0)" r="2" /><circle cx="882.0769230769231" cy="668.7857142857143" fill="rgb(0,255,0)" r="2" /><line fill="none" stroke="rgb(255,255,0)" stroke-width="1" x1="882.0769230769231" x2="877.0769230769231" y1="659.1071428571429" y2="659.1071428571429" /><line fill="none" stroke="rgb(255,255,0)" stroke-width="2" x1="882.0769230769231" x2="901.4423076923077" y1="668.7857142857143" y2="668.7857142857143" /><circle cx="882.0769230769231" cy="668.7857142857143" fill="rgb(0,255,0)" r="2" /><circle cx="901.4423076923077" cy="668.7857142857143" fill="rgb(0,255,0)" r="2" /><line fill="none" stroke="rgb(255,255,0)" stroke-width="1" x1="891.7596153846155" x2="891.7596153846155" y1="668.7857142857143" y2="673.7857142857143" /><line fill="none" stroke="rgb(255,255,0)" stroke-width="2" x1="901.4423076923077" x2="901.4423076923077" y1="668.7857142857143" y2="649.4285714285714" /><circle cx="901.4423076923077" cy="668.7857142857143" fill="rgb(0,255,0)" r="2" /><circle cx="901.4423076923077" cy="649.4285714285714" fill="rgb(0,255,0)" r="2" /><line fill="none" stroke="rgb(255,255,0)" stroke-width="1" x1="901.4423076923077" x2="906.4423076923077" y1="659.1071428571429" y2="659.1071428571429" /><line fill="none" stroke="rgb(255,255,0)" stroke-width="2" x1="901.4423076923077" x2="882.0769230769231" y1="707.4999999999999" y2="707.4999999999999" /><circle cx="901.4423076923077" cy="707.4999999999999" fill="rgb(0,255,0)" r="2" /><circle cx="882.0769230769231" cy="707.4999999999999" fill="rgb(0,255,0)" r="2" /><line fill="none" stroke="rgb(255,255,0)" stroke-width="1" x1="891.7596153846155" x2="891.7596153846155" y1="707.4999999999999" y2="702.4999999999999" /><line fill="none" stroke="rgb(255,255,0)" stroke-width="2" x1="882.0769230769231" x2="882.0769230769231" y1="707.4999999999999" y2="726.8571428571429" /><circle cx="882.0769230769231" cy="707.4999999999999" fill="rgb(0,255,0)" r="2" /><circle cx="882.0769230769231" cy="726.8571428571429" fill="rgb(0,255,0)" r="2" /><line fill="none" stroke="rgb(255,255,0)" stroke-width="1" x1="882.0769230769231" x2="877.0769230769231" y1="717.1785714285713" y2="717.1785714285713" /><line fill="none" stroke="rgb(255,255,0)" stroke-width="2" x1="882.0769230769231" x2="901.4423076923077" y1="726.8571428571429" y2="726.8571428571429" /><circle cx="882.0769230769231" cy="726.8571428571429" fill="rgb(0,255,0)" r="2" /><circle cx="901.4423076923077" cy="726.8571428571429" fill="rgb(0,255,0)" r="2" /><line fill="none" stroke="rgb(255,255,0)" stroke-width="1" x1="891.7596153846155" x2="891.7596153846155" y1="726.8571428571429" y2="731.8571428571429" /><line fill="none" stroke="rgb(255,255,0)" stroke-width="2" x1="901.4423076923077" x2="901.4423076923077" y1="726.8571428571429" y2="707.4999999999999" /><circle cx="901.4423076923077" cy="726.8571428571429" fill="rgb(0,255,0)" r="2" /><circle cx="901.4423076923077" cy="707.4999999999999" fill="rgb(0,255,0)" r="2" /><line fill="none" stroke="rgb(255,255,0)" stroke-width="1" x1="901.4423076923077" x2="906.4423076923077" y1="717.1785714285713" y2="717.1785714285713" /><line fill="none" stroke="rgb(255,255,0)" stroke-width="2" x1="572.2307692307692" x2="494.7692307692308" y1="1268.857142857143" y2="1268.857142857143" /><circle cx="572.2307692307692" cy="1268.857142857143" fill="rgb(0,255,0)" r="2" /><circle cx="494.7692307692308" cy="1268.857142857143" fill="rgb(0,255,0)" r="2" /><line fill="none" stroke="rgb(255,255,0)" stroke-width="1" x1="533.5" x2="533.5" y1="1268.857142857143" y2="1263.857142857143" /><line fill="none" stroke="rgb(255,255,0)" stroke-width="2" x1="494.7692307692308" x2="494.7692307692308" y1="1268.857142857143" y2="1307.5714285714287" /><circle cx="494.7692307692308" cy="1268.857142857143" fill="rgb(0,255,0)" r="2" /><circle cx="494.7692307692308" cy="1307.5714285714287" fill="rgb(0,255,0)" r="2" /><line fill="none" stroke="rgb(255,255,0)" stroke-width="1" x1="494.7692307692308" x2="489.7692307692308" y1="1288.2142857142858" y2="1288.2142857142858" /><line fill="none" stroke="rgb(255,255,0)" stroke-width="2" x1="494.7692307692308" x2="572.2307692307692" y1="1307.5714285714287" y2="1307.5714285714287" /><circle cx="494.7692307692308" cy="1307.5714285714287" fill="rgb(0,255,0)" r="2" /><circle cx="572.2307692307692" cy="1307.5714285714287" fill="rgb(0,255,0)" r="2" /><line fill="none" stroke="rgb(255,255,0)" stroke-width="1" x1="533.5" x2="533.5" y1="1307.5714285714287" y2="1312.5714285714287" /><line fill="none" stroke="rgb(255,255,0)" stroke-width="2" x1="572.2307692307692" x2="572.2307692307692" y1="1307.5714285714287" y2="1268.857142857143" /><circle cx="572.2307692307692" cy="1307.5714285714287" fill="rgb(0,255,0)" r="2" /><circle cx="572.2307692307692" cy="1268.857142857143" fill="rgb(0,255,0)" r="2" /><line fill="none" stroke="rgb(255,255,0)" stroke-width="1" x1="572.2307692307692" x2="577.2307692307692" y1="1288.2142857142858" y2="1288.2142857142858" /><line fill="none" stroke="rgb(250,56,35)" stroke-width="2" x1="485.08653846153845" x2="465.72115384615387" y1="968.8214285714286" y2="968.8214285714286" /><circle cx="485.08653846153845" cy="968.8214285714286" fill="rgb(0,255,0)" r="2" /><circle cx="465.72115384615387" cy="968.8214285714286" fill="rgb(0,255,0)" r="2" /><line fill="none" stroke="rgb(250,56,35)" stroke-width="1" x1="475.4038461538462" x2="475.4038461538462" y1="968.8214285714286" y2="963.8214285714286" /><line fill="none" stroke="rgb(250,56,35)" stroke-width="2" x1="465.72115384615387" x2="465.72115384615387" y1="968.8214285714286" y2="988.1785714285714" /><circle cx="465.72115384615387" cy="968.8214285714286" fill="rgb(0,255,0)" r="2" /><circle cx="465.72115384615387" cy="988.1785714285714" fill="rgb(0,255,0)" r="2" /><line fill="none" stroke="rgb(250,56,35)" stroke-width="1" x1="465.72115384615387" x2="460.72115384615387" y1="978.5" y2="978.5" /><line fill="none" stroke="rgb(250,56,35)" stroke-width="2" x1="465.72115384615387" x2="485.08653846153845" y1="988.1785714285714" y2="988.1785714285714" /><circle cx="465.72115384615387" cy="988.1785714285714" fill="rgb(0,255,0)" r="2" /><circle cx="485.08653846153845" cy="988.1785714285714" fill="rgb(0,255,0)" r="2" /><line fill="none" stroke="rgb(250,56,35)" stroke-width="1" x1="475.4038461538462" x2="475.4038461538462" y1="988.1785714285714" y2="993.1785714285714" /><line fill="none" stroke="rgb(250,56,35)" stroke-width="2" x1="485.08653846153845" x2="485.08653846153845" y1="988.1785714285714" y2="968.8214285714286" /><circle cx="485.08653846153845" cy="988.1785714285714" fill="rgb(0,255,0)" r="2" /><circle cx="485.08653846153845" cy="968.8214285714286" fill="rgb(0,255,0)" r="2" /><line fill="none" stroke="rgb(250,56,35)" stroke-width="1" x1="485.08653846153845" x2="490.08653846153845" y1="978.5" y2="978.5" /><line fill="none" stroke="rgb(250,56,35)" stroke-width="2" x1="485.08653846153845" x2="465.72115384615387" y1="1007.5357142857142" y2="1007.5357142857142" /><circle cx="485.08653846153845" cy="1007.5357142857142" fill="rgb(0,255,0)" r="2" /><circle cx="465.72115384615387" cy="1007.5357142857142" fill="rgb(0,255,0)" r="2" /><line fill="none" stroke="rgb(250,56,35)" stroke-width="1" x1="475.4038461538462" x2="475.4038461538462" y1="1007.5357142857142" y2="1002.5357142857142" /><line fill="none" stroke="rgb(250,56,35)" stroke-width="2" x1="465.72115384615387" x2="465.72115384615387" y1="1007.5357142857142" y2="1026.892857142857" /><circle cx="465.72115384615387" cy="1007.5357142857142" fill="rgb(0,255,0)" r="2" /><circle cx="465.72115384615387" cy="1026.892857142857" fill="rgb(0,255,0)" r="2" /><line fill="none" stroke="rgb(250,56,35)" stroke-width="1" x1="465.72115384615387" x2="460.72115384615387" y1="1017.2142857142857" y2="1017.2142857142857" /><line fill="none" stroke="rgb(250,56,35)" stroke-width="2" x1="465.72115384615387" x2="485.08653846153845" y1="1026.892857142857" y2="1026.892857142857" /><circle cx="465.72115384615387" cy="1026.892857142857" fill="rgb(0,255,0)" r="2" /><circle cx="485.08653846153845" cy="1026.892857142857" fill="rgb(0,255,0)" r="2" /><line fill="none" stroke="rgb(250,56,35)" stroke-width="1" x1="475.4038461538462" x2="475.4038461538462" y1="1026.892857142857" y2="1031.892857142857" /><line fill="none" stroke="rgb(250,56,35)" stroke-width="2" x1="485.08653846153845" x2="485.08653846153845" y1="1026.892857142857" y2="1007.5357142857142" /><circle cx="485.08653846153845" cy="1026.892857142857" fill="rgb(0,255,0)" r="2" /><circle cx="485.08653846153845" cy="1007.5357142857142" fill="rgb(0,255,0)" r="2" /><line fill="none" stroke="rgb(250,56,35)" stroke-width="1" x1="485.08653846153845" x2="490.08653846153845" y1="1017.2142857142857" y2="1017.2142857142857" /><line fill="none" stroke="rgb(250,56,35)" stroke-width="2" x1="601.2788461538462" x2="581.9134615384615" y1="959.1428571428572" y2="959.1428571428572" /><circle cx="601.2788461538462" cy="959.1428571428572" fill="rgb(0,255,0)" r="2" /><circle cx="581.9134615384615" cy="959.1428571428572" fill="rgb(0,255,0)" r="2" /><line fill="none" stroke="rgb(250,56,35)" stroke-width="1" x1="591.5961538461538" x2="591.5961538461538" y1="959.1428571428572" y2="954.1428571428572" /><line fill="none" stroke="rgb(250,56,35)" stroke-width="2" x1="581.9134615384615" x2="581.9134615384615" y1="959.1428571428572" y2="978.5" /><circle cx="581.9134615384615" cy="959.1428571428572" fill="rgb(0,255,0)" r="2" /><circle cx="581.9134615384615" cy="978.5" fill="rgb(0,255,0)" r="2" /><line fill="none" stroke="rgb(250,56,35)" stroke-width="1" x1="581.9134615384615" x2="576.9134615384615" y1="968.8214285714287" y2="968.8214285714287" /><line fill="none" stroke="rgb(250,56,35)" stroke-width="2" x1="581.9134615384615" x2="601.2788461538462" y1="978.5" y2="978.5" /><circle cx="581.9134615384615" cy="978.5" fill="rgb(0,255,0)" r="2" /><circle cx="601.2788461538462" cy="978.5" fill="rgb(0,255,0)" r="2" /><line fill="none" stroke="rgb(250,56,35)" stroke-width="1" x1="591.5961538461538" x2="591.5961538461538" y1="978.5" y2="983.5" /><line fill="none" stroke="rgb(250,56,35)" stroke-width="2" x1="601.2788461538462" x2="601.2788461538462" y1="978.5" y2="959.1428571428572" /><circle cx="601.2788461538462" cy="978.5" fill="rgb(0,255,0)" r="2" /><circle cx="601.2788461538462" cy="959.1428571428572" fill="rgb(0,255,0)" r="2" /><line fill="none" stroke="rgb(250,56,35)" stroke-width="1" x1="601.2788461538462" x2="606.2788461538462" y1="968.8214285714287" y2="968.8214285714287" /><line fill="none" stroke="rgb(250,56,35)" stroke-width="2" x1="601.2788461538462" x2="581.9134615384615" y1="1007.5357142857142" y2="1007.5357142857142" /><circle cx="601.2788461538462" cy="1007.5357142857142" fill="rgb(0,255,0)" r="2" /><circle cx="581.9134615384615" cy="1007.5357142857142" fill="rgb(0,255,0)" r="2" /><line fill="none" stroke="rgb(250,56,35)" stroke-width="1" x1="591.5961538461538" x2="591.5961538461538" y1="1007.5357142857142" y2="1002.5357142857142" /><line fill="none" stroke="rgb(250,56,35)" stroke-width="2" x1="581.9134615384615" x2="581.9134615384615" y1="1007.5357142857142" y2="1026.892857142857" /><circle cx="581.9134615384615" cy="1007.5357142857142" fill="rgb(0,255,0)" r="2" /><circle cx="581.9134615384615" cy="1026.892857142857" fill="rgb(0,255,0)" r="2" /><line fill="none" stroke="rgb(250,56,35)" stroke-width="1" x1="581.9134615384615" x2="576.9134615384615" y1="1017.2142857142857" y2="1017.2142857142857" /><line fill="none" stroke="rgb(250,56,35)" stroke-width="2" x1="581.9134615384615" x2="601.2788461538462" y1="1026.892857142857" y2="1026.892857142857" /><circle cx="581.9134615384615" cy="1026.892857142857" fill="rgb(0,255,0)" r="2" /><circle cx="601.2788461538462" cy="1026.892857142857" fill="rgb(0,255,0)" r="2" /><line fill="none" stroke="rgb(250,56,35)" stroke-width="1" x1="591.5961538461538" x2="591.5961538461538" y1="1026.892857142857" y2="1031.892857142857" /><line fill="none" stroke="rgb(250,56,35)" stroke-width="2" x1="601.2788461538462" x2="601.2788461538462" y1="1026.892857142857" y2="1007.5357142857142" /><circle cx="601.2788461538462" cy="1026.892857142857" fill="rgb(0,255,0)" r="2" /><circle cx="601.2788461538462" cy="1007.5357142857142" fill="rgb(0,255,0)" r="2" /><line fill="none" stroke="rgb(250,56,35)" stroke-width="1" x1="601.2788461538462" x2="606.2788461538462" y1="1017.2142857142857" y2="1017.2142857142857" /><circle cx="301.1153846153846" cy="494.57142857142844" fill="rgb(255,0,0)" r="4" /><text fill="black" font-family="sans-serif" font-size="12" x="301.1153846153846" y="494.57142857142844">32</text><circle cx="301.1153846153846" cy="339.7142857142858" fill="rgb(255,0,0)" r="4" /><text fill="black" font-family="sans-serif" font-size="12" x="301.1153846153846" y="339.7142857142858">33</text><circle cx="533.5" cy="997.8571428571429" fill="rgb(255,0,0)" r="4" /><text fill="black" font-family="sans-serif" font-size="12" x="533.5" y="997.8571428571429">34</text><circle cx="533.5" cy="1191.4285714285716" fill="rgb(255,0,0)" r="4" /><text fill="black" font-family="sans-serif" font-size="12" x="533.5" y="1191.4285714285716">35</text><circle cx="853.0288461538462" cy="572.0" fill="rgb(255,0,0)" r="4" /><text fill="black" font-family="sans-serif" font-size="12" x="853.0288461538462" y="572.0">36</text><circle cx="833.6634615384615" cy="688.1428571428571" fill="rgb(255,0,0)" r="4" /><text fill="black" font-family="sans-serif" font-size="12" x="833.6634615384615" y="688.1428571428571">37</text><circle cx="349.52884615384613" cy="552.6428571428571" fill="rgb(255,0,0)" r="4" /><text fill="black" font-family="sans-serif" font-size="12" x="349.52884615384613" y="552.6428571428571">38</text><circle cx="262.38461538461536" cy="601.0357142857142" fill="rgb(255,0,0)" r="4" /><text fill="black" font-family="sans-serif" font-size="12" x="262.38461538461536" y="601.0357142857142">39</text><circle cx="843.3461538461538" cy="204.21428571428555" fill="rgb(255,0,0)" r="4" /><text fill="black" font-family="sans-serif" font-size="12" x="843.3461538461538" y="204.21428571428555">40</text><circle cx="949.8557692307692" cy="88.07142857142844" fill="rgb(255,0,0)" r="4" /><text fill="black" font-family="sans-serif" font-size="12" x="949.8557692307692" y="88.07142857142844">41</text><circle cx="882.0769230769231" cy="136.46428571428578" fill="rgb(255,0,0)" r="4" /><text fill="black" font-family="sans-serif" font-size="12" x="882.0769230769231" y="136.46428571428578">42</text><circle cx="30.0" cy="1539.857142857143" fill="rgb(255,0,0)" r="4" /><text fill="black" font-family="sans-serif" font-size="12" x="30.0" y="1539.857142857143">64</text><circle cx="49.36538461538461" cy="1539.857142857143" fill="rgb(255,0,0)" r="4" /><text fill="black" font-family="sans-serif" font-size="12" x="49.36538461538461" y="1539.857142857143">65</text><circle cx="426.9903846153846" cy="1210.7857142857142" fill="rgb(255,0,0)" r="4" /><text fill="black" font-family="sans-serif" font-size="12" x="426.9903846153846" y="1210.7857142857142">66</text><circle cx="426.9903846153846" cy="1249.5" fill="rgb(255,0,0)" r="4" /><text fill="black" font-family="sans-serif" font-size="12" x="426.9903846153846" y="1249.5">67</text><circle cx="426.9903846153846" cy="1365.642857142857" fill="rgb(255,0,0)" r="4" /><text fill="black" font-family="sans-serif" font-size="12" x="426.9903846153846" y="1365.642857142857">68</text><circle cx="426.9903846153846" cy="1404.357142857143" fill="rgb(255,0,0)" r="4" /><text fill="black" font-family="sans-serif" font-size="12" x="426.9903846153846" y="1404.357142857143">69</text><circle cx="640.0096153846154" cy="1210.7857142857142" fill="rgb(255,0,0)" r="4" /><text fill="black" font-family="sans-serif" font-size="12" x="640.0096153846154" y="1210.7857142857142">70</text><circle cx="640.0096153846154" cy="1249.5" fill="rgb(255,0,0)" r="4" /><text fill="black" font-family="sans-serif" font-size="12" x="640.0096153846154" y="1249.5">71</text><circle cx="640.0096153846154" cy="1365.642857142857" fill="rgb(255,0,0)" r="4" /><text fill="black" font-family="sans-serif" font-size="12" x="640.0096153846154" y="1365.642857142857">72</text><circle cx="640.0096153846154" cy="1404.357142857143" fill="rgb(255,0,0)" r="4" /><text fill="black" font-family="sans-serif" font-size="12" x="640.0096153846154" y="1404.357142857143">73</text><circle cx="281.75" cy="397.7857142857142" fill="rgb(255,0,0)" r="4" /><text fill="black" font-family="sans-serif" font-size="12" x="281.75" y="397.7857142857142">74</text><circle cx="301.1153846153846" cy="281.6428571428571" fill="rgb(255,0,0)" r="4" /><text fill="black" font-family="sans-serif" font-size="12" x="301.1153846153846" y="281.6428571428571">75</text><circle cx="494.7692307692308" cy="1133.3571428571427" fill="rgb(255,0,0)" r="4" /><text fill="black" font-family="sans-serif" font-size="12" x="494.7692307692308" y="1133.3571428571427">76</text><circle cx="601.2788461538462" cy="1055.9285714285716" fill="rgb(255,0,0)" r="4" /><text fill="black" font-family="sans-serif" font-size="12" x="601.2788461538462" y="1055.9285714285716">77</text><circle cx="591.5961538461538" cy="1288.2142857142858" fill="rgb(255,0,0)" r="4" /><text fill="black" font-family="sans-serif" font-size="12" x="591.5961538461538" y="1288.2142857142858">78</text><circle cx="872.3942307692308" cy="155.82142857142844" fill="rgb(255,0,0)" r="4" /><text fill="black" font-family="sans-serif" font-size="12" x="872.3942307692308" y="155.82142857142844">79</text><circle cx="920.8076923076923" cy="88.07142857142844" fill="rgb(255,0,0)" r="4" /><text fill="black" font-family="sans-serif" font-size="12" x="920.8076923076923" y="88.07142857142844">80</text><line fill="none" stroke="rgb(69,69,69)" stroke-width="0.5" x1="256.7915367713341" x2="256.7915367713341" y1="480.80498395647305" y2="392.19501604352695" /><line fill="none" stroke="rgb(69,69,69)" stroke-width="0.5" x1="256.7915367713341" x2="345.4392324594351" y1="392.19501604352695" y2="392.19501604352695" /><line fill="none" stroke="rgb(69,69,69)" stroke-width="0.5" x1="345.4392324594351" x2="345.4392324594351" y1="392.19501604352695" y2="480.80498395647305" /><line fill="none" stroke="rgb(69,69,69)" stroke-width="0.5" x1="345.4392324594351" x2="256.7915367713341" y1="480.80498395647305" y2="480.80498395647305" /><line fill="none" stroke="rgb(69,69,69)" stroke-width="0.5" x1="256.7915367713341" x2="256.7915367713341" y1="480.80498395647305" y2="392.19501604352695" /><line fill="none" stroke="rgb(69,69,69)" stroke-width="0.5" x1="256.7915367713341" x2="345.4392324594351" y1="392.19501604352695" y2="392.19501604352695" /><line fill="none" stroke="rgb(69,69,69)" stroke-width="0.5" x1="345.4392324594351" x2="345.4392324594351" y1="392.19501604352695" y2="480.80498395647305" /><line fill="none" stroke="rgb(69,69,69)" stroke-width="0.5" x1="345.4392324594351" x2="256.7915367713341" y1="480.80498395647305" y2="480.80498395647305" /></svg>