<?xml version="1.0" encoding="utf-8" ?>
<svg baseProfile="full" height="1828" version="1.1" width="986" xmlns="http://www.w3.org/2000/svg" xmlns:ev="http://www.w3.org/2001/xml-events" xmlns:xlink="http://www.w3.org/1999/xlink"><defs /><rect fill="rgb(73,109,137)" fill-opacity="1" height="1828" width="986" x="0" y="0" /><line fill="none" stroke="rgb(255,255,0)" stroke-width="2" x1="114.18181818181819" x2="114.18181818181819" y1="914.0" y2="787.7142857142858" /><circle cx="114.18181818181819" cy="914.0" fill="rgb(0,255,0)" r="2" /><circle cx="114.18181818181819" cy="787.7142857142858" fill="rgb(0,255,0)" r="2" /><line fill="none" stroke="rgb(255,255,0)" stroke-width="1" x1="114.18181818181819" x2="119.18181818181819" y1="850.8571428571429" y2="850.8571428571429" /><line fill="none" stroke="rgb(255,255,0)" stroke-width="2" x1="114.18181818181819" x2="30.0" y1="787.7142857142858" y2="787.7142857142858" /><circle cx="114.18181818181819" cy="787.7142857142858" fill="rgb(0,255,0)" r="2" /><circle cx="30.0" cy="787.7142857142858" fill="rgb(0,255,0)" r="2" /><line fill="none" stroke="rgb(255,255,0)" stroke-width="1" x1="72.0909090909091" x2="72.0909090909091" y1="787.7142857142858" y2="782.7142857142858" /><line fill="none" stroke="rgb(255,255,0)" stroke-width="2" x1="30.0" x2="30.0" y1="787.7142857142858" y2="493.04761904761904" /><circle cx="30.0" cy="787.7142857142858" fill="rgb(0,255,0)" r="2" /><circle cx="30.0" cy="493.04761904761904" fill="rgb(0,255,0)" r="2" /><line fill="none" stroke="rgb(255,255,0)" stroke-width="1" x1="30.0" x2="35.0" y1="640.3809523809524" y2="640.3809523809524" /><line fill="none" stroke="rgb(255,255,0)" stroke-width="2" x1="30.0" x2="114.18181818181819" y1="493.04761904761904" y2="493.04761904761904" /><circle cx="30.0" cy="493.04761904761904" fill="rgb(0,255,0)" r="2" /><circle cx="114.18181818181819" cy="493.04761904761904" fill="rgb(0,255,0)" r="2" /><line fill="none" stroke="rgb(255,255,0)" stroke-width="1" x1="72.0909090909091" x2="72.0909090909091" y1="493.04761904761904" y2="498.04761904761904" /><line fill="none" stroke="rgb(255,255,0)" stroke-width="2" x1="114.18181818181819" x2="114.18181818181819" y1="493.04761904761904" y2="198.3809523809523" /><circle cx="114.18181818181819" cy="493.04761904761904" fill="rgb(0,255,0)" r="2" /><circle cx="114.18181818181819" cy="198.3809523809523" fill="rgb(0,255,0)" r="2" /><line fill="none" stroke="rgb(255,255,0)" stroke-width="1" x1="114.18181818181819" x2="119.18181818181819" y1="345.71428571428567" y2="345.71428571428567" /><line fill="none" stroke="rgb(255,255,0)" stroke-width="2" x1="114.18181818181819" x2="198.36363636363637" y1="198.3809523809523" y2="198.3809523809523" /><circle cx="114.18181818181819" cy="198.3809523809523" fill="rgb(0,255,0)" r="2" /><circle cx="198.36363636363637" cy="198.3809523809523" fill="rgb(0,255,0)" r="2" /><line fill="none" stroke="rgb(255,255,0)" stroke-width="1" x1="156.27272727272728" x2="156.27272727272728" y1="198.3809523809523" y2="203.3809523809523" /><line fill="none" stroke="rgb(255,255,0)" stroke-width="2" x1="198.36363636363637" x2="198.36363636363637" y1="198.3809523809523" y2="450.95238095238096" /><circle cx="198.36363636363637" cy="198.3809523809523" fill="rgb(0,255,0)" r="2" /><circle cx="198.36363636363637" cy="450.95238095238096" fill="rgb(0,255,0)" r="2" /><line fill="none" stroke="rgb(255,255,0)" stroke-width="1" x1="198.36363636363637" x2="193.36363636363637" y1="324.66666666666663" y2="324.66666666666663" /><line fill="none" stroke="rgb(255,255,0)" stroke-width="2" x1="198.36363636363637" x2="198.36363636363637" y1="450.95238095238096" y2="493.04761904761904" /><circle cx="198.36363636363637" cy="450.95238095238096" fill="rgb(0,255,0)" r="2" /><circle cx="198.36363636363637" cy="493.04761904761904" fill="rgb(0,255,0)" r="2" /><line fill="none" stroke="rgb(255,255,0)" stroke-width="1" x1="198.36363636363637" x2="193.36363636363637" y1="472.0" y2="472.0" /><line fill="none" stroke="rgb(255,255,0)" stroke-width="2" x1="198.36363636363637" x2="282.5454545454545" y1="493.04761904761904" y2="493.04761904761904" /><circle cx="198.36363636363637" cy="493.04761904761904" fill="rgb(0,255,0)" r="2" /><circle cx="282.5454545454545" cy="493.04761904761904" fill="rgb(0,255,0)" r="2" /><line fill="none" stroke="rgb(255,255,0)" stroke-width="1" x1="240.45454545454544" x2="240.45454545454544" y1="493.04761904761904" y2="498.04761904761904" /><line fill="none" stroke="rgb(255,255,0)" stroke-width="2" x1="282.5454545454545" x2="282.5454545454545" y1="493.04761904761904" y2="787.7142857142858" /><circle cx="282.5454545454545" cy="493.04761904761904" fill="rgb(0,255,0)" r="2" /><circle cx="282.5454545454545" cy="787.7142857142858" fill="rgb(0,255,0)" r="2" /><line fill="none" stroke="rgb(255,255,0)" stroke-width="1" x1="282.5454545454545" x2="277.5454545454545" y1="640.3809523809524" y2="640.3809523809524" /><line fill="none" stroke="rgb(255,255,0)" stroke-width="2" x1="282.5454545454545" x2="198.36363636363637" y1="787.7142857142858" y2="787.7142857142858" /><circle cx="282.5454545454545" cy="787.7142857142858" fill="rgb(0,255,0)" r="2" /><circle cx="198.36363636363637" cy="787.7142857142858" fill="rgb(0,255,0)" r="2" /><line fill="none" stroke="rgb(255,255,0)" stroke-width="1" x1="240.45454545454544" x2="240.45454545454544" y1="787.7142857142858" y2="782.7142857142858" /><line fill="none" stroke="rgb(255,255,0)" stroke-width="2" x1="198.36363636363637" x2="198.36363636363637" y1="787.7142857142858" y2="829.8095238095237" /><circle cx="198.36363636363637" cy="787.7142857142858" fill="rgb(0,255,0)" r="2" /><circle cx="198.36363636363637" cy="829.8095238095237" fill="rgb(0,255,0)" r="2" /><line fill="none" stroke="rgb(255,255,0)" stroke-width="1" x1="198.36363636363637" x2="193.36363636363637" y1="808.7619047619048" y2="808.7619047619048" /><line fill="none" stroke="rgb(255,255,0)" stroke-width="2" x1="198.36363636363637" x2="324.6363636363636" y1="829.8095238095237" y2="829.8095238095237" /><circle cx="198.36363636363637" cy="829.8095238095237" fill="rgb(0,255,0)" r="2" /><circle cx="324.6363636363636" cy="829.8095238095237" fill="rgb(0,255,0)" r="2" /><line fill="none" stroke="rgb(255,255,0)" stroke-width="1" x1="261.5" x2="261.5" y1="829.8095238095237" y2="834.8095238095237" /><line fill="none" stroke="rgb(255,255,0)" stroke-width="2" x1="324.6363636363636" x2="450.9090909090909" y1="829.8095238095237" y2="829.8095238095237" /><circle cx="324.6363636363636" cy="829.8095238095237" fill="rgb(0,255,0)" r="2" /><circle cx="450.9090909090909" cy="829.8095238095237" fill="rgb(0,255,0)" r="2" /><line fill="none" stroke="rgb(255,255,0)" stroke-width="1" x1="387.77272727272725" x2="387.77272727272725" y1="829.8095238095237" y2="834.8095238095237" /><line fill="none" stroke="rgb(255,255,0)" stroke-width="2" x1="450.9090909090909" x2="577.1818181818182" y1="829.8095238095237" y2="829.8095238095237" /><circle cx="450.9090909090909" cy="829.8095238095237" fill="rgb(0,255,0)" r="2" /><circle cx="577.1818181818182" cy="829.8095238095237" fill="rgb(0,255,0)" r="2" /><line fill="none" stroke="rgb(255,255,0)" stroke-width="1" x1="514.0454545454545" x2="514.0454545454545" y1="829.8095238095237" y2="834.8095238095237" /><line fill="none" stroke="rgb(255,255,0)" stroke-width="2" x1="577.1818181818182" x2="619.2727272727273" y1="829.8095238095237" y2="829.8095238095237" /><circle cx="577.1818181818182" cy="829.8095238095237" fill="rgb(0,255,0)" r="2" /><circle cx="619.2727272727273" cy="829.8095238095237" fill="rgb(0,255,0)" r="2" /><line fill="none" stroke="rgb(255,255,0)" stroke-width="1" x1="598.2272727272727" x2="598.2272727272727" y1="829.8095238095237" y2="834.8095238095237" /><line fill="none" stroke="rgb(255,255,0)" stroke-width="2" x1="619.2727272727273" x2="619.2727272727273" y1="829.8095238095237" y2="661.4285714285713" /><circle cx="619.2727272727273" cy="829.8095238095237" fill="rgb(0,255,0)" r="2" /><circle cx="619.2727272727273" cy="661.4285714285713" fill="rgb(0,255,0)" r="2" /><line fill="none" stroke="rgb(255,255,0)" stroke-width="1" x1="619.2727272727273" x2="624.2727272727273" y1="745.6190476190475" y2="745.6190476190475" /><line fill="none" stroke="rgb(255,255,0)" stroke-width="2" x1="619.2727272727273" x2="619.2727272727273" y1="661.4285714285713" y2="493.04761904761904" /><circle cx="619.2727272727273" cy="661.4285714285713" fill="rgb(0,255,0)" r="2" /><circle cx="619.2727272727273" cy="493.04761904761904" fill="rgb(0,255,0)" r="2" /><line fill="none" stroke="rgb(255,255,0)" stroke-width="1" x1="619.2727272727273" x2="624.2727272727273" y1="577.2380952380952" y2="577.2380952380952" /><line fill="none" stroke="rgb(255,255,0)" stroke-width="2" x1="619.2727272727273" x2="703.4545454545455" y1="493.04761904761904" y2="493.04761904761904" /><circle cx="619.2727272727273" cy="493.04761904761904" fill="rgb(0,255,0)" r="2" /><circle cx="703.4545454545455" cy="493.04761904761904" fill="rgb(0,255,0)" r="2" /><line fill="none" stroke="rgb(255,255,0)" stroke-width="1" x1="661.3636363636364" x2="661.3636363636364" y1="493.04761904761904" y2="498.04761904761904" /><line fill="none" stroke="rgb(255,255,0)" stroke-width="2" x1="703.4545454545455" x2="703.4545454545455" y1="493.04761904761904" y2="198.3809523809523" /><circle cx="703.4545454545455" cy="493.04761904761904" fill="rgb(0,255,0)" r="2" /><circle cx="703.4545454545455" cy="198.3809523809523" fill="rgb(0,255,0)" r="2" /><line fill="none" stroke="rgb(255,255,0)" stroke-width="1" x1="703.4545454545455" x2="708.4545454545455" y1="345.71428571428567" y2="345.71428571428567" /><line fill="none" stroke="rgb(255,255,0)" stroke-width="2" x1="703.4545454545455" x2="745.5454545454545" y1="198.3809523809523" y2="114.19047619047637" /><circle cx="703.4545454545455" cy="198.3809523809523" fill="rgb(0,255,0)" r="2" /><circle cx="745.5454545454545" cy="114.19047619047637" fill="rgb(0,255,0)" r="2" /><line fill="none" stroke="rgb(255,255,0)" stroke-width="1" x1="724.5" x2="728.9722279345134" y1="156.28571428571433" y2="158.5215982947268" /><line fill="none" stroke="rgb(255,255,0)" stroke-width="2" x1="745.5454545454545" x2="787.6363636363637" y1="114.19047619047637" y2="72.09523809523807" /><circle cx="745.5454545454545" cy="114.19047619047637" fill="rgb(0,255,0)" r="2" /><circle cx="787.6363636363637" cy="72.09523809523807" fill="rgb(0,255,0)" r="2" /><line fill="none" stroke="rgb(255,255,0)" stroke-width="1" x1="766.5909090909091" x2="770.1266247957311" y1="93.14285714285722" y2="96.67820924055202" /><line fill="none" stroke="rgb(255,255,0)" stroke-width="2" x1="787.6363636363637" x2="871.8181818181818" y1="72.09523809523807" y2="30.0" /><circle cx="787.6363636363637" cy="72.09523809523807" fill="rgb(0,255,0)" r="2" /><circle cx="871.8181818181818" cy="30.0" fill="rgb(0,255,0)" r="2" /><line fill="none" stroke="rgb(255,255,0)" stroke-width="1" x1="829.7272727272727" x2="831.9635246808281" y1="51.04761904761904" y2="55.51966300986049" /><line fill="none" stroke="rgb(255,255,0)" stroke-width="2" x1="871.8181818181818" x2="956.0" y1="30.0" y2="30.0" /><circle cx="871.8181818181818" cy="30.0" fill="rgb(0,255,0)" r="2" /><circle cx="956.0" cy="30.0" fill="rgb(0,255,0)" r="2" /><line fill="none" stroke="rgb(255,255,0)" stroke-width="1" x1="913.9090909090909" x2="913.9090909090909" y1="30.0" y2="35.0" /><line fill="none" stroke="rgb(255,255,0)" stroke-width="2" x1="956.0" x2="956.0" y1="30.0" y2="114.19047619047637" /><circle cx="956.0" cy="30.0" fill="rgb(0,255,0)" r="2" /><circle cx="956.0" cy="114.19047619047637" fill="rgb(0,255,0)" r="2" /><line fill="none" stroke="rgb(255,255,0)" stroke-width="1" x1="956.0" x2="951.0" y1="72.09523809523819" y2="72.09523809523819" /><line fill="none" stroke="rgb(255,255,0)" stroke-width="2" x1="956.0" x2="871.8181818181818" y1="114.19047619047637" y2="114.19047619047637" /><circle cx="956.0" cy="114.19047619047637" fill="rgb(0,255,0)" r="2" /><circle cx="871.8181818181818" cy="114.19047619047637" fill="rgb(0,255,0)" r="2" /><line fill="none" stroke="rgb(255,255,0)" stroke-width="1" x1="913.9090909090909" x2="913.9090909090909" y1="114.19047619047637" y2="109.19047619047637" /><line fill="none" stroke="rgb(255,255,0)" stroke-width="2" x1="871.8181818181818" x2="829.7272727272727" y1="114.19047619047637" y2="156.28571428571422" /><circle cx="871.8181818181818" cy="114.19047619047637" fill="rgb(0,255,0)" r="2" /><circle cx="829.7272727272727" cy="156.28571428571422" fill="rgb(0,255,0)" r="2" /><line fill="none" stroke="rgb(255,255,0)" stroke-width="1" x1="850.7727272727273" x2="847.2370115679053" y1="135.2380952380953" y2="131.7027431404005" /><line fill="none" stroke="rgb(255,255,0)" stroke-width="2" x1="829.7272727272727" x2="787.6363636363637" y1="156.28571428571422" y2="240.4761904761906" /><circle cx="829.7272727272727" cy="156.28571428571422" fill="rgb(0,255,0)" r="2" /><circle cx="787.6363636363637" cy="240.4761904761906" fill="rgb(0,255,0)" r="2" /><line fill="none" stroke="rgb(255,255,0)" stroke-width="1" x1="808.6818181818182" x2="804.2095902473048" y1="198.3809523809524" y2="196.14506837193997" /><line fill="none" stroke="rgb(255,255,0)" stroke-width="2" x1="787.6363636363637" x2="787.6363636363637" y1="240.4761904761906" y2="493.04761904761904" /><circle cx="787.6363636363637" cy="240.4761904761906" fill="rgb(0,255,0)" r="2" /><circle cx="787.6363636363637" cy="493.04761904761904" fill="rgb(0,255,0)" r="2" /><line fill="none" stroke="rgb(255,255,0)" stroke-width="1" x1="787.6363636363637" x2="782.6363636363637" y1="366.7619047619048" y2="366.7619047619048" /><line fill="none" stroke="rgb(255,255,0)" stroke-width="2" x1="787.6363636363637" x2="871.8181818181818" y1="493.04761904761904" y2="493.04761904761904" /><circle cx="787.6363636363637" cy="493.04761904761904" fill="rgb(0,255,0)" r="2" /><circle cx="871.8181818181818" cy="493.04761904761904" fill="rgb(0,255,0)" r="2" /><line fill="none" stroke="rgb(255,255,0)" stroke-width="1" x1="829.7272727272727" x2="829.7272727272727" y1="493.04761904761904" y2="498.04761904761904" /><line fill="none" stroke="rgb(255,255,0)" stroke-width="2" x1="871.8181818181818" x2="871.8181818181818" y1="493.04761904761904" y2="787.7142857142858" /><circle cx="871.8181818181818" cy="493.04761904761904" fill="rgb(0,255,0)" r="2" /><circle cx="871.8181818181818" cy="787.7142857142858" fill="rgb(0,255,0)" r="2" /><line fill="none" stroke="rgb(255,255,0)" stroke-width="1" x1="871.8181818181818" x2="866.8181818181818" y1="640.3809523809524" y2="640.3809523809524" /><line fill="none" stroke="rgb(255,255,0)" stroke-width="2" x1="871.8181818181818" x2="871.8181818181818" y1="787.7142857142858" y2="829.8095238095237" /><circle cx="871.8181818181818" cy="787.7142857142858" fill="rgb(0,255,0)" r="2" /><circle cx="871.8181818181818" cy="829.8095238095237" fill="rgb(0,255,0)" r="2" /><line fill="none" stroke="rgb(255,255,0)" stroke-width="1" x1="871.8181818181818" x2="866.8181818181818" y1="808.7619047619048" y2="808.7619047619048" /><line fill="none" stroke="rgb(255,255,0)" stroke-width="2" x1="871.8181818181818" x2="829.7272727272727" y1="829.8095238095237" y2="914.0" /><circle cx="871.8181818181818" cy="829.8095238095237" fill="rgb(0,255,0)" r="2" /><circle cx="829.7272727272727" cy="914.0" fill="rgb(0,255,0)" r="2" /><line fill="none" stroke="rgb(255,255,0)" stroke-width="1" x1="850.7727272727273" x2="846.3004993382139" y1="871.9047619047619" y2="869.6688778957495" /><line fill="none" stroke="rgb(255,255,0)" stroke-width="2" x1="829.7272727272727" x2="577.1818181818182" y1="914.0" y2="914.0" /><circle cx="829.7272727272727" cy="914.0" fill="rgb(0,255,0)" r="2" /><circle cx="577.1818181818182" cy="914.0" fill="rgb(0,255,0)" r="2" /><line fill="none" stroke="rgb(255,255,0)" stroke-width="1" x1="703.4545454545455" x2="703.4545454545455" y1="914.0" y2="909.0" /><line fill="none" stroke="rgb(255,255,0)" stroke-width="2" x1="577.1818181818182" x2="577.1818181818182" y1="914.0" y2="1166.5714285714284" /><circle cx="577.1818181818182" cy="914.0" fill="rgb(0,255,0)" r="2" /><circle cx="577.1818181818182" cy="1166.5714285714284" fill="rgb(0,255,0)" r="2" /><line fill="none" stroke="rgb(255,255,0)" stroke-width="1" x1="577.1818181818182" x2="572.1818181818182" y1="1040.2857142857142" y2="1040.2857142857142" /><line fill="none" stroke="rgb(255,255,0)" stroke-width="2" x1="577.1818181818182" x2="450.9090909090909" y1="1166.5714285714284" y2="1166.5714285714284" /><circle cx="577.1818181818182" cy="1166.5714285714284" fill="rgb(0,255,0)" r="2" /><circle cx="450.9090909090909" cy="1166.5714285714284" fill="rgb(0,255,0)" r="2" /><line fill="none" stroke="rgb(255,255,0)" stroke-width="1" x1="514.0454545454545" x2="514.0454545454545" y1="1166.5714285714284" y2="1161.5714285714284" /><line fill="none" stroke="rgb(255,255,0)" stroke-width="2" x1="450.9090909090909" x2="450.9090909090909" y1="1166.5714285714284" y2="1208.6666666666667" /><circle cx="450.9090909090909" cy="1166.5714285714284" fill="rgb(0,255,0)" r="2" /><circle cx="450.9090909090909" cy="1208.6666666666667" fill="rgb(0,255,0)" r="2" /><line fill="none" stroke="rgb(255,255,0)" stroke-width="1" x1="450.9090909090909" x2="445.9090909090909" y1="1187.6190476190477" y2="1187.6190476190477" /><line fill="none" stroke="rgb(255,255,0)" stroke-width="2" x1="450.9090909090909" x2="535.090909090909" y1="1208.6666666666667" y2="1208.6666666666667" /><circle cx="450.9090909090909" cy="1208.6666666666667" fill="rgb(0,255,0)" r="2" /><circle cx="535.090909090909" cy="1208.6666666666667" fill="rgb(0,255,0)" r="2" /><line fill="none" stroke="rgb(255,255,0)" stroke-width="1" x1="492.99999999999994" x2="492.99999999999994" y1="1208.6666666666667" y2="1213.6666666666667" /><line fill="none" stroke="rgb(255,255,0)" stroke-width="2" x1="535.090909090909" x2="535.090909090909" y1="1208.6666666666667" y2="1377.047619047619" /><circle cx="535.090909090909" cy="1208.6666666666667" fill="rgb(0,255,0)" r="2" /><circle cx="535.090909090909" cy="1377.047619047619" fill="rgb(0,255,0)" r="2" /><line fill="none" stroke="rgb(255,255,0)" stroke-width="1" x1="535.090909090909" x2="530.090909090909" y1="1292.857142857143" y2="1292.857142857143" /><line fill="none" stroke="rgb(255,255,0)" stroke-width="2" x1="535.090909090909" x2="493.0" y1="1377.047619047619" y2="1377.047619047619" /><circle cx="535.090909090909" cy="1377.047619047619" fill="rgb(0,255,0)" r="2" /><circle cx="493.0" cy="1377.047619047619" fill="rgb(0,255,0)" r="2" /><line fill="none" stroke="rgb(255,255,0)" stroke-width="1" x1="514.0454545454545" x2="514.0454545454545" y1="1377.047619047619" y2="1372.047619047619" /><line fill="none" stroke="rgb(255,255,0)" stroke-width="2" x1="493.0" x2="493.0" y1="1377.047619047619" y2="1419.142857142857" /><circle cx="493.0" cy="1377.047619047619" fill="rgb(0,255,0)" r="2" /><circle cx="493.0" cy="1419.142857142857" fill="rgb(0,255,0)" r="2" /><line fill="none" stroke="rgb(255,255,0)" stroke-width="1" x1="493.0" x2="488.0" y1="1398.095238095238" y2="1398.095238095238" /><line fill="none" stroke="rgb(255,255,0)" stroke-width="2" x1="493.0" x2="535.090909090909" y1="1419.142857142857" y2="1419.142857142857" /><circle cx="493.0" cy="1419.142857142857" fill="rgb(0,255,0)" r="2" /><circle cx="535.090909090909" cy="1419.142857142857" fill="rgb(0,255,0)" r="2" /><line fill="none" stroke="rgb(255,255,0)" stroke-width="1" x1="514.0454545454545" x2="514.0454545454545" y1="1419.142857142857" y2="1424.142857142857" /><line fill="none" stroke="rgb(255,255,0)" stroke-width="2" x1="535.090909090909" x2="535.090909090909" y1="1419.142857142857" y2="1545.4285714285716" /><circle cx="535.090909090909" cy="1419.142857142857" fill="rgb(0,255,0)" r="2" /><circle cx="535.090909090909" cy="1545.4285714285716" fill="rgb(0,255,0)" r="2" /><line fill="none" stroke="rgb(255,255,0)" stroke-width="1" x1="535.090909090909" x2="530.090909090909" y1="1482.2857142857142" y2="1482.2857142857142" /><line fill="none" stroke="rgb(255,255,0)" stroke-width="2" x1="535.090909090909" x2="493.0" y1="1545.4285714285716" y2="1545.4285714285716" /><circle cx="535.090909090909" cy="1545.4285714285716" fill="rgb(0,255,0)" r="2" /><circle cx="493.0" cy="1545.4285714285716" fill="rgb(0,255,0)" r="2" /><line fill="none" stroke="rgb(255,255,0)" stroke-width="1" x1="514.0454545454545" x2="514.0454545454545" y1="1545.4285714285716" y2="1540.4285714285716" /><line fill="none" stroke="rgb(255,255,0)" stroke-width="2" x1="493.0" x2="493.0" y1="1545.4285714285716" y2="1798.0" /><circle cx="493.0" cy="1545.4285714285716" fill="rgb(0,255,0)" r="2" /><circle cx="493.0" cy="1798.0" fill="rgb(0,255,0)" r="2" /><line fill="none" stroke="rgb(255,255,0)" stroke-width="1" x1="493.0" x2="488.0" y1="1671.7142857142858" y2="1671.7142857142858" /><line fill="none" stroke="rgb(255,255,0)" stroke-width="2" x1="493.0" x2="324.6363636363636" y1="1798.0" y2="1798.0" /><circle cx="493.0" cy="1798.0" fill="rgb(0,255,0)" r="2" /><circle cx="324.6363636363636" cy="1798.0" fill="rgb(0,255,0)" r="2" /><line fill="none" stroke="rgb(255,255,0)" stroke-width="1" x1="408.8181818181818" x2="408.8181818181818" y1="1798.0" y2="1793.0" /><line fill="none" stroke="rgb(255,255,0)" stroke-width="2" x1="324.6363636363636" x2="324.6363636363636" y1="1798.0" y2="1545.4285714285716" /><circle cx="324.6363636363636" cy="1798.0" fill="rgb(0,255,0)" r="2" /><circle cx="324.6363636363636" cy="1545.4285714285716" fill="rgb(0,255,0)" r="2" /><line fill="none" stroke="rgb(255,255,0)" stroke-width="1" x1="324.6363636363636" x2="329.6363636363636" y1="1671.7142857142858" y2="1671.7142857142858" /><line fill="none" stroke="rgb(255,255,0)" stroke-width="2" x1="324.6363636363636" x2="282.5454545454545" y1="1545.4285714285716" y2="1545.4285714285716" /><circle cx="324.6363636363636" cy="1545.4285714285716" fill="rgb(0,255,0)" r="2" /><circle cx="282.5454545454545" cy="1545.4285714285716" fill="rgb(0,255,0)" r="2" /><line fill="none" stroke="rgb(255,255,0)" stroke-width="1" x1="303.59090909090907" x2="303.59090909090907" y1="1545.4285714285716" y2="1540.4285714285716" /><line fill="none" stroke="rgb(255,255,0)" stroke-width="2" x1="282.5454545454545" x2="282.5454545454545" y1="1545.4285714285716" y2="1419.142857142857" /><circle cx="282.5454545454545" cy="1545.4285714285716" fill="rgb(0,255,0)" r="2" /><circle cx="282.5454545454545" cy="1419.142857142857" fill="rgb(0,255,0)" r="2" /><line fill="none" stroke="rgb(255,255,0)" stroke-width="1" x1="282.5454545454545" x2="287.5454545454545" y1="1482.2857142857142" y2="1482.2857142857142" /><line fill="none" stroke="rgb(255,255,0)" stroke-width="2" x1="282.5454545454545" x2="324.6363636363636" y1="1419.142857142857" y2="1419.142857142857" /><circle cx="282.5454545454545" cy="1419.142857142857" fill="rgb(0,255,0)" r="2" /><circle cx="324.6363636363636" cy="1419.142857142857" fill="rgb(0,255,0)" r="2" /><line fill="none" stroke="rgb(255,255,0)" stroke-width="1" x1="303.59090909090907" x2="303.59090909090907" y1="1419.142857142857" y2="1424.142857142857" /><line fill="none" stroke="rgb(255,255,0)" stroke-width="2" x1="324.6363636363636" x2="324.6363636363636" y1="1419.142857142857" y2="1377.047619047619" /><circle cx="324.6363636363636" cy="1419.142857142857" fill="rgb(0,255,0)" r="2" /><circle cx="324.6363636363636" cy="1377.047619047619" fill="rgb(0,255,0)" r="2" /><line fill="none" stroke="rgb(255,255,0)" stroke-width="1" x1="324.6363636363636" x2="329.6363636363636" y1="1398.095238095238" y2="1398.095238095238" /><line fill="none" stroke="rgb(255,255,0)" stroke-width="2" x1="324.6363636363636" x2="282.5454545454545" y1="1377.047619047619" y2="1377.047619047619" /><circle cx="324.6363636363636" cy="1377.047619047619" fill="rgb(0,255,0)" r="2" /><circle cx="282.5454545454545" cy="1377.047619047619" fill="rgb(0,255,0)" r="2" /><line fill="none" stroke="rgb(255,255,0)" stroke-width="1" x1="303.59090909090907" x2="303.59090909090907" y1="1377.047619047619" y2="1372.047619047619" /><line fill="none" stroke="rgb(255,255,0)" stroke-width="2" x1="282.5454545454545" x2="282.5454545454545" y1="1377.047619047619" y2="1208.6666666666667" /><circle cx="282.5454545454545" cy="1377.047619047619" fill="rgb(0,255,0)" r="2" /><circle cx="282.5454545454545" cy="1208.6666666666667" fill="rgb(0,255,0)" r="2" /><line fill="none" stroke="rgb(255,255,0)" stroke-width="1" x1="282.5454545454545" x2="287.5454545454545" y1="1292.857142857143" y2="1292.857142857143" /><line fill="none" stroke="rgb(255,255,0)" stroke-width="2" x1="282.5454545454545" x2="366.72727272727275" y1="1208.6666666666667" y2="1208.6666666666667" /><circle cx="282.5454545454545" cy="1208.6666666666667" fill="rgb(0,255,0)" r="2" /><circle cx="366.72727272727275" cy="1208.6666666666667" fill="rgb(0,255,0)" r="2" /><line fill="none" stroke="rgb(255,255,0)" stroke-width="1" x1="324.6363636363636" x2="324.6363636363636" y1="1208.6666666666667" y2="1213.6666666666667" /><line fill="none" stroke="rgb(255,255,0)" stroke-width="2" x1="366.72727272727275" x2="366.72727272727275" y1="1208.6666666666667" y2="1166.5714285714284" /><circle cx="366.72727272727275" cy="1208.6666666666667" fill="rgb(0,255,0)" r="2" /><circle cx="366.72727272727275" cy="1166.5714285714284" fill="rgb(0,255,0)" r="2" /><line fill="none" stroke="rgb(255,255,0)" stroke-width="1" x1="366.72727272727275" x2="371.72727272727275" y1="1187.6190476190477" y2="1187.6190476190477" /><line fill="none" stroke="rgb(255,255,0)" stroke-width="2" x1="366.72727272727275" x2="240.45454545454544" y1="1166.5714285714284" y2="1166.5714285714284" /><circle cx="366.72727272727275" cy="1166.5714285714284" fill="rgb(0,255,0)" r="2" /><circle cx="240.45454545454544" cy="1166.5714285714284" fill="rgb(0,255,0)" r="2" /><line fill="none" stroke="rgb(255,255,0)" stroke-width="1" x1="303.5909090909091" x2="303.5909090909091" y1="1166.5714285714284" y2="1161.5714285714284" /><line fill="none" stroke="rgb(255,255,0)" stroke-width="2" x1="240.45454545454544" x2="240.45454545454544" y1="1166.5714285714284" y2="956.0952380952382" /><circle cx="240.45454545454544" cy="1166.5714285714284" fill="rgb(0,255,0)" r="2" /><circle cx="240.45454545454544" cy="956.0952380952382" fill="rgb(0,255,0)" r="2" /><line fill="none" stroke="rgb(255,255,0)" stroke-width="1" x1="240.45454545454544" x2="245.45454545454544" y1="1061.3333333333333" y2="1061.3333333333333" /><line fill="none" stroke="rgb(255,255,0)" stroke-width="2" x1="240.45454545454544" x2="240.45454545454544" y1="956.0952380952382" y2="914.0" /><circle cx="240.45454545454544" cy="956.0952380952382" fill="rgb(0,255,0)" r="2" /><circle cx="240.45454545454544" cy="914.0" fill="rgb(0,255,0)" r="2" /><line fill="none" stroke="rgb(255,255,0)" stroke-width="1" x1="240.45454545454544" x2="245.45454545454544" y1="935.047619047619" y2="935.047619047619" /><line fill="none" stroke="rgb(255,255,0)" stroke-width="2" x1="240.45454545454544" x2="198.36363636363637" y1="914.0" y2="914.0" /><circle cx="240.45454545454544" cy="914.0" fill="rgb(0,255,0)" r="2" /><circle cx="198.36363636363637" cy="914.0" fill="rgb(0,255,0)" r="2" /><line fill="none" stroke="rgb(255,255,0)" stroke-width="1" x1="219.4090909090909" x2="219.4090909090909" y1="914.0" y2="909.0" /><line fill="none" stroke="rgb(255,255,0)" stroke-width="2" x1="198.36363636363637" x2="156.27272727272725" y1="914.0" y2="914.0" /><circle cx="198.36363636363637" cy="914.0" fill="rgb(0,255,0)" r="2" /><circle cx="156.27272727272725" cy="914.0" fill="rgb(0,255,0)" r="2" /><line fill="none" stroke="rgb(255,255,0)" stroke-width="1" x1="177.3181818181818" x2="177.3181818181818" y1="914.0" y2="909.0" /><line fill="none" stroke="rgb(255,255,0)" stroke-width="2" x1="156.27272727272725" x2="114.18181818181819" y1="914.0" y2="914.0" /><circle cx="156.27272727272725" cy="914.0" fill="rgb(0,255,0)" r="2" /><circle cx="114.18181818181819" cy="914.0" fill="rgb(0,255,0)" r="2" /><line fill="none" stroke="rgb(255,255,0)" stroke-width="1" x1="135.22727272727272" x2="135.22727272727272" y1="914.0" y2="909.0" /><line fill="none" stroke="rgb(250,56,35)" stroke-width="2" x1="135.22727272727272" x2="114.18181818181819" y1="587.7619047619048" y2="587.7619047619048" /><circle cx="135.22727272727272" cy="587.7619047619048" fill="rgb(0,255,0)" r="2" /><circle cx="114.18181818181819" cy="587.7619047619048" fill="rgb(0,255,0)" r="2" /><line fill="none" stroke="rgb(250,56,35)" stroke-width="1" x1="124.70454545454545" x2="124.70454545454545" y1="587.7619047619048" y2="582.7619047619048" /><line fill="none" stroke="rgb(250,56,35)" stroke-width="2" x1="114.18181818181819" x2="114.18181818181819" y1="587.7619047619048" y2="608.8095238095236" /><circle cx="114.18181818181819" cy="587.7619047619048" fill="rgb(0,255,0)" r="2" /><circle cx="114.18181818181819" cy="608.8095238095236" fill="rgb(0,255,0)" r="2" /><line fill="none" stroke="rgb(250,56,35)" stroke-width="1" x1="114.18181818181819" x2="109.18181818181819" y1="598.2857142857142" y2="598.2857142857142" /><line fill="none" stroke="rgb(250,56,35)" stroke-width="2" x1="114.18181818181819" x2="135.22727272727272" y1="608.8095238095236" y2="608.8095238095236" /><circle cx="114.18181818181819" cy="608.8095238095236" fill="rgb(0,255,0)" r="2" /><circle cx="135.22727272727272" cy="608.8095238095236" fill="rgb(0,255,0)" r="2" /><line fill="none" stroke="rgb(250,56,35)" stroke-width="1" x1="124.70454545454545" x2="124.70454545454545" y1="608.8095238095236" y2="613.8095238095236" /><line fill="none" stroke="rgb(250,56,35)" stroke-width="2" x1="135.22727272727272" x2="135.22727272727272" y1="608.8095238095236" y2="587.7619047619048" /><circle cx="135.22727272727272" cy="608.8095238095236" fill="rgb(0,255,0)" r="2" /><circle cx="135.22727272727272" cy="587.7619047619048" fill="rgb(0,255,0)" r="2" /><line fill="none" stroke="rgb(250,56,35)" stroke-width="1" x1="135.22727272727272" x2="140.22727272727272" y1="598.2857142857142" y2="598.2857142857142" /><line fill="none" stroke="rgb(250,56,35)" stroke-width="2" x1="240.45454545454544" x2="219.40909090909093" y1="556.1904761904764" y2="556.1904761904764" /><circle cx="240.45454545454544" cy="556.1904761904764" fill="rgb(0,255,0)" r="2" /><circle cx="219.40909090909093" cy="556.1904761904764" fill="rgb(0,255,0)" r="2" /><line fill="none" stroke="rgb(250,56,35)" stroke-width="1" x1="229.9318181818182" x2="229.9318181818182" y1="556.1904761904764" y2="551.1904761904764" /><line fill="none" stroke="rgb(250,56,35)" stroke-width="2" x1="219.40909090909093" x2="219.40909090909093" y1="556.1904761904764" y2="577.2380952380952" /><circle cx="219.40909090909093" cy="556.1904761904764" fill="rgb(0,255,0)" r="2" /><circle cx="219.40909090909093" cy="577.2380952380952" fill="rgb(0,255,0)" r="2" /><line fill="none" stroke="rgb(250,56,35)" stroke-width="1" x1="219.40909090909093" x2="214.40909090909093" y1="566.7142857142858" y2="566.7142857142858" /><line fill="none" stroke="rgb(250,56,35)" stroke-width="2" x1="219.40909090909093" x2="240.45454545454544" y1="577.2380952380952" y2="577.2380952380952" /><circle cx="219.40909090909093" cy="577.2380952380952" fill="rgb(0,255,0)" r="2" /><circle cx="240.45454545454544" cy="577.2380952380952" fill="rgb(0,255,0)" r="2" /><line fill="none" stroke="rgb(250,56,35)" stroke-width="1" x1="229.9318181818182" x2="229.9318181818182" y1="577.2380952380952" y2="582.2380952380952" /><line fill="none" stroke="rgb(250,56,35)" stroke-width="2" x1="240.45454545454544" x2="240.45454545454544" y1="577.2380952380952" y2="556.1904761904764" /><circle cx="240.45454545454544" cy="577.2380952380952" fill="rgb(0,255,0)" r="2" /><circle cx="240.45454545454544" cy="556.1904761904764" fill="rgb(0,255,0)" r="2" /><line fill="none" stroke="rgb(250,56,35)" stroke-width="1" x1="240.45454545454544" x2="245.45454545454544" y1="566.7142857142858" y2="566.7142857142858" /><line fill="none" stroke="rgb(250,56,35)" stroke-width="2" x1="229.9318181818182" x2="208.88636363636363" y1="503.57142857142867" y2="503.57142857142867" /><circle cx="229.9318181818182" cy="503.57142857142867" fill="rgb(0,255,0)" r="2" /><circle cx="208.88636363636363" cy="503.57142857142867" fill="rgb(0,255,0)" r="2" /><line fill="none" stroke="rgb(250,56,35)" stroke-width="1" x1="219.4090909090909" x2="219.4090909090909" y1="503.57142857142867" y2="498.57142857142867" /><line fill="none" stroke="rgb(250,56,35)" stroke-width="2" x1="208.88636363636363" x2="208.88636363636363" y1="503.57142857142867" y2="524.6190476190477" /><circle cx="208.88636363636363" cy="503.57142857142867" fill="rgb(0,255,0)" r="2" /><circle cx="208.88636363636363" cy="524.6190476190477" fill="rgb(0,255,0)" r="2" /><line fill="none" stroke="rgb(250,56,35)" stroke-width="1" x1="208.88636363636363" x2="203.88636363636363" y1="514.0952380952382" y2="514.0952380952382" /><line fill="none" stroke="rgb(250,56,35)" stroke-width="2" x1="208.88636363636363" x2="229.9318181818182" y1="524.6190476190477" y2="524.6190476190477" /><circle cx="208.88636363636363" cy="524.6190476190477" fill="rgb(0,255,0)" r="2" /><circle cx="229.9318181818182" cy="524.6190476190477" fill="rgb(0,255,0)" r="2" /><line fill="none" stroke="rgb(250,56,35)" stroke-width="1" x1="219.4090909090909" x2="219.4090909090909" y1="524.6190476190477" y2="529.6190476190477" /><line fill="none" stroke="rgb(250,56,35)" stroke-width="2" x1="229.9318181818182" x2="229.9318181818182" y1="524.6190476190477" y2="503.57142857142867" /><circle cx="229.9318181818182" cy="524.6190476190477" fill="rgb(0,255,0)" r="2" /><circle cx="229.9318181818182" cy="503.57142857142867" fill="rgb(0,255,0)" r="2" /><line fill="none" stroke="rgb(250,56,35)" stroke-width="1" x1="229.9318181818182" x2="234.9318181818182" y1="514.0952380952382" y2="514.0952380952382" /><line fill="none" stroke="rgb(255,255,0)" stroke-width="2" x1="114.18181818181819" x2="156.27272727272725" y1="474.9829450334821" y2="474.9829450334821" /><circle cx="114.18181818181819" cy="474.9829450334821" fill="rgb(0,255,0)" r="2" /><circle cx="156.27272727272725" cy="474.9829450334821" fill="rgb(0,255,0)" r="2" /><line fill="none" stroke="rgb(255,255,0)" stroke-width="1" x1="135.22727272727272" x2="135.22727272727272" y1="474.9829450334821" y2="479.9829450334821" /><line fill="none" stroke="rgb(255,255,0)" stroke-width="2" x1="156.27272727272725" x2="156.27272727272725" y1="474.9829450334821" y2="469.0170549665179" /><circle cx="156.27272727272725" cy="474.9829450334821" fill="rgb(0,255,0)" r="2" /><circle cx="156.27272727272725" cy="469.0170549665179" fill="rgb(0,255,0)" r="2" /><line fill="none" stroke="rgb(255,255,0)" stroke-width="1" x1="156.27272727272725" x2="161.27272727272725" y1="472.0" y2="472.0" /><line fill="none" stroke="rgb(255,255,0)" stroke-width="2" x1="156.27272727272725" x2="114.18181818181819" y1="469.0170549665179" y2="469.0170549665179" /><circle cx="156.27272727272725" cy="469.0170549665179" fill="rgb(0,255,0)" r="2" /><circle cx="114.18181818181819" cy="469.0170549665179" fill="rgb(0,255,0)" r="2" /><line fill="none" stroke="rgb(255,255,0)" stroke-width="1" x1="135.22727272727272" x2="135.22727272727272" y1="469.0170549665179" y2="464.0170549665179" /><line fill="none" stroke="rgb(255,255,0)" stroke-width="2" x1="198.36363636363637" x2="156.27272727272725" y1="469.0170549665179" y2="469.0170549665179" /><circle cx="198.36363636363637" cy="469.0170549665179" fill="rgb(0,255,0)" r="2" /><circle cx="156.27272727272725" cy="469.0170549665179" fill="rgb(0,255,0)" r="2" /><line fill="none" stroke="rgb(255,255,0)" stroke-width="1" x1="177.3181818181818" x2="177.3181818181818" y1="469.0170549665179" y2="464.0170549665179" /><line fill="none" stroke="rgb(255,255,0)" stroke-width="2" x1="156.27272727272725" x2="156.27272727272725" y1="469.0170549665179" y2="474.9829450334821" /><circle cx="156.27272727272725" cy="469.0170549665179" fill="rgb(0,255,0)" r="2" /><circle cx="156.27272727272725" cy="474.9829450334821" fill="rgb(0,255,0)" r="2" /><line fill="none" stroke="rgb(255,255,0)" stroke-width="1" x1="156.27272727272725" x2="151.27272727272725" y1="472.0" y2="472.0" /><line fill="none" stroke="rgb(255,255,0)" stroke-width="2" x1="156.27272727272725" x2="198.36363636363637" y1="474.9829450334821" y2="474.9829450334821" /><circle cx="156.27272727272725" cy="474.9829450334821" fill="rgb(0,255,0)" r="2" /><circle cx="198.36363636363637" cy="474.9829450334821" fill="rgb(0,255,0)" r="2" /><line fill="none" stroke="rgb(255,255,0)" stroke-width="1" x1="177.3181818181818" x2="177.3181818181818" y1="474.9829450334821" y2="479.9829450334821" /><line fill="none" stroke="rgb(255,255,0)" stroke-width="2" x1="114.18181818181819" x2="72.0909090909091" y1="535.1428571428571" y2="535.1428571428571" /><circle cx="114.18181818181819" cy="535.1428571428571" fill="rgb(0,255,0)" r="2" /><circle cx="72.0909090909091" cy="535.1428571428571" fill="rgb(0,255,0)" r="2" /><line fill="none" stroke="rgb(255,255,0)" stroke-width="1" x1="93.13636363636364" x2="93.13636363636364" y1="535.1428571428571" y2="530.1428571428571" /><line fill="none" stroke="rgb(255,255,0)" stroke-width="2" x1="72.0909090909091" x2="72.0909090909091" y1="535.1428571428571" y2="577.2380952380952" /><circle cx="72.0909090909091" cy="535.1428571428571" fill="rgb(0,255,0)" r="2" /><circle cx="72.0909090909091" cy="577.2380952380952" fill="rgb(0,255,0)" r="2" /><line fill="none" stroke="rgb(255,255,0)" stroke-width="1" x1="72.0909090909091" x2="67.0909090909091" y1="556.1904761904761" y2="556.1904761904761" /><line fill="none" stroke="rgb(255,255,0)" stroke-width="2" x1="72.0909090909091" x2="114.18181818181819" y1="577.2380952380952" y2="577.2380952380952" /><circle cx="72.0909090909091" cy="577.2380952380952" fill="rgb(0,255,0)" r="2" /><circle cx="114.18181818181819" cy="577.2380952380952" fill="rgb(0,255,0)" r="2" /><line fill="none" stroke="rgb(255,255,0)" stroke-width="1" x1="93.13636363636364" x2="93.13636363636364" y1="577.2380952380952" y2="582.2380952380952" /><line fill="none" stroke="rgb(255,255,0)" stroke-width="2" x1="114.18181818181819" x2="114.18181818181819" y1="577.2380952380952" y2="535.1428571428571" /><circle cx="114.18181818181819" cy="577.2380952380952" fill="rgb(0,255,0)" r="2" /><circle cx="114.18181818181819" cy="535.1428571428571" fill="rgb(0,255,0)" r="2" /><line fill="none" stroke="rgb(255,255,0)" stroke-width="1" x1="114.18181818181819" x2="119.18181818181819" y1="556.1904761904761" y2="556.1904761904761" /><line fill="none" stroke="rgb(255,255,0)" stroke-width="2" x1="72.0909090909091" x2="30.0" y1="598.2857142857142" y2="598.2857142857142" /><circle cx="72.0909090909091" cy="598.2857142857142" fill="rgb(0,255,0)" r="2" /><circle cx="30.0" cy="598.2857142857142" fill="rgb(0,255,0)" r="2" /><line fill="none" stroke="rgb(255,255,0)" stroke-width="1" x1="51.04545454545455" x2="51.04545454545455" y1="598.2857142857142" y2="593.2857142857142" /><line fill="none" stroke="rgb(255,255,0)" stroke-width="2" x1="30.0" x2="30.0" y1="598.2857142857142" y2="640.3809523809523" /><circle cx="30.0" cy="598.2857142857142" fill="rgb(0,255,0)" r="2" /><circle cx="30.0" cy="640.3809523809523" fill="rgb(0,255,0)" r="2" /><line fill="none" stroke="rgb(255,255,0)" stroke-width="1" x1="30.0" x2="25.0" y1="619.3333333333333" y2="619.3333333333333" /><line fill="none" stroke="rgb(255,255,0)" stroke-width="2" x1="30.0" x2="72.0909090909091" y1="640.3809523809523" y2="640.3809523809523" /><circle cx="30.0" cy="640.3809523809523" fill="rgb(0,255,0)" r="2" /><circle cx="72.0909090909091" cy="640.3809523809523" fill="rgb(0,255,0)" r="2" /><line fill="none" stroke="rgb(255,255,0)" stroke-width="1" x1="51.04545454545455" x2="51.04545454545455" y1="640.3809523809523" y2="645.3809523809523" /><line fill="none" stroke="rgb(255,255,0)" stroke-width="2" x1="72.0909090909091" x2="72.0909090909091" y1="640.3809523809523" y2="598.2857142857142" /><circle cx="72.0909090909091" cy="640.3809523809523" fill="rgb(0,255,0)" r="2" /><circle cx="72.0909090909091" cy="598.2857142857142" fill="rgb(0,255,0)" r="2" /><line fill="none" stroke="rgb(255,255,0)" stroke-width="1" x1="72.0909090909091" x2="77.0909090909091" y1="619.3333333333333" y2="619.3333333333333" /><line fill="none" stroke="rgb(255,255,0)" stroke-width="2" x1="282.5454545454545" x2="240.45454545454544" y1="577.2380952380952" y2="577.2380952380952" /><circle cx="282.5454545454545" cy="577.2380952380952" fill="rgb(0,255,0)" r="2" /><circle cx="240.45454545454544" cy="577.2380952380952" fill="rgb(0,255,0)" r="2" /><line fill="none" stroke="rgb(255,255,0)" stroke-width="1" x1="261.5" x2="261.5" y1="577.2380952380952" y2="572.2380952380952" /><line fill="none" stroke="rgb(255,255,0)" stroke-width="2" x1="240.45454545454544" x2="240.45454545454544" y1="577.2380952380952" y2="661.4285714285713" /><circle cx="240.45454545454544" cy="577.2380952380952" fill="rgb(0,255,0)" r="2" /><circle cx="240.45454545454544" cy="661.4285714285713" fill="rgb(0,255,0)" r="2" /><line fill="none" stroke="rgb(255,255,0)" stroke-width="1" x1="240.45454545454544" x2="235.45454545454544" y1="619.3333333333333" y2="619.3333333333333" /><line fill="none" stroke="rgb(255,255,0)" stroke-width="2" x1="240.45454545454544" x2="282.5454545454545" y1="661.4285714285713" y2="661.4285714285713" /><circle cx="240.45454545454544" cy="661.4285714285713" fill="rgb(0,255,0)" r="2" /><circle cx="282.5454545454545" cy="661.4285714285713" fill="rgb(0,255,0)" r="2" /><line fill="none" stroke="rgb(255,255,0)" stroke-width="1" x1="261.5" x2="261.5" y1="661.4285714285713" y2="666.4285714285713" /><line fill="none" stroke="rgb(255,255,0)" stroke-width="2" x1="282.5454545454545" x2="282.5454545454545" y1="661.4285714285713" y2="577.2380952380952" /><circle cx="282.5454545454545" cy="661.4285714285713" fill="rgb(0,255,0)" r="2" /><circle cx="282.5454545454545" cy="577.2380952380952" fill="rgb(0,255,0)" r="2" /><line fill="none" stroke="rgb(255,255,0)" stroke-width="1" x1="282.5454545454545" x2="287.5454545454545" y1="619.3333333333333" y2="619.3333333333333" /><line fill="none" stroke="rgb(255,255,0)" stroke-width="2" x1="703.4545454545455" x2="682.409090909091" y1="577.2380952380952" y2="577.2380952380952" /><circle cx="703.4545454545455" cy="577.2380952380952" fill="rgb(0,255,0)" r="2" /><circle cx="682.409090909091" cy="577.2380952380952" fill="rgb(0,255,0)" r="2" /><line fill="none" stroke="rgb(255,255,0)" stroke-width="1" x1="692.9318181818182" x2="692.9318181818182" y1="577.2380952380952" y2="572.2380952380952" /><line fill="none" stroke="rgb(255,255,0)" stroke-width="2" x1="682.409090909091" x2="682.409090909091" y1="577.2380952380952" y2="598.2857142857142" /><circle cx="682.409090909091" cy="577.2380952380952" fill="rgb(0,255,0)" r="2" /><circle cx="682.409090909091" cy="598.2857142857142" fill="rgb(0,255,0)" r="2" /><line fill="none" stroke="rgb(255,255,0)" stroke-width="1" x1="682.409090909091" x2="677.409090909091" y1="587.7619047619047" y2="587.7619047619047" /><line fill="none" stroke="rgb(255,255,0)" stroke-width="2" x1="682.409090909091" x2="703.4545454545455" y1="598.2857142857142" y2="598.2857142857142" /><circle cx="682.409090909091" cy="598.2857142857142" fill="rgb(0,255,0)" r="2" /><circle cx="703.4545454545455" cy="598.2857142857142" fill="rgb(0,255,0)" r="2" /><line fill="none" stroke="rgb(255,255,0)" stroke-width="1" x1="692.9318181818182" x2="692.9318181818182" y1="598.2857142857142" y2="603.2857142857142" /><line fill="none" stroke="rgb(255,255,0)" stroke-width="2" x1="703.4545454545455" x2="703.4545454545455" y1="598.2857142857142" y2="577.2380952380952" /><circle cx="703.4545454545455" cy="598.2857142857142" fill="rgb(0,255,0)" r="2" /><circle cx="703.4545454545455" cy="577.2380952380952" fill="rgb(0,255,0)" r="2" /><line fill="none" stroke="rgb(255,255,0)" stroke-width="1" x1="703.4545454545455" x2="708.4545454545455" y1="587.7619047619047" y2="587.7619047619047" /><line fill="none" stroke="rgb(255,255,0)" stroke-width="2" x1="703.4545454545455" x2="682.409090909091" y1="640.3809523809523" y2="640.3809523809523" /><circle cx="703.4545454545455" cy="640.3809523809523" fill="rgb(0,255,0)" r="2" /><circle cx="682.409090909091" cy="640.3809523809523" fill="rgb(0,255,0)" r="2" /><line fill="none" stroke="rgb(255,255,0)" stroke-width="1" x1="692.9318181818182" x2="692.9318181818182" y1="640.3809523809523" y2="635.3809523809523" /><line fill="none" stroke="rgb(255,255,0)" stroke-width="2" x1="682.409090909091" x2="682.409090909091" y1="640.3809523809523" y2="661.4285714285713" /><circle cx="682.409090909091" cy="640.3809523809523" fill="rgb(0,255,0)" r="2" /><circle cx="682.409090909091" cy="661.4285714285713" fill="rgb(0,255,0)" r="2" /><line fill="none" stroke="rgb(255,255,0)" stroke-width="1" x1="682.409090909091" x2="677.409090909091" y1="650.9047619047618" y2="650.9047619047618" /><line fill="none" stroke="rgb(255,255,0)" stroke-width="2" x1="682.409090909091" x2="703.4545454545455" y1="661.4285714285713" y2="661.4285714285713" /><circle cx="682.409090909091" cy="661.4285714285713" fill="rgb(0,255,0)" r="2" /><circle cx="703.4545454545455" cy="661.4285714285713" fill="rgb(0,255,0)" r="2" /><line fill="none" stroke="rgb(255,255,0)" stroke-width="1" x1="692.9318181818182" x2="692.9318181818182" y1="661.4285714285713" y2="666.4285714285713" /><line fill="none" stroke="rgb(255,255,0)" stroke-width="2" x1="703.4545454545455" x2="703.4545454545455" y1="661.4285714285713" y2="640.3809523809523" /><circle cx="703.4545454545455" cy="661.4285714285713" fill="rgb(0,255,0)" r="2" /><circle cx="703.4545454545455" cy="640.3809523809523" fill="rgb(0,255,0)" r="2" /><line fill="none" stroke="rgb(255,255,0)" stroke-width="1" x1="703.4545454545455" x2="708.4545454545455" y1="650.9047619047618" y2="650.9047619047618" /><line fill="none" stroke="rgb(255,255,0)" stroke-width="2" x1="703.4545454545455" x2="682.409090909091" y1="703.5238095238094" y2="703.5238095238094" /><circle cx="703.4545454545455" cy="703.5238095238094" fill="rgb(0,255,0)" r="2" /><circle cx="682.409090909091" cy="703.5238095238094" fill="rgb(0,255,0)" r="2" /><line fill="none" stroke="rgb(255,255,0)" stroke-width="1" x1="692.9318181818182" x2="692.9318181818182" y1="703.5238095238094" y2="698.5238095238094" /><line fill="none" stroke="rgb(255,255,0)" stroke-width="2" x1="682.409090909091" x2="682.409090909091" y1="703.5238095238094" y2="724.5714285714287" /><circle cx="682.409090909091" cy="703.5238095238094" fill="rgb(0,255,0)" r="2" /><circle cx="682.409090909091" cy="724.5714285714287" fill="rgb(0,255,0)" r="2" /><line fill="none" stroke="rgb(255,255,0)" stroke-width="1" x1="682.409090909091" x2="677.409090909091" y1="714.047619047619" y2="714.047619047619" /><line fill="none" stroke="rgb(255,255,0)" stroke-width="2" x1="682.409090909091" x2="703.4545454545455" y1="724.5714285714287" y2="724.5714285714287" /><circle cx="682.409090909091" cy="724.5714285714287" fill="rgb(0,255,0)" r="2" /><circle cx="703.4545454545455" cy="724.5714285714287" fill="rgb(0,255,0)" r="2" /><line fill="none" stroke="rgb(255,255,0)" stroke-width="1" x1="692.9318181818182" x2="692.9318181818182" y1="724.5714285714287" y2="729.5714285714287" /><line fill="none" stroke="rgb(255,255,0)" stroke-width="2" x1="703.4545454545455" x2="703.4545454545455" y1="724.5714285714287" y2="703.5238095238094" /><circle cx="703.4545454545455" cy="724.5714285714287" fill="rgb(0,255,0)" r="2" /><circle cx="703.4545454545455" cy="703.5238095238094" fill="rgb(0,255,0)" r="2" /><line fill="none" stroke="rgb(255,255,0)" stroke-width="1" x1="703.4545454545455" x2="708.4545454545455" y1="714.047619047619" y2="714.047619047619" /><line fill="none" stroke="rgb(255,255,0)" stroke-width="2" x1="703.4545454545455" x2="682.409090909091" y1="766.6666666666665" y2="766.6666666666665" /><circle cx="703.4545454545455" cy="766.6666666666665" fill="rgb(0,255,0)" r="2" /><circle cx="682.409090909091" cy="766.6666666666665" fill="rgb(0,255,0)" r="2" /><line fill="none" stroke="rgb(255,255,0)" stroke-width="1" x1="692.9318181818182" x2="692.9318181818182" y1="766.6666666666665" y2="761.6666666666665" /><line fill="none" stroke="rgb(255,255,0)" stroke-width="2" x1="682.409090909091" x2="682.409090909091" y1="766.6666666666665" y2="787.7142857142858" /><circle cx="682.409090909091" cy="766.6666666666665" fill="rgb(0,255,0)" r="2" /><circle cx="682.409090909091" cy="787.7142857142858" fill="rgb(0,255,0)" r="2" /><line fill="none" stroke="rgb(255,255,0)" stroke-width="1" x1="682.409090909091" x2="677.409090909091" y1="777.1904761904761" y2="777.1904761904761" /><line fill="none" stroke="rgb(255,255,0)" stroke-width="2" x1="682.409090909091" x2="703.4545454545455" y1="787.7142857142858" y2="787.7142857142858" /><circle cx="682.409090909091" cy="787.7142857142858" fill="rgb(0,255,0)" r="2" /><circle cx="703.4545454545455" cy="787.7142857142858" fill="rgb(0,255,0)" r="2" /><line fill="none" stroke="rgb(255,255,0)" stroke-width="1" x1="692.9318181818182" x2="692.9318181818182" y1="787.7142857142858" y2="792.7142857142858" /><line fill="none" stroke="rgb(255,255,0)" stroke-width="2" x1="703.4545454545455" x2="703.4545454545455" y1="787.7142857142858" y2="766.6666666666665" /><circle cx="703.4545454545455" cy="787.7142857142858" fill="rgb(0,255,0)" r="2" /><circle cx="703.4545454545455" cy="766.6666666666665" fill="rgb(0,255,0)" r="2" /><line fill="none" stroke="rgb(255,255,0)" stroke-width="1" x1="703.4545454545455" x2="708.4545454545455" y1="777.1904761904761" y2="777.1904761904761" /><line fill="none" stroke="rgb(255,255,0)" stroke-width="2" x1="808.6818181818182" x2="787.6363636363637" y1="577.2380952380952" y2="577.2380952380952" /><circle cx="808.6818181818182" cy="577.2380952380952" fill="rgb(0,255,0)" r="2" /><circle cx="787.6363636363637" cy="577.2380952380952" fill="rgb(0,255,0)" r="2" /><line fill="none" stroke="rgb(255,255,0)" stroke-width="1" x1="798.159090909091" x2="798.159090909091" y1="577.2380952380952" y2="572.2380952380952" /><line fill="none" stroke="rgb(255,255,0)" stroke-width="2" x1="787.6363636363637" x2="787.6363636363637" y1="577.2380952380952" y2="598.2857142857142" /><circle cx="787.6363636363637" cy="577.2380952380952" fill="rgb(0,255,0)" r="2" /><circle cx="787.6363636363637" cy="598.2857142857142" fill="rgb(0,255,0)" r="2" /><line fill="none" stroke="rgb(255,255,0)" stroke-width="1" x1="787.6363636363637" x2="782.6363636363637" y1="587.7619047619047" y2="587.7619047619047" /><line fill="none" stroke="rgb(255,255,0)" stroke-width="2" x1="787.6363636363637" x2="808.6818181818182" y1="598.2857142857142" y2="598.2857142857142" /><circle cx="787.6363636363637" cy="598.2857142857142" fill="rgb(0,255,0)" r="2" /><circle cx="808.6818181818182" cy="598.2857142857142" fill="rgb(0,255,0)" r="2" /><line fill="none" stroke="rgb(255,255,0)" stroke-width="1" x1="798.159090909091" x2="798.159090909091" y1="598.2857142857142" y2="603.2857142857142" /><line fill="none" stroke="rgb(255,255,0)" stroke-width="2" x1="808.6818181818182" x2="808.6818181818182" y1="598.2857142857142" y2="577.2380952380952" /><circle cx="808.6818181818182" cy="598.2857142857142" fill="rgb(0,255,0)" r="2" /><circle cx="808.6818181818182" cy="577.2380952380952" fill="rgb(0,255,0)" r="2" /><line fill="none" stroke="rgb(255,255,0)" stroke-width="1" x1="808.6818181818182" x2="813.6818181818182" y1="587.7619047619047" y2="587.7619047619047" /><line fill="none" stroke="rgb(255,255,0)" stroke-width="2" x1="808.6818181818182" x2="787.6363636363637" y1="640.3809523809523" y2="640.3809523809523" /><circle cx="808.6818181818182" cy="640.3809523809523" fill="rgb(0,255,0)" r="2" /><circle cx="787.6363636363637" cy="640.3809523809523" fill="rgb(0,255,0)" r="2" /><line fill="none" stroke="rgb(255,255,0)" stroke-width="1" x1="798.159090909091" x2="798.159090909091" y1="640.3809523809523" y2="635.3809523809523" /><line fill="none" stroke="rgb(255,255,0)" stroke-width="2" x1="787.6363636363637" x2="787.6363636363637" y1="640.3809523809523" y2="661.4285714285713" /><circle cx="787.6363636363637" cy="640.3809523809523" fill="rgb(0,255,0)" r="2" /><circle cx="787.6363636363637" cy="661.4285714285713" fill="rgb(0,255,0)" r="2" /><line fill="none" stroke="rgb(255,255,0)" stroke-width="1" x1="787.6363636363637" x2="782.6363636363637" y1="650.9047619047618" y2="650.9047619047618" /><line fill="none" stroke="rgb(255,255,0)" stroke-width="2" x1="787.6363636363637" x2="808.6818181818182" y1="661.4285714285713" y2="661.4285714285713" /><circle cx="787.6363636363637" cy="661.4285714285713" fill="rgb(0,255,0)" r="2" /><circle cx="808.6818181818182" cy="661.4285714285713" fill="rgb(0,255,0)" r="2" /><line fill="none" stroke="rgb(255,255,0)" stroke-width="1" x1="798.159090909091" x2="798.159090909091" y1="661.4285714285713" y2="666.4285714285713" /><line fill="none" stroke="rgb(255,255,0)" stroke-width="2" x1="808.6818181818182" x2="808.6818181818182" y1="661.4285714285713" y2="640.3809523809523" /><circle cx="808.6818181818182" cy="661.4285714285713" fill="rgb(0,255,0)" r="2" /><circle cx="808.6818181818182" cy="640.3809523809523" fill="rgb(0,255,0)" r="2" /><line fill="none" stroke="rgb(255,255,0)" stroke-width="1" x1="808.6818181818182" x2="813.6818181818182" y1="650.9047619047618" y2="650.9047619047618" /><line fill="none" stroke="rgb(255,255,0)" stroke-width="2" x1="808.6818181818182" x2="787.6363636363637" y1="703.5238095238094" y2="703.5238095238094" /><circle cx="808.6818181818182" cy="703.5238095238094" fill="rgb(0,255,0)" r="2" /><circle cx="787.6363636363637" cy="703.5238095238094" fill="rgb(0,255,0)" r="2" /><line fill="none" stroke="rgb(255,255,0)" stroke-width="1" x1="798.159090909091" x2="798.159090909091" y1="703.5238095238094" y2="698.5238095238094" /><line fill="none" stroke="rgb(255,255,0)" stroke-width="2" x1="787.6363636363637" x2="787.6363636363637" y1="703.5238095238094" y2="724.5714285714287" /><circle cx="787.6363636363637" cy="703.5238095238094" fill="rgb(0,255,0)" r="2" /><circle cx="787.6363636363637" cy="724.5714285714287" fill="rgb(0,255,0)" r="2" /><line fill="none" stroke="rgb(255,255,0)" stroke-width="1" x1="787.6363636363637" x2="782.6363636363637" y1="714.047619047619" y2="714.047619047619" /><line fill="none" stroke="rgb(255,255,0)" stroke-width="2" x1="787.6363636363637" x2="808.6818181818182" y1="724.5714285714287" y2="724.5714285714287" /><circle cx="787.6363636363637" cy="724.5714285714287" fill="rgb(0,255,0)" r="2" /><circle cx="808.6818181818182" cy="724.5714285714287" fill="rgb(0,255,0)" r="2" /><line fill="none" stroke="rgb(255,255,0)" stroke-width="1" x1="798.159090909091" x2="798.159090909091" y1="724.5714285714287" y2="729.5714285714287" /><line fill="none" stroke="rgb(255,255,0)" stroke-width="2" x1="808.6818181818182" x2="808.6818181818182" y1="724.5714285714287" y2="703.5238095238094" /><circle cx="808.6818181818182" cy="724.5714285714287" fill="rgb(0,255,0)" r="2" /><circle cx="808.6818181818182" cy="703.5238095238094" fill="rgb(0,255,0)" r="2" /><line fill="none" stroke="rgb(255,255,0)" stroke-width="1" x1="808.6818181818182" x2="813.6818181818182" y1="714.047619047619" y2="714.047619047619" /><line fill="none" stroke="rgb(255,255,0)" stroke-width="2" x1="808.6818181818182" x2="787.6363636363637" y1="766.6666666666665" y2="766.6666666666665" /><circle cx="808.6818181818182" cy="766.6666666666665" fill="rgb(0,255,0)" r="2" /><circle cx="787.6363636363637" cy="766.6666666666665" fill="rgb(0,255,0)" r="2" /><line fill="none" stroke="rgb(255,255,0)" stroke-width="1" x1="798.159090909091" x2="798.159090909091" y1="766.6666666666665" y2="761.6666666666665" /><line fill="none" stroke="rgb(255,255,0)" stroke-width="2" x1="787.6363636363637" x2="787.6363636363637" y1="766.6666666666665" y2="787.7142857142858" /><circle cx="787.6363636363637" cy="766.6666666666665" fill="rgb(0,255,0)" r="2" /><circle cx="787.6363636363637" cy="787.7142857142858" fill="rgb(0,255,0)" r="2" /><line fill="none" stroke="rgb(255,255,0)" stroke-width="1" x1="787.6363636363637" x2="782.6363636363637" y1="777.1904761904761" y2="777.1904761904761" /><line fill="none" stroke="rgb(255,255,0)" stroke-width="2" x1="787.6363636363637" x2="808.6818181818182" y1="787.7142857142858" y2="787.7142857142858" /><circle cx="787.6363636363637" cy="787.7142857142858" fill="rgb(0,255,0)" r="2" /><circle cx="808.6818181818182" cy="787.7142857142858" fill="rgb(0,255,0)" r="2" /><line fill="none" stroke="rgb(255,255,0)" stroke-width="1" x1="798.159090909091" x2="798.159090909091" y1="787.7142857142858" y2="792.7142857142858" /><line fill="none" stroke="rgb(255,255,0)" stroke-width="2" x1="808.6818181818182" x2="808.6818181818182" y1="787.7142857142858" y2="766.6666666666665" /><circle cx="808.6818181818182" cy="787.7142857142858" fill="rgb(0,255,0)" r="2" /><circle cx="808.6818181818182" cy="766.6666666666665" fill="rgb(0,255,0)" r="2" /><line fill="none" stroke="rgb(255,255,0)" stroke-width="1" x1="808.6818181818182" x2="813.6818181818182" y1="777.1904761904761" y2="777.1904761904761" /><line fill="none" stroke="rgb(255,255,0)" stroke-width="2" x1="450.9090909090909" x2="366.72727272727275" y1="1377.047619047619" y2="1377.047619047619" /><circle cx="450.9090909090909" cy="1377.047619047619" fill="rgb(0,255,0)" r="2" /><circle cx="366.72727272727275" cy="1377.047619047619" fill="rgb(0,255,0)" r="2" /><line fill="none" stroke="rgb(255,255,0)" stroke-width="1" x1="408.8181818181818" x2="408.8181818181818" y1="1377.047619047619" y2="1372.047619047619" /><line fill="none" stroke="rgb(255,255,0)" stroke-width="2" x1="366.72727272727275" x2="366.72727272727275" y1="1377.047619047619" y2="1419.142857142857" /><circle cx="366.72727272727275" cy="1377.047619047619" fill="rgb(0,255,0)" r="2" /><circle cx="366.72727272727275" cy="1419.142857142857" fill="rgb(0,255,0)" r="2" /><line fill="none" stroke="rgb(255,255,0)" stroke-width="1" x1="366.72727272727275" x2="361.72727272727275" y1="1398.095238095238" y2="1398.095238095238" /><line fill="none" stroke="rgb(255,255,0)" stroke-width="2" x1="366.72727272727275" x2="450.9090909090909" y1="1419.142857142857" y2="1419.142857142857" /><circle cx="366.72727272727275" cy="1419.142857142857" fill="rgb(0,255,0)" r="2" /><circle cx="450.9090909090909" cy="1419.142857142857" fill="rgb(0,255,0)" r="2" /><line fill="none" stroke="rgb(255,255,0)" stroke-width="1" x1="408.8181818181818" x2="408.8181818181818" y1="1419.142857142857" y2="1424.142857142857" /><line fill="none" stroke="rgb(255,255,0)" stroke-width="2" x1="450.9090909090909" x2="450.9090909090909" y1="1419.142857142857" y2="1377.047619047619" /><circle cx="450.9090909090909" cy="1419.142857142857" fill="rgb(0,255,0)" r="2" /><circle cx="450.9090909090909" cy="1377.047619047619" fill="rgb(0,255,0)" r="2" /><line fill="none" stroke="rgb(255,255,0)" stroke-width="1" x1="450.9090909090909" x2="455.9090909090909" y1="1398.095238095238" y2="1398.095238095238" /><line fill="none" stroke="rgb(250,56,35)" stroke-width="2" x1="356.2045454545455" x2="335.1590909090909" y1="1050.8095238095239" y2="1050.8095238095239" /><circle cx="356.2045454545455" cy="1050.8095238095239" fill="rgb(0,255,0)" r="2" /><circle cx="335.1590909090909" cy="1050.8095238095239" fill="rgb(0,255,0)" r="2" /><line fill="none" stroke="rgb(250,56,35)" stroke-width="1" x1="345.6818181818182" x2="345.6818181818182" y1="1050.8095238095239" y2="1045.8095238095239" /><line fill="none" stroke="rgb(250,56,35)" stroke-width="2" x1="335.1590909090909" x2="335.1590909090909" y1="1050.8095238095239" y2="1071.857142857143" /><circle cx="335.1590909090909" cy="1050.8095238095239" fill="rgb(0,255,0)" r="2" /><circle cx="335.1590909090909" cy="1071.857142857143" fill="rgb(0,255,0)" r="2" /><line fill="none" stroke="rgb(250,56,35)" stroke-width="1" x1="335.1590909090909" x2="330.1590909090909" y1="1061.3333333333335" y2="1061.3333333333335" /><line fill="none" stroke="rgb(250,56,35)" stroke-width="2" x1="335.1590909090909" x2="356.2045454545455" y1="1071.857142857143" y2="1071.857142857143" /><circle cx="335.1590909090909" cy="1071.857142857143" fill="rgb(0,255,0)" r="2" /><circle cx="356.2045454545455" cy="1071.857142857143" fill="rgb(0,255,0)" r="2" /><line fill="none" stroke="rgb(250,56,35)" stroke-width="1" x1="345.6818181818182" x2="345.6818181818182" y1="1071.857142857143" y2="1076.857142857143" /><line fill="none" stroke="rgb(250,56,35)" stroke-width="2" x1="356.2045454545455" x2="356.2045454545455" y1="1071.857142857143" y2="1050.8095238095239" /><circle cx="356.2045454545455" cy="1071.857142857143" fill="rgb(0,255,0)" r="2" /><circle cx="356.2045454545455" cy="1050.8095238095239" fill="rgb(0,255,0)" r="2" /><line fill="none" stroke="rgb(250,56,35)" stroke-width="1" x1="356.2045454545455" x2="361.2045454545455" y1="1061.3333333333335" y2="1061.3333333333335" /><line fill="none" stroke="rgb(250,56,35)" stroke-width="2" x1="356.2045454545455" x2="335.1590909090909" y1="1092.904761904762" y2="1092.904761904762" /><circle cx="356.2045454545455" cy="1092.904761904762" fill="rgb(0,255,0)" r="2" /><circle cx="335.1590909090909" cy="1092.904761904762" fill="rgb(0,255,0)" r="2" /><line fill="none" stroke="rgb(250,56,35)" stroke-width="1" x1="345.6818181818182" x2="345.6818181818182" y1="1092.904761904762" y2="1087.904761904762" /><line fill="none" stroke="rgb(250,56,35)" stroke-width="2" x1="335.1590909090909" x2="335.1590909090909" y1="1092.904761904762" y2="1113.952380952381" /><circle cx="335.1590909090909" cy="1092.904761904762" fill="rgb(0,255,0)" r="2" /><circle cx="335.1590909090909" cy="1113.952380952381" fill="rgb(0,255,0)" r="2" /><line fill="none" stroke="rgb(250,56,35)" stroke-width="1" x1="335.1590909090909" x2="330.1590909090909" y1="1103.4285714285716" y2="1103.4285714285716" /><line fill="none" stroke="rgb(250,56,35)" stroke-width="2" x1="335.1590909090909" x2="356.2045454545455" y1="1113.952380952381" y2="1113.952380952381" /><circle cx="335.1590909090909" cy="1113.952380952381" fill="rgb(0,255,0)" r="2" /><circle cx="356.2045454545455" cy="1113.952380952381" fill="rgb(0,255,0)" r="2" /><line fill="none" stroke="rgb(250,56,35)" stroke-width="1" x1="345.6818181818182" x2="345.6818181818182" y1="1113.952380952381" y2="1118.952380952381" /><line fill="none" stroke="rgb(250,56,35)" stroke-width="2" x1="356.2045454545455" x2="356.2045454545455" y1="1113.952380952381" y2="1092.904761904762" /><circle cx="356.2045454545455" cy="1113.952380952381" fill="rgb(0,255,0)" r="2" /><circle cx="356.2045454545455" cy="1092.904761904762" fill="rgb(0,255,0)" r="2" /><line fill="none" stroke="rgb(250,56,35)" stroke-width="1" x1="356.2045454545455" x2="361.2045454545455" y1="1103.4285714285716" y2="1103.4285714285716" /><line fill="none" stroke="rgb(250,56,35)" stroke-width="2" x1="482.47727272727275" x2="461.43181818181813" y1="1040.2857142857142" y2="1040.2857142857142" /><circle cx="482.47727272727275" cy="1040.2857142857142" fill="rgb(0,255,0)" r="2" /><circle cx="461.43181818181813" cy="1040.2857142857142" fill="rgb(0,255,0)" r="2" /><line fill="none" stroke="rgb(250,56,35)" stroke-width="1" x1="471.95454545454544" x2="471.95454545454544" y1="1040.2857142857142" y2="1035.2857142857142" /><line fill="none" stroke="rgb(250,56,35)" stroke-width="2" x1="461.43181818181813" x2="461.43181818181813" y1="1040.2857142857142" y2="1061.3333333333333" /><circle cx="461.43181818181813" cy="1040.2857142857142" fill="rgb(0,255,0)" r="2" /><circle cx="461.43181818181813" cy="1061.3333333333333" fill="rgb(0,255,0)" r="2" /><line fill="none" stroke="rgb(250,56,35)" stroke-width="1" x1="461.43181818181813" x2="456.43181818181813" y1="1050.8095238095239" y2="1050.8095238095239" /><line fill="none" stroke="rgb(250,56,35)" stroke-width="2" x1="461.43181818181813" x2="482.47727272727275" y1="1061.3333333333333" y2="1061.3333333333333" /><circle cx="461.43181818181813" cy="1061.3333333333333" fill="rgb(0,255,0)" r="2" /><circle cx="482.47727272727275" cy="1061.3333333333333" fill="rgb(0,255,0)" r="2" /><line fill="none" stroke="rgb(250,56,35)" stroke-width="1" x1="471.95454545454544" x2="471.95454545454544" y1="1061.3333333333333" y2="1066.3333333333333" /><line fill="none" stroke="rgb(250,56,35)" stroke-width="2" x1="482.47727272727275" x2="482.47727272727275" y1="1061.3333333333333" y2="1040.2857142857142" /><circle cx="482.47727272727275" cy="1061.3333333333333" fill="rgb(0,255,0)" r="2" /><circle cx="482.47727272727275" cy="1040.2857142857142" fill="rgb(0,255,0)" r="2" /><line fill="none" stroke="rgb(250,56,35)" stroke-width="1" x1="482.47727272727275" x2="487.47727272727275" y1="1050.8095238095239" y2="1050.8095238095239" /><line fill="none" stroke="rgb(250,56,35)" stroke-width="2" x1="482.47727272727275" x2="461.43181818181813" y1="1092.904761904762" y2="1092.904761904762" /><circle cx="482.47727272727275" cy="1092.904761904762" fill="rgb(0,255,0)" r="2" /><circle cx="461.43181818181813" cy="1092.904761904762" fill="rgb(0,255,0)" r="2" /><line fill="none" stroke="rgb(250,56,35)" stroke-width="1" x1="471.95454545454544" x2="471.95454545454544" y1="1092.904761904762" y2="1087.904761904762" /><line fill="none" stroke="rgb(250,56,35)" stroke-width="2" x1="461.43181818181813" x2="461.43181818181813" y1="1092.904761904762" y2="1113.952380952381" /><circle cx="461.43181818181813" cy="1092.904761904762" fill="rgb(0,255,0)" r="2" /><circle cx="461.43181818181813" cy="1113.952380952381" fill="rgb(0,255,0)" r="2" /><line fill="none" stroke="rgb(250,56,35)" stroke-width="1" x1="461.43181818181813" x2="456.43181818181813" y1="1103.4285714285716" y2="1103.4285714285716" /><line fill="none" stroke="rgb(250,56,35)" stroke-width="2" x1="461.43181818181813" x2="482.47727272727275" y1="1113.952380952381" y2="1113.952380952381" /><circle cx="461.43181818181813" cy="1113.952380952381" fill="rgb(0,255,0)" r="2" /><circle cx="482.47727272727275" cy="1113.952380952381" fill="rgb(0,255,0)" r="2" /><line fill="none" stroke="rgb(250,56,35)" stroke-width="1" x1="471.95454545454544" x2="471.95454545454544" y1="1113.952380952381" y2="1118.952380952381" /><line fill="none" stroke="rgb(250,56,35)" stroke-width="2" x1="482.47727272727275" x2="482.47727272727275" y1="1113.952380952381" y2="1092.904761904762" /><circle cx="482.47727272727275" cy="1113.952380952381" fill="rgb(0,255,0)" r="2" /><circle cx="482.47727272727275" cy="1092.904761904762" fill="rgb(0,255,0)" r="2" /><line fill="none" stroke="rgb(250,56,35)" stroke-width="1" x1="482.47727272727275" x2="487.47727272727275" y1="1103.4285714285716" y2="1103.4285714285716" /><circle cx="156.27272727272725" cy="535.1428571428571" fill="rgb(255,0,0)" r="4" /><text fill="black" font-family="sans-serif" font-size="12" x="156.27272727272725" y="535.1428571428571">32</text><circle cx="156.27272727272725" cy="366.7619047619048" fill="rgb(255,0,0)" r="4" /><text fill="black" font-family="sans-serif" font-size="12" x="156.27272727272725" y="366.7619047619048">33</text><circle cx="408.81818181818187" cy="1082.3809523809523" fill="rgb(255,0,0)" r="4" /><text fill="black" font-family="sans-serif" font-size="12" x="408.81818181818187" y="1082.3809523809523">34</text><circle cx="408.81818181818187" cy="1292.857142857143" fill="rgb(255,0,0)" r="4" /><text fill="black" font-family="sans-serif" font-size="12" x="408.81818181818187" y="1292.857142857143">35</text><circle cx="756.0681818181818" cy="619.3333333333335" fill="rgb(255,0,0)" r="4" /><text fill="black" font-family="sans-serif" font-size="12" x="756.0681818181818" y="619.3333333333335">36</text><circle cx="735.0227272727273" cy="745.6190476190477" fill="rgb(255,0,0)" r="4" /><text fill="black" font-family="sans-serif" font-size="12" x="735.0227272727273" y="745.6190476190477">37</text><circle cx="208.88636363636363" cy="598.2857142857142" fill="rgb(255,0,0)" r="4" /><text fill="black" font-family="sans-serif" font-size="12" x="208.88636363636363" y="598.2857142857142">38</text><circle cx="114.18181818181819" cy="650.9047619047619" fill="rgb(255,0,0)" r="4" /><text fill="black" font-family="sans-serif" font-size="12" x="114.18181818181819" y="650.9047619047619">39</text><circle cx="745.5454545454545" cy="219.42857142857133" fill="rgb(255,0,0)" r="4" /><text fill="black" font-family="sans-serif" font-size="12" x="745.5454545454545" y="219.42857142857133">40</text><circle cx="861.2954545454545" cy="93.14285714285711" fill="rgb(255,0,0)" r="4" /><text fill="black" font-family="sans-serif" font-size="12" x="861.2954545454545" y="93.14285714285711">41</text><circle cx="787.6363636363637" cy="145.76190476190482" fill="rgb(255,0,0)" r="4" /><text fill="black" font-family="sans-serif" font-size="12" x="787.6363636363637" y="145.76190476190482">42</text><circle cx="293.06818181818187" cy="1313.904761904762" fill="rgb(255,0,0)" r="4" /><text fill="black" font-family="sans-serif" font-size="12" x="293.06818181818187" y="1313.904761904762">66</text><circle cx="293.06818181818187" cy="1356.0" fill="rgb(255,0,0)" r="4" /><text fill="black" font-family="sans-serif" font-size="12" x="293.06818181818187" y="1356.0">67</text><circle cx="293.06818181818187" cy="1482.2857142857142" fill="rgb(255,0,0)" r="4" /><text fill="black" font-family="sans-serif" font-size="12" x="293.06818181818187" y="1482.2857142857142">68</text><circle cx="293.06818181818187" cy="1524.3809523809523" fill="rgb(255,0,0)" r="4" /><text fill="black" font-family="sans-serif" font-size="12" x="293.06818181818187" y="1524.3809523809523">69</text><circle cx="524.5681818181818" cy="1313.904761904762" fill="rgb(255,0,0)" r="4" /><text fill="black" font-family="sans-serif" font-size="12" x="524.5681818181818" y="1313.904761904762">70</text><circle cx="524.5681818181818" cy="1356.0" fill="rgb(255,0,0)" r="4" /><text fill="black" font-family="sans-serif" font-size="12" x="524.5681818181818" y="1356.0">71</text><circle cx="524.5681818181818" cy="1482.2857142857142" fill="rgb(255,0,0)" r="4" /><text fill="black" font-family="sans-serif" font-size="12" x="524.5681818181818" y="1482.2857142857142">72</text><circle cx="524.5681818181818" cy="1524.3809523809523" fill="rgb(255,0,0)" r="4" /><text fill="black" font-family="sans-serif" font-size="12" x="524.5681818181818" y="1524.3809523809523">73</text><circle cx="135.22727272727272" cy="429.9047619047619" fill="rgb(255,0,0)" r="4" /><text fill="black" font-family="sans-serif" font-size="12" x="135.22727272727272" y="429.9047619047619">74</text><circle cx="156.27272727272725" cy="303.6190476190477" fill="rgb(255,0,0)" r="4" /><text fill="black" font-family="sans-serif" font-size="12" x="156.27272727272725" y="303.6190476190477">75</text><circle cx="366.72727272727275" cy="1229.7142857142858" fill="rgb(255,0,0)" r="4" /><text fill="black" font-family="sans-serif" font-size="12" x="366.72727272727275" y="1229.7142857142858">76</text><circle cx="482.47727272727275" cy="1145.5238095238096" fill="rgb(255,0,0)" r="4" /><text fill="black" font-family="sans-serif" font-size="12" x="482.47727272727275" y="1145.5238095238096">77</text><circle cx="471.9545454545455" cy="1398.095238095238" fill="rgb(255,0,0)" r="4" /><text fill="black" font-family="sans-serif" font-size="12" x="471.9545454545455" y="1398.095238095238">78</text><circle cx="777.1136363636363" cy="166.80952380952363" fill="rgb(255,0,0)" r="4" /><text fill="black" font-family="sans-serif" font-size="12" x="777.1136363636363" y="166.80952380952363">79</text><circle cx="829.7272727272727" cy="93.14285714285711" fill="rgb(255,0,0)" r="4" /><text fill="black" font-family="sans-serif" font-size="12" x="829.7272727272727" y="93.14285714285711">80</text><line fill="none" stroke="rgb(69,69,69)" stroke-width="0.5" x1="108.10350452769887" x2="108.10350452769887" y1="520.1741768973213" y2="423.82582310267867" /><line fill="none" stroke="rgb(69,69,69)" stroke-width="0.5" x1="108.10350452769887" x2="204.4419500177557" y1="423.82582310267867" y2="423.82582310267867" /><line fill="none" stroke="rgb(69,69,69)" stroke-width="0.5" x1="204.4419500177557" x2="204.4419500177557" y1="423.82582310267867" y2="520.1741768973213" /><line fill="none" stroke="rgb(69,69,69)" stroke-width="0.5" x1="204.4419500177557" x2="108.10350452769887" y1="520.1741768973213" y2="520.1741768973213" /><line fill="none" stroke="rgb(69,69,69)" stroke-width="0.5" x1="108.10350452769887" x2="108.10350452769887" y1="520.1741768973213" y2="423.82582310267867" /><line fill="none" stroke="rgb(69,69,69)" stroke-width="0.5" x1="108.10350452769887" x2="204.4419500177557" y1="423.82582310267867" y2="423.82582310267867" /><line fill="none" stroke="rgb(69,69,69)" stroke-width="0.5" x1="204.4419500177557" x2="204.4419500177557" y1="423.82582310267867" y2="520.1741768973213" /><line fill="none" stroke="rgb(69,69,69)" stroke-width="0.5" x1="204.4419500177557" x2="108.10350452769887" y1="520.1741768973213" y2="520.1741768973213" /></svg>