<?xml version="1.0" encoding="utf-8" ?>
<svg baseProfile="full" height="1799" version="1.1" width="1002" xmlns="http://www.w3.org/2000/svg" xmlns:ev="http://www.w3.org/2001/xml-events" xmlns:xlink="http://www.w3.org/1999/xlink"><defs /><rect fill="rgb(73,109,137)" fill-opacity="1" height="1799" width="1002" x="0" y="0" /><line fill="none" stroke="rgb(255,255,0)" stroke-width="2" x1="30.0" x2="30.0" y1="1696.5416666666667" y2="1624.0833333333333" /><circle cx="30.0" cy="1696.5416666666667" fill="rgb(0,255,0)" r="2" /><circle cx="30.0" cy="1624.0833333333333" fill="rgb(0,255,0)" r="2" /><line fill="none" stroke="rgb(255,255,0)" stroke-width="1" x1="30.0" x2="35.0" y1="1660.3125" y2="1660.3125" /><text fill="black" font-family="sans-serif" font-size="12" x="22.0" y="1664.3125">0</text><line fill="none" stroke="rgb(255,255,0)" stroke-width="2" x1="30.0" x2="102.46153846153847" y1="1624.0833333333333" y2="1624.0833333333333" /><circle cx="30.0" cy="1624.0833333333333" fill="rgb(0,255,0)" r="2" /><circle cx="102.46153846153847" cy="1624.0833333333333" fill="rgb(0,255,0)" r="2" /><line fill="none" stroke="rgb(255,255,0)" stroke-width="1" x1="66.23076923076923" x2="66.23076923076923" y1="1624.0833333333333" y2="1629.0833333333333" /><text fill="black" font-family="sans-serif" font-size="12" x="58.230769230769226" y="1628.0833333333333">1</text><line fill="none" stroke="rgb(255,255,0)" stroke-width="2" x1="102.46153846153847" x2="247.3846153846154" y1="1624.0833333333333" y2="1624.0833333333333" /><circle cx="102.46153846153847" cy="1624.0833333333333" fill="rgb(0,255,0)" r="2" /><circle cx="247.3846153846154" cy="1624.0833333333333" fill="rgb(0,255,0)" r="2" /><line fill="none" stroke="rgb(255,255,0)" stroke-width="1" x1="174.92307692307693" x2="174.92307692307693" y1="1624.0833333333333" y2="1629.0833333333333" /><text fill="black" font-family="sans-serif" font-size="12" x="166.92307692307693" y="1628.0833333333333">2</text><line fill="none" stroke="rgb(255,255,0)" stroke-width="2" x1="247.3846153846154" x2="247.3846153846154" y1="1624.0833333333333" y2="1696.5416666666667" /><circle cx="247.3846153846154" cy="1624.0833333333333" fill="rgb(0,255,0)" r="2" /><circle cx="247.3846153846154" cy="1696.5416666666667" fill="rgb(0,255,0)" r="2" /><line fill="none" stroke="rgb(255,255,0)" stroke-width="1" x1="247.3846153846154" x2="242.3846153846154" y1="1660.3125" y2="1660.3125" /><text fill="black" font-family="sans-serif" font-size="12" x="239.3846153846154" y="1664.3125">3</text><line fill="none" stroke="rgb(255,255,0)" stroke-width="2" x1="247.3846153846154" x2="319.84615384615387" y1="1696.5416666666667" y2="1696.5416666666667" /><circle cx="247.3846153846154" cy="1696.5416666666667" fill="rgb(0,255,0)" r="2" /><circle cx="319.84615384615387" cy="1696.5416666666667" fill="rgb(0,255,0)" r="2" /><line fill="none" stroke="rgb(255,255,0)" stroke-width="1" x1="283.61538461538464" x2="283.61538461538464" y1="1696.5416666666667" y2="1701.5416666666667" /><text fill="black" font-family="sans-serif" font-size="12" x="275.61538461538464" y="1700.5416666666667">4</text><line fill="none" stroke="rgb(255,255,0)" stroke-width="2" x1="319.84615384615387" x2="319.84615384615387" y1="1696.5416666666667" y2="1624.0833333333333" /><circle cx="319.84615384615387" cy="1696.5416666666667" fill="rgb(0,255,0)" r="2" /><circle cx="319.84615384615387" cy="1624.0833333333333" fill="rgb(0,255,0)" r="2" /><line fill="none" stroke="rgb(255,255,0)" stroke-width="1" x1="319.84615384615387" x2="324.84615384615387" y1="1660.3125" y2="1660.3125" /><text fill="black" font-family="sans-serif" font-size="12" x="311.84615384615387" y="1664.3125">5</text><line fill="none" stroke="rgb(255,255,0)" stroke-width="2" x1="319.84615384615387" x2="319.84615384615387" y1="1624.0833333333333" y2="1551.625" /><circle cx="319.84615384615387" cy="1624.0833333333333" fill="rgb(0,255,0)" r="2" /><circle cx="319.84615384615387" cy="1551.625" fill="rgb(0,255,0)" r="2" /><line fill="none" stroke="rgb(255,255,0)" stroke-width="1" x1="319.84615384615387" x2="324.84615384615387" y1="1587.8541666666665" y2="1587.8541666666665" /><text fill="black" font-family="sans-serif" font-size="12" x="311.84615384615387" y="1591.8541666666665">6</text><line fill="none" stroke="rgb(255,255,0)" stroke-width="2" x1="319.84615384615387" x2="247.3846153846154" y1="1551.625" y2="1551.625" /><circle cx="319.84615384615387" cy="1551.625" fill="rgb(0,255,0)" r="2" /><circle cx="247.3846153846154" cy="1551.625" fill="rgb(0,255,0)" r="2" /><line fill="none" stroke="rgb(255,255,0)" stroke-width="1" x1="283.61538461538464" x2="283.61538461538464" y1="1551.625" y2="1546.625" /><text fill="black" font-family="sans-serif" font-size="12" x="275.61538461538464" y="1555.625">7</text><line fill="none" stroke="rgb(255,255,0)" stroke-width="2" x1="247.3846153846154" x2="247.3846153846154" y1="1551.625" y2="1479.1666666666667" /><circle cx="247.3846153846154" cy="1551.625" fill="rgb(0,255,0)" r="2" /><circle cx="247.3846153846154" cy="1479.1666666666667" fill="rgb(0,255,0)" r="2" /><line fill="none" stroke="rgb(255,255,0)" stroke-width="1" x1="247.3846153846154" x2="252.3846153846154" y1="1515.3958333333335" y2="1515.3958333333335" /><text fill="black" font-family="sans-serif" font-size="12" x="239.3846153846154" y="1519.3958333333335">8</text><line fill="none" stroke="rgb(255,255,0)" stroke-width="2" x1="247.3846153846154" x2="247.3846153846154" y1="1479.1666666666667" y2="1406.7083333333333" /><circle cx="247.3846153846154" cy="1479.1666666666667" fill="rgb(0,255,0)" r="2" /><circle cx="247.3846153846154" cy="1406.7083333333333" fill="rgb(0,255,0)" r="2" /><line fill="none" stroke="rgb(255,255,0)" stroke-width="1" x1="247.3846153846154" x2="252.3846153846154" y1="1442.9375" y2="1442.9375" /><text fill="black" font-family="sans-serif" font-size="12" x="239.3846153846154" y="1446.9375">9</text><line fill="none" stroke="rgb(255,255,0)" stroke-width="2" x1="247.3846153846154" x2="247.3846153846154" y1="1406.7083333333333" y2="1334.25" /><circle cx="247.3846153846154" cy="1406.7083333333333" fill="rgb(0,255,0)" r="2" /><circle cx="247.3846153846154" cy="1334.25" fill="rgb(0,255,0)" r="2" /><line fill="none" stroke="rgb(255,255,0)" stroke-width="1" x1="247.3846153846154" x2="252.3846153846154" y1="1370.4791666666665" y2="1370.4791666666665" /><text fill="black" font-family="sans-serif" font-size="12" x="239.3846153846154" y="1374.4791666666665">10</text><line fill="none" stroke="rgb(255,255,0)" stroke-width="2" x1="247.3846153846154" x2="247.3846153846154" y1="1334.25" y2="1261.7916666666665" /><circle cx="247.3846153846154" cy="1334.25" fill="rgb(0,255,0)" r="2" /><circle cx="247.3846153846154" cy="1261.7916666666665" fill="rgb(0,255,0)" r="2" /><line fill="none" stroke="rgb(255,255,0)" stroke-width="1" x1="247.3846153846154" x2="252.3846153846154" y1="1298.0208333333333" y2="1298.0208333333333" /><text fill="black" font-family="sans-serif" font-size="12" x="239.3846153846154" y="1302.0208333333333">11</text><line fill="none" stroke="rgb(255,255,0)" stroke-width="2" x1="247.3846153846154" x2="247.3846153846154" y1="1261.7916666666665" y2="1044.4166666666665" /><circle cx="247.3846153846154" cy="1261.7916666666665" fill="rgb(0,255,0)" r="2" /><circle cx="247.3846153846154" cy="1044.4166666666665" fill="rgb(0,255,0)" r="2" /><line fill="none" stroke="rgb(255,255,0)" stroke-width="1" x1="247.3846153846154" x2="252.3846153846154" y1="1153.1041666666665" y2="1153.1041666666665" /><text fill="black" font-family="sans-serif" font-size="12" x="239.3846153846154" y="1157.1041666666665">12</text><line fill="none" stroke="rgb(255,255,0)" stroke-width="2" x1="247.3846153846154" x2="319.84615384615387" y1="1044.4166666666665" y2="1044.4166666666665" /><circle cx="247.3846153846154" cy="1044.4166666666665" fill="rgb(0,255,0)" r="2" /><circle cx="319.84615384615387" cy="1044.4166666666665" fill="rgb(0,255,0)" r="2" /><line fill="none" stroke="rgb(255,255,0)" stroke-width="1" x1="283.61538461538464" x2="283.61538461538464" y1="1044.4166666666665" y2="1049.4166666666665" /><text fill="black" font-family="sans-serif" font-size="12" x="275.61538461538464" y="1048.4166666666665">13</text><line fill="none" stroke="rgb(10,99,207)" stroke-width="2" x1="319.84615384615387" x2="392.3076923076923" y1="1044.4166666666665" y2="1044.4166666666665" /><circle cx="319.84615384615387" cy="1044.4166666666665" fill="rgb(0,255,0)" r="2" /><circle cx="392.3076923076923" cy="1044.4166666666665" fill="rgb(0,255,0)" r="2" /><line fill="none" stroke="rgb(10,99,207)" stroke-width="1" x1="356.0769230769231" x2="356.0769230769231" y1="1044.4166666666665" y2="1049.4166666666665" /><text fill="black" font-family="sans-serif" font-size="12" x="348.0769230769231" y="1048.4166666666665">14</text><line fill="none" stroke="rgb(255,255,0)" stroke-width="2" x1="392.3076923076923" x2="464.7692307692308" y1="1044.4166666666665" y2="1044.4166666666665" /><circle cx="392.3076923076923" cy="1044.4166666666665" fill="rgb(0,255,0)" r="2" /><circle cx="464.7692307692308" cy="1044.4166666666665" fill="rgb(0,255,0)" r="2" /><line fill="none" stroke="rgb(255,255,0)" stroke-width="1" x1="428.53846153846155" x2="428.53846153846155" y1="1044.4166666666665" y2="1049.4166666666665" /><text fill="black" font-family="sans-serif" font-size="12" x="420.53846153846155" y="1048.4166666666665">15</text><line fill="none" stroke="rgb(255,255,0)" stroke-width="2" x1="464.7692307692308" x2="464.7692307692308" y1="1044.4166666666665" y2="971.9583333333334" /><circle cx="464.7692307692308" cy="1044.4166666666665" fill="rgb(0,255,0)" r="2" /><circle cx="464.7692307692308" cy="971.9583333333334" fill="rgb(0,255,0)" r="2" /><line fill="none" stroke="rgb(255,255,0)" stroke-width="1" x1="464.7692307692308" x2="469.7692307692308" y1="1008.1875" y2="1008.1875" /><text fill="black" font-family="sans-serif" font-size="12" x="456.7692307692308" y="1012.1875">16</text><line fill="none" stroke="rgb(255,255,0)" stroke-width="2" x1="464.7692307692308" x2="392.3076923076923" y1="971.9583333333334" y2="971.9583333333334" /><circle cx="464.7692307692308" cy="971.9583333333334" fill="rgb(0,255,0)" r="2" /><circle cx="392.3076923076923" cy="971.9583333333334" fill="rgb(0,255,0)" r="2" /><line fill="none" stroke="rgb(255,255,0)" stroke-width="1" x1="428.53846153846155" x2="428.53846153846155" y1="971.9583333333334" y2="966.9583333333334" /><text fill="black" font-family="sans-serif" font-size="12" x="420.53846153846155" y="975.9583333333334">17</text><line fill="none" stroke="rgb(255,255,0)" stroke-width="2" x1="392.3076923076923" x2="319.84615384615387" y1="971.9583333333334" y2="971.9583333333334" /><circle cx="392.3076923076923" cy="971.9583333333334" fill="rgb(0,255,0)" r="2" /><circle cx="319.84615384615387" cy="971.9583333333334" fill="rgb(0,255,0)" r="2" /><line fill="none" stroke="rgb(255,255,0)" stroke-width="1" x1="356.0769230769231" x2="356.0769230769231" y1="971.9583333333334" y2="966.9583333333334" /><text fill="black" font-family="sans-serif" font-size="12" x="348.0769230769231" y="975.9583333333334">18</text><line fill="none" stroke="rgb(255,255,0)" stroke-width="2" x1="319.84615384615387" x2="30.0" y1="971.9583333333334" y2="971.9583333333334" /><circle cx="319.84615384615387" cy="971.9583333333334" fill="rgb(0,255,0)" r="2" /><circle cx="30.0" cy="971.9583333333334" fill="rgb(0,255,0)" r="2" /><line fill="none" stroke="rgb(255,255,0)" stroke-width="1" x1="174.92307692307693" x2="174.92307692307693" y1="971.9583333333334" y2="966.9583333333334" /><text fill="black" font-family="sans-serif" font-size="12" x="166.92307692307693" y="975.9583333333334">19</text><line fill="none" stroke="rgb(255,255,0)" stroke-width="2" x1="30.0" x2="30.0" y1="971.9583333333334" y2="899.5" /><circle cx="30.0" cy="971.9583333333334" fill="rgb(0,255,0)" r="2" /><circle cx="30.0" cy="899.5" fill="rgb(0,255,0)" r="2" /><line fill="none" stroke="rgb(255,255,0)" stroke-width="1" x1="30.0" x2="35.0" y1="935.7291666666667" y2="935.7291666666667" /><text fill="black" font-family="sans-serif" font-size="12" x="22.0" y="939.7291666666667">20</text><line fill="none" stroke="rgb(255,255,0)" stroke-width="2" x1="30.0" x2="102.46153846153847" y1="899.5" y2="899.5" /><circle cx="30.0" cy="899.5" fill="rgb(0,255,0)" r="2" /><circle cx="102.46153846153847" cy="899.5" fill="rgb(0,255,0)" r="2" /><line fill="none" stroke="rgb(255,255,0)" stroke-width="1" x1="66.23076923076923" x2="66.23076923076923" y1="899.5" y2="904.5" /><text fill="black" font-family="sans-serif" font-size="12" x="58.230769230769226" y="903.5">21</text><line fill="none" stroke="rgb(255,255,0)" stroke-width="2" x1="102.46153846153847" x2="102.46153846153847" y1="899.5" y2="827.0416666666667" /><circle cx="102.46153846153847" cy="899.5" fill="rgb(0,255,0)" r="2" /><circle cx="102.46153846153847" cy="827.0416666666667" fill="rgb(0,255,0)" r="2" /><line fill="none" stroke="rgb(255,255,0)" stroke-width="1" x1="102.46153846153847" x2="107.46153846153847" y1="863.2708333333334" y2="863.2708333333334" /><text fill="black" font-family="sans-serif" font-size="12" x="94.46153846153847" y="867.2708333333334">22</text><line fill="none" stroke="rgb(255,255,0)" stroke-width="2" x1="102.46153846153847" x2="102.46153846153847" y1="827.0416666666667" y2="754.5833333333333" /><circle cx="102.46153846153847" cy="827.0416666666667" fill="rgb(0,255,0)" r="2" /><circle cx="102.46153846153847" cy="754.5833333333333" fill="rgb(0,255,0)" r="2" /><line fill="none" stroke="rgb(255,255,0)" stroke-width="1" x1="102.46153846153847" x2="107.46153846153847" y1="790.8125" y2="790.8125" /><text fill="black" font-family="sans-serif" font-size="12" x="94.46153846153847" y="794.8125">23</text><line fill="none" stroke="rgb(255,255,0)" stroke-width="2" x1="102.46153846153847" x2="102.46153846153847" y1="754.5833333333333" y2="682.125" /><circle cx="102.46153846153847" cy="754.5833333333333" fill="rgb(0,255,0)" r="2" /><circle cx="102.46153846153847" cy="682.125" fill="rgb(0,255,0)" r="2" /><line fill="none" stroke="rgb(255,255,0)" stroke-width="1" x1="102.46153846153847" x2="107.46153846153847" y1="718.3541666666666" y2="718.3541666666666" /><text fill="black" font-family="sans-serif" font-size="12" x="94.46153846153847" y="722.3541666666666">24</text><line fill="none" stroke="rgb(255,255,0)" stroke-width="2" x1="102.46153846153847" x2="102.46153846153847" y1="682.125" y2="609.6666666666667" /><circle cx="102.46153846153847" cy="682.125" fill="rgb(0,255,0)" r="2" /><circle cx="102.46153846153847" cy="609.6666666666667" fill="rgb(0,255,0)" r="2" /><line fill="none" stroke="rgb(255,255,0)" stroke-width="1" x1="102.46153846153847" x2="107.46153846153847" y1="645.8958333333334" y2="645.8958333333334" /><text fill="black" font-family="sans-serif" font-size="12" x="94.46153846153847" y="649.8958333333334">25</text><line fill="none" stroke="rgb(255,255,0)" stroke-width="2" x1="102.46153846153847" x2="102.46153846153847" y1="609.6666666666667" y2="537.2083333333333" /><circle cx="102.46153846153847" cy="609.6666666666667" fill="rgb(0,255,0)" r="2" /><circle cx="102.46153846153847" cy="537.2083333333333" fill="rgb(0,255,0)" r="2" /><line fill="none" stroke="rgb(255,255,0)" stroke-width="1" x1="102.46153846153847" x2="107.46153846153847" y1="573.4375" y2="573.4375" /><text fill="black" font-family="sans-serif" font-size="12" x="94.46153846153847" y="577.4375">26</text><line fill="none" stroke="rgb(255,255,0)" stroke-width="2" x1="102.46153846153847" x2="102.46153846153847" y1="537.2083333333333" y2="464.75" /><circle cx="102.46153846153847" cy="537.2083333333333" fill="rgb(0,255,0)" r="2" /><circle cx="102.46153846153847" cy="464.75" fill="rgb(0,255,0)" r="2" /><line fill="none" stroke="rgb(255,255,0)" stroke-width="1" x1="102.46153846153847" x2="107.46153846153847" y1="500.97916666666663" y2="500.97916666666663" /><text fill="black" font-family="sans-serif" font-size="12" x="94.46153846153847" y="504.97916666666663">27</text><line fill="none" stroke="rgb(255,255,0)" stroke-width="2" x1="102.46153846153847" x2="30.0" y1="464.75" y2="464.75" /><circle cx="102.46153846153847" cy="464.75" fill="rgb(0,255,0)" r="2" /><circle cx="30.0" cy="464.75" fill="rgb(0,255,0)" r="2" /><line fill="none" stroke="rgb(255,255,0)" stroke-width="1" x1="66.23076923076923" x2="66.23076923076923" y1="464.75" y2="459.75" /><text fill="black" font-family="sans-serif" font-size="12" x="58.230769230769226" y="468.75">28</text><line fill="none" stroke="rgb(255,255,0)" stroke-width="2" x1="30.0" x2="30.0" y1="464.75" y2="392.29166666666674" /><circle cx="30.0" cy="464.75" fill="rgb(0,255,0)" r="2" /><circle cx="30.0" cy="392.29166666666674" fill="rgb(0,255,0)" r="2" /><line fill="none" stroke="rgb(255,255,0)" stroke-width="1" x1="30.0" x2="35.0" y1="428.52083333333337" y2="428.52083333333337" /><text fill="black" font-family="sans-serif" font-size="12" x="22.0" y="432.52083333333337">29</text><line fill="none" stroke="rgb(255,255,0)" stroke-width="2" x1="30.0" x2="102.46153846153847" y1="392.29166666666674" y2="392.29166666666674" /><circle cx="30.0" cy="392.29166666666674" fill="rgb(0,255,0)" r="2" /><circle cx="102.46153846153847" cy="392.29166666666674" fill="rgb(0,255,0)" r="2" /><line fill="none" stroke="rgb(255,255,0)" stroke-width="1" x1="66.23076923076923" x2="66.23076923076923" y1="392.29166666666674" y2="397.29166666666674" /><text fill="black" font-family="sans-serif" font-size="12" x="58.230769230769226" y="396.29166666666674">30</text><line fill="none" stroke="rgb(255,255,0)" stroke-width="2" x1="102.46153846153847" x2="174.92307692307693" y1="392.29166666666674" y2="392.29166666666674" /><circle cx="102.46153846153847" cy="392.29166666666674" fill="rgb(0,255,0)" r="2" /><circle cx="174.92307692307693" cy="392.29166666666674" fill="rgb(0,255,0)" r="2" /><line fill="none" stroke="rgb(255,255,0)" stroke-width="1" x1="138.6923076923077" x2="138.6923076923077" y1="392.29166666666674" y2="397.29166666666674" /><text fill="black" font-family="sans-serif" font-size="12" x="130.6923076923077" y="396.29166666666674">31</text><line fill="none" stroke="rgb(255,255,0)" stroke-width="2" x1="174.92307692307693" x2="247.3846153846154" y1="392.29166666666674" y2="392.29166666666674" /><circle cx="174.92307692307693" cy="392.29166666666674" fill="rgb(0,255,0)" r="2" /><circle cx="247.3846153846154" cy="392.29166666666674" fill="rgb(0,255,0)" r="2" /><line fill="none" stroke="rgb(255,255,0)" stroke-width="1" x1="211.15384615384616" x2="211.15384615384616" y1="392.29166666666674" y2="397.29166666666674" /><text fill="black" font-family="sans-serif" font-size="12" x="203.15384615384616" y="396.29166666666674">32</text><line fill="none" stroke="rgb(255,255,0)" stroke-width="2" x1="247.3846153846154" x2="247.3846153846154" y1="392.29166666666674" y2="319.83333333333326" /><circle cx="247.3846153846154" cy="392.29166666666674" fill="rgb(0,255,0)" r="2" /><circle cx="247.3846153846154" cy="319.83333333333326" fill="rgb(0,255,0)" r="2" /><line fill="none" stroke="rgb(255,255,0)" stroke-width="1" x1="247.3846153846154" x2="252.3846153846154" y1="356.0625" y2="356.0625" /><text fill="black" font-family="sans-serif" font-size="12" x="239.3846153846154" y="360.0625">33</text><line fill="none" stroke="rgb(255,255,0)" stroke-width="2" x1="247.3846153846154" x2="247.3846153846154" y1="247.375" y2="102.45833333333326" /><circle cx="247.3846153846154" cy="247.375" fill="rgb(0,255,0)" r="2" /><circle cx="247.3846153846154" cy="102.45833333333326" fill="rgb(0,255,0)" r="2" /><line fill="none" stroke="rgb(255,255,0)" stroke-width="1" x1="247.3846153846154" x2="252.3846153846154" y1="174.91666666666663" y2="174.91666666666663" /><text fill="black" font-family="sans-serif" font-size="12" x="239.3846153846154" y="178.91666666666663">34</text><line fill="none" stroke="rgb(255,255,0)" stroke-width="2" x1="247.3846153846154" x2="319.84615384615387" y1="102.45833333333326" y2="102.45833333333326" /><circle cx="247.3846153846154" cy="102.45833333333326" fill="rgb(0,255,0)" r="2" /><circle cx="319.84615384615387" cy="102.45833333333326" fill="rgb(0,255,0)" r="2" /><line fill="none" stroke="rgb(255,255,0)" stroke-width="1" x1="283.61538461538464" x2="283.61538461538464" y1="102.45833333333326" y2="107.45833333333326" /><text fill="black" font-family="sans-serif" font-size="12" x="275.61538461538464" y="106.45833333333326">35</text><line fill="none" stroke="rgb(255,255,0)" stroke-width="2" x1="319.84615384615387" x2="319.84615384615387" y1="102.45833333333326" y2="71.36369578043627" /><circle cx="319.84615384615387" cy="102.45833333333326" fill="rgb(0,255,0)" r="2" /><circle cx="319.84615384615387" cy="71.36369578043627" fill="rgb(0,255,0)" r="2" /><line fill="none" stroke="rgb(255,255,0)" stroke-width="1" x1="319.84615384615387" x2="324.84615384615387" y1="86.91101455688477" y2="86.91101455688477" /><text fill="black" font-family="sans-serif" font-size="12" x="311.84615384615387" y="90.91101455688477">36</text><line fill="none" stroke="rgb(255,255,0)" stroke-width="2" x1="319.84615384615387" x2="319.84615384615387" y1="61.09463755289721" y2="30.0" /><circle cx="319.84615384615387" cy="61.09463755289721" fill="rgb(0,255,0)" r="2" /><circle cx="319.84615384615387" cy="30.0" fill="rgb(0,255,0)" r="2" /><line fill="none" stroke="rgb(255,255,0)" stroke-width="1" x1="319.84615384615387" x2="324.84615384615387" y1="45.547318776448606" y2="45.547318776448606" /><text fill="black" font-family="sans-serif" font-size="12" x="311.84615384615387" y="49.547318776448606">37</text><line fill="none" stroke="rgb(255,255,0)" stroke-width="2" x1="319.84615384615387" x2="392.3076923076923" y1="30.0" y2="30.0" /><circle cx="319.84615384615387" cy="30.0" fill="rgb(0,255,0)" r="2" /><circle cx="392.3076923076923" cy="30.0" fill="rgb(0,255,0)" r="2" /><line fill="none" stroke="rgb(255,255,0)" stroke-width="1" x1="356.0769230769231" x2="356.0769230769231" y1="30.0" y2="35.0" /><text fill="black" font-family="sans-serif" font-size="12" x="348.0769230769231" y="34.0">38</text><line fill="none" stroke="rgb(255,255,0)" stroke-width="2" x1="392.3076923076923" x2="392.3076923076923" y1="30.0" y2="61.09463755289721" /><circle cx="392.3076923076923" cy="30.0" fill="rgb(0,255,0)" r="2" /><circle cx="392.3076923076923" cy="61.09463755289721" fill="rgb(0,255,0)" r="2" /><line fill="none" stroke="rgb(255,255,0)" stroke-width="1" x1="392.3076923076923" x2="387.3076923076923" y1="45.547318776448606" y2="45.547318776448606" /><text fill="black" font-family="sans-serif" font-size="12" x="384.3076923076923" y="49.547318776448606">39</text><line fill="none" stroke="rgb(255,255,0)" stroke-width="2" x1="392.3076923076923" x2="392.3076923076923" y1="71.36369578043627" y2="102.45833333333326" /><circle cx="392.3076923076923" cy="71.36369578043627" fill="rgb(0,255,0)" r="2" /><circle cx="392.3076923076923" cy="102.45833333333326" fill="rgb(0,255,0)" r="2" /><line fill="none" stroke="rgb(255,255,0)" stroke-width="1" x1="392.3076923076923" x2="387.3076923076923" y1="86.91101455688477" y2="86.91101455688477" /><text fill="black" font-family="sans-serif" font-size="12" x="384.3076923076923" y="90.91101455688477">40</text><line fill="none" stroke="rgb(255,255,0)" stroke-width="2" x1="392.3076923076923" x2="827.0769230769231" y1="102.45833333333326" y2="102.45833333333326" /><circle cx="392.3076923076923" cy="102.45833333333326" fill="rgb(0,255,0)" r="2" /><circle cx="827.0769230769231" cy="102.45833333333326" fill="rgb(0,255,0)" r="2" /><line fill="none" stroke="rgb(255,255,0)" stroke-width="1" x1="609.6923076923077" x2="609.6923076923077" y1="102.45833333333326" y2="107.45833333333326" /><text fill="black" font-family="sans-serif" font-size="12" x="601.6923076923077" y="106.45833333333326">41</text><line fill="none" stroke="rgb(255,255,0)" stroke-width="2" x1="827.0769230769231" x2="827.0769230769231" y1="102.45833333333326" y2="392.29166666666674" /><circle cx="827.0769230769231" cy="102.45833333333326" fill="rgb(0,255,0)" r="2" /><circle cx="827.0769230769231" cy="392.29166666666674" fill="rgb(0,255,0)" r="2" /><line fill="none" stroke="rgb(255,255,0)" stroke-width="1" x1="827.0769230769231" x2="822.0769230769231" y1="247.375" y2="247.375" /><text fill="black" font-family="sans-serif" font-size="12" x="819.0769230769231" y="251.375">42</text><line fill="none" stroke="rgb(255,255,0)" stroke-width="2" x1="827.0769230769231" x2="899.5384615384615" y1="392.29166666666674" y2="392.29166666666674" /><circle cx="827.0769230769231" cy="392.29166666666674" fill="rgb(0,255,0)" r="2" /><circle cx="899.5384615384615" cy="392.29166666666674" fill="rgb(0,255,0)" r="2" /><line fill="none" stroke="rgb(255,255,0)" stroke-width="1" x1="863.3076923076924" x2="863.3076923076924" y1="392.29166666666674" y2="397.29166666666674" /><text fill="black" font-family="sans-serif" font-size="12" x="855.3076923076924" y="396.29166666666674">43</text><line fill="none" stroke="rgb(255,255,0)" stroke-width="2" x1="899.5384615384615" x2="899.5384615384615" y1="392.29166666666674" y2="464.75" /><circle cx="899.5384615384615" cy="392.29166666666674" fill="rgb(0,255,0)" r="2" /><circle cx="899.5384615384615" cy="464.75" fill="rgb(0,255,0)" r="2" /><line fill="none" stroke="rgb(255,255,0)" stroke-width="1" x1="899.5384615384615" x2="894.5384615384615" y1="428.52083333333337" y2="428.52083333333337" /><text fill="black" font-family="sans-serif" font-size="12" x="891.5384615384615" y="432.52083333333337">44</text><line fill="none" stroke="rgb(255,255,0)" stroke-width="2" x1="899.5384615384615" x2="827.0769230769231" y1="464.75" y2="464.75" /><circle cx="899.5384615384615" cy="464.75" fill="rgb(0,255,0)" r="2" /><circle cx="827.0769230769231" cy="464.75" fill="rgb(0,255,0)" r="2" /><line fill="none" stroke="rgb(255,255,0)" stroke-width="1" x1="863.3076923076924" x2="863.3076923076924" y1="464.75" y2="459.75" /><text fill="black" font-family="sans-serif" font-size="12" x="855.3076923076924" y="468.75">45</text><line fill="none" stroke="rgb(255,255,0)" stroke-width="2" x1="827.0769230769231" x2="827.0769230769231" y1="464.75" y2="609.6666666666667" /><circle cx="827.0769230769231" cy="464.75" fill="rgb(0,255,0)" r="2" /><circle cx="827.0769230769231" cy="609.6666666666667" fill="rgb(0,255,0)" r="2" /><line fill="none" stroke="rgb(255,255,0)" stroke-width="1" x1="827.0769230769231" x2="822.0769230769231" y1="537.2083333333334" y2="537.2083333333334" /><text fill="black" font-family="sans-serif" font-size="12" x="819.0769230769231" y="541.2083333333334">46</text><line fill="none" stroke="rgb(255,255,0)" stroke-width="2" x1="827.0769230769231" x2="537.2307692307693" y1="609.6666666666667" y2="609.6666666666667" /><circle cx="827.0769230769231" cy="609.6666666666667" fill="rgb(0,255,0)" r="2" /><circle cx="537.2307692307693" cy="609.6666666666667" fill="rgb(0,255,0)" r="2" /><line fill="none" stroke="rgb(255,255,0)" stroke-width="1" x1="682.1538461538462" x2="682.1538461538462" y1="609.6666666666667" y2="604.6666666666667" /><text fill="black" font-family="sans-serif" font-size="12" x="674.1538461538462" y="613.6666666666667">47</text><line fill="none" stroke="rgb(255,255,0)" stroke-width="2" x1="537.2307692307693" x2="247.3846153846154" y1="609.6666666666667" y2="609.6666666666667" /><circle cx="537.2307692307693" cy="609.6666666666667" fill="rgb(0,255,0)" r="2" /><circle cx="247.3846153846154" cy="609.6666666666667" fill="rgb(0,255,0)" r="2" /><line fill="none" stroke="rgb(255,255,0)" stroke-width="1" x1="392.3076923076923" x2="392.3076923076923" y1="609.6666666666667" y2="604.6666666666667" /><text fill="black" font-family="sans-serif" font-size="12" x="384.3076923076923" y="613.6666666666667">48</text><line fill="none" stroke="rgb(255,255,0)" stroke-width="2" x1="247.3846153846154" x2="247.3846153846154" y1="609.6666666666667" y2="464.75" /><circle cx="247.3846153846154" cy="609.6666666666667" fill="rgb(0,255,0)" r="2" /><circle cx="247.3846153846154" cy="464.75" fill="rgb(0,255,0)" r="2" /><line fill="none" stroke="rgb(255,255,0)" stroke-width="1" x1="247.3846153846154" x2="252.3846153846154" y1="537.2083333333334" y2="537.2083333333334" /><text fill="black" font-family="sans-serif" font-size="12" x="239.3846153846154" y="541.2083333333334">49</text><line fill="none" stroke="rgb(255,255,0)" stroke-width="2" x1="247.3846153846154" x2="174.92307692307693" y1="464.75" y2="464.75" /><circle cx="247.3846153846154" cy="464.75" fill="rgb(0,255,0)" r="2" /><circle cx="174.92307692307693" cy="464.75" fill="rgb(0,255,0)" r="2" /><line fill="none" stroke="rgb(255,255,0)" stroke-width="1" x1="211.15384615384616" x2="211.15384615384616" y1="464.75" y2="459.75" /><text fill="black" font-family="sans-serif" font-size="12" x="203.15384615384616" y="468.75">50</text><line fill="none" stroke="rgb(255,255,0)" stroke-width="2" x1="174.92307692307693" x2="174.92307692307693" y1="464.75" y2="682.125" /><circle cx="174.92307692307693" cy="464.75" fill="rgb(0,255,0)" r="2" /><circle cx="174.92307692307693" cy="682.125" fill="rgb(0,255,0)" r="2" /><line fill="none" stroke="rgb(255,255,0)" stroke-width="1" x1="174.92307692307693" x2="169.92307692307693" y1="573.4375" y2="573.4375" /><text fill="black" font-family="sans-serif" font-size="12" x="166.92307692307693" y="577.4375">51</text><line fill="none" stroke="rgb(255,255,0)" stroke-width="2" x1="174.92307692307693" x2="174.92307692307693" y1="682.125" y2="754.5833333333333" /><circle cx="174.92307692307693" cy="682.125" fill="rgb(0,255,0)" r="2" /><circle cx="174.92307692307693" cy="754.5833333333333" fill="rgb(0,255,0)" r="2" /><line fill="none" stroke="rgb(255,255,0)" stroke-width="1" x1="174.92307692307693" x2="169.92307692307693" y1="718.3541666666666" y2="718.3541666666666" /><text fill="black" font-family="sans-serif" font-size="12" x="166.92307692307693" y="722.3541666666666">52</text><line fill="none" stroke="rgb(255,255,0)" stroke-width="2" x1="174.92307692307693" x2="174.92307692307693" y1="754.5833333333333" y2="899.5" /><circle cx="174.92307692307693" cy="754.5833333333333" fill="rgb(0,255,0)" r="2" /><circle cx="174.92307692307693" cy="899.5" fill="rgb(0,255,0)" r="2" /><line fill="none" stroke="rgb(255,255,0)" stroke-width="1" x1="174.92307692307693" x2="169.92307692307693" y1="827.0416666666666" y2="827.0416666666666" /><text fill="black" font-family="sans-serif" font-size="12" x="166.92307692307693" y="831.0416666666666">53</text><line fill="none" stroke="rgb(255,255,0)" stroke-width="2" x1="174.92307692307693" x2="247.3846153846154" y1="899.5" y2="899.5" /><circle cx="174.92307692307693" cy="899.5" fill="rgb(0,255,0)" r="2" /><circle cx="247.3846153846154" cy="899.5" fill="rgb(0,255,0)" r="2" /><line fill="none" stroke="rgb(255,255,0)" stroke-width="1" x1="211.15384615384616" x2="211.15384615384616" y1="899.5" y2="904.5" /><text fill="black" font-family="sans-serif" font-size="12" x="203.15384615384616" y="903.5">54</text><line fill="none" stroke="rgb(255,255,0)" stroke-width="2" x1="247.3846153846154" x2="319.84615384615387" y1="899.5" y2="899.5" /><circle cx="247.3846153846154" cy="899.5" fill="rgb(0,255,0)" r="2" /><circle cx="319.84615384615387" cy="899.5" fill="rgb(0,255,0)" r="2" /><line fill="none" stroke="rgb(255,255,0)" stroke-width="1" x1="283.61538461538464" x2="283.61538461538464" y1="899.5" y2="904.5" /><text fill="black" font-family="sans-serif" font-size="12" x="275.61538461538464" y="903.5">55</text><line fill="none" stroke="rgb(255,255,0)" stroke-width="2" x1="319.84615384615387" x2="392.3076923076923" y1="899.5" y2="899.5" /><circle cx="319.84615384615387" cy="899.5" fill="rgb(0,255,0)" r="2" /><circle cx="392.3076923076923" cy="899.5" fill="rgb(0,255,0)" r="2" /><line fill="none" stroke="rgb(255,255,0)" stroke-width="1" x1="356.0769230769231" x2="356.0769230769231" y1="899.5" y2="904.5" /><text fill="black" font-family="sans-serif" font-size="12" x="348.0769230769231" y="903.5">56</text><line fill="none" stroke="rgb(255,255,0)" stroke-width="2" x1="392.3076923076923" x2="464.7692307692308" y1="899.5" y2="899.5" /><circle cx="392.3076923076923" cy="899.5" fill="rgb(0,255,0)" r="2" /><circle cx="464.7692307692308" cy="899.5" fill="rgb(0,255,0)" r="2" /><line fill="none" stroke="rgb(255,255,0)" stroke-width="1" x1="428.53846153846155" x2="428.53846153846155" y1="899.5" y2="904.5" /><text fill="black" font-family="sans-serif" font-size="12" x="420.53846153846155" y="903.5">57</text><line fill="none" stroke="rgb(255,255,0)" stroke-width="2" x1="464.7692307692308" x2="464.7692307692308" y1="899.5" y2="827.0416666666667" /><circle cx="464.7692307692308" cy="899.5" fill="rgb(0,255,0)" r="2" /><circle cx="464.7692307692308" cy="827.0416666666667" fill="rgb(0,255,0)" r="2" /><line fill="none" stroke="rgb(255,255,0)" stroke-width="1" x1="464.7692307692308" x2="469.7692307692308" y1="863.2708333333334" y2="863.2708333333334" /><text fill="black" font-family="sans-serif" font-size="12" x="456.7692307692308" y="867.2708333333334">58</text><line fill="none" stroke="rgb(255,255,0)" stroke-width="2" x1="464.7692307692308" x2="392.3076923076923" y1="827.0416666666667" y2="827.0416666666667" /><circle cx="464.7692307692308" cy="827.0416666666667" fill="rgb(0,255,0)" r="2" /><circle cx="392.3076923076923" cy="827.0416666666667" fill="rgb(0,255,0)" r="2" /><line fill="none" stroke="rgb(255,255,0)" stroke-width="1" x1="428.53846153846155" x2="428.53846153846155" y1="827.0416666666667" y2="822.0416666666667" /><text fill="black" font-family="sans-serif" font-size="12" x="420.53846153846155" y="831.0416666666667">59</text><line fill="none" stroke="rgb(255,255,0)" stroke-width="2" x1="392.3076923076923" x2="392.3076923076923" y1="827.0416666666667" y2="718.3541666666667" /><circle cx="392.3076923076923" cy="827.0416666666667" fill="rgb(0,255,0)" r="2" /><circle cx="392.3076923076923" cy="718.3541666666667" fill="rgb(0,255,0)" r="2" /><line fill="none" stroke="rgb(255,255,0)" stroke-width="1" x1="392.3076923076923" x2="397.3076923076923" y1="772.6979166666667" y2="772.6979166666667" /><text fill="black" font-family="sans-serif" font-size="12" x="384.3076923076923" y="776.6979166666667">60</text><line fill="none" stroke="rgb(10,99,207)" stroke-width="2" x1="392.3076923076923" x2="392.3076923076923" y1="718.3541666666667" y2="682.125" /><circle cx="392.3076923076923" cy="718.3541666666667" fill="rgb(0,255,0)" r="2" /><circle cx="392.3076923076923" cy="682.125" fill="rgb(0,255,0)" r="2" /><line fill="none" stroke="rgb(10,99,207)" stroke-width="1" x1="392.3076923076923" x2="397.3076923076923" y1="700.2395833333334" y2="700.2395833333334" /><text fill="black" font-family="sans-serif" font-size="12" x="384.3076923076923" y="704.2395833333334">61</text><line fill="none" stroke="rgb(10,99,207)" stroke-width="2" x1="392.3076923076923" x2="464.7692307692308" y1="682.125" y2="682.125" /><circle cx="392.3076923076923" cy="682.125" fill="rgb(0,255,0)" r="2" /><circle cx="464.7692307692308" cy="682.125" fill="rgb(0,255,0)" r="2" /><line fill="none" stroke="rgb(10,99,207)" stroke-width="1" x1="428.53846153846155" x2="428.53846153846155" y1="682.125" y2="687.125" /><text fill="black" font-family="sans-serif" font-size="12" x="420.53846153846155" y="686.125">62</text><line fill="none" stroke="rgb(255,255,0)" stroke-width="2" x1="464.7692307692308" x2="537.2307692307693" y1="682.125" y2="682.125" /><circle cx="464.7692307692308" cy="682.125" fill="rgb(0,255,0)" r="2" /><circle cx="537.2307692307693" cy="682.125" fill="rgb(0,255,0)" r="2" /><line fill="none" stroke="rgb(255,255,0)" stroke-width="1" x1="501.0" x2="501.0" y1="682.125" y2="687.125" /><text fill="black" font-family="sans-serif" font-size="12" x="493.0" y="686.125">63</text><line fill="none" stroke="rgb(255,255,0)" stroke-width="2" x1="609.6923076923077" x2="609.6923076923077" y1="754.5833333333333" y2="827.0416666666667" /><circle cx="609.6923076923077" cy="754.5833333333333" fill="rgb(0,255,0)" r="2" /><circle cx="609.6923076923077" cy="827.0416666666667" fill="rgb(0,255,0)" r="2" /><line fill="none" stroke="rgb(255,255,0)" stroke-width="1" x1="609.6923076923077" x2="604.6923076923077" y1="790.8125" y2="790.8125" /><text fill="black" font-family="sans-serif" font-size="12" x="601.6923076923077" y="794.8125">64</text><line fill="none" stroke="rgb(255,255,0)" stroke-width="2" x1="609.6923076923077" x2="537.2307692307693" y1="827.0416666666667" y2="827.0416666666667" /><circle cx="609.6923076923077" cy="827.0416666666667" fill="rgb(0,255,0)" r="2" /><circle cx="537.2307692307693" cy="827.0416666666667" fill="rgb(0,255,0)" r="2" /><line fill="none" stroke="rgb(255,255,0)" stroke-width="1" x1="573.4615384615386" x2="573.4615384615386" y1="827.0416666666667" y2="822.0416666666667" /><text fill="black" font-family="sans-serif" font-size="12" x="565.4615384615386" y="831.0416666666667">65</text><line fill="none" stroke="rgb(255,255,0)" stroke-width="2" x1="537.2307692307693" x2="537.2307692307693" y1="827.0416666666667" y2="899.5" /><circle cx="537.2307692307693" cy="827.0416666666667" fill="rgb(0,255,0)" r="2" /><circle cx="537.2307692307693" cy="899.5" fill="rgb(0,255,0)" r="2" /><line fill="none" stroke="rgb(255,255,0)" stroke-width="1" x1="537.2307692307693" x2="532.2307692307693" y1="863.2708333333334" y2="863.2708333333334" /><text fill="black" font-family="sans-serif" font-size="12" x="529.2307692307693" y="867.2708333333334">66</text><line fill="none" stroke="rgb(255,255,0)" stroke-width="2" x1="537.2307692307693" x2="609.6923076923077" y1="899.5" y2="899.5" /><circle cx="537.2307692307693" cy="899.5" fill="rgb(0,255,0)" r="2" /><circle cx="609.6923076923077" cy="899.5" fill="rgb(0,255,0)" r="2" /><line fill="none" stroke="rgb(255,255,0)" stroke-width="1" x1="573.4615384615386" x2="573.4615384615386" y1="899.5" y2="904.5" /><text fill="black" font-family="sans-serif" font-size="12" x="565.4615384615386" y="903.5">67</text><line fill="none" stroke="rgb(255,255,0)" stroke-width="2" x1="609.6923076923077" x2="682.1538461538462" y1="899.5" y2="899.5" /><circle cx="609.6923076923077" cy="899.5" fill="rgb(0,255,0)" r="2" /><circle cx="682.1538461538462" cy="899.5" fill="rgb(0,255,0)" r="2" /><line fill="none" stroke="rgb(255,255,0)" stroke-width="1" x1="645.9230769230769" x2="645.9230769230769" y1="899.5" y2="904.5" /><text fill="black" font-family="sans-serif" font-size="12" x="637.9230769230769" y="903.5">68</text><line fill="none" stroke="rgb(255,255,0)" stroke-width="2" x1="682.1538461538462" x2="754.6153846153846" y1="899.5" y2="899.5" /><circle cx="682.1538461538462" cy="899.5" fill="rgb(0,255,0)" r="2" /><circle cx="754.6153846153846" cy="899.5" fill="rgb(0,255,0)" r="2" /><line fill="none" stroke="rgb(255,255,0)" stroke-width="1" x1="718.3846153846155" x2="718.3846153846155" y1="899.5" y2="904.5" /><text fill="black" font-family="sans-serif" font-size="12" x="710.3846153846155" y="903.5">69</text><line fill="none" stroke="rgb(255,255,0)" stroke-width="2" x1="754.6153846153846" x2="754.6153846153846" y1="899.5" y2="827.0416666666667" /><circle cx="754.6153846153846" cy="899.5" fill="rgb(0,255,0)" r="2" /><circle cx="754.6153846153846" cy="827.0416666666667" fill="rgb(0,255,0)" r="2" /><line fill="none" stroke="rgb(255,255,0)" stroke-width="1" x1="754.6153846153846" x2="759.6153846153846" y1="863.2708333333334" y2="863.2708333333334" /><text fill="black" font-family="sans-serif" font-size="12" x="746.6153846153846" y="867.2708333333334">70</text><line fill="none" stroke="rgb(255,255,0)" stroke-width="2" x1="754.6153846153846" x2="827.0769230769231" y1="827.0416666666667" y2="827.0416666666667" /><circle cx="754.6153846153846" cy="827.0416666666667" fill="rgb(0,255,0)" r="2" /><circle cx="827.0769230769231" cy="827.0416666666667" fill="rgb(0,255,0)" r="2" /><line fill="none" stroke="rgb(255,255,0)" stroke-width="1" x1="790.8461538461538" x2="790.8461538461538" y1="827.0416666666667" y2="832.0416666666667" /><text fill="black" font-family="sans-serif" font-size="12" x="782.8461538461538" y="831.0416666666667">71</text><line fill="none" stroke="rgb(255,255,0)" stroke-width="2" x1="827.0769230769231" x2="827.0769230769231" y1="827.0416666666667" y2="754.5833333333333" /><circle cx="827.0769230769231" cy="827.0416666666667" fill="rgb(0,255,0)" r="2" /><circle cx="827.0769230769231" cy="754.5833333333333" fill="rgb(0,255,0)" r="2" /><line fill="none" stroke="rgb(255,255,0)" stroke-width="1" x1="827.0769230769231" x2="832.0769230769231" y1="790.8125" y2="790.8125" /><text fill="black" font-family="sans-serif" font-size="12" x="819.0769230769231" y="794.8125">72</text><line fill="none" stroke="rgb(255,255,0)" stroke-width="2" x1="827.0769230769231" x2="899.5384615384615" y1="754.5833333333333" y2="754.5833333333333" /><circle cx="827.0769230769231" cy="754.5833333333333" fill="rgb(0,255,0)" r="2" /><circle cx="899.5384615384615" cy="754.5833333333333" fill="rgb(0,255,0)" r="2" /><line fill="none" stroke="rgb(255,255,0)" stroke-width="1" x1="863.3076923076924" x2="863.3076923076924" y1="754.5833333333333" y2="759.5833333333333" /><text fill="black" font-family="sans-serif" font-size="12" x="855.3076923076924" y="758.5833333333333">73</text><line fill="none" stroke="rgb(255,255,0)" stroke-width="2" x1="899.5384615384615" x2="899.5384615384615" y1="754.5833333333333" y2="827.0416666666667" /><circle cx="899.5384615384615" cy="754.5833333333333" fill="rgb(0,255,0)" r="2" /><circle cx="899.5384615384615" cy="827.0416666666667" fill="rgb(0,255,0)" r="2" /><line fill="none" stroke="rgb(255,255,0)" stroke-width="1" x1="899.5384615384615" x2="894.5384615384615" y1="790.8125" y2="790.8125" /><text fill="black" font-family="sans-serif" font-size="12" x="891.5384615384615" y="794.8125">74</text><line fill="none" stroke="rgb(255,255,0)" stroke-width="2" x1="899.5384615384615" x2="972.0" y1="827.0416666666667" y2="827.0416666666667" /><circle cx="899.5384615384615" cy="827.0416666666667" fill="rgb(0,255,0)" r="2" /><circle cx="972.0" cy="827.0416666666667" fill="rgb(0,255,0)" r="2" /><line fill="none" stroke="rgb(255,255,0)" stroke-width="1" x1="935.7692307692307" x2="935.7692307692307" y1="827.0416666666667" y2="832.0416666666667" /><text fill="black" font-family="sans-serif" font-size="12" x="927.7692307692307" y="831.0416666666667">75</text><line fill="none" stroke="rgb(255,255,0)" stroke-width="2" x1="972.0" x2="972.0" y1="827.0416666666667" y2="899.5" /><circle cx="972.0" cy="827.0416666666667" fill="rgb(0,255,0)" r="2" /><circle cx="972.0" cy="899.5" fill="rgb(0,255,0)" r="2" /><line fill="none" stroke="rgb(255,255,0)" stroke-width="1" x1="972.0" x2="967.0" y1="863.2708333333334" y2="863.2708333333334" /><text fill="black" font-family="sans-serif" font-size="12" x="964.0" y="867.2708333333334">76</text><line fill="none" stroke="rgb(255,255,0)" stroke-width="2" x1="972.0" x2="972.0" y1="899.5" y2="971.9583333333334" /><circle cx="972.0" cy="899.5" fill="rgb(0,255,0)" r="2" /><circle cx="972.0" cy="971.9583333333334" fill="rgb(0,255,0)" r="2" /><line fill="none" stroke="rgb(255,255,0)" stroke-width="1" x1="972.0" x2="967.0" y1="935.7291666666667" y2="935.7291666666667" /><text fill="black" font-family="sans-serif" font-size="12" x="964.0" y="939.7291666666667">77</text><line fill="none" stroke="rgb(255,255,0)" stroke-width="2" x1="972.0" x2="899.5384615384615" y1="971.9583333333334" y2="971.9583333333334" /><circle cx="972.0" cy="971.9583333333334" fill="rgb(0,255,0)" r="2" /><circle cx="899.5384615384615" cy="971.9583333333334" fill="rgb(0,255,0)" r="2" /><line fill="none" stroke="rgb(255,255,0)" stroke-width="1" x1="935.7692307692307" x2="935.7692307692307" y1="971.9583333333334" y2="966.9583333333334" /><text fill="black" font-family="sans-serif" font-size="12" x="927.7692307692307" y="975.9583333333334">78</text><line fill="none" stroke="rgb(255,255,0)" stroke-width="2" x1="899.5384615384615" x2="899.5384615384615" y1="971.9583333333334" y2="1116.875" /><circle cx="899.5384615384615" cy="971.9583333333334" fill="rgb(0,255,0)" r="2" /><circle cx="899.5384615384615" cy="1116.875" fill="rgb(0,255,0)" r="2" /><line fill="none" stroke="rgb(255,255,0)" stroke-width="1" x1="899.5384615384615" x2="894.5384615384615" y1="1044.4166666666667" y2="1044.4166666666667" /><text fill="black" font-family="sans-serif" font-size="12" x="891.5384615384615" y="1048.4166666666667">79</text><line fill="none" stroke="rgb(255,255,0)" stroke-width="2" x1="899.5384615384615" x2="972.0" y1="1116.875" y2="1116.875" /><circle cx="899.5384615384615" cy="1116.875" fill="rgb(0,255,0)" r="2" /><circle cx="972.0" cy="1116.875" fill="rgb(0,255,0)" r="2" /><line fill="none" stroke="rgb(255,255,0)" stroke-width="1" x1="935.7692307692307" x2="935.7692307692307" y1="1116.875" y2="1121.875" /><text fill="black" font-family="sans-serif" font-size="12" x="927.7692307692307" y="1120.875">80</text><line fill="none" stroke="rgb(255,255,0)" stroke-width="2" x1="972.0" x2="972.0" y1="1116.875" y2="1189.3333333333335" /><circle cx="972.0" cy="1116.875" fill="rgb(0,255,0)" r="2" /><circle cx="972.0" cy="1189.3333333333335" fill="rgb(0,255,0)" r="2" /><line fill="none" stroke="rgb(255,255,0)" stroke-width="1" x1="972.0" x2="967.0" y1="1153.1041666666667" y2="1153.1041666666667" /><text fill="black" font-family="sans-serif" font-size="12" x="964.0" y="1157.1041666666667">81</text><line fill="none" stroke="rgb(255,255,0)" stroke-width="2" x1="972.0" x2="899.5384615384615" y1="1189.3333333333335" y2="1189.3333333333335" /><circle cx="972.0" cy="1189.3333333333335" fill="rgb(0,255,0)" r="2" /><circle cx="899.5384615384615" cy="1189.3333333333335" fill="rgb(0,255,0)" r="2" /><line fill="none" stroke="rgb(255,255,0)" stroke-width="1" x1="935.7692307692307" x2="935.7692307692307" y1="1189.3333333333335" y2="1184.3333333333335" /><text fill="black" font-family="sans-serif" font-size="12" x="927.7692307692307" y="1193.3333333333335">82</text><line fill="none" stroke="rgb(255,255,0)" stroke-width="2" x1="899.5384615384615" x2="827.0769230769231" y1="1189.3333333333335" y2="1189.3333333333335" /><circle cx="899.5384615384615" cy="1189.3333333333335" fill="rgb(0,255,0)" r="2" /><circle cx="827.0769230769231" cy="1189.3333333333335" fill="rgb(0,255,0)" r="2" /><line fill="none" stroke="rgb(255,255,0)" stroke-width="1" x1="863.3076923076924" x2="863.3076923076924" y1="1189.3333333333335" y2="1184.3333333333335" /><text fill="black" font-family="sans-serif" font-size="12" x="855.3076923076924" y="1193.3333333333335">83</text><line fill="none" stroke="rgb(255,255,0)" stroke-width="2" x1="827.0769230769231" x2="754.6153846153846" y1="1189.3333333333335" y2="1189.3333333333335" /><circle cx="827.0769230769231" cy="1189.3333333333335" fill="rgb(0,255,0)" r="2" /><circle cx="754.6153846153846" cy="1189.3333333333335" fill="rgb(0,255,0)" r="2" /><line fill="none" stroke="rgb(255,255,0)" stroke-width="1" x1="790.8461538461538" x2="790.8461538461538" y1="1189.3333333333335" y2="1184.3333333333335" /><text fill="black" font-family="sans-serif" font-size="12" x="782.8461538461538" y="1193.3333333333335">84</text><line fill="none" stroke="rgb(255,255,0)" stroke-width="2" x1="754.6153846153846" x2="754.6153846153846" y1="1189.3333333333335" y2="1261.7916666666665" /><circle cx="754.6153846153846" cy="1189.3333333333335" fill="rgb(0,255,0)" r="2" /><circle cx="754.6153846153846" cy="1261.7916666666665" fill="rgb(0,255,0)" r="2" /><line fill="none" stroke="rgb(255,255,0)" stroke-width="1" x1="754.6153846153846" x2="749.6153846153846" y1="1225.5625" y2="1225.5625" /><text fill="black" font-family="sans-serif" font-size="12" x="746.6153846153846" y="1229.5625">85</text><line fill="none" stroke="rgb(255,255,0)" stroke-width="2" x1="754.6153846153846" x2="754.6153846153846" y1="1261.7916666666665" y2="1334.25" /><circle cx="754.6153846153846" cy="1261.7916666666665" fill="rgb(0,255,0)" r="2" /><circle cx="754.6153846153846" cy="1334.25" fill="rgb(0,255,0)" r="2" /><line fill="none" stroke="rgb(255,255,0)" stroke-width="1" x1="754.6153846153846" x2="749.6153846153846" y1="1298.0208333333333" y2="1298.0208333333333" /><text fill="black" font-family="sans-serif" font-size="12" x="746.6153846153846" y="1302.0208333333333">86</text><line fill="none" stroke="rgb(255,255,0)" stroke-width="2" x1="754.6153846153846" x2="827.0769230769231" y1="1334.25" y2="1334.25" /><circle cx="754.6153846153846" cy="1334.25" fill="rgb(0,255,0)" r="2" /><circle cx="827.0769230769231" cy="1334.25" fill="rgb(0,255,0)" r="2" /><line fill="none" stroke="rgb(255,255,0)" stroke-width="1" x1="790.8461538461538" x2="790.8461538461538" y1="1334.25" y2="1339.25" /><text fill="black" font-family="sans-serif" font-size="12" x="782.8461538461538" y="1338.25">87</text><line fill="none" stroke="rgb(255,255,0)" stroke-width="2" x1="827.0769230769231" x2="827.0769230769231" y1="1334.25" y2="1406.7083333333333" /><circle cx="827.0769230769231" cy="1334.25" fill="rgb(0,255,0)" r="2" /><circle cx="827.0769230769231" cy="1406.7083333333333" fill="rgb(0,255,0)" r="2" /><line fill="none" stroke="rgb(255,255,0)" stroke-width="1" x1="827.0769230769231" x2="822.0769230769231" y1="1370.4791666666665" y2="1370.4791666666665" /><text fill="black" font-family="sans-serif" font-size="12" x="819.0769230769231" y="1374.4791666666665">88</text><line fill="none" stroke="rgb(255,255,0)" stroke-width="2" x1="827.0769230769231" x2="754.6153846153846" y1="1406.7083333333333" y2="1406.7083333333333" /><circle cx="827.0769230769231" cy="1406.7083333333333" fill="rgb(0,255,0)" r="2" /><circle cx="754.6153846153846" cy="1406.7083333333333" fill="rgb(0,255,0)" r="2" /><line fill="none" stroke="rgb(255,255,0)" stroke-width="1" x1="790.8461538461538" x2="790.8461538461538" y1="1406.7083333333333" y2="1401.7083333333333" /><text fill="black" font-family="sans-serif" font-size="12" x="782.8461538461538" y="1410.7083333333333">89</text><line fill="none" stroke="rgb(255,255,0)" stroke-width="2" x1="754.6153846153846" x2="754.6153846153846" y1="1406.7083333333333" y2="1551.625" /><circle cx="754.6153846153846" cy="1406.7083333333333" fill="rgb(0,255,0)" r="2" /><circle cx="754.6153846153846" cy="1551.625" fill="rgb(0,255,0)" r="2" /><line fill="none" stroke="rgb(255,255,0)" stroke-width="1" x1="754.6153846153846" x2="749.6153846153846" y1="1479.1666666666665" y2="1479.1666666666665" /><text fill="black" font-family="sans-serif" font-size="12" x="746.6153846153846" y="1483.1666666666665">90</text><line fill="none" stroke="rgb(255,255,0)" stroke-width="2" x1="754.6153846153846" x2="682.1538461538462" y1="1551.625" y2="1551.625" /><circle cx="754.6153846153846" cy="1551.625" fill="rgb(0,255,0)" r="2" /><circle cx="682.1538461538462" cy="1551.625" fill="rgb(0,255,0)" r="2" /><line fill="none" stroke="rgb(255,255,0)" stroke-width="1" x1="718.3846153846155" x2="718.3846153846155" y1="1551.625" y2="1546.625" /><text fill="black" font-family="sans-serif" font-size="12" x="710.3846153846155" y="1555.625">91</text><line fill="none" stroke="rgb(255,255,0)" stroke-width="2" x1="682.1538461538462" x2="682.1538461538462" y1="1551.625" y2="1624.0833333333333" /><circle cx="682.1538461538462" cy="1551.625" fill="rgb(0,255,0)" r="2" /><circle cx="682.1538461538462" cy="1624.0833333333333" fill="rgb(0,255,0)" r="2" /><line fill="none" stroke="rgb(255,255,0)" stroke-width="1" x1="682.1538461538462" x2="677.1538461538462" y1="1587.8541666666665" y2="1587.8541666666665" /><text fill="black" font-family="sans-serif" font-size="12" x="674.1538461538462" y="1591.8541666666665">92</text><line fill="none" stroke="rgb(255,255,0)" stroke-width="2" x1="682.1538461538462" x2="609.6923076923077" y1="1624.0833333333333" y2="1624.0833333333333" /><circle cx="682.1538461538462" cy="1624.0833333333333" fill="rgb(0,255,0)" r="2" /><circle cx="609.6923076923077" cy="1624.0833333333333" fill="rgb(0,255,0)" r="2" /><line fill="none" stroke="rgb(255,255,0)" stroke-width="1" x1="645.9230769230769" x2="645.9230769230769" y1="1624.0833333333333" y2="1619.0833333333333" /><text fill="black" font-family="sans-serif" font-size="12" x="637.9230769230769" y="1628.0833333333333">93</text><line fill="none" stroke="rgb(255,255,0)" stroke-width="2" x1="609.6923076923077" x2="609.6923076923077" y1="1624.0833333333333" y2="1551.625" /><circle cx="609.6923076923077" cy="1624.0833333333333" fill="rgb(0,255,0)" r="2" /><circle cx="609.6923076923077" cy="1551.625" fill="rgb(0,255,0)" r="2" /><line fill="none" stroke="rgb(255,255,0)" stroke-width="1" x1="609.6923076923077" x2="614.6923076923077" y1="1587.8541666666665" y2="1587.8541666666665" /><text fill="black" font-family="sans-serif" font-size="12" x="601.6923076923077" y="1591.8541666666665">94</text><line fill="none" stroke="rgb(255,255,0)" stroke-width="2" x1="609.6923076923077" x2="537.2307692307693" y1="1551.625" y2="1551.625" /><circle cx="609.6923076923077" cy="1551.625" fill="rgb(0,255,0)" r="2" /><circle cx="537.2307692307693" cy="1551.625" fill="rgb(0,255,0)" r="2" /><line fill="none" stroke="rgb(255,255,0)" stroke-width="1" x1="573.4615384615386" x2="573.4615384615386" y1="1551.625" y2="1546.625" /><text fill="black" font-family="sans-serif" font-size="12" x="565.4615384615386" y="1555.625">95</text><line fill="none" stroke="rgb(10,99,207)" stroke-width="2" x1="537.2307692307693" x2="464.7692307692308" y1="1551.625" y2="1551.625" /><circle cx="537.2307692307693" cy="1551.625" fill="rgb(0,255,0)" r="2" /><circle cx="464.7692307692308" cy="1551.625" fill="rgb(0,255,0)" r="2" /><line fill="none" stroke="rgb(10,99,207)" stroke-width="1" x1="501.0" x2="501.0" y1="1551.625" y2="1546.625" /><text fill="black" font-family="sans-serif" font-size="12" x="493.0" y="1555.625">96</text><line fill="none" stroke="rgb(255,255,0)" stroke-width="2" x1="464.7692307692308" x2="392.3076923076923" y1="1551.625" y2="1551.625" /><circle cx="464.7692307692308" cy="1551.625" fill="rgb(0,255,0)" r="2" /><circle cx="392.3076923076923" cy="1551.625" fill="rgb(0,255,0)" r="2" /><line fill="none" stroke="rgb(255,255,0)" stroke-width="1" x1="428.53846153846155" x2="428.53846153846155" y1="1551.625" y2="1546.625" /><text fill="black" font-family="sans-serif" font-size="12" x="420.53846153846155" y="1555.625">97</text><line fill="none" stroke="rgb(255,255,0)" stroke-width="2" x1="392.3076923076923" x2="392.3076923076923" y1="1551.625" y2="1624.0833333333333" /><circle cx="392.3076923076923" cy="1551.625" fill="rgb(0,255,0)" r="2" /><circle cx="392.3076923076923" cy="1624.0833333333333" fill="rgb(0,255,0)" r="2" /><line fill="none" stroke="rgb(255,255,0)" stroke-width="1" x1="392.3076923076923" x2="387.3076923076923" y1="1587.8541666666665" y2="1587.8541666666665" /><text fill="black" font-family="sans-serif" font-size="12" x="384.3076923076923" y="1591.8541666666665">98</text><line fill="none" stroke="rgb(255,255,0)" stroke-width="2" x1="392.3076923076923" x2="464.7692307692308" y1="1624.0833333333333" y2="1624.0833333333333" /><circle cx="392.3076923076923" cy="1624.0833333333333" fill="rgb(0,255,0)" r="2" /><circle cx="464.7692307692308" cy="1624.0833333333333" fill="rgb(0,255,0)" r="2" /><line fill="none" stroke="rgb(255,255,0)" stroke-width="1" x1="428.53846153846155" x2="428.53846153846155" y1="1624.0833333333333" y2="1629.0833333333333" /><text fill="black" font-family="sans-serif" font-size="12" x="420.53846153846155" y="1628.0833333333333">99</text><line fill="none" stroke="rgb(255,255,0)" stroke-width="2" x1="464.7692307692308" x2="464.7692307692308" y1="1624.0833333333333" y2="1769.0" /><circle cx="464.7692307692308" cy="1624.0833333333333" fill="rgb(0,255,0)" r="2" /><circle cx="464.7692307692308" cy="1769.0" fill="rgb(0,255,0)" r="2" /><line fill="none" stroke="rgb(255,255,0)" stroke-width="1" x1="464.7692307692308" x2="459.7692307692308" y1="1696.5416666666665" y2="1696.5416666666665" /><text fill="black" font-family="sans-serif" font-size="12" x="456.7692307692308" y="1700.5416666666665">100</text><line fill="none" stroke="rgb(255,255,0)" stroke-width="2" x1="464.7692307692308" x2="102.46153846153847" y1="1769.0" y2="1769.0" /><circle cx="464.7692307692308" cy="1769.0" fill="rgb(0,255,0)" r="2" /><circle cx="102.46153846153847" cy="1769.0" fill="rgb(0,255,0)" r="2" /><line fill="none" stroke="rgb(255,255,0)" stroke-width="1" x1="283.61538461538464" x2="283.61538461538464" y1="1769.0" y2="1764.0" /><text fill="black" font-family="sans-serif" font-size="12" x="275.61538461538464" y="1773.0">101</text><line fill="none" stroke="rgb(255,255,0)" stroke-width="2" x1="102.46153846153847" x2="102.46153846153847" y1="1769.0" y2="1696.5416666666667" /><circle cx="102.46153846153847" cy="1769.0" fill="rgb(0,255,0)" r="2" /><circle cx="102.46153846153847" cy="1696.5416666666667" fill="rgb(0,255,0)" r="2" /><line fill="none" stroke="rgb(255,255,0)" stroke-width="1" x1="102.46153846153847" x2="107.46153846153847" y1="1732.7708333333335" y2="1732.7708333333335" /><text fill="black" font-family="sans-serif" font-size="12" x="94.46153846153847" y="1736.7708333333335">102</text><line fill="none" stroke="rgb(255,255,0)" stroke-width="2" x1="102.46153846153847" x2="30.0" y1="1696.5416666666667" y2="1696.5416666666667" /><circle cx="102.46153846153847" cy="1696.5416666666667" fill="rgb(0,255,0)" r="2" /><circle cx="30.0" cy="1696.5416666666667" fill="rgb(0,255,0)" r="2" /><line fill="none" stroke="rgb(255,255,0)" stroke-width="1" x1="66.23076923076923" x2="66.23076923076923" y1="1696.5416666666667" y2="1691.5416666666667" /><text fill="black" font-family="sans-serif" font-size="12" x="58.230769230769226" y="1700.5416666666667">103</text><line fill="none" stroke="rgb(255,255,0)" stroke-width="2" x1="537.2307692307693" x2="682.1538461538462" y1="1044.4166666666665" y2="1044.4166666666665" /><circle cx="537.2307692307693" cy="1044.4166666666665" fill="rgb(0,255,0)" r="2" /><circle cx="682.1538461538462" cy="1044.4166666666665" fill="rgb(0,255,0)" r="2" /><line fill="none" stroke="rgb(255,255,0)" stroke-width="1" x1="609.6923076923077" x2="609.6923076923077" y1="1044.4166666666665" y2="1049.4166666666665" /><text fill="black" font-family="sans-serif" font-size="12" x="601.6923076923077" y="1048.4166666666665">104</text><line fill="none" stroke="rgb(10,99,207)" stroke-width="2" x1="682.1538461538462" x2="754.6153846153846" y1="1044.4166666666665" y2="1044.4166666666665" /><circle cx="682.1538461538462" cy="1044.4166666666665" fill="rgb(0,255,0)" r="2" /><circle cx="754.6153846153846" cy="1044.4166666666665" fill="rgb(0,255,0)" r="2" /><line fill="none" stroke="rgb(10,99,207)" stroke-width="1" x1="718.3846153846155" x2="718.3846153846155" y1="1044.4166666666665" y2="1049.4166666666665" /><text fill="black" font-family="sans-serif" font-size="12" x="710.3846153846155" y="1048.4166666666665">105</text><line fill="none" stroke="rgb(10,99,207)" stroke-width="2" x1="754.6153846153846" x2="754.6153846153846" y1="1044.4166666666665" y2="1080.6458333333335" /><circle cx="754.6153846153846" cy="1044.4166666666665" fill="rgb(0,255,0)" r="2" /><circle cx="754.6153846153846" cy="1080.6458333333335" fill="rgb(0,255,0)" r="2" /><line fill="none" stroke="rgb(10,99,207)" stroke-width="1" x1="754.6153846153846" x2="749.6153846153846" y1="1062.53125" y2="1062.53125" /><text fill="black" font-family="sans-serif" font-size="12" x="746.6153846153846" y="1066.53125">106</text><line fill="none" stroke="rgb(255,255,0)" stroke-width="2" x1="754.6153846153846" x2="754.6153846153846" y1="1080.6458333333335" y2="1116.875" /><circle cx="754.6153846153846" cy="1080.6458333333335" fill="rgb(0,255,0)" r="2" /><circle cx="754.6153846153846" cy="1116.875" fill="rgb(0,255,0)" r="2" /><line fill="none" stroke="rgb(255,255,0)" stroke-width="1" x1="754.6153846153846" x2="749.6153846153846" y1="1098.7604166666667" y2="1098.7604166666667" /><text fill="black" font-family="sans-serif" font-size="12" x="746.6153846153846" y="1102.7604166666667">107</text><line fill="none" stroke="rgb(255,255,0)" stroke-width="2" x1="754.6153846153846" x2="827.0769230769231" y1="1116.875" y2="1116.875" /><circle cx="754.6153846153846" cy="1116.875" fill="rgb(0,255,0)" r="2" /><circle cx="827.0769230769231" cy="1116.875" fill="rgb(0,255,0)" r="2" /><line fill="none" stroke="rgb(255,255,0)" stroke-width="1" x1="790.8461538461538" x2="790.8461538461538" y1="1116.875" y2="1121.875" /><text fill="black" font-family="sans-serif" font-size="12" x="782.8461538461538" y="1120.875">108</text><line fill="none" stroke="rgb(255,255,0)" stroke-width="2" x1="827.0769230769231" x2="827.0769230769231" y1="1116.875" y2="971.9583333333334" /><circle cx="827.0769230769231" cy="1116.875" fill="rgb(0,255,0)" r="2" /><circle cx="827.0769230769231" cy="971.9583333333334" fill="rgb(0,255,0)" r="2" /><line fill="none" stroke="rgb(255,255,0)" stroke-width="1" x1="827.0769230769231" x2="832.0769230769231" y1="1044.4166666666667" y2="1044.4166666666667" /><text fill="black" font-family="sans-serif" font-size="12" x="819.0769230769231" y="1048.4166666666667">109</text><line fill="none" stroke="rgb(255,255,0)" stroke-width="2" x1="827.0769230769231" x2="754.6153846153846" y1="971.9583333333334" y2="971.9583333333334" /><circle cx="827.0769230769231" cy="971.9583333333334" fill="rgb(0,255,0)" r="2" /><circle cx="754.6153846153846" cy="971.9583333333334" fill="rgb(0,255,0)" r="2" /><line fill="none" stroke="rgb(255,255,0)" stroke-width="1" x1="790.8461538461538" x2="790.8461538461538" y1="971.9583333333334" y2="966.9583333333334" /><text fill="black" font-family="sans-serif" font-size="12" x="782.8461538461538" y="975.9583333333334">110</text><line fill="none" stroke="rgb(255,255,0)" stroke-width="2" x1="754.6153846153846" x2="682.1538461538462" y1="971.9583333333334" y2="971.9583333333334" /><circle cx="754.6153846153846" cy="971.9583333333334" fill="rgb(0,255,0)" r="2" /><circle cx="682.1538461538462" cy="971.9583333333334" fill="rgb(0,255,0)" r="2" /><line fill="none" stroke="rgb(255,255,0)" stroke-width="1" x1="718.3846153846155" x2="718.3846153846155" y1="971.9583333333334" y2="966.9583333333334" /><text fill="black" font-family="sans-serif" font-size="12" x="710.3846153846155" y="975.9583333333334">111</text><line fill="none" stroke="rgb(255,255,0)" stroke-width="2" x1="682.1538461538462" x2="609.6923076923077" y1="971.9583333333334" y2="971.9583333333334" /><circle cx="682.1538461538462" cy="971.9583333333334" fill="rgb(0,255,0)" r="2" /><circle cx="609.6923076923077" cy="971.9583333333334" fill="rgb(0,255,0)" r="2" /><line fill="none" stroke="rgb(255,255,0)" stroke-width="1" x1="645.9230769230769" x2="645.9230769230769" y1="971.9583333333334" y2="966.9583333333334" /><text fill="black" font-family="sans-serif" font-size="12" x="637.9230769230769" y="975.9583333333334">112</text><line fill="none" stroke="rgb(255,255,0)" stroke-width="2" x1="609.6923076923077" x2="537.2307692307693" y1="971.9583333333334" y2="971.9583333333334" /><circle cx="609.6923076923077" cy="971.9583333333334" fill="rgb(0,255,0)" r="2" /><circle cx="537.2307692307693" cy="971.9583333333334" fill="rgb(0,255,0)" r="2" /><line fill="none" stroke="rgb(255,255,0)" stroke-width="1" x1="573.4615384615386" x2="573.4615384615386" y1="971.9583333333334" y2="966.9583333333334" /><text fill="black" font-family="sans-serif" font-size="12" x="565.4615384615386" y="975.9583333333334">113</text><line fill="none" stroke="rgb(255,255,0)" stroke-width="2" x1="537.2307692307693" x2="537.2307692307693" y1="971.9583333333334" y2="1044.4166666666665" /><circle cx="537.2307692307693" cy="971.9583333333334" fill="rgb(0,255,0)" r="2" /><circle cx="537.2307692307693" cy="1044.4166666666665" fill="rgb(0,255,0)" r="2" /><line fill="none" stroke="rgb(255,255,0)" stroke-width="1" x1="537.2307692307693" x2="532.2307692307693" y1="1008.1875" y2="1008.1875" /><text fill="black" font-family="sans-serif" font-size="12" x="529.2307692307693" y="1012.1875">114</text><line fill="none" stroke="rgb(255,255,0)" stroke-width="2" x1="392.3076923076923" x2="319.84615384615387" y1="1406.7083333333333" y2="1406.7083333333333" /><circle cx="392.3076923076923" cy="1406.7083333333333" fill="rgb(0,255,0)" r="2" /><circle cx="319.84615384615387" cy="1406.7083333333333" fill="rgb(0,255,0)" r="2" /><line fill="none" stroke="rgb(255,255,0)" stroke-width="1" x1="356.0769230769231" x2="356.0769230769231" y1="1406.7083333333333" y2="1401.7083333333333" /><text fill="black" font-family="sans-serif" font-size="12" x="348.0769230769231" y="1410.7083333333333">115</text><line fill="none" stroke="rgb(255,255,0)" stroke-width="2" x1="319.84615384615387" x2="319.84615384615387" y1="1406.7083333333333" y2="1479.1666666666667" /><circle cx="319.84615384615387" cy="1406.7083333333333" fill="rgb(0,255,0)" r="2" /><circle cx="319.84615384615387" cy="1479.1666666666667" fill="rgb(0,255,0)" r="2" /><line fill="none" stroke="rgb(255,255,0)" stroke-width="1" x1="319.84615384615387" x2="314.84615384615387" y1="1442.9375" y2="1442.9375" /><text fill="black" font-family="sans-serif" font-size="12" x="311.84615384615387" y="1446.9375">116</text><line fill="none" stroke="rgb(255,255,0)" stroke-width="2" x1="319.84615384615387" x2="392.3076923076923" y1="1479.1666666666667" y2="1479.1666666666667" /><circle cx="319.84615384615387" cy="1479.1666666666667" fill="rgb(0,255,0)" r="2" /><circle cx="392.3076923076923" cy="1479.1666666666667" fill="rgb(0,255,0)" r="2" /><line fill="none" stroke="rgb(255,255,0)" stroke-width="1" x1="356.0769230769231" x2="356.0769230769231" y1="1479.1666666666667" y2="1484.1666666666667" /><text fill="black" font-family="sans-serif" font-size="12" x="348.0769230769231" y="1483.1666666666667">117</text><line fill="none" stroke="rgb(255,255,0)" stroke-width="2" x1="392.3076923076923" x2="392.3076923076923" y1="1479.1666666666667" y2="1406.7083333333333" /><circle cx="392.3076923076923" cy="1479.1666666666667" fill="rgb(0,255,0)" r="2" /><circle cx="392.3076923076923" cy="1406.7083333333333" fill="rgb(0,255,0)" r="2" /><line fill="none" stroke="rgb(255,255,0)" stroke-width="1" x1="392.3076923076923" x2="397.3076923076923" y1="1442.9375" y2="1442.9375" /><text fill="black" font-family="sans-serif" font-size="12" x="384.3076923076923" y="1446.9375">118</text><line fill="none" stroke="rgb(255,255,0)" stroke-width="2" x1="392.3076923076923" x2="319.84615384615387" y1="1189.3333333333335" y2="1189.3333333333335" /><circle cx="392.3076923076923" cy="1189.3333333333335" fill="rgb(0,255,0)" r="2" /><circle cx="319.84615384615387" cy="1189.3333333333335" fill="rgb(0,255,0)" r="2" /><line fill="none" stroke="rgb(255,255,0)" stroke-width="1" x1="356.0769230769231" x2="356.0769230769231" y1="1189.3333333333335" y2="1184.3333333333335" /><text fill="black" font-family="sans-serif" font-size="12" x="348.0769230769231" y="1193.3333333333335">119</text><line fill="none" stroke="rgb(255,255,0)" stroke-width="2" x1="319.84615384615387" x2="319.84615384615387" y1="1189.3333333333335" y2="1261.7916666666665" /><circle cx="319.84615384615387" cy="1189.3333333333335" fill="rgb(0,255,0)" r="2" /><circle cx="319.84615384615387" cy="1261.7916666666665" fill="rgb(0,255,0)" r="2" /><line fill="none" stroke="rgb(255,255,0)" stroke-width="1" x1="319.84615384615387" x2="314.84615384615387" y1="1225.5625" y2="1225.5625" /><text fill="black" font-family="sans-serif" font-size="12" x="311.84615384615387" y="1229.5625">120</text><line fill="none" stroke="rgb(255,255,0)" stroke-width="2" x1="319.84615384615387" x2="392.3076923076923" y1="1261.7916666666665" y2="1261.7916666666665" /><circle cx="319.84615384615387" cy="1261.7916666666665" fill="rgb(0,255,0)" r="2" /><circle cx="392.3076923076923" cy="1261.7916666666665" fill="rgb(0,255,0)" r="2" /><line fill="none" stroke="rgb(255,255,0)" stroke-width="1" x1="356.0769230769231" x2="356.0769230769231" y1="1261.7916666666665" y2="1266.7916666666665" /><text fill="black" font-family="sans-serif" font-size="12" x="348.0769230769231" y="1265.7916666666665">121</text><line fill="none" stroke="rgb(255,255,0)" stroke-width="2" x1="392.3076923076923" x2="392.3076923076923" y1="1261.7916666666665" y2="1189.3333333333335" /><circle cx="392.3076923076923" cy="1261.7916666666665" fill="rgb(0,255,0)" r="2" /><circle cx="392.3076923076923" cy="1189.3333333333335" fill="rgb(0,255,0)" r="2" /><line fill="none" stroke="rgb(255,255,0)" stroke-width="1" x1="392.3076923076923" x2="397.3076923076923" y1="1225.5625" y2="1225.5625" /><text fill="black" font-family="sans-serif" font-size="12" x="384.3076923076923" y="1229.5625">122</text><line fill="none" stroke="rgb(255,255,0)" stroke-width="2" x1="537.2307692307693" x2="464.7692307692308" y1="1334.25" y2="1334.25" /><circle cx="537.2307692307693" cy="1334.25" fill="rgb(0,255,0)" r="2" /><circle cx="464.7692307692308" cy="1334.25" fill="rgb(0,255,0)" r="2" /><line fill="none" stroke="rgb(255,255,0)" stroke-width="1" x1="501.0" x2="501.0" y1="1334.25" y2="1329.25" /><text fill="black" font-family="sans-serif" font-size="12" x="493.0" y="1338.25">123</text><line fill="none" stroke="rgb(255,255,0)" stroke-width="2" x1="464.7692307692308" x2="464.7692307692308" y1="1334.25" y2="1406.7083333333333" /><circle cx="464.7692307692308" cy="1334.25" fill="rgb(0,255,0)" r="2" /><circle cx="464.7692307692308" cy="1406.7083333333333" fill="rgb(0,255,0)" r="2" /><line fill="none" stroke="rgb(255,255,0)" stroke-width="1" x1="464.7692307692308" x2="459.7692307692308" y1="1370.4791666666665" y2="1370.4791666666665" /><text fill="black" font-family="sans-serif" font-size="12" x="456.7692307692308" y="1374.4791666666665">124</text><line fill="none" stroke="rgb(255,255,0)" stroke-width="2" x1="464.7692307692308" x2="537.2307692307693" y1="1406.7083333333333" y2="1406.7083333333333" /><circle cx="464.7692307692308" cy="1406.7083333333333" fill="rgb(0,255,0)" r="2" /><circle cx="537.2307692307693" cy="1406.7083333333333" fill="rgb(0,255,0)" r="2" /><line fill="none" stroke="rgb(255,255,0)" stroke-width="1" x1="501.0" x2="501.0" y1="1406.7083333333333" y2="1411.7083333333333" /><text fill="black" font-family="sans-serif" font-size="12" x="493.0" y="1410.7083333333333">125</text><line fill="none" stroke="rgb(255,255,0)" stroke-width="2" x1="537.2307692307693" x2="537.2307692307693" y1="1406.7083333333333" y2="1334.25" /><circle cx="537.2307692307693" cy="1406.7083333333333" fill="rgb(0,255,0)" r="2" /><circle cx="537.2307692307693" cy="1334.25" fill="rgb(0,255,0)" r="2" /><line fill="none" stroke="rgb(255,255,0)" stroke-width="1" x1="537.2307692307693" x2="542.2307692307693" y1="1370.4791666666665" y2="1370.4791666666665" /><text fill="black" font-family="sans-serif" font-size="12" x="529.2307692307693" y="1374.4791666666665">126</text><line fill="none" stroke="rgb(255,255,0)" stroke-width="2" x1="682.1538461538462" x2="609.6923076923077" y1="1406.7083333333333" y2="1406.7083333333333" /><circle cx="682.1538461538462" cy="1406.7083333333333" fill="rgb(0,255,0)" r="2" /><circle cx="609.6923076923077" cy="1406.7083333333333" fill="rgb(0,255,0)" r="2" /><line fill="none" stroke="rgb(255,255,0)" stroke-width="1" x1="645.9230769230769" x2="645.9230769230769" y1="1406.7083333333333" y2="1401.7083333333333" /><text fill="black" font-family="sans-serif" font-size="12" x="637.9230769230769" y="1410.7083333333333">127</text><line fill="none" stroke="rgb(255,255,0)" stroke-width="2" x1="609.6923076923077" x2="609.6923076923077" y1="1406.7083333333333" y2="1479.1666666666667" /><circle cx="609.6923076923077" cy="1406.7083333333333" fill="rgb(0,255,0)" r="2" /><circle cx="609.6923076923077" cy="1479.1666666666667" fill="rgb(0,255,0)" r="2" /><line fill="none" stroke="rgb(255,255,0)" stroke-width="1" x1="609.6923076923077" x2="604.6923076923077" y1="1442.9375" y2="1442.9375" /><text fill="black" font-family="sans-serif" font-size="12" x="601.6923076923077" y="1446.9375">128</text><line fill="none" stroke="rgb(255,255,0)" stroke-width="2" x1="609.6923076923077" x2="682.1538461538462" y1="1479.1666666666667" y2="1479.1666666666667" /><circle cx="609.6923076923077" cy="1479.1666666666667" fill="rgb(0,255,0)" r="2" /><circle cx="682.1538461538462" cy="1479.1666666666667" fill="rgb(0,255,0)" r="2" /><line fill="none" stroke="rgb(255,255,0)" stroke-width="1" x1="645.9230769230769" x2="645.9230769230769" y1="1479.1666666666667" y2="1484.1666666666667" /><text fill="black" font-family="sans-serif" font-size="12" x="637.9230769230769" y="1483.1666666666667">129</text><line fill="none" stroke="rgb(255,255,0)" stroke-width="2" x1="682.1538461538462" x2="682.1538461538462" y1="1479.1666666666667" y2="1406.7083333333333" /><circle cx="682.1538461538462" cy="1479.1666666666667" fill="rgb(0,255,0)" r="2" /><circle cx="682.1538461538462" cy="1406.7083333333333" fill="rgb(0,255,0)" r="2" /><line fill="none" stroke="rgb(255,255,0)" stroke-width="1" x1="682.1538461538462" x2="687.1538461538462" y1="1442.9375" y2="1442.9375" /><text fill="black" font-family="sans-serif" font-size="12" x="674.1538461538462" y="1446.9375">130</text><line fill="none" stroke="rgb(255,255,0)" stroke-width="2" x1="609.6923076923077" x2="537.2307692307693" y1="1116.875" y2="1116.875" /><circle cx="609.6923076923077" cy="1116.875" fill="rgb(0,255,0)" r="2" /><circle cx="537.2307692307693" cy="1116.875" fill="rgb(0,255,0)" r="2" /><line fill="none" stroke="rgb(255,255,0)" stroke-width="1" x1="573.4615384615386" x2="573.4615384615386" y1="1116.875" y2="1111.875" /><text fill="black" font-family="sans-serif" font-size="12" x="565.4615384615386" y="1120.875">131</text><line fill="none" stroke="rgb(255,255,0)" stroke-width="2" x1="537.2307692307693" x2="537.2307692307693" y1="1116.875" y2="1189.3333333333335" /><circle cx="537.2307692307693" cy="1116.875" fill="rgb(0,255,0)" r="2" /><circle cx="537.2307692307693" cy="1189.3333333333335" fill="rgb(0,255,0)" r="2" /><line fill="none" stroke="rgb(255,255,0)" stroke-width="1" x1="537.2307692307693" x2="532.2307692307693" y1="1153.1041666666667" y2="1153.1041666666667" /><text fill="black" font-family="sans-serif" font-size="12" x="529.2307692307693" y="1157.1041666666667">132</text><line fill="none" stroke="rgb(255,255,0)" stroke-width="2" x1="537.2307692307693" x2="609.6923076923077" y1="1189.3333333333335" y2="1189.3333333333335" /><circle cx="537.2307692307693" cy="1189.3333333333335" fill="rgb(0,255,0)" r="2" /><circle cx="609.6923076923077" cy="1189.3333333333335" fill="rgb(0,255,0)" r="2" /><line fill="none" stroke="rgb(255,255,0)" stroke-width="1" x1="573.4615384615386" x2="573.4615384615386" y1="1189.3333333333335" y2="1194.3333333333335" /><text fill="black" font-family="sans-serif" font-size="12" x="565.4615384615386" y="1193.3333333333335">133</text><line fill="none" stroke="rgb(255,255,0)" stroke-width="2" x1="609.6923076923077" x2="609.6923076923077" y1="1189.3333333333335" y2="1116.875" /><circle cx="609.6923076923077" cy="1189.3333333333335" fill="rgb(0,255,0)" r="2" /><circle cx="609.6923076923077" cy="1116.875" fill="rgb(0,255,0)" r="2" /><line fill="none" stroke="rgb(255,255,0)" stroke-width="1" x1="609.6923076923077" x2="614.6923076923077" y1="1153.1041666666667" y2="1153.1041666666667" /><text fill="black" font-family="sans-serif" font-size="12" x="601.6923076923077" y="1157.1041666666667">134</text><line fill="none" stroke="rgb(250,56,35)" stroke-width="2" x1="537.2307692307693" x2="537.2307692307693" y1="1551.625" y2="1515.3958333333333" /><circle cx="537.2307692307693" cy="1551.625" fill="rgb(0,255,0)" r="2" /><circle cx="537.2307692307693" cy="1515.3958333333333" fill="rgb(0,255,0)" r="2" /><line fill="none" stroke="rgb(250,56,35)" stroke-width="1" x1="537.2307692307693" x2="542.2307692307693" y1="1533.5104166666665" y2="1533.5104166666665" /><text fill="black" font-family="sans-serif" font-size="12" x="529.2307692307693" y="1537.5104166666665">135</text><line fill="none" stroke="rgb(250,56,35)" stroke-width="2" x1="537.2307692307693" x2="464.7692307692308" y1="1515.3958333333333" y2="1515.3958333333333" /><circle cx="537.2307692307693" cy="1515.3958333333333" fill="rgb(0,255,0)" r="2" /><circle cx="464.7692307692308" cy="1515.3958333333333" fill="rgb(0,255,0)" r="2" /><line fill="none" stroke="rgb(250,56,35)" stroke-width="1" x1="501.0" x2="501.0" y1="1515.3958333333333" y2="1510.3958333333333" /><text fill="black" font-family="sans-serif" font-size="12" x="493.0" y="1519.3958333333333">136</text><line fill="none" stroke="rgb(250,56,35)" stroke-width="2" x1="464.7692307692308" x2="464.7692307692308" y1="1515.3958333333333" y2="1551.625" /><circle cx="464.7692307692308" cy="1515.3958333333333" fill="rgb(0,255,0)" r="2" /><circle cx="464.7692307692308" cy="1551.625" fill="rgb(0,255,0)" r="2" /><line fill="none" stroke="rgb(250,56,35)" stroke-width="1" x1="464.7692307692308" x2="459.7692307692308" y1="1533.5104166666665" y2="1533.5104166666665" /><text fill="black" font-family="sans-serif" font-size="12" x="456.7692307692308" y="1537.5104166666665">137</text><line fill="none" stroke="rgb(250,56,35)" stroke-width="2" x1="319.84615384615387" x2="319.84615384615387" y1="1044.4166666666665" y2="1080.6458333333335" /><circle cx="319.84615384615387" cy="1044.4166666666665" fill="rgb(0,255,0)" r="2" /><circle cx="319.84615384615387" cy="1080.6458333333335" fill="rgb(0,255,0)" r="2" /><line fill="none" stroke="rgb(250,56,35)" stroke-width="1" x1="319.84615384615387" x2="314.84615384615387" y1="1062.53125" y2="1062.53125" /><text fill="black" font-family="sans-serif" font-size="12" x="311.84615384615387" y="1066.53125">138</text><line fill="none" stroke="rgb(250,56,35)" stroke-width="2" x1="319.84615384615387" x2="392.3076923076923" y1="1080.6458333333335" y2="1080.6458333333335" /><circle cx="319.84615384615387" cy="1080.6458333333335" fill="rgb(0,255,0)" r="2" /><circle cx="392.3076923076923" cy="1080.6458333333335" fill="rgb(0,255,0)" r="2" /><line fill="none" stroke="rgb(250,56,35)" stroke-width="1" x1="356.0769230769231" x2="356.0769230769231" y1="1080.6458333333335" y2="1085.6458333333335" /><text fill="black" font-family="sans-serif" font-size="12" x="348.0769230769231" y="1084.6458333333335">139</text><line fill="none" stroke="rgb(250,56,35)" stroke-width="2" x1="392.3076923076923" x2="392.3076923076923" y1="1080.6458333333335" y2="1044.4166666666665" /><circle cx="392.3076923076923" cy="1080.6458333333335" fill="rgb(0,255,0)" r="2" /><circle cx="392.3076923076923" cy="1044.4166666666665" fill="rgb(0,255,0)" r="2" /><line fill="none" stroke="rgb(250,56,35)" stroke-width="1" x1="392.3076923076923" x2="397.3076923076923" y1="1062.53125" y2="1062.53125" /><text fill="black" font-family="sans-serif" font-size="12" x="384.3076923076923" y="1066.53125">140</text><line fill="none" stroke="rgb(250,56,35)" stroke-width="2" x1="682.1538461538462" x2="682.1538461538462" y1="1044.4166666666665" y2="1080.6458333333335" /><circle cx="682.1538461538462" cy="1044.4166666666665" fill="rgb(0,255,0)" r="2" /><circle cx="682.1538461538462" cy="1080.6458333333335" fill="rgb(0,255,0)" r="2" /><line fill="none" stroke="rgb(250,56,35)" stroke-width="1" x1="682.1538461538462" x2="677.1538461538462" y1="1062.53125" y2="1062.53125" /><text fill="black" font-family="sans-serif" font-size="12" x="674.1538461538462" y="1066.53125">141</text><line fill="none" stroke="rgb(250,56,35)" stroke-width="2" x1="682.1538461538462" x2="754.6153846153846" y1="1080.6458333333335" y2="1080.6458333333335" /><circle cx="682.1538461538462" cy="1080.6458333333335" fill="rgb(0,255,0)" r="2" /><circle cx="754.6153846153846" cy="1080.6458333333335" fill="rgb(0,255,0)" r="2" /><line fill="none" stroke="rgb(250,56,35)" stroke-width="1" x1="718.3846153846155" x2="718.3846153846155" y1="1080.6458333333335" y2="1085.6458333333335" /><text fill="black" font-family="sans-serif" font-size="12" x="710.3846153846155" y="1084.6458333333335">142</text><line fill="none" stroke="rgb(250,56,35)" stroke-width="2" x1="392.3076923076923" x2="464.7692307692308" y1="718.3541666666667" y2="718.3541666666667" /><circle cx="392.3076923076923" cy="718.3541666666667" fill="rgb(0,255,0)" r="2" /><circle cx="464.7692307692308" cy="718.3541666666667" fill="rgb(0,255,0)" r="2" /><line fill="none" stroke="rgb(250,56,35)" stroke-width="1" x1="428.53846153846155" x2="428.53846153846155" y1="718.3541666666667" y2="723.3541666666667" /><text fill="black" font-family="sans-serif" font-size="12" x="420.53846153846155" y="722.3541666666667">143</text><line fill="none" stroke="rgb(250,56,35)" stroke-width="2" x1="464.7692307692308" x2="464.7692307692308" y1="718.3541666666667" y2="682.125" /><circle cx="464.7692307692308" cy="718.3541666666667" fill="rgb(0,255,0)" r="2" /><circle cx="464.7692307692308" cy="682.125" fill="rgb(0,255,0)" r="2" /><line fill="none" stroke="rgb(250,56,35)" stroke-width="1" x1="464.7692307692308" x2="469.7692307692308" y1="700.2395833333334" y2="700.2395833333334" /><text fill="black" font-family="sans-serif" font-size="12" x="456.7692307692308" y="704.2395833333334">144</text><line fill="none" stroke="rgb(255,255,0)" stroke-width="2" x1="645.9230769230769" x2="594.6860821063702" y1="159.91110483805346" y2="211.14583333333326" /><circle cx="645.9230769230769" cy="159.91110483805346" fill="rgb(0,255,0)" r="2" /><circle cx="594.6860821063702" cy="211.14583333333326" fill="rgb(0,255,0)" r="2" /><line fill="none" stroke="rgb(255,255,0)" stroke-width="1" x1="620.3045795147236" x2="616.769123803483" y1="185.52846908569336" y2="181.99285698679793" /><text fill="black" font-family="sans-serif" font-size="12" x="612.3045795147236" y="189.52846908569336">145</text><line fill="none" stroke="rgb(255,255,0)" stroke-width="2" x1="594.6860821063702" x2="645.9230769230769" y1="211.14583333333326" y2="262.3805618286133" /><circle cx="594.6860821063702" cy="211.14583333333326" fill="rgb(0,255,0)" r="2" /><circle cx="645.9230769230769" cy="262.3805618286133" fill="rgb(0,255,0)" r="2" /><line fill="none" stroke="rgb(255,255,0)" stroke-width="1" x1="620.3045795147236" x2="616.769123803483" y1="236.76319758097327" y2="240.2988096798687" /><text fill="black" font-family="sans-serif" font-size="12" x="612.3045795147236" y="240.76319758097327">146</text><line fill="none" stroke="rgb(255,255,0)" stroke-width="2" x1="645.9230769230769" x2="697.1600717397837" y1="262.3805618286133" y2="211.14583333333326" /><circle cx="645.9230769230769" cy="262.3805618286133" fill="rgb(0,255,0)" r="2" /><circle cx="697.1600717397837" cy="211.14583333333326" fill="rgb(0,255,0)" r="2" /><line fill="none" stroke="rgb(255,255,0)" stroke-width="1" x1="671.5415743314303" x2="675.0770300426709" y1="236.76319758097327" y2="240.2988096798687" /><text fill="black" font-family="sans-serif" font-size="12" x="663.5415743314303" y="240.76319758097327">147</text><line fill="none" stroke="rgb(255,255,0)" stroke-width="2" x1="697.1600717397837" x2="645.9230769230769" y1="211.14583333333326" y2="159.91110483805346" /><circle cx="697.1600717397837" cy="211.14583333333326" fill="rgb(0,255,0)" r="2" /><circle cx="645.9230769230769" cy="159.91110483805346" fill="rgb(0,255,0)" r="2" /><line fill="none" stroke="rgb(255,255,0)" stroke-width="1" x1="671.5415743314303" x2="675.0770300426709" y1="185.52846908569336" y2="181.99285698679793" /><text fill="black" font-family="sans-serif" font-size="12" x="663.5415743314303" y="189.52846908569336">148</text><line fill="none" stroke="rgb(255,255,0)" stroke-width="2" x1="609.6923076923077" x2="558.455312875601" y1="413.51527150472" y2="464.75" /><circle cx="609.6923076923077" cy="413.51527150472" fill="rgb(0,255,0)" r="2" /><circle cx="558.455312875601" cy="464.75" fill="rgb(0,255,0)" r="2" /><line fill="none" stroke="rgb(255,255,0)" stroke-width="1" x1="584.0738102839543" x2="580.5383545727137" y1="439.13263575236" y2="435.59702365346453" /><text fill="black" font-family="sans-serif" font-size="12" x="576.0738102839543" y="443.13263575236">149</text><line fill="none" stroke="rgb(255,255,0)" stroke-width="2" x1="558.455312875601" x2="609.6923076923077" y1="464.75" y2="515.98472849528" /><circle cx="558.455312875601" cy="464.75" fill="rgb(0,255,0)" r="2" /><circle cx="609.6923076923077" cy="515.98472849528" fill="rgb(0,255,0)" r="2" /><line fill="none" stroke="rgb(255,255,0)" stroke-width="1" x1="584.0738102839543" x2="580.5383545727137" y1="490.36736424764" y2="493.90297634653547" /><text fill="black" font-family="sans-serif" font-size="12" x="576.0738102839543" y="494.36736424764">150</text><line fill="none" stroke="rgb(255,255,0)" stroke-width="2" x1="609.6923076923077" x2="660.9293025090144" y1="515.98472849528" y2="464.75" /><circle cx="609.6923076923077" cy="515.98472849528" fill="rgb(0,255,0)" r="2" /><circle cx="660.9293025090144" cy="464.75" fill="rgb(0,255,0)" r="2" /><line fill="none" stroke="rgb(255,255,0)" stroke-width="1" x1="635.3108051006611" x2="638.8462608119017" y1="490.36736424764" y2="493.9029763465354" /><text fill="black" font-family="sans-serif" font-size="12" x="627.3108051006611" y="494.36736424764">151</text><line fill="none" stroke="rgb(255,255,0)" stroke-width="2" x1="660.9293025090144" x2="609.6923076923077" y1="464.75" y2="413.51527150472" /><circle cx="660.9293025090144" cy="464.75" fill="rgb(0,255,0)" r="2" /><circle cx="609.6923076923077" cy="413.51527150472" fill="rgb(0,255,0)" r="2" /><line fill="none" stroke="rgb(255,255,0)" stroke-width="1" x1="635.3108051006611" x2="638.8462608119017" y1="439.13263575236" y2="435.5970236534646" /><text fill="black" font-family="sans-serif" font-size="12" x="627.3108051006611" y="443.13263575236">152</text><line fill="none" stroke="rgb(255,255,0)" stroke-width="2" x1="392.3076923076923" x2="319.84615384615387" y1="464.75" y2="464.75" /><circle cx="392.3076923076923" cy="464.75" fill="rgb(0,255,0)" r="2" /><circle cx="319.84615384615387" cy="464.75" fill="rgb(0,255,0)" r="2" /><line fill="none" stroke="rgb(255,255,0)" stroke-width="1" x1="356.0769230769231" x2="356.0769230769231" y1="464.75" y2="459.75" /><text fill="black" font-family="sans-serif" font-size="12" x="348.0769230769231" y="468.75">153</text><line fill="none" stroke="rgb(255,255,0)" stroke-width="2" x1="319.84615384615387" x2="319.84615384615387" y1="464.75" y2="537.2083333333333" /><circle cx="319.84615384615387" cy="464.75" fill="rgb(0,255,0)" r="2" /><circle cx="319.84615384615387" cy="537.2083333333333" fill="rgb(0,255,0)" r="2" /><line fill="none" stroke="rgb(255,255,0)" stroke-width="1" x1="319.84615384615387" x2="314.84615384615387" y1="500.97916666666663" y2="500.97916666666663" /><text fill="black" font-family="sans-serif" font-size="12" x="311.84615384615387" y="504.97916666666663">154</text><line fill="none" stroke="rgb(255,255,0)" stroke-width="2" x1="319.84615384615387" x2="392.3076923076923" y1="537.2083333333333" y2="537.2083333333333" /><circle cx="319.84615384615387" cy="537.2083333333333" fill="rgb(0,255,0)" r="2" /><circle cx="392.3076923076923" cy="537.2083333333333" fill="rgb(0,255,0)" r="2" /><line fill="none" stroke="rgb(255,255,0)" stroke-width="1" x1="356.0769230769231" x2="356.0769230769231" y1="537.2083333333333" y2="542.2083333333333" /><text fill="black" font-family="sans-serif" font-size="12" x="348.0769230769231" y="541.2083333333333">155</text><line fill="none" stroke="rgb(255,255,0)" stroke-width="2" x1="392.3076923076923" x2="392.3076923076923" y1="537.2083333333333" y2="464.75" /><circle cx="392.3076923076923" cy="537.2083333333333" fill="rgb(0,255,0)" r="2" /><circle cx="392.3076923076923" cy="464.75" fill="rgb(0,255,0)" r="2" /><line fill="none" stroke="rgb(255,255,0)" stroke-width="1" x1="392.3076923076923" x2="397.3076923076923" y1="500.97916666666663" y2="500.97916666666663" /><text fill="black" font-family="sans-serif" font-size="12" x="384.3076923076923" y="504.97916666666663">156</text><line fill="none" stroke="rgb(255,255,0)" stroke-width="2" x1="247.3846153846154" x2="319.84615384615387" y1="319.83333333333326" y2="319.83333333333326" /><circle cx="247.3846153846154" cy="319.83333333333326" fill="rgb(0,255,0)" r="2" /><circle cx="319.84615384615387" cy="319.83333333333326" fill="rgb(0,255,0)" r="2" /><line fill="none" stroke="rgb(255,255,0)" stroke-width="1" x1="283.61538461538464" x2="283.61538461538464" y1="319.83333333333326" y2="324.83333333333326" /><text fill="black" font-family="sans-serif" font-size="12" x="275.61538461538464" y="323.83333333333326">157</text><line fill="none" stroke="rgb(255,255,0)" stroke-width="2" x1="319.84615384615387" x2="247.3846153846154" y1="247.375" y2="247.375" /><circle cx="319.84615384615387" cy="247.375" fill="rgb(0,255,0)" r="2" /><circle cx="247.3846153846154" cy="247.375" fill="rgb(0,255,0)" r="2" /><line fill="none" stroke="rgb(255,255,0)" stroke-width="1" x1="283.61538461538464" x2="283.61538461538464" y1="247.375" y2="242.375" /><text fill="black" font-family="sans-serif" font-size="12" x="275.61538461538464" y="251.375">158</text><line fill="none" stroke="rgb(255,255,0)" stroke-width="2" x1="319.84615384615387" x2="392.3076923076923" y1="319.83333333333326" y2="319.83333333333326" /><circle cx="319.84615384615387" cy="319.83333333333326" fill="rgb(0,255,0)" r="2" /><circle cx="392.3076923076923" cy="319.83333333333326" fill="rgb(0,255,0)" r="2" /><line fill="none" stroke="rgb(255,255,0)" stroke-width="1" x1="356.0769230769231" x2="356.0769230769231" y1="319.83333333333326" y2="324.83333333333326" /><text fill="black" font-family="sans-serif" font-size="12" x="348.0769230769231" y="323.83333333333326">159</text><line fill="none" stroke="rgb(255,255,0)" stroke-width="2" x1="392.3076923076923" x2="319.84615384615387" y1="247.375" y2="247.375" /><circle cx="392.3076923076923" cy="247.375" fill="rgb(0,255,0)" r="2" /><circle cx="319.84615384615387" cy="247.375" fill="rgb(0,255,0)" r="2" /><line fill="none" stroke="rgb(255,255,0)" stroke-width="1" x1="356.0769230769231" x2="356.0769230769231" y1="247.375" y2="242.375" /><text fill="black" font-family="sans-serif" font-size="12" x="348.0769230769231" y="251.375">160</text><line fill="none" stroke="rgb(255,255,0)" stroke-width="2" x1="392.3076923076923" x2="464.7692307692308" y1="319.83333333333326" y2="319.83333333333326" /><circle cx="392.3076923076923" cy="319.83333333333326" fill="rgb(0,255,0)" r="2" /><circle cx="464.7692307692308" cy="319.83333333333326" fill="rgb(0,255,0)" r="2" /><line fill="none" stroke="rgb(255,255,0)" stroke-width="1" x1="428.53846153846155" x2="428.53846153846155" y1="319.83333333333326" y2="324.83333333333326" /><text fill="black" font-family="sans-serif" font-size="12" x="420.53846153846155" y="323.83333333333326">161</text><line fill="none" stroke="rgb(255,255,0)" stroke-width="2" x1="464.7692307692308" x2="464.7692307692308" y1="319.83333333333326" y2="247.375" /><circle cx="464.7692307692308" cy="319.83333333333326" fill="rgb(0,255,0)" r="2" /><circle cx="464.7692307692308" cy="247.375" fill="rgb(0,255,0)" r="2" /><line fill="none" stroke="rgb(255,255,0)" stroke-width="1" x1="464.7692307692308" x2="469.7692307692308" y1="283.60416666666663" y2="283.60416666666663" /><text fill="black" font-family="sans-serif" font-size="12" x="456.7692307692308" y="287.60416666666663">162</text><line fill="none" stroke="rgb(255,255,0)" stroke-width="2" x1="464.7692307692308" x2="392.3076923076923" y1="247.375" y2="247.375" /><circle cx="464.7692307692308" cy="247.375" fill="rgb(0,255,0)" r="2" /><circle cx="392.3076923076923" cy="247.375" fill="rgb(0,255,0)" r="2" /><line fill="none" stroke="rgb(255,255,0)" stroke-width="1" x1="428.53846153846155" x2="428.53846153846155" y1="247.375" y2="242.375" /><text fill="black" font-family="sans-serif" font-size="12" x="420.53846153846155" y="251.375">163</text><line fill="none" stroke="rgb(250,56,35)" stroke-width="2" x1="682.1538461538462" x2="609.6923076923077" y1="1261.7916666666665" y2="1261.7916666666665" /><circle cx="682.1538461538462" cy="1261.7916666666665" fill="rgb(0,255,0)" r="2" /><circle cx="609.6923076923077" cy="1261.7916666666665" fill="rgb(0,255,0)" r="2" /><line fill="none" stroke="rgb(250,56,35)" stroke-width="1" x1="645.9230769230769" x2="645.9230769230769" y1="1261.7916666666665" y2="1256.7916666666665" /><text fill="black" font-family="sans-serif" font-size="12" x="637.9230769230769" y="1265.7916666666665">164</text><line fill="none" stroke="rgb(250,56,35)" stroke-width="2" x1="609.6923076923077" x2="609.6923076923077" y1="1261.7916666666665" y2="1298.0208333333335" /><circle cx="609.6923076923077" cy="1261.7916666666665" fill="rgb(0,255,0)" r="2" /><circle cx="609.6923076923077" cy="1298.0208333333335" fill="rgb(0,255,0)" r="2" /><line fill="none" stroke="rgb(250,56,35)" stroke-width="1" x1="609.6923076923077" x2="604.6923076923077" y1="1279.90625" y2="1279.90625" /><text fill="black" font-family="sans-serif" font-size="12" x="601.6923076923077" y="1283.90625">165</text><line fill="none" stroke="rgb(250,56,35)" stroke-width="2" x1="609.6923076923077" x2="682.1538461538462" y1="1298.0208333333335" y2="1298.0208333333335" /><circle cx="609.6923076923077" cy="1298.0208333333335" fill="rgb(0,255,0)" r="2" /><circle cx="682.1538461538462" cy="1298.0208333333335" fill="rgb(0,255,0)" r="2" /><line fill="none" stroke="rgb(250,56,35)" stroke-width="1" x1="645.9230769230769" x2="645.9230769230769" y1="1298.0208333333335" y2="1303.0208333333335" /><text fill="black" font-family="sans-serif" font-size="12" x="637.9230769230769" y="1302.0208333333335">166</text><line fill="none" stroke="rgb(250,56,35)" stroke-width="2" x1="682.1538461538462" x2="682.1538461538462" y1="1298.0208333333335" y2="1261.7916666666665" /><circle cx="682.1538461538462" cy="1298.0208333333335" fill="rgb(0,255,0)" r="2" /><circle cx="682.1538461538462" cy="1261.7916666666665" fill="rgb(0,255,0)" r="2" /><line fill="none" stroke="rgb(250,56,35)" stroke-width="1" x1="682.1538461538462" x2="687.1538461538462" y1="1279.90625" y2="1279.90625" /><text fill="black" font-family="sans-serif" font-size="12" x="674.1538461538462" y="1283.90625">167</text><line fill="none" stroke="rgb(255,255,0)" stroke-width="2" x1="537.2307692307693" x2="537.2307692307693" y1="682.125" y2="754.5833333333333" /><circle cx="537.2307692307693" cy="682.125" fill="rgb(0,255,0)" r="2" /><circle cx="537.2307692307693" cy="754.5833333333333" fill="rgb(0,255,0)" r="2" /><line fill="none" stroke="rgb(255,255,0)" stroke-width="1" x1="537.2307692307693" x2="532.2307692307693" y1="718.3541666666666" y2="718.3541666666666" /><text fill="black" font-family="sans-serif" font-size="12" x="529.2307692307693" y="722.3541666666666">168</text><line fill="none" stroke="rgb(255,255,0)" stroke-width="2" x1="537.2307692307693" x2="609.6923076923077" y1="754.5833333333333" y2="754.5833333333333" /><circle cx="537.2307692307693" cy="754.5833333333333" fill="rgb(0,255,0)" r="2" /><circle cx="609.6923076923077" cy="754.5833333333333" fill="rgb(0,255,0)" r="2" /><line fill="none" stroke="rgb(255,255,0)" stroke-width="1" x1="573.4615384615386" x2="573.4615384615386" y1="754.5833333333333" y2="759.5833333333333" /><text fill="black" font-family="sans-serif" font-size="12" x="565.4615384615386" y="758.5833333333333">169</text><line fill="none" stroke="rgb(255,255,0)" stroke-width="2" x1="392.3076923076923" x2="319.84615384615387" y1="61.09463755289721" y2="61.09463755289721" /><circle cx="392.3076923076923" cy="61.09463755289721" fill="rgb(0,255,0)" r="2" /><circle cx="319.84615384615387" cy="61.09463755289721" fill="rgb(0,255,0)" r="2" /><line fill="none" stroke="rgb(255,255,0)" stroke-width="1" x1="356.0769230769231" x2="356.0769230769231" y1="61.09463755289721" y2="56.09463755289721" /><text fill="black" font-family="sans-serif" font-size="12" x="348.0769230769231" y="65.09463755289721">170</text><line fill="none" stroke="rgb(255,255,0)" stroke-width="2" x1="319.84615384615387" x2="392.3076923076923" y1="71.36369578043627" y2="71.36369578043627" /><circle cx="319.84615384615387" cy="71.36369578043627" fill="rgb(0,255,0)" r="2" /><circle cx="392.3076923076923" cy="71.36369578043627" fill="rgb(0,255,0)" r="2" /><line fill="none" stroke="rgb(255,255,0)" stroke-width="1" x1="356.0769230769231" x2="356.0769230769231" y1="71.36369578043627" y2="76.36369578043627" /><text fill="black" font-family="sans-serif" font-size="12" x="348.0769230769231" y="75.36369578043627">171</text></svg>